<svg width="55" height="61" viewBox="0 0 55 61" fill="none" xmlns="http://www.w3.org/2000/svg">
<path d="M45.6404 60.2595H9.48041C4.63041 60.2595 0.69043 56.3195 0.69043 51.4695V15.3095C0.69043 10.4595 4.63041 6.51953 9.48041 6.51953H10.0704V8.52954H9.48041C5.74041 8.52954 2.70044 11.5695 2.70044 15.3095V51.4695C2.70044 55.2095 5.74041 58.2495 9.48041 58.2495H45.6404C49.3804 58.2495 52.4205 55.2095 52.4205 51.4695V15.3095C52.4205 11.5695 49.3804 8.52954 45.6404 8.52954H45.1004V6.51953H45.6404C50.4904 6.51953 54.4305 10.4595 54.4305 15.3095V51.4695C54.4305 56.3195 50.4904 60.2595 45.6404 60.2595Z" fill="#231815"/>
<path d="M45.6402 60.5093H9.49017C4.51017 60.5093 0.450195 56.4592 0.450195 51.4692V15.3193C0.450195 10.3393 4.50017 6.2793 9.49017 6.2793H10.3202V8.7793H9.49017C5.89017 8.7793 2.96021 11.7093 2.96021 15.3093V51.4593C2.96021 55.0593 5.89017 57.9893 9.49017 57.9893H45.6402C49.2402 57.9893 52.1702 55.0593 52.1702 51.4593V15.3093C52.1702 11.7093 49.2402 8.7793 45.6402 8.7793H44.8502V6.2793H45.6402C50.6202 6.2793 54.6802 10.3293 54.6802 15.3193V51.4692C54.6802 56.4492 50.6302 60.5093 45.6402 60.5093ZM9.49017 6.7793C4.78017 6.7793 0.950195 10.6093 0.950195 15.3193V51.4692C0.950195 56.1792 4.78017 60.0093 9.49017 60.0093H45.6402C50.3502 60.0093 54.1802 56.1792 54.1802 51.4692V15.3193C54.1802 10.6093 50.3502 6.7793 45.6402 6.7793H45.3402V8.28925H45.6402C49.5102 8.28925 52.6702 11.4393 52.6702 15.3193V51.4692C52.6702 55.3392 49.5202 58.4993 45.6402 58.4993H9.49017C5.62017 58.4993 2.46021 55.3492 2.46021 51.4692V15.3193C2.46021 11.4493 5.61017 8.28925 9.49017 8.28925H9.8302V6.7793H9.49017Z" fill="#231815"/>
<path d="M40.2902 6.5293H14.9302V8.53925H40.2902V6.5293Z" fill="#231815"/>
<path d="M40.5302 8.78906H14.6802V6.28906H40.5302V8.78906ZM15.1702 8.28906H40.0302V6.77911H15.1702V8.28906Z" fill="#231815"/>
<path d="M34.4401 55.0698H11.1701C8.2601 55.0698 5.89014 52.6997 5.89014 49.7897V21.0397C5.89014 18.1297 8.2601 15.7598 11.1701 15.7598H43.9601C46.8701 15.7598 49.2401 18.1297 49.2401 21.0397V40.2698C49.2401 48.4298 42.6001 55.0698 34.4401 55.0698ZM11.1701 16.7598C8.81011 16.7598 6.89014 18.6797 6.89014 21.0397V49.7897C6.89014 52.1497 8.81011 54.0698 11.1701 54.0698H34.4401C42.0501 54.0698 48.2401 47.8798 48.2401 40.2698V21.0397C48.2401 18.6797 46.3201 16.7598 43.9601 16.7598H11.1701Z" fill="#231815"/>
<path d="M34.4401 55.3198H11.1701C8.12011 55.3198 5.64014 52.8397 5.64014 49.7897V21.0397C5.64014 17.9897 8.12011 15.5098 11.1701 15.5098H43.9601C47.0101 15.5098 49.4901 17.9897 49.4901 21.0397V40.2698C49.4901 48.5698 42.7401 55.3198 34.4401 55.3198ZM11.1701 16.0098C8.39011 16.0098 6.13013 18.2697 6.13013 21.0497V49.7997C6.13013 52.5797 8.39011 54.8398 11.1701 54.8398H34.4401C42.4601 54.8398 48.9901 48.3097 48.9901 40.2897V21.0598C48.9901 18.2798 46.7301 16.0198 43.9501 16.0198H11.1601L11.1701 16.0098ZM34.4401 54.3198H11.1701C8.6701 54.3198 6.64014 52.2897 6.64014 49.7897V21.0397C6.64014 18.5397 8.6701 16.5098 11.1701 16.5098H43.9601C46.4601 16.5098 48.4901 18.5397 48.4901 21.0397V40.2698C48.4901 48.0198 42.1901 54.3198 34.4401 54.3198ZM11.1701 17.0198C8.9501 17.0198 7.14014 18.8297 7.14014 21.0497V49.7997C7.14014 52.0197 8.9501 53.8298 11.1701 53.8298H34.4401C41.9101 53.8298 47.9901 47.7498 47.9901 40.2798V21.0497C47.9901 18.8297 46.1801 17.0198 43.9601 17.0198H11.1701Z" fill="#231815"/>
<path d="M12.4202 13.48C10.7602 13.48 9.41016 12.27 9.41016 10.77V3.46002C9.41016 1.97002 10.7602 0.75 12.4202 0.75C14.0802 0.75 15.4302 1.96002 15.4302 3.46002V10.77C15.4302 12.26 14.0802 13.48 12.4202 13.48ZM12.4202 2.52002C11.7402 2.52002 11.1602 2.94997 11.1602 3.46997V10.78C11.1602 11.29 11.7302 11.73 12.4202 11.73C13.1102 11.73 13.6802 11.3 13.6802 10.78V3.46997C13.6802 2.95997 13.1102 2.52002 12.4202 2.52002Z" fill="#231815"/>
<path d="M12.4202 13.7295C10.6202 13.7295 9.16016 12.4095 9.16016 10.7795V3.46948C9.16016 1.83948 10.6202 0.519531 12.4202 0.519531C14.2202 0.519531 15.6802 1.83948 15.6802 3.46948V10.7795C15.6802 12.4095 14.2202 13.7295 12.4202 13.7295ZM12.4202 1.00952C10.9002 1.00952 9.65021 2.10948 9.65021 3.46948V10.7795C9.65021 12.1395 10.8902 13.2395 12.4202 13.2395C13.9502 13.2395 15.1902 12.1395 15.1902 10.7795V3.46948C15.1902 2.11948 13.9502 1.00952 12.4202 1.00952ZM12.4202 11.9695C11.5902 11.9695 10.9202 11.4295 10.9202 10.7695V3.45953C10.9202 2.79953 11.5902 2.25952 12.4202 2.25952C13.2502 2.25952 13.9202 2.79953 13.9202 3.45953V10.7695C13.9202 11.4295 13.2502 11.9695 12.4202 11.9695ZM12.4202 2.76953C11.8802 2.76953 11.4102 3.09948 11.4102 3.46948V10.7795C11.4102 11.1495 11.8802 11.4795 12.4202 11.4795C12.9602 11.4795 13.4302 11.1495 13.4302 10.7795V3.46948C13.4302 3.09948 12.9602 2.76953 12.4202 2.76953Z" fill="#231815"/>
<path d="M42.7102 13.48C41.0502 13.48 39.7002 12.27 39.7002 10.77V3.46002C39.7002 1.97002 41.0502 0.75 42.7102 0.75C44.3702 0.75 45.7202 1.96002 45.7202 3.46002V10.77C45.7202 12.26 44.3702 13.48 42.7102 13.48ZM42.7102 2.52002C42.0302 2.52002 41.4502 2.94997 41.4502 3.46997V10.78C41.4502 11.29 42.0202 11.73 42.7102 11.73C43.4002 11.73 43.9702 11.3 43.9702 10.78V3.46997C43.9702 2.95997 43.4002 2.52002 42.7102 2.52002Z" fill="#231815"/>
<path d="M42.7102 13.7295C40.9102 13.7295 39.4502 12.4095 39.4502 10.7795V3.46948C39.4502 1.83948 40.9102 0.519531 42.7102 0.519531C44.5102 0.519531 45.9702 1.83948 45.9702 3.46948V10.7795C45.9702 12.4095 44.5102 13.7295 42.7102 13.7295ZM42.7102 1.00952C41.1902 1.00952 39.9402 2.10948 39.9402 3.46948V10.7795C39.9402 12.1395 41.1802 13.2395 42.7102 13.2395C44.2402 13.2395 45.4702 12.1395 45.4702 10.7795V3.46948C45.4702 2.11948 44.2302 1.00952 42.7102 1.00952ZM42.7102 11.9695C41.8802 11.9695 41.2102 11.4295 41.2102 10.7695V3.45953C41.2102 2.79953 41.8902 2.25952 42.7102 2.25952C43.5302 2.25952 44.2102 2.79953 44.2102 3.45953V10.7695C44.2102 11.4295 43.5402 11.9695 42.7102 11.9695ZM42.7102 2.76953C42.1702 2.76953 41.7002 3.09948 41.7002 3.46948V10.7795C41.7002 11.1495 42.1702 11.4795 42.7102 11.4795C43.2502 11.4795 43.7202 11.1495 43.7202 10.7795V3.46948C43.7202 3.09948 43.2502 2.76953 42.7102 2.76953Z" fill="#231815"/>
<path d="M29.1102 35.4202C30.0602 36.4202 30.5302 37.6802 30.5302 39.1902C30.5302 40.3202 30.2402 41.3602 29.6602 42.2902C29.0802 43.2202 28.2102 43.9603 27.0502 44.5103C25.8902 45.0603 24.4702 45.3303 22.7902 45.3303C21.3902 45.3303 20.0502 45.1302 18.7602 44.7302C17.4702 44.3302 16.3602 43.7803 15.4502 43.0703L17.0102 40.2502C17.7202 40.8502 18.5802 41.3202 19.5902 41.6602C20.6002 42.0002 21.6502 42.1802 22.7302 42.1802C24.0102 42.1802 25.0202 41.9102 25.7602 41.3802C26.4902 40.8502 26.8602 40.1302 26.8602 39.2202C26.8602 38.3102 26.5102 37.6003 25.8102 37.0903C25.1102 36.5803 24.0502 36.3203 22.6102 36.3203H20.8202V33.8403L25.2602 28.5703H16.3902V25.5303H29.7002V27.9603L24.9602 33.6002C26.7602 33.8202 28.1402 34.4402 29.0902 35.4402L29.1102 35.4202Z" fill="#231815"/>
<path d="M22.8101 45.57C21.4001 45.57 20.0101 45.36 18.7001 44.96C17.3801 44.55 16.2401 43.98 15.3101 43.26L15.1401 43.13L16.9501 39.86L17.1801 40.05C17.8601 40.62 18.7001 41.08 19.6801 41.42C20.6601 41.75 21.6901 41.92 22.7401 41.92C23.9701 41.92 24.9301 41.67 25.6201 41.17C26.2901 40.68 26.6201 40.04 26.6201 39.21C26.6201 38.38 26.3101 37.74 25.6701 37.27C25.0201 36.79 23.9901 36.55 22.6201 36.55H20.5901V33.73L24.7401 28.79H16.1501V25.25H29.9601V28.02L29.9001 28.09L25.4401 33.39C27.0801 33.66 28.3701 34.29 29.2701 35.24C30.2601 36.29 30.7601 37.61 30.7601 39.18C30.7601 40.36 30.4601 41.44 29.8601 42.41C29.2601 43.38 28.3501 44.16 27.1501 44.72C25.9601 45.28 24.4901 45.57 22.7901 45.57H22.8101ZM15.7901 42.99C16.6401 43.61 17.6701 44.12 18.8501 44.48C20.1101 44.87 21.4401 45.07 22.8101 45.07C24.4401 45.07 25.8401 44.8 26.9601 44.27C28.0701 43.74 28.9201 43.03 29.4601 42.15C30.0101 41.26 30.2901 40.27 30.2901 39.18C30.2901 37.75 29.8301 36.54 28.9401 35.58C28.0401 34.62 26.7001 34.03 24.9601 33.81L24.5101 33.75L29.4901 27.83V25.74H16.6701V28.29H25.8301L21.1101 33.9V36.05H22.6501C24.1301 36.05 25.2501 36.32 25.9901 36.87C26.7501 37.43 27.1401 38.22 27.1401 39.2C27.1401 40.18 26.7301 40.99 25.9401 41.56C25.1701 42.12 24.1001 42.4 22.7701 42.4C21.6701 42.4 20.5901 42.22 19.5501 41.87C18.6201 41.55 17.8001 41.13 17.1201 40.6L15.8001 42.97L15.7901 42.99Z" fill="#231815"/>
<path d="M39.6603 25.5098V45.0397H36.0304V28.5497H31.9004V25.5098H39.6603Z" fill="#231815"/>
<path d="M39.9102 45.2897H35.7902V28.7997H31.6602V25.2598H39.9102V45.2897ZM36.2802 44.7897H39.4102V25.7498H32.1502V28.2997H36.2802V44.7897Z" fill="#231815"/>
</svg>
