<svg width="45" height="61" viewBox="0 0 45 61" fill="none" xmlns="http://www.w3.org/2000/svg">
<path d="M8.11014 60.9697H41.3001C43.1101 60.9697 44.5802 59.4998 44.5802 57.6898V4.24976C44.5802 2.43976 43.1101 0.969727 41.3001 0.969727H14.2502C13.3702 0.969727 12.5501 1.30975 11.9301 1.92975L1.12015 12.7397C0.500148 13.3597 0.160156 14.1798 0.160156 15.0598V57.6898C0.160156 59.4998 1.63016 60.9697 3.44016 60.9697H8.11014ZM3.44016 58.2798C3.11016 58.2798 2.85016 58.0198 2.85016 57.6898V15.6097H11.5102C13.3202 15.6097 14.7902 14.1398 14.7902 12.3298V3.66974H41.3001C41.6301 3.66974 41.8902 3.92977 41.8902 4.25977V57.6998C41.8902 58.0298 41.6301 58.2897 41.3001 58.2897H3.44016V58.2798ZM12.1101 5.55975V12.3198C12.1101 12.6498 11.8501 12.9097 11.5201 12.9097H4.76016L12.1101 5.55975Z" fill="#231815"/>
<path d="M28.0701 45.0702C28.0701 45.0702 28.0601 45.0702 28.0501 45.0702C27.5001 45.0702 27.0301 44.6902 26.8801 44.1602L22.6401 28.6002L17.8301 44.2002C17.6701 44.7202 17.1901 45.0702 16.6501 45.0702C16.6501 45.0702 16.6401 45.0702 16.6301 45.0702C16.0801 45.0702 15.6101 44.6902 15.4601 44.1602L10.1001 24.5102C9.92009 23.8502 10.3101 23.1802 10.9601 23.0002C11.6101 22.8202 12.2901 23.2102 12.4701 23.8602L16.7101 39.4202L21.5201 23.8202C21.6801 23.3002 22.1601 22.9502 22.7001 22.9502C22.7001 22.9502 22.7101 22.9502 22.7201 22.9502C23.2701 22.9502 23.7401 23.3302 23.8901 23.8602L28.1301 39.4202L32.9401 23.8202C33.1401 23.1702 33.8301 22.8002 34.4801 23.0102C35.1301 23.2102 35.5001 23.9002 35.2901 24.5502L29.2301 44.2002C29.0701 44.7202 28.5901 45.0702 28.0501 45.0702H28.0701Z" fill="#231815"/>
<path d="M35.9203 35.2402H8.80029C8.12029 35.2402 7.57031 34.6903 7.57031 34.0103C7.57031 33.3303 8.12029 32.7803 8.80029 32.7803H35.9203C36.6003 32.7803 37.1503 33.3303 37.1503 34.0103C37.1503 34.6903 36.6003 35.2402 35.9203 35.2402Z" fill="#231815"/>
</svg>
