<svg width="45" height="61" viewBox="0 0 45 61" fill="none" xmlns="http://www.w3.org/2000/svg">
<path d="M8.30988 60.9697H41.4999C43.3099 60.9697 44.7799 59.4998 44.7799 57.6898V4.24976C44.7799 2.43976 43.3099 0.969727 41.4999 0.969727H14.4499C13.5699 0.969727 12.7499 1.30975 12.1299 1.92975L1.31989 12.7397C0.699885 13.3597 0.359863 14.1798 0.359863 15.0598V57.6898C0.359863 59.4998 1.82989 60.9697 3.63989 60.9697H8.30988ZM3.63989 58.2798C3.30989 58.2798 3.04987 58.0198 3.04987 57.6898V15.6097H11.7099C13.5199 15.6097 14.9899 14.1398 14.9899 12.3298V3.66974H41.4999C41.8299 3.66974 42.0898 3.92977 42.0898 4.25977V57.6998C42.0898 58.0298 41.8299 58.2897 41.4999 58.2897H3.63989V58.2798ZM12.3099 5.55975V12.3198C12.3099 12.6498 12.0498 12.9097 11.7198 12.9097H4.9599L12.3099 5.55975Z" fill="#231815"/>
<path d="M28.2801 45.0702C28.2801 45.0702 28.2701 45.0702 28.2601 45.0702C27.7101 45.0702 27.2401 44.6902 27.0901 44.1602L22.85 28.6002L18.04 44.2002C17.88 44.7202 17.4 45.0702 16.86 45.0702C16.86 45.0702 16.8501 45.0702 16.8401 45.0702C16.2901 45.0702 15.82 44.6902 15.67 44.1602L10.3101 24.5102C10.1301 23.8502 10.52 23.1802 11.17 23.0002C11.82 22.8202 12.5 23.2102 12.68 23.8602L16.92 39.4202L21.73 23.8202C21.89 23.3002 22.37 22.9502 22.91 22.9502C22.91 22.9502 22.92 22.9502 22.93 22.9502C23.48 22.9502 23.95 23.3302 24.1 23.8602L28.3401 39.4202L33.1501 23.8202C33.3501 23.1702 34.0401 22.8002 34.6901 23.0102C35.3401 23.2102 35.7101 23.9002 35.5001 24.5502L29.4401 44.2002C29.2801 44.7202 28.8001 45.0702 28.2601 45.0702H28.2801Z" fill="#231815"/>
<path d="M36.12 35.2402H9C8.32 35.2402 7.77002 34.6903 7.77002 34.0103C7.77002 33.3303 8.32 32.7803 9 32.7803H36.12C36.8 32.7803 37.35 33.3303 37.35 34.0103C37.35 34.6903 36.8 35.2402 36.12 35.2402Z" fill="#231815"/>
</svg>
