<svg width="74" height="41" viewBox="0 0 74 41" fill="none" xmlns="http://www.w3.org/2000/svg">
<path d="M71.4801 25.8002H40.9901V20.5102C40.9901 15.2102 38.9101 10.2202 35.1401 6.47015C31.4001 2.75015 26.4401 0.700195 21.1801 0.700195C21.1401 0.700195 21.1101 0.700195 21.0701 0.700195C10.2101 0.760195 1.37012 9.69017 1.37012 20.6102C1.37012 31.5302 10.2101 40.3202 21.0801 40.3202H38.2101C38.2101 40.3202 38.2101 40.3202 38.2201 40.3202H39.8901H72.5501V25.8102H71.4801V25.8002ZM39.9201 37.5302C39.9201 38.4702 39.1501 39.2402 38.2101 39.2402H21.0801C10.8101 39.2402 2.45013 30.8802 2.45013 20.6102C2.45013 10.3402 10.8101 1.8302 21.0801 1.7702C21.1201 1.7702 21.1501 1.7702 21.1901 1.7702C26.1701 1.7702 30.8601 3.71016 34.3901 7.23016C37.9601 10.7802 39.9201 15.4902 39.9201 20.5102V37.5302ZM71.4801 39.2402H40.4001C40.7701 38.7702 40.9901 38.1702 40.9901 37.5302V26.8702H43.7301V31.5202C43.7301 31.8402 43.9901 32.1002 44.3101 32.1002C44.6301 32.1002 44.8901 31.8402 44.8901 31.5202V26.8702H47.5701V28.8002C47.5701 29.1202 47.8301 29.3802 48.1501 29.3802C48.4701 29.3802 48.7301 29.1202 48.7301 28.8002V26.8702H51.4101V31.5202C51.4101 31.8402 51.6701 32.1002 51.9901 32.1002C52.3101 32.1002 52.5701 31.8402 52.5701 31.5202V26.8702H55.2501V28.8002C55.2501 29.1202 55.5101 29.3802 55.8301 29.3802C56.1501 29.3802 56.4101 29.1202 56.4101 28.8002V26.8702H59.0901V31.5202C59.0901 31.8402 59.3501 32.1002 59.6701 32.1002C59.9901 32.1002 60.2501 31.8402 60.2501 31.5202V26.8702H62.9301V28.8002C62.9301 29.1202 63.1901 29.3802 63.5101 29.3802C63.8301 29.3802 64.0901 29.1202 64.0901 28.8002V26.8702H66.7701V31.5202C66.7701 31.8402 67.0301 32.1002 67.3501 32.1002C67.6701 32.1002 67.9301 31.8402 67.9301 31.5202V26.8702H71.4701V39.2402H71.4801Z" fill="#231815"/>
<path d="M73.2502 41.0098H21.0802C9.8302 41.0098 0.680176 31.8597 0.680176 20.6097C0.680176 9.35974 9.83018 0.0697656 21.0602 0.00976562H21.1802C26.6302 0.00976562 31.7602 2.12974 35.6302 5.97974C39.5302 9.85974 41.6802 15.0198 41.6802 20.5098V25.1097H73.2402V41.0098H73.2502ZM41.5402 38.5497H70.8002V27.5698H68.6402V31.5298C68.6402 32.2298 68.0702 32.7997 67.3702 32.7997C66.6702 32.7997 66.1002 32.2298 66.1002 31.5298V27.5698H64.8102V28.8098C64.8102 29.5098 64.2402 30.0798 63.5402 30.0798C62.8402 30.0798 62.2702 29.5098 62.2702 28.8098V27.5698H60.9802V31.5298C60.9802 32.2298 60.4102 32.7997 59.7102 32.7997C59.0102 32.7997 58.4402 32.2298 58.4402 31.5298V27.5698H57.1502V28.8098C57.1502 29.5098 56.5802 30.0798 55.8802 30.0798C55.1802 30.0798 54.6102 29.5098 54.6102 28.8098V27.5698H53.3202V31.5298C53.3202 32.2298 52.7502 32.7997 52.0502 32.7997C51.3502 32.7997 50.7802 32.2298 50.7802 31.5298V27.5698H49.4902V28.8098C49.4902 29.5098 48.9202 30.0798 48.2202 30.0798C47.5202 30.0798 46.9502 29.5098 46.9502 28.8098V27.5698H45.6602V31.5298C45.6602 32.2298 45.0902 32.7997 44.3902 32.7997C43.6902 32.7997 43.1202 32.2298 43.1202 31.5298V27.5698H41.7702V37.5397C41.7702 37.8897 41.7202 38.2298 41.6202 38.5598L41.5402 38.5497ZM21.1902 2.46973H21.0902C11.2002 2.51973 3.15021 10.6597 3.15021 20.6097C3.15021 30.5597 11.2002 38.5497 21.0902 38.5497H38.2202C38.7802 38.5497 39.2402 38.0898 39.2402 37.5298V20.4998C39.2402 15.6698 37.3502 11.1298 33.9202 7.70978C30.5102 4.31978 26.0002 2.45978 21.2102 2.45978L21.1902 2.46973Z" fill="#231815"/>
<path d="M28.9702 12.7192C27.9602 11.7092 26.7802 10.9093 25.4702 10.3593C24.1102 9.78925 22.6702 9.48926 21.1802 9.48926C19.6902 9.48926 18.2502 9.77925 16.8902 10.3593C15.5802 10.9093 14.4002 11.7092 13.3902 12.7192C12.3802 13.7292 11.5802 14.9092 11.0302 16.2192C10.4602 17.5792 10.1602 19.0193 10.1602 20.5093C10.1602 21.9993 10.4502 23.4393 11.0302 24.7993C11.5802 26.1093 12.3802 27.2893 13.3902 28.2993C14.4002 29.3093 15.5802 30.1092 16.8902 30.6592C18.2502 31.2292 19.6902 31.5293 21.1802 31.5293C22.6702 31.5293 24.1102 31.2392 25.4702 30.6592C26.7802 30.0992 27.9602 29.3093 28.9702 28.2993C29.9802 27.2893 30.7802 26.1093 31.3302 24.7993C31.9002 23.4393 32.2002 21.9993 32.2002 20.5093C32.2002 19.0193 31.9102 17.5792 31.3302 16.2192C30.7802 14.9092 29.9802 13.7292 28.9702 12.7192ZM30.3402 24.3793C29.8402 25.5593 29.1202 26.6292 28.2102 27.5392C27.3002 28.4492 26.2302 29.1693 25.0502 29.6693C23.8202 30.1893 22.5202 30.4493 21.1802 30.4493C19.8402 30.4493 18.5402 30.1893 17.3102 29.6693C16.1302 29.1693 15.0602 28.4492 14.1502 27.5392C13.2402 26.6292 12.5202 25.5593 12.0202 24.3793C11.5002 23.1493 11.2402 21.8493 11.2402 20.5093C11.2402 19.1693 11.5002 17.8693 12.0202 16.6393C12.5202 15.4593 13.2402 14.3892 14.1502 13.4792C15.0602 12.5692 16.1302 11.8492 17.3102 11.3492C18.5402 10.8292 19.8402 10.5693 21.1802 10.5693C22.5202 10.5693 23.8202 10.8292 25.0502 11.3492C26.2302 11.8492 27.3002 12.5692 28.2102 13.4792C29.1202 14.3892 29.8402 15.4593 30.3402 16.6393C30.8602 17.8693 31.1202 19.1693 31.1202 20.5093C31.1202 21.8493 30.8602 23.1493 30.3402 24.3793Z" fill="#231815"/>
<path d="M21.1802 32.2197C19.6002 32.2197 18.0702 31.9097 16.6202 31.2997C15.2202 30.7097 13.9703 29.8697 12.9003 28.7897C11.8303 27.7197 10.9803 26.4597 10.3903 25.0697C9.78026 23.6197 9.47021 22.0897 9.47021 20.5097C9.47021 18.9297 9.78026 17.3997 10.3903 15.9497C10.9803 14.5497 11.8203 13.2997 12.9003 12.2297C13.9803 11.1597 15.2302 10.3097 16.6202 9.71969C19.5102 8.49969 22.8502 8.49969 25.7402 9.71969C27.1302 10.3097 28.3903 11.1497 29.4603 12.2297C30.5303 13.2997 31.3802 14.5597 31.9702 15.9497C32.5802 17.3897 32.8903 18.9297 32.8903 20.5097C32.8903 22.0897 32.5802 23.6197 31.9702 25.0697C31.3802 26.4597 30.5403 27.7197 29.4603 28.7897C28.3803 29.8597 27.1302 30.7097 25.7402 31.2997C24.2902 31.9097 22.7602 32.2197 21.1802 32.2197ZM21.1802 11.2597C19.9302 11.2597 18.7203 11.4997 17.5803 11.9897C16.4803 12.4597 15.4903 13.1197 14.6403 13.9697C13.7903 14.8197 13.1202 15.8097 12.6602 16.9097C12.1802 18.0497 11.9302 19.2597 11.9302 20.5097C11.9302 21.7597 12.1702 22.9697 12.6602 24.1097C13.1302 25.2097 13.7903 26.1997 14.6403 27.0497C15.4903 27.8997 16.4803 28.5697 17.5803 29.0297C19.8603 29.9897 22.5003 29.9897 24.7803 29.0297C25.8803 28.5597 26.8702 27.8997 27.7202 27.0497C28.5702 26.1997 29.2403 25.2097 29.7003 24.1097C30.1803 22.9697 30.4302 21.7597 30.4302 20.5097C30.4302 19.2597 30.1903 18.0497 29.7003 16.9097C29.2303 15.8097 28.5702 14.8197 27.7202 13.9697C26.8702 13.1197 25.8803 12.4497 24.7803 11.9897C23.6403 11.5097 22.4302 11.2597 21.1802 11.2597Z" fill="#231815"/>
</svg>
