<svg width="76" height="61" viewBox="0 0 76 61" fill="none" xmlns="http://www.w3.org/2000/svg">
<path fill-rule="evenodd" clip-rule="evenodd" d="M64.1299 0.970154H35.1599C34.4099 0.970154 33.8099 1.58019 33.8099 2.32019V2.54016H32.8799C30.4699 2.54016 28.29 3.52017 26.7 5.11017C26.09 5.72017 25.61 6.4402 25.2 7.2002H20.6799C18.8899 7.2002 17.26 7.93017 16.08 9.11017C15.22 9.98017 14.7099 11.1302 14.4399 12.3602H2.03992C1.29992 12.3602 0.689941 12.9602 0.689941 13.7102C0.689941 14.4602 1.28992 15.0602 2.03992 15.0602H14.4399C14.7099 16.3002 15.21 17.4502 16.08 18.3202C16.11 18.3502 16.1299 18.3702 16.1599 18.4002C17.3399 19.5402 18.9299 20.2402 20.6799 20.2402H25.2C25.61 21.0002 26.09 21.7202 26.7 22.3302C28.29 23.9202 30.4699 24.9002 32.8799 24.9002H33.8099V25.1202C33.8099 25.8702 34.4199 26.4702 35.1599 26.4702H52.7399V44.5502C50.7499 45.0402 48.9499 46.0502 47.5399 47.4602C45.5299 49.4702 44.28 52.2502 44.28 55.3102V59.6102C44.28 60.3602 44.8899 60.9602 45.6299 60.9602H66.5699C67.3199 60.9602 67.9199 60.3502 67.9199 59.6102V48.8102C67.9199 47.5902 67.44 46.4702 66.65 45.6402C66.63 45.6102 66.5999 45.5802 66.5699 45.5502C66.2599 45.2402 65.8699 45.0302 65.4799 44.8102V26.3302C67.9899 26.0202 70.2699 24.9102 71.9699 23.2002C73.9799 21.1902 75.2299 18.4102 75.2299 15.3502V12.0602C75.2299 9.00018 73.9799 6.22021 71.9699 4.21021C69.9599 2.20021 67.1799 0.950195 64.1199 0.950195L64.1299 0.970154ZM24.2399 17.5302H20.6799C19.6599 17.5302 18.7299 17.1302 18.0499 16.4702C18.0299 16.4502 18.0099 16.4302 17.9899 16.4102C17.2999 15.7202 16.8699 14.7702 16.8699 13.7202C16.8699 12.6702 17.2999 11.7202 17.9799 11.0302C18.6699 10.3402 19.6199 9.91016 20.6699 9.91016H24.2299C24.1599 10.3702 24.1199 10.8302 24.1199 11.2902V16.1502C24.1199 16.6102 24.1599 17.0702 24.2299 17.5302H24.2399ZM32.8799 22.1902C31.2199 22.1902 29.7099 21.5102 28.6199 20.4202C27.5299 19.3302 26.84 17.8102 26.84 16.1602V11.3002C26.84 9.64017 27.5199 8.13016 28.6199 7.04016C29.7099 5.94016 31.2199 5.26019 32.8799 5.26019H33.8099V22.2002H32.8799V22.1902ZM62.78 44.2002H55.45V26.4702H62.78V44.2002ZM49.46 49.3802C50.98 47.8602 53.08 46.9102 55.39 46.9102H63.3199C63.8399 46.9102 64.3199 47.1202 64.6599 47.4702L64.7199 47.5202C65.0299 47.8602 65.2199 48.3102 65.2199 48.8102V53.9602H47.1299C47.4199 52.1902 48.24 50.6002 49.46 49.3802ZM46.9899 58.2602V56.6702H65.2199V58.2602H46.9899ZM72.5399 15.3702C72.5399 17.6802 71.5899 19.7802 70.0699 21.3002C68.5499 22.8202 66.45 23.7702 64.14 23.7702H36.53V3.68018H64.14C66.45 3.68018 68.5499 4.63021 70.0699 6.15021C71.5899 7.67021 72.5399 9.7702 72.5399 12.0802V15.3702Z" fill="#231815"/>
<path fill-rule="evenodd" clip-rule="evenodd" d="M63.9198 8.58008H50.4398C49.6998 8.58008 49.0898 9.18005 49.0898 9.93005C49.0898 10.6801 49.6898 11.2801 50.4398 11.2801H63.9198C64.6598 11.2801 65.2698 10.6801 65.2698 9.93005C65.2698 9.18005 64.6698 8.58008 63.9198 8.58008Z" fill="#231815"/>
<path fill-rule="evenodd" clip-rule="evenodd" d="M63.9198 16.1797H50.4398C49.6998 16.1797 49.0898 16.7797 49.0898 17.5297C49.0898 18.2797 49.6898 18.8797 50.4398 18.8797H63.9198C64.6598 18.8797 65.2698 18.2797 65.2698 17.5297C65.2698 16.7797 64.6698 16.1797 63.9198 16.1797Z" fill="#231815"/>
</svg>
