<svg width="78" height="61" viewBox="0 0 78 61" fill="none" xmlns="http://www.w3.org/2000/svg">
<path d="M42.3101 41.4596H42.2901C41.6701 41.4496 41.1301 41.0296 40.9601 40.4296L34.9301 18.3196C34.7301 17.5696 35.1701 16.7995 35.9101 16.5995C36.6501 16.3995 37.4201 16.8396 37.6301 17.5796L42.3901 35.0396L47.7901 17.5296C47.9701 16.9296 48.5201 16.5195 49.1501 16.5395C49.7701 16.5495 50.3101 16.9696 50.4801 17.5696L55.2401 35.0296L60.6401 17.5196C60.8701 16.7796 61.6501 16.3696 62.3901 16.5896C63.1301 16.8196 63.5401 17.5996 63.3101 18.3396L56.4901 40.4496C56.3101 41.0496 55.7301 41.4196 55.1301 41.4396C54.5101 41.4296 53.9701 41.0095 53.8001 40.4095L49.0401 22.9496L43.6401 40.4596C43.4601 41.0496 42.9201 41.4496 42.3001 41.4496L42.3101 41.4596Z" fill="#231815"/>
<path d="M63.9901 30.3997H33.4801C32.7101 30.3997 32.0801 29.7696 32.0801 28.9996C32.0801 28.2296 32.7101 27.5996 33.4801 27.5996H63.9901C64.7601 27.5996 65.3901 28.2296 65.3901 28.9996C65.3901 29.7696 64.7601 30.3997 63.9901 30.3997Z" fill="#231815"/>
<path d="M77.2199 28.9998C77.2199 13.2898 64.4399 0.509766 48.7299 0.509766C39.0099 0.509766 30.4199 5.40974 25.2799 12.8597C5.86985 11.6197 -6.38015 33.0998 4.19985 49.1198L2.98986 58.8298C2.85986 59.8898 3.85985 60.7498 4.89985 60.4498L14.3199 57.6597C21.8399 60.9997 30.6099 60.2197 37.5299 55.1797C44.5699 58.2097 52.7998 58.3797 60.3598 54.9897L72.0699 58.4498C73.1099 58.7498 74.1099 57.8998 73.9799 56.8298L72.4699 44.7598C75.5999 40.0698 77.2499 34.6297 77.2499 28.9897L77.2199 28.9998ZM15.0599 54.7197C14.7299 54.5597 14.3499 54.5298 13.9999 54.6398L6.22985 56.9398L7.22985 48.9398C7.27985 48.5698 7.17985 48.2098 6.96985 47.8998C-2.39014 34.4598 7.15986 15.9897 23.5099 15.7897C16.4299 29.2397 21.1599 45.8998 34.4799 53.6398C28.6299 57.2698 21.3999 57.7197 15.0599 54.7297V54.7197ZM70.7098 54.9398L60.6599 51.9598C60.3099 51.8598 59.9299 51.8897 59.5999 52.0397C56.1499 53.6697 52.4998 54.4998 48.7398 54.4998C34.6798 54.4998 23.2398 43.0598 23.2398 28.9998C23.2398 14.9398 34.6798 3.49976 48.7398 3.49976C62.7998 3.49976 74.2398 14.9398 74.2398 28.9998C74.2398 34.2198 72.6599 39.2497 69.6699 43.5397C69.4599 43.8397 69.3699 44.2098 69.4099 44.5798L70.7098 54.9398Z" fill="#231815"/>
</svg>
