<svg width="61" height="61" viewBox="0 0 61 61" fill="none" xmlns="http://www.w3.org/2000/svg">
<path d="M59.5098 10.9697C60.1998 10.9697 60.7598 10.4097 60.7598 9.71973V2.21973C60.7598 1.52973 60.1998 0.969727 59.5098 0.969727H52.0098C51.3198 0.969727 50.7598 1.52973 50.7598 2.21973V4.08978H34.9498C34.4098 2.27978 32.7398 0.969727 30.7598 0.969727C28.7798 0.969727 27.1098 2.28978 26.5698 4.08978H10.7598V2.21973C10.7598 1.52973 10.1998 0.969727 9.50977 0.969727H2.00977C1.31977 0.969727 0.759766 1.52973 0.759766 2.21973V9.71973C0.759766 10.4097 1.31977 10.9697 2.00977 10.9697H3.87978V26.7798C2.06978 27.3198 0.759766 28.9897 0.759766 30.9697C0.759766 32.9497 2.07978 34.6197 3.87978 35.1597V50.9697H2.00977C1.31977 50.9697 0.759766 51.5297 0.759766 52.2197V59.7197C0.759766 60.4097 1.31977 60.9697 2.00977 60.9697H9.50977C10.1998 60.9697 10.7598 60.4097 10.7598 59.7197V56.5898H26.5698C27.1098 58.3998 28.7798 59.7197 30.7598 59.7197C32.7398 59.7197 34.4098 58.3998 34.9498 56.5898H50.7598V59.7197C50.7598 60.4097 51.3198 60.9697 52.0098 60.9697H59.5098C60.1998 60.9697 60.7598 60.4097 60.7598 59.7197V52.2197C60.7598 51.5297 60.1998 50.9697 59.5098 50.9697H57.6298V35.1597C59.4398 34.6197 60.7598 32.9497 60.7598 30.9697C60.7598 28.9897 59.4398 27.3198 57.6298 26.7798V10.9697H59.5098ZM30.7598 3.46973C31.7898 3.46973 32.6298 4.30973 32.6298 5.34973C32.6298 6.38973 31.7898 7.21973 30.7598 7.21973C29.7298 7.21973 28.8898 6.37973 28.8898 5.34973C28.8898 4.31973 29.7298 3.46973 30.7598 3.46973ZM3.25977 30.9697C3.25977 29.9397 4.09978 29.0997 5.12978 29.0997C6.15978 29.0997 6.99977 29.9397 6.99977 30.9697C6.99977 31.9997 6.15978 32.8398 5.12978 32.8398C4.09978 32.8398 3.25977 31.9997 3.25977 30.9697ZM30.7598 57.2197C29.7298 57.2197 28.8898 56.3797 28.8898 55.3497C28.8898 54.3197 29.7298 53.4797 30.7598 53.4797C31.7898 53.4797 32.6298 54.3197 32.6298 55.3497C32.6298 56.3797 31.7898 57.2197 30.7598 57.2197ZM58.2598 30.9697C58.2598 31.9997 57.4198 32.8398 56.3898 32.8398C55.3598 32.8398 54.5198 31.9997 54.5198 30.9697C54.5198 29.9397 55.3598 29.0997 56.3898 29.0997C57.4198 29.0997 58.2598 29.9397 58.2598 30.9697ZM55.1398 26.7798C53.3298 27.3198 52.0098 28.9897 52.0098 30.9697C52.0098 32.9497 53.3298 34.6197 55.1398 35.1597V50.9697H52.0098C51.3198 50.9697 50.7598 51.5297 50.7598 52.2197V54.0898H34.9498C34.4098 52.2798 32.7398 50.9697 30.7598 50.9697C28.7798 50.9697 27.1098 52.2898 26.5698 54.0898H10.7598V52.2197C10.7598 51.5297 10.1998 50.9697 9.50977 50.9697H6.37978V35.1597C8.18978 34.6197 9.50977 32.9497 9.50977 30.9697C9.50977 28.9897 8.18978 27.3198 6.37978 26.7798V10.9697H9.50977C10.1998 10.9697 10.7598 10.4097 10.7598 9.71973V6.59973H26.5698C27.1098 8.40973 28.7798 9.71973 30.7598 9.71973C32.7398 9.71973 34.4098 8.39973 34.9498 6.59973H50.7598V9.71973C50.7598 10.4097 51.3198 10.9697 52.0098 10.9697H55.1398V26.7798Z" fill="#231815"/>
<path d="M32.9699 14.7197H40.7599C41.4499 14.7197 42.0099 14.1597 42.0099 13.4697C42.0099 12.7797 41.4499 12.2197 40.7599 12.2197H22.0099C21.3199 12.2197 20.7599 12.7797 20.7599 13.4697C20.7599 14.1597 21.3199 14.7197 22.0099 14.7197H28.5499L18.4399 31.5798C18.1699 32.0398 18.2099 32.6098 18.5499 33.0198L24.5099 40.1697V47.2197C24.5099 47.9097 25.0699 48.4697 25.7599 48.4697H35.7599C36.4499 48.4697 37.0099 47.9097 37.0099 47.2197V40.1697L42.9699 33.0198C43.3099 32.6098 43.3599 32.0298 43.0799 31.5798L32.9699 14.7197ZM35.1799 38.4697H32.0199V31.9998C33.4699 31.4798 34.5199 30.0897 34.5199 28.4697C34.5199 26.3997 32.8399 24.7197 30.7699 24.7197C28.6999 24.7197 27.0199 26.3997 27.0199 28.4697C27.0199 30.0997 28.0699 31.4898 29.5199 31.9998V38.4697H26.3599L21.0499 32.0997L30.7699 15.8998L40.4899 32.0997L35.1799 38.4697Z" fill="#231815"/>
</svg>
