<svg width="55" height="61" viewBox="0 0 55 61" fill="none" xmlns="http://www.w3.org/2000/svg">
<path d="M45.6504 57.4802V32.4402L53.1504 24.9402C53.6104 24.4802 53.8604 23.8802 53.8604 23.2302C53.8604 22.5802 53.6104 21.9802 53.1504 21.5202L50.9203 19.2902C49.9503 18.3202 48.2504 18.3202 47.2804 19.2902L45.6504 20.9202V7.94019C45.6504 6.52019 44.5004 5.37018 43.0804 5.37018H40.8204V3.5202C40.8204 2.1002 39.6704 0.950195 38.2504 0.950195H13.3904C12.7004 0.950195 12.0604 1.2202 11.5704 1.7002L1.63037 11.6402C1.14037 12.1302 0.880371 12.7702 0.880371 13.4602V52.6302C0.880371 54.0502 2.03038 55.2002 3.45038 55.2002H5.71036V57.4702C5.71036 58.9002 6.86036 60.0502 8.28036 60.0502H43.0804C44.5004 60.0502 45.6504 58.8902 45.6504 57.4702V57.4802ZM32.5904 43.2502L29.0704 39.7302L46.1603 22.6402L49.6804 26.1602L32.5904 43.2502ZM28.2604 41.1602L31.1703 44.0702L25.9004 46.4302L28.2604 41.1602ZM49.1003 20.1202C49.3603 20.1202 49.6104 20.2202 49.8004 20.4102L52.0304 22.6402C52.1904 22.8002 52.2704 23.0102 52.2704 23.2302C52.2704 23.4502 52.1804 23.6602 52.0304 23.8202L50.8104 25.0402L47.2903 21.5202L48.4004 20.4102C48.5904 20.2202 48.8303 20.1202 49.1003 20.1202ZM43.0904 6.96021C43.6304 6.96021 44.0704 7.40019 44.0704 7.94019V22.5002L40.8304 25.7402V6.9502H43.0904V6.96021ZM11.8704 3.66016V10.9502C11.8704 11.4902 11.4304 11.9402 10.8804 11.9402H3.59036L11.8604 3.67017L11.8704 3.66016ZM2.48038 52.6402V13.5202H10.8904C12.3104 13.5202 13.4604 12.3702 13.4604 10.9502V2.54016H38.2704C38.8104 2.54016 39.2604 2.98021 39.2604 3.53021V27.3402L27.7604 38.8402C27.4304 39.1702 27.2004 39.5702 27.1304 39.8902L24.3204 46.1602C24.1804 46.6902 24.3303 47.2502 24.7203 47.6402C25.0003 47.9202 25.3603 48.0802 25.7903 48.0802C25.9603 48.0802 26.1404 48.0502 26.3304 48.0002L32.4203 45.2602C32.8303 45.1402 33.2104 44.9202 33.5204 44.6102L39.2604 38.8702V52.6502C39.2604 53.1902 38.8204 53.6402 38.2704 53.6402H3.47037C2.93037 53.6402 2.48038 53.2002 2.48038 52.6502V52.6402ZM7.32037 57.4902V55.2202H38.2704C39.6904 55.2202 40.8404 54.0702 40.8404 52.6502V37.2802L44.0804 34.0402V57.5002C44.0804 58.0502 43.6403 58.5002 43.1003 58.5002H8.30035C7.76035 58.5002 7.32037 58.0502 7.32037 57.5002V57.4902Z" fill="#231815"/>
<path d="M43.0802 60.5098H8.28018C6.62018 60.5098 5.27017 59.1497 5.27017 57.4797V55.6498H3.4502C1.7902 55.6498 0.430176 54.2998 0.430176 52.6298V13.4598C0.430176 12.6498 0.74019 11.8998 1.32019 11.3298L11.2502 1.38977C11.8202 0.819771 12.5802 0.509766 13.3802 0.509766H38.2402C39.9002 0.509766 41.2602 1.85979 41.2602 3.52979V4.93976H43.0802C44.7402 4.93976 46.0902 6.28977 46.0902 7.94977V19.8597L46.9602 18.9897C48.0502 17.8997 50.1302 17.8997 51.2202 18.9897L53.4502 21.2197C53.9902 21.7597 54.2902 22.4797 54.2902 23.2397C54.2902 23.9997 53.9902 24.7198 53.4502 25.2598L46.0802 32.6298V57.4897C46.0802 59.1597 44.7302 60.5198 43.0702 60.5198L43.0802 60.5098ZM13.3902 1.39978C12.8202 1.39978 12.2902 1.61978 11.8902 2.01978L1.96017 11.9598C1.56017 12.3598 1.33017 12.8997 1.33017 13.4697V52.6398C1.33017 53.8098 2.29017 54.7698 3.46017 54.7698H6.1702V57.4897C6.1702 58.6697 7.12019 59.6298 8.29019 59.6298H43.0902C44.2602 59.6298 45.2102 58.6697 45.2102 57.4897V32.2598L52.8402 24.6298C53.2102 24.2598 53.4202 23.7597 53.4202 23.2297C53.4202 22.6997 53.2202 22.2098 52.8402 21.8298L50.6102 19.5997C49.8502 18.8397 48.3602 18.8397 47.6002 19.5997L45.2102 21.9897V7.93976C45.2102 6.76976 44.2602 5.81976 43.0902 5.81976H40.3902V3.52979C40.3902 2.35979 39.4402 1.39978 38.2602 1.39978H13.4002H13.3902ZM43.0802 58.9297H8.28018C7.49018 58.9297 6.85019 58.2797 6.85019 57.4897V54.7698H38.2402C39.4102 54.7698 40.3702 53.8198 40.3702 52.6398V37.0898L44.5002 32.9598V57.4897C44.5002 58.2897 43.8602 58.9297 43.0702 58.9297H43.0802ZM7.75018 55.6597V57.4897C7.75018 57.7997 7.99019 58.0497 8.29019 58.0497H43.0902C43.3902 58.0497 43.6302 57.7997 43.6302 57.4897V35.0997L41.2702 37.4598V52.6498C41.2702 54.3098 39.9202 55.6697 38.2502 55.6697H7.75018V55.6597ZM38.2502 54.0698H3.4502C2.6602 54.0698 2.02017 53.4298 2.02017 52.6398V13.0798H10.8702C12.0402 13.0798 13.0002 12.1298 13.0002 10.9498V2.09973H38.2502C39.0402 2.09973 39.6802 2.73979 39.6802 3.52979V27.5198L28.0502 39.1498C27.7602 39.4398 27.5902 39.7697 27.5402 39.9797L24.7002 46.3398C24.6302 46.6498 24.7302 47.0398 25.0102 47.3198C25.2902 47.5998 25.6902 47.6998 26.1802 47.5598L32.2002 44.8398C32.6002 44.7198 32.9202 44.5298 33.1702 44.2798L39.6702 37.7798V52.6298C39.6702 53.4198 39.0302 54.0598 38.2402 54.0598L38.2502 54.0698ZM2.91019 13.9598V52.6298C2.91019 52.9298 3.1502 53.1697 3.4502 53.1697H38.2502C38.5502 53.1697 38.7902 52.9298 38.7902 52.6298V39.9197L33.8002 44.9097C33.4402 45.2697 32.9902 45.5297 32.5102 45.6697L26.4802 48.3898C26.1902 48.4798 25.9702 48.5098 25.7602 48.5098C25.2302 48.5098 24.7502 48.3098 24.3802 47.9398C23.8802 47.4398 23.6802 46.7197 23.8602 46.0397L26.6902 39.6998C26.7502 39.3698 27.0302 38.8998 27.4102 38.5198L38.7802 27.1498V3.52979C38.7802 3.22979 38.5402 2.98975 38.2402 2.98975H13.8802V10.9498C13.8802 12.6098 12.5302 13.9697 10.8602 13.9697H2.90018L2.91019 13.9598ZM25.0102 47.3098L28.1102 40.3898L31.9302 44.2098L25.0102 47.3098ZM28.3902 41.9297L26.7702 45.5497L30.3902 43.9297L28.3902 41.9297ZM32.5802 43.8798L28.4302 39.7397L46.1502 22.0198L50.2902 26.1597L32.5702 43.8798H32.5802ZM29.6902 39.7397L32.5802 42.6298L49.0402 26.1697L46.1502 23.2798L29.6902 39.7397ZM40.3702 26.8198V6.51978H43.0702C43.8602 6.51978 44.5002 7.15977 44.5002 7.94977V22.6998L40.3702 26.8298V26.8198ZM41.2602 7.40973V24.6797L43.6202 22.3198V7.93976C43.6202 7.63976 43.3802 7.39978 43.0802 7.39978H41.2602V7.40973ZM50.8002 25.6797L46.6602 21.5397L48.0902 20.1097C48.6302 19.5697 49.5702 19.5697 50.1102 20.1097L52.3402 22.3398C52.5802 22.5798 52.7102 22.8997 52.7102 23.2397C52.7102 23.5797 52.5802 23.8998 52.3302 24.1398L50.7902 25.6797H50.8002ZM47.9102 21.5397L50.8002 24.4297L51.7102 23.5198C51.7902 23.4498 51.8202 23.3497 51.8202 23.2397C51.8202 23.1297 51.7802 23.0397 51.7102 22.9697L49.4802 20.7397C49.2702 20.5297 48.9202 20.5297 48.7102 20.7397L47.9102 21.5397ZM10.8702 12.3898H2.51019L12.3002 2.59973V10.9598C12.3002 11.7498 11.6602 12.3898 10.8702 12.3898ZM4.65018 11.4998H10.8702C11.1702 11.4998 11.4102 11.2598 11.4102 10.9598V4.73975L4.65018 11.4998Z" fill="#231815"/>
<path d="M7.89059 20.6093H33.8106C34.2506 20.6093 34.6006 20.2593 34.6006 19.8193C34.6006 19.3793 34.2506 19.0293 33.8106 19.0293H7.89059C7.45059 19.0293 7.10059 19.3793 7.10059 19.8193C7.10059 20.2593 7.45059 20.6093 7.89059 20.6093Z" fill="#231815"/>
<path d="M33.8104 21.0493H7.89041C7.21041 21.0493 6.65039 20.4993 6.65039 19.8093C6.65039 19.1193 7.20041 18.5693 7.89041 18.5693H33.8104C34.4904 18.5693 35.0504 19.1193 35.0504 19.8093C35.0504 20.4993 34.5004 21.0493 33.8104 21.0493ZM7.89041 19.4594C7.70041 19.4594 7.54041 19.6193 7.54041 19.8093C7.54041 19.9993 7.70041 20.1593 7.89041 20.1593H33.8104C34.0004 20.1593 34.1604 19.9993 34.1604 19.8093C34.1604 19.6193 34.0004 19.4594 33.8104 19.4594H7.89041Z" fill="#231815"/>
<path d="M7.89059 26.2997H33.8106C34.2506 26.2997 34.6006 25.9498 34.6006 25.5098C34.6006 25.0698 34.2506 24.7197 33.8106 24.7197H7.89059C7.45059 24.7197 7.10059 25.0698 7.10059 25.5098C7.10059 25.9498 7.45059 26.2997 7.89059 26.2997Z" fill="#231815"/>
<path d="M33.8104 26.7495H7.89041C7.21041 26.7495 6.65039 26.1995 6.65039 25.5095C6.65039 24.8195 7.20041 24.2695 7.89041 24.2695H33.8104C34.4904 24.2695 35.0504 24.8195 35.0504 25.5095C35.0504 26.1995 34.5004 26.7495 33.8104 26.7495ZM7.89041 25.1595C7.70041 25.1595 7.54041 25.3195 7.54041 25.5095C7.54041 25.6995 7.70041 25.8595 7.89041 25.8595H33.8104C34.0004 25.8595 34.1604 25.6995 34.1604 25.5095C34.1604 25.3195 34.0004 25.1595 33.8104 25.1595H7.89041Z" fill="#231815"/>
<path d="M21.5806 30.4199H7.89059C7.45059 30.4199 7.10059 30.77 7.10059 31.21C7.10059 31.65 7.45059 31.9999 7.89059 31.9999H21.5806C22.0206 31.9999 22.3706 31.65 22.3706 31.21C22.3706 30.77 22.0206 30.4199 21.5806 30.4199Z" fill="#231815"/>
<path d="M21.5804 32.4498H7.89041C7.21041 32.4498 6.65039 31.8998 6.65039 31.2098C6.65039 30.5198 7.20041 29.9697 7.89041 29.9697H21.5804C22.2604 29.9697 22.8204 30.5198 22.8204 31.2098C22.8204 31.8998 22.2604 32.4498 21.5804 32.4498ZM7.89041 30.8597C7.70041 30.8597 7.54041 31.0198 7.54041 31.2098C7.54041 31.3998 7.70041 31.5598 7.89041 31.5598H21.5804C21.7704 31.5598 21.9304 31.3998 21.9304 31.2098C21.9304 31.0198 21.7704 30.8597 21.5804 30.8597H7.89041Z" fill="#231815"/>
<path d="M21.5806 35.9795H7.89059C7.45059 35.9795 7.10059 36.3295 7.10059 36.7695C7.10059 37.2095 7.45059 37.5595 7.89059 37.5595H21.5806C22.0206 37.5595 22.3706 37.2095 22.3706 36.7695C22.3706 36.3295 22.0206 35.9795 21.5806 35.9795Z" fill="#231815"/>
<path d="M21.5804 37.9995H7.89041C7.21041 37.9995 6.65039 37.4495 6.65039 36.7595C6.65039 36.0695 7.20041 35.5195 7.89041 35.5195H21.5804C22.2604 35.5195 22.8204 36.0695 22.8204 36.7595C22.8204 37.4495 22.2604 37.9995 21.5804 37.9995ZM7.89041 36.4095C7.70041 36.4095 7.54041 36.5695 7.54041 36.7595C7.54041 36.9495 7.70041 37.1095 7.89041 37.1095H21.5804C21.7704 37.1095 21.9304 36.9495 21.9304 36.7595C21.9304 36.5695 21.7704 36.4095 21.5804 36.4095H7.89041Z" fill="#231815"/>
</svg>
