<svg width="93" height="40" viewBox="0 0 93 40" fill="none" xmlns="http://www.w3.org/2000/svg">
<path d="M21.34 21.1704C21.51 20.7204 21.7 20.2804 21.9 19.8604C21.81 19.9204 21.72 19.9904 21.62 20.0504C21.19 20.3404 21.16 20.8004 21.34 21.1604V21.1704Z" fill="black"/>
<path d="M9.53999 38.2704C4.44999 38.2704 1.74 35.4404 1.74 31.9704C1.74 30.0004 2.72 27.9804 5.55 27.9804C7.4 27.9804 8.78999 29.0204 9.53999 31.3904C9.88999 32.4304 11.51 31.9104 11.16 30.8104C11.16 30.7504 11.1 30.6904 11.1 30.5804C13.18 30.2304 15.2 29.0204 16.65 27.1104C17.34 26.2404 15.96 25.1404 15.26 26.0704C13.99 27.7504 12.02 28.7904 10.23 28.9604C9.18999 27.3404 7.51 26.2404 5.55 26.2404H5.19999L5.13999 26.1804C3.68999 24.1604 4.73999 18.2004 8.89999 14.5604C9.70999 13.8704 8.61 12.5404 7.74 13.2904C7.16 13.8104 6.63999 14.3304 6.17999 14.9104C5.53999 14.6204 4.16 13.0004 4.16 10.9204C4.16 7.28043 5.83999 3.93043 10.34 3.93043C13.81 3.93043 15.48 5.61043 15.25 10.8704V11.0404C14.56 12.9504 13.92 15.2004 13.34 17.9204C13.11 18.9604 14.84 19.4204 15.07 18.2704C17.67 5.84043 21.02 3.93043 24.26 3.93043C27.09 3.93043 28.36 5.66043 28.36 8.32043C28.36 10.3104 27.51 12.7504 26.21 14.9604C26.64 14.7304 27.09 14.5304 27.55 14.3904C27.55 14.2704 27.55 14.2204 27.61 14.1604C28.1 13.0504 28.81 12.1404 29.67 11.4104C29.94 10.3604 30.1 9.32043 30.1 8.32043C30.1 4.39043 27.79 2.19043 24.26 2.19043C21.49 2.19043 18.94 3.58043 16.8 7.51043C16.16 3.75043 13.97 2.19043 10.33 2.19043C5.00999 2.19043 2.41 6.24043 2.41 10.9204C2.41 13.4604 3.51 15.4304 5.13 16.3004C2.82 19.8304 2.11999 24.0504 3.39999 26.6504C1.14999 27.5204 -0.0100098 29.7104 -0.0100098 31.9704C-0.0100098 35.9004 2.47999 40.0004 9.52999 40.0004C14.55 40.0004 18.35 37.6804 21.01 34.1804C20.75 33.6004 20.54 32.9804 20.38 32.3304C18.08 35.8404 14.56 38.2704 9.52999 38.2704H9.53999Z" fill="black"/>
<path d="M29.71 15.78C31.68 15.78 33.9299 16.59 33.9299 20.06C33.9299 23.12 32.6 25.03 30.58 26.76C29.71 27.45 30.87 28.78 31.74 28.03C33.99 26.18 35.67 23.58 35.67 20.05C35.67 15.19 32.26 14.04 29.72 14.04C30.93 12.07 33.2999 11.03 35.7899 11.03C37.7599 11.03 39.36 11.56 40.59 12.58C40.94 12.08 41.33 11.63 41.77 11.22C40.18 9.90004 38.1099 9.29004 35.7899 9.29004C33.6099 9.29004 31.38 9.98004 29.7 11.4C29.27 13.04 28.54 14.7 27.58 16.22C28.27 15.92 28.99 15.76 29.72 15.76L29.71 15.78Z" fill="black"/>
<path d="M30.46 38.2702C26.34 38.2702 23.33 36.0602 22.21 32.4102C21.84 33.0302 21.44 33.6202 21.01 34.1802C22.66 37.9002 26.18 40.0002 30.45 40.0002C32.91 40.0002 35.34 39.1102 37.5 37.5002C37.19 37.0002 36.99 36.4302 36.87 35.8202C34.98 37.3702 32.8 38.2702 30.45 38.2702H30.46Z" fill="black"/>
<path d="M23.24 21.06C23.01 21.24 22.78 21.42 22.54 21.56C22.04 21.87 21.54 21.59 21.34 21.17C20.48 23.46 20 26.16 20 29.07C20 30.24 20.14 31.32 20.39 32.32C20.91 31.53 21.37 30.69 21.77 29.8C21.76 29.56 21.74 29.31 21.74 29.06C21.74 25.88 22.31 23.17 23.25 21.04L23.24 21.06Z" fill="black"/>
<path d="M21.89 19.86C23.53 18.72 25.06 16.93 26.23 14.96C24.43 15.92 22.96 17.63 21.89 19.86Z" fill="black"/>
<path d="M21.76 29.8096C21.36 30.6896 20.9 31.5396 20.38 32.3296C20.54 32.9896 20.75 33.5996 21.01 34.1796C21.44 33.6196 21.84 33.0296 22.21 32.4096C21.97 31.6096 21.81 30.7396 21.76 29.8096Z" fill="black"/>
<path d="M27.63 14.1599C27.57 14.2199 27.57 14.2799 27.57 14.3899C27.1 14.5299 26.6599 14.7299 26.2299 14.9599C25.0599 16.9299 23.53 18.7199 21.89 19.8599C21.69 20.2799 21.51 20.7199 21.33 21.1699C21.54 21.5899 22.03 21.8699 22.53 21.5599C22.76 21.4199 22.9899 21.2399 23.2299 21.0599C24.2899 18.6499 25.82 16.9899 27.56 16.2399C28.51 14.7099 29.2499 13.0599 29.6799 11.4199C28.8199 12.1399 28.1099 13.0499 27.6199 14.1699L27.63 14.1599Z" fill="black"/>
<path d="M70.87 25.1996C69.89 25.6596 70.64 27.2196 71.68 26.6996C72.03 26.5296 72.36 26.3396 72.68 26.1596C73.2 24.9296 73.83 23.7196 74.52 22.5996C73.28 23.9396 71.86 24.7396 70.88 25.1996H70.87Z" fill="black"/>
<path d="M42.89 12.4098C43.84 11.5698 45.07 11.0398 46.65 11.0398C49.66 11.0398 50.52 13.0098 50.52 19.3598C50.52 20.2798 51.91 20.5698 52.2 19.6498C54.51 12.9398 56.42 11.0398 59.66 11.0398C61.51 11.0398 64.52 12.6598 63.82 17.7398C63.7 18.7198 65.15 19.1298 65.5 18.1398C67.41 12.7098 70.24 11.0298 72.78 11.0298C73.84 11.0298 74.71 11.3698 75.38 11.9198C75.8 11.5398 76.27 11.1898 76.77 10.8798C75.75 9.9098 74.39 9.2998 72.78 9.2998C70.18 9.2998 67.58 10.7998 65.61 13.9198C65.15 10.9098 63.36 9.2998 59.66 9.2998C56.31 9.2998 54.05 11.2098 52.2 15.0198C51.97 11.4898 50.93 9.2998 46.65 9.2998C44.7 9.2998 43.05 10.0298 41.76 11.2298C42.17 11.5698 42.55 11.9698 42.89 12.4098Z" fill="black"/>
<path d="M68.61 38.2101C65.72 38.2701 63.64 37.4001 63.12 34.1101C63.7 31.5101 63.7 28.5601 64.74 26.4201C65.26 25.3801 63.7 24.6301 63.24 25.6101C60.7 30.7501 63.01 38.2101 55.67 38.2101C52.14 38.2101 50.93 37.4001 50.64 34.7401C51.68 32.1401 51.62 29.2501 53.01 26.3601C53.47 25.3801 51.91 24.6301 51.39 25.6701C49.71 29.3101 49.83 32.7801 48.67 34.9801C47.51 37.1201 45.95 38.2201 42.95 38.2201C40.79 38.2201 39.46 37.5801 38.87 36.3701C38.43 36.7801 37.98 37.1601 37.52 37.5101C38.42 39.0001 40.18 39.9501 42.96 39.9501C45.91 39.9501 48.1 38.6801 49.55 36.8301C50.42 38.9701 52.5 39.9501 55.68 39.9501C59.32 39.9501 61.17 38.6801 62.21 36.7701C63.54 39.2001 66.02 40.0101 68.63 39.9501C70.48 39.9201 72.04 39.2201 73.33 38.1501C72.92 37.7601 72.55 37.2901 72.24 36.7601C71.21 37.6401 70 38.2001 68.63 38.2201L68.61 38.2101Z" fill="black"/>
<path d="M43.28 22.1401C43.15 22.0701 43.01 22.0201 42.84 22.0201C42.09 22.0201 40.41 21.1501 40.41 19.0101C40.41 17.2001 40.82 15.3101 41.72 13.8201C41.39 13.3501 41.01 12.9301 40.58 12.5801C39.35 14.3301 38.67 16.6201 38.67 19.0101C38.67 22.1901 40.06 23.2301 41.33 23.5801C38.61 27.5701 36.76 31.4401 36.76 34.5601C36.76 35.0001 36.8 35.4101 36.88 35.8101C37.45 35.3401 38 34.8101 38.51 34.2301C38.65 31.7101 40.42 27.8701 43.04 24.0901C43.14 23.4501 43.22 22.7901 43.28 22.1301V22.1401Z" fill="black"/>
<path d="M40.58 12.5905C41.01 12.9405 41.39 13.3605 41.72 13.8305C42.04 13.3005 42.43 12.8205 42.89 12.4105C42.55 11.9705 42.1699 11.5705 41.7599 11.2305C41.3299 11.6305 40.93 12.0905 40.58 12.5905Z" fill="black"/>
<path d="M38.5 34.5702C38.5 34.4702 38.5 34.3502 38.51 34.2402C38 34.8202 37.45 35.3502 36.88 35.8202C37 36.4302 37.2 37.0002 37.51 37.5002C37.97 37.1502 38.43 36.7802 38.86 36.3602C38.61 35.8602 38.49 35.2602 38.49 34.5602L38.5 34.5702Z" fill="black"/>
<path d="M43.52 23.4096C43.83 22.9596 43.69 22.3796 43.27 22.1396C43.22 22.7996 43.14 23.4596 43.03 24.0996C43.19 23.8696 43.35 23.6396 43.52 23.4096Z" fill="black"/>
<path d="M77.98 20.6903C78.25 20.4003 78.26 20.0603 78.12 19.7803C77.91 20.3703 77.65 20.9403 77.34 21.4903C77.55 21.2103 77.76 20.9303 77.98 20.6903Z" fill="black"/>
<path d="M75.94 23.64C76.07 23.42 76.19 23.21 76.32 23C76.16 23.19 76.01 23.39 75.84 23.57C75.87 23.59 75.91 23.61 75.94 23.63V23.64Z" fill="black"/>
<path d="M92.14 6.13C92.14 2.43 88.7901 0 84.6301 0C80.4701 0 76.94 2.54 76.94 6.24C76.94 7.86 77.58 9.13 78.44 10.05C77.85 10.28 77.29 10.56 76.76 10.88C77.18 11.28 77.53 11.73 77.83 12.23C79.22 11.44 80.9 11.03 82.54 11.03C86.18 11.03 87.16 13.23 87.16 15.48C87.16 18.49 85.6 21.61 81.09 26.35C80.34 27.1 81.55 28.37 82.36 27.51C83.05 26.82 83.6901 26.12 84.2101 25.49C85.4801 25.03 86.64 25.43 86.64 26.99C86.64 32.48 82.94 38.2 78.26 38.2C76.81 38.2 75.52 37.77 74.56 36.87C74.17 37.33 73.76 37.76 73.3 38.14C74.64 39.4 76.44 39.94 78.26 39.94C84.56 39.94 88.3801 32.83 88.3801 26.99C88.3801 24.79 87.17 23.81 85.61 23.75C87.92 20.74 88.9 18.14 88.9 15.48C88.9 14.27 88.61 13.05 88.03 12.07C90.69 10.91 92.1301 8.49 92.1301 6.12L92.14 6.13ZM86.8801 10.64C85.8401 9.83 84.45 9.31 82.54 9.31C81.85 9.31 81.09 9.37 80.4 9.48C79.48 8.9 78.67 7.8 78.67 6.24C78.67 3.75 80.81 1.73 84.62 1.73C88.43 1.73 90.4 3.7 90.4 6.12C90.4 8.14 89.36 9.76 86.87 10.63L86.8801 10.64Z" fill="black"/>
<path d="M75.13 25.1397C74.92 25.0497 74.67 24.9997 74.4 24.9697C73.9 25.3897 73.32 25.7897 72.68 26.1597C71.76 28.3097 71.16 30.4997 71.16 32.2497C71.16 34.1297 71.56 35.5997 72.22 36.7397C72.68 36.3397 73.11 35.8797 73.5 35.3697C73.11 34.5297 72.89 33.4897 72.89 32.2397C72.89 30.4697 73.83 27.6897 75.13 25.1297V25.1397Z" fill="black"/>
<path d="M72.77 17.6304C72.77 19.6504 73.75 21.0404 74.91 21.9704C74.77 22.1804 74.64 22.3904 74.51 22.6104C75.11 21.9704 75.66 21.2004 76.1 20.2804L75.84 20.5904C74.97 19.9004 74.51 19.0904 74.51 17.6404C74.51 15.8104 75.27 14.3404 76.44 13.2604C76.17 12.7604 75.82 12.3004 75.38 11.9404C73.78 13.3904 72.78 15.3604 72.78 17.6404L72.77 17.6304Z" fill="black"/>
<path d="M74.57 36.8799C74.14 36.4799 73.78 35.9799 73.5 35.3799C73.11 35.8899 72.68 36.3499 72.22 36.7499C72.53 37.2899 72.9 37.7499 73.31 38.1399C73.76 37.7599 74.18 37.3399 74.57 36.8699V36.8799Z" fill="black"/>
<path d="M72.67 26.1596C73.31 25.7896 73.89 25.3896 74.39 24.9696C74.66 24.9996 74.91 25.0496 75.12 25.1396C75.38 24.6296 75.65 24.1296 75.93 23.6396C75.9 23.6196 75.87 23.5996 75.83 23.5796C76 23.3896 76.15 23.1996 76.31 23.0096C76.64 22.4696 76.99 21.9596 77.33 21.4996C77.64 20.9496 77.9 20.3796 78.11 19.7896C77.87 19.2896 77.18 18.9896 76.69 19.5396L76.08 20.2696C75.64 21.1896 75.09 21.9596 74.49 22.5996C73.8 23.7196 73.18 24.9296 72.65 26.1596H72.67Z" fill="black"/>
<path d="M76.43 13.2496C76.85 12.8596 77.32 12.5296 77.83 12.2396C77.54 11.7396 77.18 11.2896 76.76 10.8896C76.26 11.1996 75.79 11.5496 75.37 11.9296C75.81 12.2896 76.17 12.7396 76.43 13.2496Z" fill="black"/>
<path d="M49.43 6.10027H50.01V5.52027H50.59V3.19027H50.01V2.61027H49.43V2.03027H46.51V2.61027H47.09V4.36027H46.51V6.69027H49.43V6.11027V6.10027ZM48.85 6.10027H47.68V4.35027H48.26V2.60027H48.84V3.18027H49.42V5.51027H48.84V6.09027L48.85 6.10027Z" fill="black"/>
<path d="M54.7 6.09953H52.3699V4.34953H54.1199V3.76953H52.3699V3.17953H52.95V2.59953H54.7V2.01953H51.7899V2.59953H51.2V6.67953H54.7V6.09953Z" fill="black"/>
<path d="M56.05 6.67961H59.38V6.01961H60.05V4.67961H59.38V4.01961H58.71V3.34961H58.05V2.67961H57.38V2.01961H58.71V2.67961H60.05V2.01961H59.38V1.34961H56.71V2.01961H56.05V3.34961H56.71V4.01961H57.38V4.67961H58.05V6.01961H56.71V5.34961H55.38V6.01961H56.05V6.67961Z" fill="black"/>
<path d="M63.41 6.01961H62.74V2.01961H63.41V1.34961H60.74V2.01961H61.41V6.01961H60.74V6.67961H63.41V6.01961Z" fill="black"/>
<path d="M64.76 6.01961H65.42V6.67961H68.09V6.01961H68.76V4.01961H66.09V4.67961H67.42V5.34961H66.76V6.01961H66.09V5.34961H65.42V2.67961H66.09V2.01961H66.76V2.67961H68.09V2.01961H67.42V1.34961H65.42V2.01961H64.76V2.67961H64.09V5.34961H64.76V6.01961Z" fill="black"/>
<path d="M70.78 4.67961H71.45V5.34961H72.1199V6.01961H72.78V6.67961H74.1199V1.34961H72.78V4.67961H72.1199V4.01961H71.45V2.67961H70.78V2.01961H70.11V1.34961H69.45V6.67961H70.78V4.67961Z" fill="black"/>
</svg>
