<svg width="300" height="131" viewBox="0 0 300 131" fill="none" xmlns="http://www.w3.org/2000/svg">
<path d="M69.47 68.9299C70.02 67.4599 70.63 66.0299 71.28 64.6699C70.98 64.8799 70.6801 65.1099 70.3801 65.2999C69.0001 66.2499 68.89 67.7599 69.47 68.9299Z" fill="black"/>
<path d="M31.04 124.59C14.48 124.59 5.63 115.37 5.63 104.07C5.63 97.6696 8.82999 91.0797 18.05 91.0797C24.07 91.0797 28.59 94.4696 31.04 102.18C32.17 105.57 37.44 103.87 36.31 100.3C36.31 100.11 36.12 99.9196 36.12 99.5496C42.9 98.4196 49.48 94.4696 54.19 88.2596C56.45 85.4396 51.93 81.8596 49.67 84.8696C45.53 90.3296 39.13 93.7197 33.3 94.2797C29.91 89.0097 24.45 85.4296 18.06 85.4296H16.93L16.74 85.2396C12.04 78.6496 15.42 59.2696 28.97 47.4096C31.6 45.1496 28.03 40.8197 25.21 43.2697C23.33 44.9597 21.63 46.6596 20.13 48.5396C18.06 47.5996 13.54 42.3296 13.54 35.5496C13.54 23.6896 19 12.7797 33.68 12.7797C44.97 12.7797 50.43 18.2396 49.68 35.3696V35.9296C47.42 42.1396 45.35 49.4797 43.47 58.3297C42.72 61.7197 48.36 63.2197 49.12 59.4597C57.59 18.9997 68.51 12.7797 79.04 12.7797C88.26 12.7797 92.4 18.4297 92.4 27.0797C92.4 33.5697 89.65 41.4996 85.4 48.6996C86.8 47.9496 88.25 47.2996 89.77 46.8496C89.77 46.4696 89.77 46.2896 89.96 46.0996C91.55 42.4796 93.88 39.5196 96.66 37.1596C97.55 33.7396 98.05 30.3497 98.05 27.0897C98.05 14.2897 90.52 7.13965 79.04 7.13965C70.01 7.13965 61.73 11.6597 54.76 24.4597C52.69 12.2297 45.54 7.13965 33.68 7.13965C16.37 7.13965 7.89999 20.3196 7.89999 35.5596C7.89999 43.8396 11.48 50.2396 16.75 53.0596C9.22 64.5396 6.95998 78.2796 11.1 86.7496C3.75998 89.5696 0 96.7196 0 104.06C0 116.86 8.08999 130.22 31.05 130.22C47.38 130.22 59.77 122.67 68.43 111.28C67.59 109.39 66.9 107.38 66.37 105.25C58.87 116.67 47.43 124.58 31.05 124.58L31.04 124.59Z" fill="black"/>
<path d="M96.73 51.3796C103.13 51.3796 110.47 54.0096 110.47 65.3096C110.47 75.2796 106.14 81.4996 99.55 87.1396C96.73 89.3996 100.49 93.7296 103.31 91.2796C110.65 85.2596 116.11 76.7896 116.11 65.3096C116.11 49.4996 105.01 45.7396 96.72 45.7396C100.67 39.3396 108.39 35.9496 116.48 35.9496C122.88 35.9496 128.12 37.6796 132.11 40.9996C133.25 39.3796 134.52 37.8996 135.94 36.5896C130.75 32.2796 124.03 30.3096 116.48 30.3096C109.37 30.3096 102.11 32.5596 96.64 37.1796C95.24 42.5296 92.85 47.9196 89.75 52.8896C91.99 51.9196 94.33 51.3896 96.72 51.3896L96.73 51.3796Z" fill="black"/>
<path d="M99.1699 124.59C85.7499 124.59 75.9499 117.41 72.3099 105.52C71.1099 107.54 69.8099 109.459 68.4099 111.289C73.7899 123.409 85.2399 130.229 99.1599 130.229C107.15 130.229 115.08 127.33 122.11 122.09C121.11 120.45 120.44 118.61 120.06 116.62C113.92 121.65 106.8 124.59 99.1599 124.59H99.1699Z" fill="black"/>
<path d="M75.6601 68.5703C74.9001 69.1603 74.1501 69.7303 73.3901 70.2003C71.7601 71.2203 70.1501 70.3103 69.4701 68.9303C66.6701 76.3903 65.1101 85.1803 65.1101 94.6603C65.1101 98.4703 65.5701 102 66.3701 105.26C68.0601 102.69 69.5501 99.9503 70.8501 97.0703C70.8101 96.2803 70.7601 95.4903 70.7601 94.6703C70.7601 84.3103 72.6101 75.5003 75.6601 68.5703Z" fill="black"/>
<path d="M71.28 64.6797C76.61 60.9697 81.6 55.1497 85.4 48.7197C79.55 51.8497 74.74 57.4297 71.28 64.6797Z" fill="black"/>
<path d="M70.8499 97.0696C69.5499 99.9496 68.0599 102.69 66.3699 105.26C66.8999 107.4 67.5899 109.41 68.4299 111.29C69.8199 109.46 71.1299 107.54 72.3299 105.52C71.5299 102.92 71.0299 100.09 70.8599 97.0596L70.8499 97.0696Z" fill="black"/>
<path d="M89.95 46.1099C89.76 46.2999 89.76 46.4899 89.76 46.8599C88.24 47.3199 86.8 47.96 85.39 48.71C81.59 55.14 76.6 60.9599 71.27 64.6699C70.62 66.0299 70.02 67.4499 69.46 68.9299C70.14 70.2999 71.76 71.21 73.38 70.2C74.14 69.73 74.89 69.1599 75.65 68.5699C79.1 60.7299 84.1 55.3199 89.75 52.8799C92.86 47.9099 95.25 42.5199 96.64 37.1699C93.85 39.5299 91.53 42.4899 89.94 46.1099H89.95Z" fill="black"/>
<path d="M230.73 82.0598C227.53 83.5698 229.98 88.6498 233.36 86.9498C234.49 86.3798 235.56 85.7898 236.61 85.1798C238.32 81.1898 240.36 77.2298 242.59 73.5898C238.56 77.9398 233.92 80.5498 230.72 82.0598H230.73Z" fill="black"/>
<path d="M139.63 40.4198C142.72 37.6698 146.74 35.9498 151.87 35.9498C161.66 35.9498 164.48 42.3498 164.48 63.0498C164.48 66.0598 169 66.9998 169.94 63.9898C177.47 42.1598 183.68 35.9498 194.22 35.9498C200.24 35.9498 210.03 41.2198 207.77 57.7798C207.39 60.9798 212.1 62.2998 213.23 59.0998C219.44 41.4098 228.66 35.9498 236.94 35.9498C240.4 35.9498 243.22 37.0598 245.39 38.8398C246.77 37.5898 248.28 36.4498 249.92 35.4498C246.61 32.2898 242.18 30.2998 236.94 30.2998C228.47 30.2998 220 35.1898 213.6 45.3598C212.09 35.5698 206.26 30.2998 194.21 30.2998C183.29 30.2998 175.95 36.5098 169.93 48.9298C169.18 37.4498 165.79 30.2998 151.86 30.2998C145.52 30.2998 140.14 32.6898 135.94 36.5798C137.28 37.6898 138.5 38.9798 139.62 40.4098L139.63 40.4198Z" fill="black"/>
<path d="M223.39 124.41C213.98 124.6 207.2 121.77 205.51 111.05C207.39 102.58 207.39 92.98 210.78 86.02C212.47 82.63 207.39 80.18 205.89 83.39C197.61 100.14 205.14 124.42 181.24 124.42C169.76 124.42 165.81 121.78 164.87 113.13C168.26 104.66 168.07 95.25 172.59 85.84C174.1 82.64 169.01 80.19 167.32 83.58C161.86 95.44 162.24 106.73 158.47 113.88C154.71 120.84 149.62 124.42 139.84 124.42C132.79 124.42 128.48 122.34 126.55 118.41C125.13 119.75 123.65 120.98 122.14 122.11C125.08 126.96 130.79 130.06 139.84 130.06C149.44 130.06 156.59 125.92 161.3 119.9C164.12 126.86 170.9 130.06 181.25 130.06C193.11 130.06 199.13 125.92 202.52 119.71C206.85 127.61 214.94 130.25 223.41 130.06C229.43 129.95 234.51 127.69 238.7 124.2C237.35 122.93 236.16 121.41 235.15 119.66C231.79 122.53 227.86 124.36 223.41 124.42L223.39 124.41Z" fill="black"/>
<path d="M140.89 72.0903C140.48 71.8603 140 71.7103 139.44 71.7103C136.99 71.7103 131.54 68.8902 131.54 61.9202C131.54 56.0102 132.88 49.8703 135.82 45.0303C134.74 43.4903 133.51 42.1502 132.12 40.9902C128.12 46.7002 125.9 54.1302 125.9 61.9202C125.9 72.2702 130.42 75.6602 134.56 76.7902C125.71 89.7802 119.69 102.39 119.69 112.55C119.69 113.97 119.83 115.33 120.08 116.63C121.95 115.1 123.72 113.38 125.39 111.49C125.86 103.27 131.6 90.7802 140.13 78.4702C140.47 76.3802 140.73 74.2503 140.9 72.0903H140.89Z" fill="black"/>
<path d="M132.12 40.9901C133.51 42.1401 134.75 43.4801 135.82 45.0301C136.87 43.3001 138.14 41.74 139.62 40.41C138.5 38.98 137.28 37.6901 135.94 36.5801C134.52 37.8901 133.25 39.3701 132.11 40.9901H132.12Z" fill="black"/>
<path d="M125.33 112.55C125.33 112.21 125.36 111.84 125.38 111.49C123.71 113.39 121.94 115.11 120.07 116.63C120.45 118.62 121.13 120.46 122.12 122.1C123.63 120.97 125.11 119.74 126.53 118.4C125.73 116.77 125.33 114.82 125.33 112.55Z" fill="black"/>
<path d="M141.71 76.2198C142.73 74.7698 142.28 72.8798 140.9 72.0898C140.73 74.2498 140.47 76.3698 140.13 78.4698C140.65 77.7198 141.17 76.9698 141.71 76.2298V76.2198Z" fill="black"/>
<path d="M253.88 67.3799C254.76 66.4399 254.78 65.3299 254.35 64.4199C253.68 66.3399 252.82 68.1999 251.81 69.9999C252.5 69.0799 253.19 68.19 253.88 67.39V67.3799Z" fill="black"/>
<path d="M247.24 76.9899C247.65 76.2899 248.06 75.5999 248.48 74.9199C247.97 75.5499 247.48 76.1899 246.92 76.7899C247.03 76.8499 247.13 76.9299 247.24 76.9899Z" fill="black"/>
<path d="M299.99 19.95C299.99 7.91001 289.07 0 275.52 0C261.97 0 250.49 8.28002 250.49 20.33C250.49 25.6 252.56 29.74 255.38 32.75C253.45 33.49 251.62 34.4 249.92 35.45C251.27 36.74 252.44 38.22 253.4 39.85C257.94 37.29 263.38 35.95 268.75 35.95C280.61 35.95 283.81 43.1 283.81 50.44C283.81 60.23 278.73 70.39 264.05 85.82C261.6 88.27 265.56 92.41 268.19 89.58C270.45 87.32 272.52 85.06 274.21 82.99C278.35 81.48 282.11 82.8 282.11 87.88C282.11 105.76 270.06 124.39 254.82 124.39C250.11 124.39 245.9 122.98 242.78 120.05C241.53 121.55 240.16 122.94 238.68 124.17C243.03 128.28 248.9 130.03 254.82 130.03C275.33 130.03 287.76 106.88 287.76 87.87C287.76 80.72 283.81 77.52 278.73 77.33C286.26 67.54 289.46 59.07 289.46 50.42C289.46 46.47 288.52 42.52 286.64 39.32C295.3 35.56 300 27.65 300 19.93L299.99 19.95ZM282.86 34.63C279.47 31.99 274.95 30.3 268.74 30.3C266.48 30.3 264.03 30.49 261.78 30.86C258.77 28.98 256.13 25.4 256.13 20.32C256.13 12.23 263.09 5.64001 275.52 5.64001C287.95 5.64001 294.34 12.04 294.34 19.94C294.34 26.53 290.95 31.8 282.86 34.62V34.63Z" fill="black"/>
<path d="M244.6 81.8596C243.9 81.5696 243.1 81.3996 242.21 81.3096C240.58 82.6896 238.68 83.9696 236.61 85.1896C233.61 92.1996 231.67 99.3096 231.67 105.03C231.67 111.14 232.98 115.94 235.13 119.66C236.64 118.37 238.04 116.87 239.31 115.21C238.04 112.47 237.32 109.09 237.32 105.03C237.32 99.2496 240.4 90.2096 244.6 81.8696V81.8596Z" fill="black"/>
<path d="M236.94 57.4001C236.94 63.9901 240.14 68.5001 243.9 71.5101C243.46 72.1901 243.02 72.8801 242.59 73.5801C244.54 71.4801 246.33 68.98 247.76 65.98L246.92 66.9901C244.1 64.7301 242.59 62.1001 242.59 57.3901C242.59 51.4201 245.05 46.6401 248.86 43.1201C247.99 41.4801 246.83 40.0101 245.4 38.8301C240.2 43.5501 236.95 49.9501 236.95 57.3901L236.94 57.4001Z" fill="black"/>
<path d="M242.78 120.07C241.38 118.76 240.2 117.14 239.31 115.2C238.04 116.86 236.65 118.36 235.13 119.65C236.14 121.4 237.33 122.92 238.68 124.19C240.16 122.96 241.52 121.57 242.78 120.07Z" fill="black"/>
<path d="M236.61 85.1804C238.68 83.9704 240.58 82.6804 242.21 81.3004C243.1 81.3904 243.9 81.5604 244.6 81.8504C245.44 80.1804 246.32 78.5504 247.24 76.9804C247.13 76.9204 247.03 76.8404 246.92 76.7804C247.48 76.1704 247.97 75.5404 248.48 74.9104C249.57 73.1504 250.69 71.5004 251.81 69.9904C252.82 68.1904 253.67 66.3404 254.35 64.4104C253.57 62.7804 251.31 61.7904 249.74 63.6104L247.76 65.9904C246.34 68.9904 244.54 71.4904 242.59 73.5904C240.36 77.2304 238.31 81.1904 236.61 85.1804Z" fill="black"/>
<path d="M248.86 43.1302C250.22 41.8702 251.75 40.7802 253.41 39.8502C252.45 38.2302 251.28 36.7402 249.93 35.4502C248.3 36.4502 246.79 37.5902 245.4 38.8402C246.84 40.0202 247.99 41.4902 248.86 43.1302Z" fill="black"/>
<path d="M160.94 19.8703H162.84V17.9703H164.74V10.3703H162.84V8.47028H160.94V6.57031H151.44V8.47028H153.34V14.1703H151.44V21.7703H160.94V19.8703ZM159.04 19.8703H155.24V14.1703H157.14V8.47028H159.04V10.3703H160.94V17.9703H159.04V19.8703Z" fill="black"/>
<path d="M178.11 19.8703H170.51V14.1703H176.21V12.2703H170.51V10.3703H172.41V8.47028H178.11V6.57031H168.61V8.47028H166.71V21.7703H178.11V19.8703Z" fill="black"/>
<path d="M182.48 21.7697H193.33V19.5897H195.51V15.2496H193.33V13.0797H191.16V10.9096H188.99V8.73962H186.82V6.56964H191.16V8.73962H195.51V6.56964H193.33V4.38965H184.65V6.56964H182.48V10.9096H184.65V13.0797H186.82V15.2496H188.99V19.5897H184.65V17.4196H180.31V19.5897H182.48V21.7697Z" fill="black"/>
<path d="M206.44 19.5897H204.27V6.56964H206.44V4.38965H197.75V6.56964H199.93V19.5897H197.75V21.7697H206.44V19.5897Z" fill="black"/>
<path d="M210.83 19.5897H213.01V21.7697H221.69V19.5897H223.86V13.0797H215.18V15.2496H219.52V17.4196H217.35V19.5897H215.18V17.4196H213.01V8.73962H215.18V6.56964H217.35V8.73962H221.69V6.56964H219.52V4.38965H213.01V6.56964H210.83V8.73962H208.66V17.4196H210.83V19.5897Z" fill="black"/>
<path d="M230.45 15.2496H232.63V17.4196H234.8V19.5897H236.97V21.7697H241.31V4.38965H236.97V15.2496H234.8V13.0797H232.63V8.73962H230.45V6.56964H228.28V4.38965H226.11V21.7697H230.45V15.2496Z" fill="black"/>
</svg>
