<svg width="13" height="13" viewBox="0 0 13 13" fill="none" xmlns="http://www.w3.org/2000/svg">
<g clip-path="url(#clip0_38_6877)">
<path d="M9.25 0H3.75C1.68 0 0 1.68 0 3.75V9.25C0 11.32 1.68 13 3.75 13H9.25C11.32 13 13 11.32 13 9.25V3.75C13 1.68 11.32 0 9.25 0ZM11.81 9.34C11.81 10.72 10.69 11.83 9.32 11.83H3.69C2.31 11.83 1.2 10.71 1.2 9.34V3.72C1.2 2.34 2.32 1.23 3.69 1.23H9.31C10.69 1.23 11.8 2.35 11.8 3.72V9.34H11.81Z" fill="#FFF6E9"/>
<path d="M6.5 3.16C4.64 3.16 3.13 4.67 3.13 6.53C3.13 8.39 4.64 9.9 6.5 9.9C8.36 9.9 9.87 8.39 9.87 6.53C9.87 4.67 8.36 3.16 6.5 3.16ZM6.5 8.72C5.29 8.72 4.31 7.74 4.31 6.53C4.31 5.32 5.29 4.34 6.5 4.34C7.71 4.34 8.69 5.32 8.69 6.53C8.69 7.74 7.71 8.72 6.5 8.72Z" fill="#FFF6E9"/>
<path d="M9.99001 3.81999C10.4263 3.81999 10.78 3.4663 10.78 3.02999C10.78 2.59369 10.4263 2.23999 9.99001 2.23999C9.55371 2.23999 9.20001 2.59369 9.20001 3.02999C9.20001 3.4663 9.55371 3.81999 9.99001 3.81999Z" fill="#FFF6E9"/>
</g>
<defs>
<clipPath id="clip0_38_6877">
<rect width="13" height="13" fill="white"/>
</clipPath>
</defs>
</svg>
