<svg width="162" height="24" viewBox="0 0 162 24" fill="none" xmlns="http://www.w3.org/2000/svg">
<path d="M23.41 21.72L23.36 21.84L23.41 22.11C23.46 22.38 23.34 22.6 23.14 22.65L22.84 22.72C22.82 22.72 22.79 22.74 22.77 22.74L22.45 22.76L21.78 22.88H21.19L20.87 22.81L20.23 22.74L20.08 22.84C20.01 22.89 19.88 22.94 19.78 22.91L19.41 22.86L19.21 22.93C19.11 22.98 18.96 22.98 18.84 22.91L18.49 22.71L17.77 22.73L17.42 22.78L16.38 22.9H16.01L15.39 22.92C15.32 22.92 15.22 22.9 15.17 22.87L14.77 22.65L14.37 22.82C14.35 22.84 14.32 22.84 14.3 22.84L13.98 22.89H13.86L13.49 22.84L13.05 22.91H12.63C12.61 22.91 12.56 22.93 12.51 22.91L12.04 22.79L11.67 22.89L11.6 22.91L11.18 22.96C11.11 22.96 11.03 22.96 10.96 22.91L10.64 22.76L10.07 22.88C10.05 22.88 10.02 22.9 10 22.9H9.46001C9.41001 22.9 9.36 22.88 9.31 22.85L8.89 22.68L8.45 22.7H8.10001L7.66 22.72L7.07001 22.67L6.5 22.82C6.48 22.82 6.44999 22.84 6.42999 22.84L6.03 22.86H5.96001L5.42 22.81L5.17 22.88C5.12 22.9 5.07 22.93 5.02 22.93H4.21001C4.14001 22.93 4.05999 22.91 4.00999 22.86L3.71001 22.66L3.12 22.88C3.02 22.93 2.9 22.93 2.8 22.88L2.5 22.76L2.3 22.81C2.23 22.83 2.15 22.83 2.08 22.81L1.50999 22.66L1.31 22.76C1.24 22.81 1.14 22.81 1.06 22.81L0.809998 22.76C0.709998 22.74 0.589993 22.69 0.539993 22.61L0.240005 22.21C0.220005 22.19 0.190002 22.16 0.190002 22.14L0.0200043 21.74C0.0200043 21.72 0 21.67 0 21.62V21.52C0 21.45 4.27291e-06 21.4 0.0200043 21.35L0.240005 20.78L0.139999 20.63C0.119999 20.58 0.119995 20.48 0.119995 20.43V19.96L0.139999 19.39C0.139999 19.34 0.160002 19.27 0.190002 19.24L0.289993 19.07C0.169993 18.87 0.190001 18.58 0.360001 18.43L0.559998 18.28C0.659998 18.21 0.810004 18.16 0.910004 18.18L1.08 18.2L1.62 18.18L1.82001 18.08C1.92001 18.03 2.07 18.01 2.19 18.06L2.53999 18.18L2.98 18.13H3.72L4.09 18.03V18.01L4.07001 17.42L3.82001 16.88C3.80001 16.83 3.8 16.78 3.8 16.73V16.43C3.8 16.36 3.80001 16.26 3.85001 16.18L4 16.01L3.92999 15.84C3.85999 15.64 3.91 15.44 4.08 15.3L4.42999 15.03C4.49999 14.96 4.6 14.93 4.7 14.93H4.95L5.49001 14.88L5.69 14.86H5.84L6.42999 14.98C6.47999 14.98 6.53 15 6.55 15.03L6.64999 15.08L7.24001 15.03L7.49001 14.93C7.66001 14.86 7.84 14.86 7.91 14.95L8.06 15.1L8.53 15.03L8.85001 14.93C9.05001 14.86 9.26999 14.93 9.37 15.08L9.52 15.3C9.54 15.32 9.57001 15.37 9.57001 15.42L9.67 15.77L9.78999 16.34C9.80999 16.44 9.80999 16.49 9.78999 16.59L9.59 17.08L9.69 17.52L9.71001 17.79V17.94H10.08C10.13 17.94 10.2 17.96 10.25 17.99L10.37 18.04L10.91 18.19L11.53 18.07L12 18.05L12.44 17.95C12.49 17.93 12.59 17.95 12.64 17.97L12.89 18.02L13.36 17.95C13.43 17.93 13.53 17.95 13.61 18L13.78 18.1C13.78 18.08 13.8 18.05 13.8 18.03L13.92 17.51L13.99 17.04L13.77 16.42C13.75 16.32 13.72 16.2 13.77 16.1L13.94 15.8L13.92 15.45C13.92 15.38 13.94 15.28 13.99 15.2L14.06 15.08C14.16 14.93 14.31 14.88 14.5 14.96L14.8 15.06L15 14.94C15.12 14.84 15.32 14.84 15.44 14.92L15.74 15.07L16.09 15C16.14 14.98 16.24 15 16.29 15.02L16.54 15.07L17.06 15.12L17.43 15C17.53 14.95 17.65 14.95 17.75 15L17.92 15.07L18.59 15C18.66 15 18.74 15 18.81 15.05L19.01 15.12L19.23 15.22C19.35 15.27 19.45 15.37 19.48 15.49L19.6 15.98C19.6 16.03 19.62 16.05 19.62 16.08V16.33L19.52 16.95L19.5 17L19.43 17.3L19.48 17.74L19.5 18.04C19.52 18.04 19.57 18.06 19.62 18.09L19.77 18.14H20.24L20.71 17.99C20.81 17.97 20.96 17.97 21.06 18.04L21.28 18.14L21.95 18.19L22.17 18.12C22.19 18.12 22.22 18.1 22.24 18.1L22.51 18.05C22.61 18.03 22.76 18.07 22.83 18.15L23.18 18.42C23.33 18.54 23.4 18.74 23.35 18.86L23.28 19.08L23.4 19.35C23.47 19.5 23.47 19.65 23.38 19.79L23.18 20.09L23.2 20.39V21.01L23.37 21.41C23.44 21.58 23.44 21.65 23.41 21.72ZM1.09 8.38998C1.07 8.33998 1.03999 8.28999 1.03999 8.18999L1.09 7.64998V6.82999L1.19 6.38998L1.34 5.69998L1.24001 5.42998C1.19001 5.25998 1.24 5.10999 1.34 4.98999L1.53999 4.76999L1.71001 4.34999L1.69 4.27998C1.64 4.02998 1.71 3.83998 1.84 3.78998L2.09 3.68999V3.43999C2.09 3.28999 2.15999 3.18998 2.25999 3.11998L2.56 2.89998L2.92999 2.35999L3.03 2.13998C3.05 2.03998 3.13 1.96998 3.23 1.91998L3.60001 1.74998L3.72 1.54999C3.74 1.49999 3.77 1.44998 3.84 1.39998L4.11 1.24998C4.13 1.22998 4.21 1.19998 4.23 1.19998L4.72 1.12999L5.16 1.02998L5.28 1.00998L5.63 1.05998L5.98 0.889984C6.03 0.869984 6.09999 0.839981 6.14999 0.839981H6.64L6.94 0.769989C6.99 0.749989 7.04 0.749985 7.06 0.749985L8.10001 0.769989C8.12001 0.769989 8.11999 0.789978 8.14999 0.789978L8.77 0.909988L8.99001 0.709991C9.06001 0.639991 9.18999 0.609985 9.28999 0.609985H9.75999L10.25 0.679977L10.74 0.799988C10.81 0.819988 10.89 0.849979 10.94 0.899979L11.06 1.01999C11.18 1.13999 11.21 1.26998 11.18 1.38998L11.13 1.60999L11.08 2.12999L11.13 2.81999L11.25 3.06999C11.3 3.18999 11.3 3.33999 11.25 3.46999L11.05 3.88998L11.25 4.15999C11.3 4.22999 11.32 4.27999 11.32 4.35999L11.34 4.70999C11.36 4.90999 11.29 5.10998 11.12 5.17998L10.92 5.24998C10.87 5.26998 10.85 5.24998 10.8 5.24998L10.4 5.22998L10.03 5.39998C9.96 5.41998 9.86 5.41998 9.78 5.39998L9.25999 5.27998L9.24001 5.32999C9.09001 5.47999 8.89 5.47998 8.77 5.39998L8.52 5.27998L7.58 5.29999L6.81 5.41998L6.56 5.93999C6.54 6.00999 6.46 6.08999 6.41 6.10999L6.24001 6.20999L6.07001 6.82999V7.68999L6.22 8.45999L6.52 8.89998L6.84 8.87999C6.96 8.87999 7.11 8.92998 7.19 9.02998L7.46001 9.34999L8.23 9.24998C8.25 9.24998 8.30001 9.22998 8.35001 9.24998L8.92 9.36998L9.32001 9.34999H9.42L9.77 9.36998L10.36 9.21999C10.41 9.19999 10.46 9.19999 10.53 9.21999L10.6 9.23999C10.65 9.25999 10.72 9.25998 10.77 9.30998L11.07 9.57999C11.19 9.69999 11.22 9.84999 11.19 9.99998L11.14 10.27L11.21 10.66V10.81L11.14 11.25L11.09 11.69L11.11 12.21L11.16 12.65L11.14 13.22C11.14 13.29 11.09 13.39 11.04 13.47L10.94 13.59C10.89 13.66 10.79 13.69 10.69 13.71L10.15 13.78H9.50999L9.28999 13.76L8.82001 13.93C8.77001 13.95 8.67001 13.98 8.60001 13.95L8.03 13.8L7.19 13.68L6.82001 13.8C6.75001 13.82 6.65001 13.82 6.57001 13.8L6.08 13.65L5.71001 13.72C5.66001 13.72 5.55999 13.74 5.50999 13.72L5.24001 13.62L5.09 13.55L4.87 13.3L4.45 13.37C4.35 13.39 4.22999 13.37 4.14999 13.32L3.78 13.05L3.53 12.98C3.46 12.96 3.41 12.88 3.36 12.81L3.19 12.54L2.87 12.02H2.64999C2.42999 12.02 2.23001 11.92 2.21001 11.8L2.16 11.55L1.75999 10.98C1.73999 10.93 1.69 10.88 1.69 10.81L1.64 10.56V10.02L1.34 9.79999C1.24 9.72999 1.19 9.67999 1.17 9.54999L1.12 9.32999V9.20999L1.19 8.58998L1.09 8.38998ZM12.18 10.98C12.13 10.91 12.08 10.83 12.11 10.71L12.18 10.29L12.28 9.79999C12.28 9.74999 12.3 9.74998 12.3 9.72998L12.47 9.40999C12.57 9.20999 12.77 9.08999 12.99 9.15999L13.31 9.25998L13.38 9.20999C13.5 9.10999 13.7 9.03999 13.82 9.10999L14.02 9.20999L14.49 9.08998C14.61 9.03998 14.71 9.06999 14.81 9.10999L15.16 9.27998L15.78 9.05998C15.83 9.03998 15.93 9.03998 15.98 9.03998L16.4 9.10999L16.7 8.78998C16.72 8.76998 16.75 8.73999 16.77 8.73999L17.24 8.43999L17.31 7.69998L17.24 6.83998V6.76999L17.31 6.29999L16.96 5.97998L16.54 5.62999L16.05 5.50998L14.74 5.43999L14.64 5.41998L14.05 5.21999L13.8 5.36998C13.75 5.38998 13.7 5.41998 13.65 5.41998L13.11 5.43999H13.04L12.79 5.41998C12.69 5.39998 12.57 5.31999 12.49 5.21999L12.34 5.01999C12.34 4.99999 12.32 4.96998 12.32 4.94998L12.17 4.57999C12.15 4.55999 12.12 4.47999 12.12 4.45999L12.1 3.78998C12.1 3.71998 12.1 3.71998 12.12 3.63998L12.22 3.41998L12.29 2.97998L12.22 2.20999L12.17 2.03998C12.15 1.98998 12.15 1.86999 12.17 1.81999L12.34 1.22998C12.36 1.15998 12.41 1.07998 12.46 1.02998L12.56 0.959991C12.63 0.889991 12.76 0.859985 12.86 0.859985L13.33 0.909988L13.85 0.73999L14.2 0.669983L14.67 0.649979C14.72 0.649979 14.79 0.649983 14.84 0.669983L15.41 0.889984L16.2 0.789978C16.25 0.789978 16.32 0.789982 16.37 0.809982L16.84 0.959991L17.33 0.909988L17.7 0.809982C17.75 0.789982 17.8 0.789982 17.87 0.809982L18.22 0.859985C18.29 0.859985 18.37 0.909991 18.42 0.959991L18.79 1.30998L19.7 1.57999L19.85 1.59999C19.97 1.61999 20.12 1.69999 20.17 1.84999L20.29 2.14998L20.73 2.24998C20.83 2.26998 20.95 2.34998 21 2.44998L21.2 2.79999L21.4 2.91998C21.47 2.96998 21.52 3.06998 21.55 3.13998L21.65 3.48999L21.87 4.00998L22.04 4.44998C22.06 4.51998 22.06 4.54998 22.06 4.61998V4.83998L22.21 5.13998C22.26 5.23998 22.28 5.30999 22.26 5.43999L22.14 5.92998L22.19 6.36998L22.29 6.56999C22.34 6.66999 22.36 6.73999 22.34 6.81999L22.19 7.65999L22.36 8.22998C22.38 8.32998 22.38 8.44998 22.36 8.52998L22.16 8.94998L22.14 9.26999L22.07 9.78998L21.92 10.33L21.85 10.77L21.78 11.14C21.78 11.21 21.73 11.26 21.68 11.34L21.38 11.66L21.33 11.71L21.16 11.86L20.96 12.26C20.91 12.36 20.81 12.43 20.69 12.46L20.44 12.51L19.9 12.88C19.88 12.9 19.85 12.88 19.8 12.9L19.55 12.97L19.25 13.19L18.63 13.51C18.61 13.53 18.53 13.56 18.48 13.56L18.28 13.58H17.84L17.44 13.75C17.37 13.8 17.24 13.8 17.17 13.77L16.95 13.72L16.23 13.94C16.16 13.96 16.08 13.96 16.01 13.94L15.22 13.72L14.87 13.79H14.75L14.21 13.69L13.96 13.81C13.91 13.83 13.81 13.83 13.76 13.83L13.24 13.78L12.82 13.85C12.72 13.87 12.55 13.83 12.47 13.75L12.32 13.6C12.22 13.5 12.15 13.35 12.17 13.2L12.24 12.73L12.29 12.33L12.14 11.81C12.12 11.69 12.14 11.56 12.21 11.46L12.36 11.26L12.18 10.98Z" fill="#EA5457"/>
<path d="M32.18 3.34998L32.2 3.46997V3.95998L32.18 4.32997C32.18 4.37997 32.13 4.47997 32.11 4.52997L31.94 4.82997L31.96 5.22997C31.96 5.29997 31.94 5.37997 31.89 5.47997L31.74 5.72997C31.62 5.92997 31.42 6.04997 31.32 5.97997L31.15 5.85997L30.73 5.83997C30.73 5.85997 30.71 5.90997 30.68 5.93997L30.58 6.05997L30.7 6.32997C30.75 6.42997 30.77 6.57997 30.72 6.69997L30.57 7.11996L30.47 7.65997L30.57 8.12997L30.62 8.71997V9.03996L30.69 9.28996C30.71 9.38996 30.71 9.45997 30.69 9.55997L30.49 10.1L30.69 10.59C30.71 10.61 30.74 10.66 30.74 10.71V10.91C30.74 10.96 30.74 11.01 30.72 11.08L30.55 11.48L30.48 12.12L30.63 12.27C30.73 12.37 30.8 12.52 30.78 12.64L30.76 12.89V13.46L30.69 14L30.74 14.15C30.79 14.3 30.76 14.45 30.67 14.57L30.52 14.74L30.74 15.26C30.76 15.33 30.79 15.43 30.79 15.51L30.7 16L30.6 16.3L30.58 16.82L30.51 17.34L30.76 17.91C30.78 17.98 30.78 18.06 30.78 18.11V18.16L31.15 18.14H31.22C31.29 18.14 31.39 18.16 31.47 18.24L31.84 18.51C31.89 18.56 31.91 18.58 31.94 18.66L32.06 18.88C32.11 18.95 32.11 19.08 32.08 19.18L32.01 19.5L31.96 19.87L31.89 20.41L31.96 20.83V20.95L31.91 21.44L32.01 21.71C32.01 21.73 32.03 21.73 32.03 21.78L32.05 22C32.07 22.15 32 22.3 31.9 22.4L31.48 22.77C31.43 22.82 31.33 22.87 31.26 22.87H31.19C31.07 22.89 30.92 22.87 30.84 22.77L30.69 22.62L30.17 22.77L29.85 22.84C29.8 22.86 29.73 22.89 29.65 22.86L29.23 22.79H28.96C28.86 22.79 28.74 22.74 28.66 22.67L28.64 22.65L28.32 22.75C28.17 22.8 28 22.8 27.92 22.73L27.8 22.61L27.36 22.83C27.31 22.85 27.21 22.88 27.14 22.88L26.62 22.86C26.6 22.86 26.52 22.84 26.5 22.81L26.2 22.69C26.15 22.67 26.08 22.64 26.03 22.57L25.91 22.4C25.89 22.35 25.86 22.35 25.86 22.33L25.76 22.06C25.74 21.96 25.71 21.86 25.74 21.79L25.89 21.39L25.64 20.92C25.62 20.9 25.59 20.82 25.59 20.77L25.57 20.5C25.57 20.35 25.62 20.23 25.69 20.15L25.89 19.98L25.64 19.44C25.59 19.29 25.62 19.12 25.69 19.02L25.84 18.85L25.72 18.53L25.6 17.96C25.58 17.84 25.6 17.76 25.65 17.66L25.87 17.34L25.82 17.07V16.97L25.89 16.35L25.74 16.03C25.72 15.96 25.69 15.88 25.72 15.81L25.84 15.29L25.64 14.92L25.62 14.82L25.57 14.52C25.57 14.45 25.57 14.35 25.62 14.25L25.74 14.1L25.84 13.31L25.77 13.19C25.75 13.12 25.75 13.07 25.75 13.02V12.01L25.73 11.79C25.73 11.74 25.71 11.69 25.73 11.64L25.9 11.17L25.68 10.48V10.36L25.7 9.88997L25.63 9.63997C25.61 9.53997 25.65 9.41998 25.7 9.31998L25.8 9.16997L25.65 8.67996C25.63 8.57996 25.63 8.52996 25.65 8.42996L25.77 8.15997V7.78996L25.79 7.06998L25.84 6.76997L25.69 6.27997V6.12997L25.76 5.60997V5.33997L25.74 4.84998L25.57 4.32997C25.55 4.27997 25.52 4.17997 25.55 4.12997L25.67 3.65997L25.72 3.40997L25.84 2.88997L25.64 2.39996C25.59 2.27996 25.62 2.12997 25.66 2.04997L25.71 1.94997C25.73 1.89997 25.76 1.89997 25.78 1.87997L26.25 1.43997L26.55 1.21997C26.62 1.16997 26.72 1.11996 26.8 1.11996H27.64C27.69 1.11996 27.74 1.13997 27.79 1.16997L28.06 1.26997L28.63 1.16997H28.75L29 1.18997L29.72 1.16997L29.97 1.18997C30.07 1.18997 30.19 1.25997 30.27 1.33997V1.35997L30.44 1.33997L31.03 1.21997C31.08 1.19997 31.2 1.19997 31.25 1.21997L31.4 1.26997C31.45 1.28997 31.5 1.28998 31.52 1.31998L31.77 1.48997C31.89 1.58997 31.97 1.70997 31.97 1.83997V2.15997L31.95 2.82997L32.07 3.07997C32.09 3.12997 32.12 3.14996 32.12 3.17996L32.18 3.34998ZM39.49 11.03C39.54 11.1 39.56 11.2 39.56 11.28V11.55L39.54 11.67L39.44 11.94L39.29 12.38L39.44 12.75C39.46 12.82 39.49 12.95 39.46 13.05L39.29 13.59L39.34 14.06L39.44 14.21C39.49 14.28 39.54 14.36 39.54 14.48V14.97L39.52 15.29L39.42 15.73L39.57 16.27V17.21L39.52 17.73C39.52 17.8 39.5 17.83 39.47 17.88L39.32 18.18L39.3 18.65L39.4 19.42C39.52 19.57 39.55 19.77 39.47 19.91L39.25 20.43L39.37 20.87L39.49 21.22C39.49 21.24 39.51 21.27 39.51 21.32L39.53 21.67V21.77L39.46 22.09C39.44 22.24 39.31 22.39 39.16 22.44L38.84 22.56L38.57 22.71C38.47 22.78 38.35 22.78 38.22 22.76L37.8 22.64L37.5 22.79C37.43 22.84 37.33 22.84 37.25 22.84L36.78 22.79L36.58 22.74L36.33 22.69C36.26 22.74 36.16 22.79 36.06 22.79H35.76L35.46 22.74L35.19 22.86C35.14 22.88 35.07 22.88 34.99 22.88L34.03 22.81L33.51 22.71C33.44 22.69 33.36 22.69 33.29 22.61L33.14 22.46C33.09 22.41 33.04 22.34 33.04 22.24L32.97 21.67L32.92 21.55C32.9 21.48 32.92 21.38 32.94 21.28L33.11 20.88L33.13 20.51L33.2 20.02L32.98 19.72C32.88 19.6 32.88 19.45 32.93 19.3L33.15 18.83L33.13 18.73C33.11 18.66 33.11 18.56 33.15 18.46L33.32 18.14C33.39 17.97 33.57 17.84 33.74 17.87L33.99 17.89C34.09 17.89 34.19 17.91 34.26 18.01L34.41 18.18L34.53 18.13L34.46 17.71L34.29 17.29C34.27 17.22 34.24 17.17 34.27 17.07L34.37 16.72L34.39 16.23V16.06L34.41 15.32L34.48 14.73L34.41 14.56C34.41 14.54 34.39 14.51 34.39 14.49L34.32 13.85C34.32 13.78 34.3 13.75 34.32 13.68L34.39 13.53L34.54 12.94L34.44 12.42L34.39 11.83L34.32 11.48V11.36L34.34 11.11C34.34 11.09 34.36 11.09 34.36 11.06L34.56 10.49L34.39 10.24C34.34 10.14 34.32 10.07 34.34 9.93997L34.44 9.44997L34.42 9.12997L34.3 8.72997V8.08997L34.28 7.68997L34.3 7.19997V6.67996L34.47 6.23997V5.83997L34.1 6.00996C34 6.05996 33.85 6.05997 33.78 6.02997L33.68 5.97997C33.66 5.95997 33.63 5.95998 33.61 5.95998L33.09 5.58997C32.97 5.48997 32.89 5.31997 32.92 5.16997L32.99 4.81998L33.14 4.34998L33.19 3.85997L32.97 3.60997C32.92 3.53997 32.9 3.45997 32.9 3.33997V3.06998C32.9 2.99998 32.92 2.96997 32.95 2.91997L33.12 2.54997L33.07 2.52997C32.95 2.40997 32.9 2.22997 32.95 2.08997L32.97 1.96997C32.99 1.89997 33.04 1.81997 33.12 1.74997L33.59 1.37997C33.61 1.37997 33.64 1.37997 33.66 1.35997L33.76 1.30997C33.83 1.28997 33.91 1.23996 34.01 1.25996L34.55 1.32997L34.75 1.30997L34.82 1.23997C34.89 1.13997 35.02 1.08997 35.12 1.08997H35.24L35.31 1.10997L35.56 1.15997L35.71 1.13997C35.78 1.11997 35.88 1.11997 35.96 1.15997L36.16 1.22997H36.83L37.55 1.29997L37.9 1.12997C37.97 1.07997 38.07 1.07997 38.15 1.07997L38.5 1.12997L38.92 1.22997C39.02 1.24997 39.12 1.32996 39.17 1.39996L39.29 1.56998C39.34 1.61998 39.39 1.68996 39.39 1.78996L39.41 2.35997L39.46 2.62997C39.48 2.72997 39.44 2.79997 39.41 2.87997L39.31 3.12997L39.29 3.64996L39.44 4.04997C39.44 4.06997 39.46 4.09996 39.46 4.14996L39.51 4.73997C39.51 4.78998 39.51 4.85997 39.49 4.93997L39.42 5.13997L39.52 5.53996C39.57 5.68996 39.54 5.80997 39.47 5.88997L39.37 5.98997L39.35 6.50996L39.28 7.22997L39.5 7.66997C39.52 7.71997 39.52 7.81996 39.52 7.86996V8.13997L39.5 8.18997L39.45 8.53996L39.28 9.10997L39.53 9.59998C39.58 9.66998 39.58 9.79996 39.55 9.89996L39.5 10.1L39.25 10.67L39.49 11.03ZM47.44 9.44997L47.34 9.79997L47.39 10.37L47.44 10.74V11.16L47.42 11.28L47.17 12L47.29 12.44C47.31 12.51 47.31 12.54 47.31 12.61V12.71L47.36 13.13V13.2L47.34 13.82C47.34 13.87 47.32 13.84 47.32 13.89L47.22 14.26L47.37 14.58C47.44 14.7 47.44 14.85 47.39 14.98L47.19 15.38L47.26 15.55C47.28 15.62 47.28 15.7 47.28 15.75V16.76L47.13 17.3L47.15 17.82L47.25 17.94C47.37 18.06 47.42 18.24 47.35 18.41L47.25 18.63L47.32 19.35V19.84L47.34 20.16V20.28L47.27 20.9L47.17 21.42L47.22 21.47C47.32 21.54 47.37 21.62 47.39 21.72L47.44 21.94C47.44 22.01 47.44 22.11 47.42 22.16L47.25 22.6L47.15 22.75L46.93 22.97C46.86 23.04 46.76 23.09 46.66 23.09L46.31 23.11L46.19 23.18C46.07 23.28 45.89 23.33 45.77 23.25L45.55 23.15L44.91 23.1L44.29 23.27L43.89 23.32H43.67C43.65 23.32 43.6 23.34 43.55 23.32L42.93 23.17H42.83C42.61 23.19 42.41 23.1 42.36 22.92L42.29 22.67C42.29 22.65 42.27 22.65 42.27 22.6V22.03L42.15 21.61L42.08 21.49C42.06 21.42 42.03 21.29 42.06 21.22L42.18 20.65L42.11 20.25V20.13L42.16 19.73L42.21 19.31L42.09 18.89C42.07 18.79 42.07 18.64 42.11 18.54L42.23 18.37L42.01 17.75C41.99 17.65 41.99 17.58 42.01 17.48L42.11 17.23L42.13 16.83L42.08 16.34V16.27L42.13 15.75L42.06 15.21V15.14L42.11 14.67L42.16 14.15L42.01 13.93C41.96 13.86 41.96 13.76 41.96 13.68L42.03 13.21L42.1 12.79L42.12 12.72L42.24 12.42L42.17 11.85V11.73L42.24 11.46L41.97 10.79C41.95 10.72 41.95 10.59 41.97 10.52L42.09 10.2L42.14 9.70998L42.09 9.58997V9.41997L42.24 8.67996L42.22 8.30997L42.07 8.00996C42.05 7.95996 42.02 7.90997 42.02 7.85997V7.36996L42.04 6.84998L41.99 6.32997C41.99 6.25997 41.99 6.22997 42.01 6.15997L42.18 5.71997L42.23 5.54997L42.03 5.02997C41.98 4.85997 41.98 4.67997 42.05 4.60997L42.2 4.48997L42 3.99997C41.98 3.89997 41.98 3.82997 42 3.72997L42.12 3.40997L42.22 3.03996L42.27 2.49997L42.2 1.92996V1.35997C42.1 1.18997 42.13 1.03996 42.25 0.869965L42.42 0.669968C42.59 0.469968 42.84 0.399971 42.94 0.469971L43.14 0.619965L43.73 0.469971H44.1L44.37 0.519974L45.01 0.569977L45.33 0.549973C45.38 0.549973 45.43 0.549977 45.48 0.569977L45.7 0.619965L46.07 0.419968C46.12 0.399968 46.19 0.369965 46.24 0.369965L46.59 0.349976C46.74 0.349976 46.91 0.449977 46.99 0.569977L47.16 0.869965C47.26 1.03996 47.31 1.16997 47.26 1.23997L47.19 1.33997L47.36 1.80997C47.41 1.95997 47.41 2.07998 47.34 2.20998L47.12 2.55997L47.19 2.67996C47.29 2.79996 47.31 2.94997 47.29 3.07997L47.17 3.59998L47.29 3.86996C47.31 3.91996 47.36 4.01998 47.36 4.06998V4.50996L47.38 4.87997L47.33 5.44997C47.33 5.54997 47.31 5.59996 47.26 5.64996L47.19 5.74997L47.36 6.43997C47.38 6.50997 47.38 6.58997 47.36 6.65997L47.34 6.77997L47.14 7.31998L47.36 8.03996C47.36 8.05996 47.38 8.05997 47.38 8.10997L47.4 8.42996L47.42 8.91997V9.31998L47.44 9.44997Z" fill="#EA5457"/>
<path d="M64.95 21.92L64.9 22.24C64.9 22.31 64.88 22.34 64.85 22.39L64.65 22.69C64.55 22.81 64.4 22.91 64.28 22.89L64.06 22.87L63.54 22.89C63.44 22.89 63.32 22.89 63.22 22.79L63.1 22.67L61.96 22.87L61.66 22.89H61.56L60.52 22.77L60 22.7C59.95 22.75 59.9 22.77 59.85 22.77L59.78 22.79C59.73 22.81 59.68 22.79 59.66 22.79H59.02L58.75 22.84H58.6L58.06 22.77H57.66L57.07 22.72L56.72 22.82H56.57L55.98 22.8L55.68 22.82C55.56 22.84 55.51 22.82 55.41 22.75L55.19 22.6C55.02 22.75 54.84 22.82 54.72 22.72H54.7L54.45 22.77L54.4 22.79H54.03L53.83 22.81L53.51 22.86C53.44 22.86 53.34 22.86 53.29 22.84L52.75 22.62L52.38 22.72L52.33 22.74L51.84 22.81L51.42 22.86H51.3L51 22.81C50.85 22.79 50.73 22.66 50.68 22.51L50.58 22.21C50.58 22.19 50.56 22.16 50.56 22.14L50.51 21.65V21.55L50.53 21.4L50.48 20.91L50.41 20.27V19.63L50.36 19.58C50.29 19.48 50.24 19.36 50.26 19.21L50.41 18.69L50.53 18.39L50.38 18.14C50.31 18.02 50.31 17.89 50.33 17.79L50.48 17.35L50.58 16.76L50.43 16.64C50.33 16.57 50.28 16.44 50.31 16.29L50.38 15.82L50.28 15.5C50.23 15.33 50.28 15.2 50.38 15.1L50.55 14.95L50.45 14.41C50.43 14.34 50.45 14.24 50.47 14.16L50.54 14.06L50.44 13.32L50.32 13.17C50.25 13.07 50.22 12.95 50.25 12.82L50.5 11.88L50.43 11.46V11.34L50.5 11.02L50.57 10.55L50.3 10.13C50.28 10.08 50.23 9.97998 50.23 9.92998V9.67998L50.3 8.90999V8.60999L50.23 8.25998V8.10999L50.33 7.70999L50.43 7.13998V6.54999C50.43 6.52999 50.41 6.42998 50.43 6.39998L50.53 6.19998L50.55 5.60999L50.3 5.16998C50.25 5.04998 50.25 4.89999 50.32 4.76999L50.47 4.51999L50.4 4.19998L50.28 3.94998C50.23 3.84998 50.26 3.67999 50.3 3.57999L50.52 3.22998L50.57 2.68999L50.37 2.31999C50.35 2.29999 50.32 2.19998 50.32 2.16998L50.3 1.86998C50.28 1.66998 50.35 1.51998 50.5 1.42998L50.72 1.30998C50.77 1.28998 50.84 1.25998 50.89 1.25998L51.33 1.23999C51.43 1.23999 51.53 1.23998 51.58 1.28998L51.68 1.35999L52.15 1.15999C52.22 1.13999 52.37 1.10998 52.45 1.13998L52.8 1.23999L53.39 1.16998H54.03L54.47 1.21999L54.91 1.16998C55.01 1.14998 55.13 1.16999 55.21 1.21999L55.38 1.33998L55.4 1.35999L56.09 1.13998C56.14 1.11998 56.21 1.08998 56.29 1.11998L56.64 1.18999L56.89 1.16998C56.96 1.16998 57.04 1.16999 57.09 1.18999L57.51 1.35999L58.1 1.30998H58.57L58.94 1.18999C59.09 1.13999 59.26 1.13999 59.34 1.20999L59.46 1.32999L59.81 1.25998C59.91 1.23998 60.03 1.23998 60.13 1.27998H60.18L60.25 1.22998C60.4 1.10998 60.6 1.07998 60.77 1.17998L61.09 1.34999L61.46 1.09999C61.56 1.02999 61.66 1.02999 61.76 1.04999L62.01 1.06999C62.03 1.06999 62.11 1.06998 62.13 1.08998L62.57 1.28998L63.04 1.11998L63.44 1.04999C63.51 1.02999 63.64 1.02999 63.71 1.06999L64.23 1.33998C64.25 1.35998 64.28 1.35999 64.28 1.35999L64.38 1.42998C64.5 1.52998 64.58 1.64999 64.55 1.79999L64.5 1.99998L64.65 2.31999C64.7 2.41999 64.7 2.48999 64.67 2.56999L64.6 3.08998L64.55 3.50998L64.67 3.87999C64.69 3.97999 64.69 4.04998 64.67 4.14998L64.6 4.39998V4.88998L64.58 5.00998L64.46 5.32999C64.46 5.34999 64.44 5.37998 64.41 5.42998L64.19 5.72998C64.04 5.92998 63.82 5.99998 63.72 5.94998L63.52 5.82999L63.22 5.84999L62.6 6.09999C62.53 6.11999 62.4 6.11999 62.33 6.09999L62.13 6.02998L61.61 6.00998L61.31 6.10999C61.29 6.10999 61.26 6.12999 61.24 6.12999L60.62 6.14998H60.57L59.93 6.07999L59.78 6.09999C59.73 6.09999 59.66 6.09999 59.61 6.07999C59.56 6.07999 59.51 6.05998 59.46 6.02998L59.02 5.80998L58.75 6.00998C58.63 6.10998 58.48 6.12999 58.38 6.07999L58.21 5.97998L57.59 5.99998H57.19L56.7 5.89998L56.03 6.01999L55.81 6.08998C55.79 6.10998 55.74 6.08998 55.71 6.08998V6.10999C55.73 6.15999 55.73 6.25999 55.73 6.32999L55.68 6.62999C55.68 6.67999 55.66 6.72998 55.63 6.74998L55.58 6.86998V7.35999L55.6 8.14998L55.67 8.44998C55.69 8.51998 55.67 8.66998 55.65 8.74998L55.53 9.04999L55.43 9.58998L55.53 9.75998C55.63 9.95998 55.65 10.16 55.55 10.25L55.4 10.37L55.6 10.81C55.6 10.83 55.62 10.86 55.62 10.86L55.69 11.16C55.71 11.26 55.71 11.31 55.69 11.41L55.52 11.83L55.45 12.4L55.55 12.87L55.62 13.31C55.64 13.46 55.6 13.56 55.52 13.66L55.4 13.83L55.52 14.3V14.82L55.62 15.12L55.64 15.22V15.74L55.47 16.38V16.7L55.4 17.1L55.57 17.77V17.82H55.69L55.99 17.75C56.06 17.73 56.16 17.73 56.24 17.75L56.51 17.82L56.93 17.77H57.67L58.04 17.67C58.09 17.65 58.19 17.65 58.24 17.67L58.61 17.77L58.71 17.82L58.88 17.92H59.4L59.52 17.87C59.57 17.85 59.62 17.85 59.69 17.85L59.71 17.83C59.83 17.76 59.98 17.78 60.11 17.85L60.38 17.97L60.75 17.82C60.8 17.8 60.87 17.8 60.95 17.8L61.57 17.9H62.39L62.44 17.92L62.84 17.97L63.21 17.77C63.28 17.72 63.38 17.7 63.46 17.7L64.05 17.77L64.17 17.82C64.27 17.84 64.39 17.89 64.44 17.99L64.64 18.34C64.64 18.36 64.66 18.39 64.66 18.39L64.78 18.71C64.8 18.81 64.8 18.83 64.78 18.93L64.73 19.2L64.9 19.6C64.92 19.65 64.92 19.75 64.92 19.82L64.87 20.22V20.64L64.65 21.36L64.75 21.43C64.9 21.6 64.97 21.77 64.95 21.92ZM72.09 21.58C72.11 21.65 72.14 21.7 72.14 21.75V22.47C72.14 22.57 72.09 22.64 72.04 22.72L71.79 22.99C71.72 23.09 71.62 23.14 71.49 23.14H70.55L70.15 23.16L69.58 23.23H68.94C68.89 23.23 68.84 23.23 68.79 23.21L68.39 23.06L67.95 23.26C67.88 23.31 67.75 23.31 67.68 23.28L67.43 23.23C67.33 23.21 67.23 23.16 67.18 23.06L66.86 22.59C66.84 22.54 66.81 22.52 66.81 22.49L66.71 22.22C66.66 22.1 66.69 22 66.71 21.92L66.78 21.82L66.8 21.28C66.8 21.23 66.82 21.18 66.85 21.16L66.97 20.94L66.82 20.25L66.75 19.71L66.68 19.49V19.37L66.75 18.6L66.7 18.55C66.65 18.45 66.65 18.35 66.68 18.28L66.8 17.74C66.82 17.64 66.85 17.59 66.9 17.54L66.97 17.47L66.92 16.88L66.9 16.14L66.73 15.92C66.66 15.82 66.66 15.67 66.71 15.52L66.78 15.32L66.83 14.92L66.73 14.3L66.66 13.86L66.64 13.24V13.12L66.71 12.92L66.83 12.35L66.9 11.88L66.78 11.58C66.78 11.56 66.76 11.56 66.76 11.51L66.69 10.87C66.69 10.75 66.71 10.67 66.74 10.62L66.81 10.52L66.91 9.74998L66.86 9.67998C66.84 9.57998 66.84 9.55999 66.86 9.45999L66.96 9.05998V8.48999L66.81 7.99998V7.40999C66.81 7.33999 66.83 7.23999 66.88 7.15999L66.98 7.03998V6.46999L66.91 5.79999V5.42998L66.74 4.98999L66.64 4.68999C66.62 4.63999 66.62 4.56999 66.64 4.51999L66.99 3.30998L66.82 3.10999C66.77 3.05999 66.75 3.00999 66.75 2.90999V2.46999L66.7 2.06999V1.32999L66.72 1.25998C66.72 1.20998 66.74 1.10998 66.79 1.05998L67.06 0.759979C67.13 0.659979 67.28 0.639984 67.41 0.639984H67.71L67.96 0.48999C68.03 0.43999 68.13 0.419983 68.23 0.419983L68.63 0.469986L69.35 0.519989L69.45 0.499985C69.52 0.449985 69.62 0.429982 69.7 0.449982L70.07 0.519989L70.44 0.469986H70.56L71.18 0.569992L71.4 0.549988C71.55 0.529988 71.72 0.569982 71.82 0.699982L71.99 0.949982C72.09 1.06998 72.11 1.21998 72.06 1.36998L71.96 1.61998L72.03 1.96999L72.05 2.55998V2.62999L72 3.06999L72.1 3.55998V3.72998L72.03 4.02998C72.01 4.07998 72.01 4.17998 71.96 4.22998L71.84 4.34999L71.89 4.86998V5.55998L72.04 5.92998C72.09 6.02998 72.09 6.17999 72.04 6.29999L71.92 6.54999L71.94 7.01999V7.13998L71.84 7.48999L72.01 7.75998C72.03 7.80998 72.06 7.85998 72.06 7.92998L72.11 8.32999C72.11 8.44999 72.09 8.57998 72.01 8.64998L71.89 8.76999L72.09 9.33998C72.14 9.43998 72.11 9.55999 72.07 9.68999L71.95 9.93999L72 10.11C72.1 10.33 72.15 10.53 72.02 10.6L71.85 10.7V11.34L71.87 11.71V12.38L71.94 12.97L72.04 13.17C72.09 13.27 72.09 13.42 72.04 13.54L71.97 13.74L72.04 14.31L72.06 14.38V14.75L71.99 15.19L72.04 15.86L72.02 16.26L72 16.68L72.15 17.32V17.47L72.1 17.87L72.03 18.31L72.15 18.75C72.17 18.85 72.17 18.95 72.13 19.02L71.96 19.44L71.91 19.96L72.03 20.08C72.1 20.18 72.13 20.3 72.13 20.4L72.11 20.75C72.11 20.87 72.06 20.97 71.99 21.02L71.89 21.12L72.09 21.58Z" fill="#EA5457"/>
<path d="M82.8299 15.33C82.8299 15.43 82.7799 15.53 82.7099 15.58L82.44 15.8L82.34 16.24L82.32 16.61C82.32 16.66 82.3199 16.73 82.2999 16.76L82.13 17.08L82.0799 17.18L81.73 17.53L81.63 18.02C81.63 18.07 81.58 18.14 81.56 18.19L81.29 18.54L81.04 18.89C80.99 18.96 80.89 19.01 80.79 19.04L80.4899 19.11L80.39 19.48C80.37 19.58 80.32 19.68 80.19 19.75L79.79 19.95L79.54 20.44L79.2699 20.86C79.2699 20.88 79.25 20.91 79.22 20.93L78.95 21.18L78.5799 21.55L78.16 21.87C78.14 21.89 78.06 21.92 78.04 21.92L77.72 22.02L77.7 22.24C77.7 22.34 77.6299 22.44 77.5499 22.51L77.35 22.66C77.28 22.73 77.1499 22.76 77.0499 22.76L76.48 22.71C76.43 22.71 76.36 22.66 76.31 22.64L76.04 22.47C75.99 22.45 75.92 22.4 75.89 22.32L75.67 21.88C75.67 21.86 75.6199 21.83 75.6199 21.78L75.57 21.46L75.05 21.14L74.9799 21.07L74.81 20.87L74.71 20.72L74.61 20.3L74.2599 20.13C74.1599 20.08 74.09 19.98 74.06 19.88L73.99 19.73C73.99 19.71 73.97 19.68 73.97 19.63L73.95 19.28C73.95 19.16 73.95 19.08 74.02 18.98L74.27 18.71L74.32 18.54C74.37 18.42 74.47 18.37 74.57 18.32L75.0399 18.15L75.39 17.75L75.59 17.21C75.61 17.14 75.69 17.09 75.74 17.04L75.91 16.92L76.31 16.5L76.3299 16.35C76.3299 16.3 76.3799 16.25 76.3999 16.2L76.7 15.81L77.07 15.44L77.22 14.87C77.22 14.82 77.27 14.8 77.29 14.75L77.59 14.4L77.6099 14.18C77.6299 14.01 77.7299 13.91 77.8599 13.86L78.13 13.74L78.03 13.37C78.01 13.22 78.03 13.12 78.13 13L78.45 12.6V12.23L78.47 11.88C78.47 11.86 78.4699 11.78 78.4899 11.76L78.66 11.34L78.73 10.7L78.75 10.55L78.8699 9.75998L78.89 9.43999L78.91 8.76999L78.9599 8.44998L78.91 7.82999L78.89 7.72998C78.87 7.62998 78.89 7.57998 78.91 7.47998L79.16 6.78998L79.1099 6.61998C79.0899 6.56998 79.06 6.56998 79.06 6.49998V6.05998L78.59 6.03998C78.57 6.03998 78.57 6.01999 78.54 6.01999L78.17 5.91998L77.53 5.98999L77.26 6.10999C77.24 6.12999 77.19 6.10999 77.14 6.10999H76.7399C76.6399 6.10999 76.52 6.08998 76.44 6.00998L76.22 5.78998L75.82 5.90999C75.72 5.92999 75.6 5.92998 75.52 5.88998L75.32 5.76999L75.07 5.69998C74.87 5.62998 74.75 5.52999 74.75 5.34999V5.09999L74.6499 4.62999C74.6499 4.55999 74.65 4.47998 74.67 4.42998L74.7899 4.07999L74.69 3.72998L74.59 3.32999C74.57 3.17999 74.61 3.05999 74.69 2.95999L74.86 2.75998L74.66 2.13998V1.88998C74.66 1.81998 74.7099 1.71998 74.7599 1.63998L74.9299 1.43999C75.0299 1.31999 75.2299 1.26999 75.3699 1.31999L75.6199 1.38998L75.99 1.33998L76.51 1.18999C76.61 1.16999 76.73 1.16999 76.81 1.20999L77.06 1.32999L77.7 1.12999C77.75 1.10999 77.8499 1.10999 77.8999 1.10999L78.17 1.15999L78.6099 1.32999L79.6499 1.27998H80.32L80.39 1.22998C80.46 1.12998 80.5899 1.05998 80.7099 1.05998H81.1099C81.1799 1.05998 81.2799 1.07999 81.3599 1.15999L81.5799 1.32999L82.1199 1.20999H82.64L82.7099 1.22998L83.1799 1.29999L83.6199 1.17998C83.6699 1.15998 83.74 1.15999 83.79 1.15999L84.31 1.22998L84.73 1.15999H85.64C85.69 1.15999 85.76 1.15998 85.81 1.17998L86.0799 1.27998L86.5499 1.34999H87.2399L87.4899 1.24998C87.6399 1.17998 87.7899 1.19998 87.8599 1.24998L87.98 1.34999L88.1499 1.41998C88.3699 1.48998 88.5 1.61998 88.5 1.78998V2.05998L88.6199 2.45999V3.39998L88.69 3.98999C88.71 4.08999 88.67 4.20998 88.59 4.28998L88.47 4.45999L88.57 4.80998L88.64 5.12999C88.71 5.37999 88.57 5.59998 88.34 5.69998L88.07 5.79999L87.82 5.99998C87.77 6.04998 87.67 6.06999 87.6 6.06999H87.03L86.4599 5.91998L86.09 5.96999C86.04 5.96999 85.97 5.96998 85.92 5.94998L85.48 5.79999L85.38 5.89998C85.31 5.96998 85.1799 5.99998 85.0799 5.99998L84.6099 5.97998C84.5399 5.97998 84.44 5.92999 84.39 5.87999L84.3699 5.85999L84.32 5.95999L84.07 6.30998L84.19 6.69998C84.19 6.74998 84.2099 6.79999 84.2099 6.84999L84.16 7.21999L84.26 7.78998C84.26 7.85998 84.2399 7.95998 84.2099 8.03998L84.1099 8.25998L84.26 8.69998C84.28 8.76998 84.26 8.79998 84.26 8.86998L84.19 9.40999L84.14 9.75998C84.14 9.80998 84.12 9.87999 84.09 9.90999L83.92 10.18L83.9899 10.67L84.04 11.31V11.38L83.9899 11.75C83.9899 11.85 83.97 11.92 83.92 11.97L83.7 12.19L83.7699 12.44C83.7899 12.51 83.79 12.64 83.75 12.71L83.4299 13.38L83.3599 13.7C83.3599 13.77 83.31 13.82 83.26 13.9L83.09 14.1L83.04 14.5C83.04 14.52 83.0199 14.6 82.9899 14.62L82.82 15.02L82.8299 15.33ZM89.72 18.91L89.7399 19.06C89.7399 19.18 89.6899 19.28 89.6199 19.38L89.22 19.8L89.0499 20.12C89.0299 20.19 88.9499 20.24 88.8999 20.27L88.5499 20.47L88.38 20.84L88.16 21.21L88.06 21.31L87.57 21.75C87.57 21.75 87.5499 21.8 87.5199 21.8L87.1199 22.02C87.1199 22.24 86.85 22.39 86.53 22.37H86.48C86.46 22.37 86.3799 22.37 86.3599 22.35L85.94 22.15C85.92 22.13 85.8899 22.13 85.8699 22.13L85.57 21.91L85.47 21.81L85.1199 21.27L85 21.2L84.48 20.85L84.38 20.75L84.0799 20.28L83.6799 19.96L83.4599 19.71L83.1099 19.36L82.84 18.94C82.79 18.87 82.7699 18.77 82.7699 18.69L82.79 18.17L82.8599 17.73C82.8599 17.68 82.9099 17.61 82.9299 17.56L83.28 17.09C83.28 17.07 83.3299 17.04 83.3299 17.04L83.53 16.84L83.75 16.3L83.85 15.78L84.0199 15.31V15.14C84.0199 15.04 84.09 14.92 84.17 14.84L84.4899 14.54L84.3699 14.07C84.3199 13.92 84.37 13.75 84.47 13.65L84.64 13.5L84.6199 13.13C84.6199 12.98 84.69 12.83 84.82 12.76C84.92 12.69 85.02 12.78 85.04 12.91L85.06 13.18L85.38 13.58C85.4 13.6 85.4299 13.63 85.4299 13.65L85.6799 14.22L85.9299 14.42C85.9799 14.47 86.0499 14.49 86.0799 14.59L86.2 14.99L86.6 15.53L86.72 15.75L87.07 16.29L87.34 16.61L87.8299 16.86C87.8999 16.91 87.95 16.96 87.98 17.01L88.1499 17.31L88.32 17.68L88.91 18.08L89.01 18.18L89.1799 18.43L89.4299 18.53C89.6199 18.56 89.72 18.71 89.72 18.91ZM98.31 12.34L98.26 12.69L98.14 13.06C98.14 13.11 98.12 13.13 98.09 13.18L97.84 13.48C97.79 13.55 97.72 13.58 97.64 13.6L97.22 13.72C97.07 13.77 96.92 13.72 96.85 13.65L96.73 13.53L96.09 13.6H95.69L95.59 13.97L95.7099 14.19C95.7299 14.24 95.78 14.29 95.78 14.34L95.8299 14.59V14.71L95.81 15.25L95.7099 15.79L95.54 16.33L95.56 16.87L95.54 17.39L95.7099 17.79C95.7299 17.86 95.76 17.96 95.76 18.04L95.7399 18.21L95.64 18.8L95.57 19.17L95.69 19.66C95.71 19.73 95.71 19.86 95.67 19.93L95.57 20.18L95.7399 20.45C95.7899 20.55 95.81 20.67 95.79 20.77L95.69 21.19L95.64 21.83L95.7099 22.03C95.7599 22.15 95.78 22.23 95.73 22.35L95.63 22.6C95.61 22.67 95.5299 22.75 95.4599 22.8L95.1099 23C95.0899 23.02 95.0099 23.05 94.9599 23.05L94.66 23.1L94.2399 23.22H93.7999L93.38 23.24L93.06 23.29H92.6199C92.57 23.29 92.52 23.27 92.47 23.24L92.03 23.04H91.59L91.42 23.11C91.25 23.21 91.0499 23.21 90.8999 23.06L90.7 22.89C90.58 22.77 90.5299 22.62 90.5799 22.45L90.6799 22.18L90.7 21.78L90.53 21.21C90.51 21.14 90.5299 21.04 90.5499 20.94L90.7 20.62L90.5 20.25C90.45 20.15 90.43 20 90.48 19.9L90.5799 19.73L90.7 19.14L90.53 18.74C90.51 18.69 90.51 18.59 90.51 18.52L90.56 18.35L90.6799 17.63L90.56 17.33C90.54 17.28 90.56 17.26 90.56 17.18L90.6099 16.61C90.4599 16.49 90.44 16.34 90.51 16.14L90.66 15.82L90.44 15.45C90.42 15.38 90.42 15.33 90.42 15.28V14.71L90.54 14.12V13.72L90.44 13.45C90.42 13.33 90.4399 13.23 90.4899 13.13L90.66 12.86L90.4899 12.54C90.4399 12.44 90.4399 12.27 90.4899 12.17L90.7099 11.7L90.56 11.53C90.51 11.46 90.4599 11.38 90.4599 11.26L90.48 10.82L90.4599 10.45C90.4599 10.38 90.48 10.28 90.53 10.2L90.6499 10.03L90.48 9.55998C90.48 9.53998 90.4599 9.53999 90.4599 9.48999L90.41 8.71999V8.29999C90.41 8.24999 90.4299 8.24998 90.4299 8.22998L90.5799 7.78998L90.4599 7.48999C90.4099 7.36999 90.4399 7.26999 90.4599 7.18999L90.53 7.06999L90.3599 6.34999V6.17998L90.4599 5.82999L90.63 5.30998L90.56 5.28998C90.44 5.18998 90.36 5.01999 90.41 4.84999L90.53 4.32999C90.53 4.27999 90.5499 4.27998 90.5499 4.25998L90.7 3.98999L90.6499 3.54999L90.48 2.80998L90.4299 2.65999V2.53998L90.53 1.96999L90.6 1.47998V1.15999C90.6 1.08999 90.65 0.959988 90.7 0.909988L90.95 0.609985C91.02 0.509985 91.1699 0.439987 91.2699 0.439987H91.44L92.1099 0.559982L92.5799 0.579987H92.63C92.73 0.529987 92.8299 0.529987 92.9299 0.579987L93.1799 0.649979L93.7999 0.499985C93.8199 0.499985 93.82 0.47998 93.85 0.47998L94.1199 0.459991L94.79 0.359985H94.94L94.9899 0.37999C95.0399 0.39999 95.09 0.399982 95.14 0.449982L95.6799 0.889984C95.7799 0.989984 95.88 1.10998 95.85 1.25998L95.8299 1.55998L95.85 1.70999V1.87999L95.75 2.29999L95.6 3.01999L95.6199 3.31999L95.7399 3.66998C95.7599 3.73998 95.7599 3.78998 95.7399 3.88998L95.67 4.32999L95.7399 5.09999C95.8099 5.16999 95.81 5.36999 95.72 5.56999L95.57 5.83998L95.69 6.35999V6.47998L95.67 6.87999L95.69 7.27998V7.94998L95.76 8.26999L95.8299 8.70999V8.77998H96L96.47 8.67998C96.54 8.65998 96.64 8.65998 96.72 8.69998L97.2099 8.89998C97.3599 8.74998 97.58 8.72999 97.78 8.87999L98 9.04999C98.05 9.09999 98.0999 9.11999 98.1199 9.21999L98.22 9.51999C98.24 9.56999 98.2699 9.68999 98.2399 9.73999L98.1199 10.28L98.07 10.63L98.19 11.32L98.2399 11.54C98.2399 11.56 98.26 11.56 98.26 11.61L98.31 12.34Z" fill="#EA5457"/>
<path d="M100.31 12.32L99.91 11.78C99.89 11.76 99.86 11.71 99.86 11.68L99.71 11.31C99.69 11.24 99.66 11.19 99.69 11.09L99.74 10.84L99.44 10.4C99.39 10.3 99.34 10.18 99.37 10.08L99.44 9.81L99.39 9.39L99.29 9.12C99.27 9.05 99.27 9.02 99.27 8.95L99.29 8.46001L99.27 7.77L99.07 6.83L99.02 6.67999V6.56L99.12 5.57001L99.14 5.52L99.31 4.98L99.38 4.86L99.65 4.56L99.6 4.14C99.6 3.99 99.62 3.89001 99.7 3.82001L99.82 3.72L99.97 3L100.04 2.85001C100.09 2.75001 100.16 2.68 100.26 2.63L100.68 2.46001L101 1.99001L101.07 1.89L101.37 1.67L101.44 1.55C101.46 1.5 101.49 1.44999 101.56 1.39999L102.08 1.10001L102.3 0.850006L102.45 0.779999L102.77 0.630005C102.84 0.610005 102.92 0.580001 102.99 0.610001L103.51 0.710007L103.93 0.610001C103.98 0.590001 104.08 0.590001 104.13 0.610001L104.28 0.630005L105.27 0.509995C105.42 0.489995 105.57 0.530004 105.67 0.660004L105.87 0.910004C105.92 0.980004 105.94 1.05999 105.94 1.17999L105.92 1.60001V2.96001C105.92 3.03001 105.87 3.11 105.85 3.16L105.73 3.41L105.88 3.78C105.93 3.88 105.9 4.02999 105.86 4.14999L105.71 4.42C105.78 4.69 105.59 4.93999 105.29 5.00999L104.6 5.17999L104.45 5.38L104.38 6C104.38 6.05 104.36 6.12 104.33 6.17L104.06 6.52L104.04 6.82001L104.06 7.75999L104.11 8.55L104.28 8.8L104.53 9.32001L104.73 9.67L105.17 9.77C105.19 9.77 105.22 9.79001 105.24 9.82001L105.59 9.99001C105.66 10.04 105.74 10.09 105.76 10.16L105.83 10.31C105.85 10.38 105.88 10.43 105.88 10.51V11.55L105.93 11.87L105.98 12.34C106 12.49 105.96 12.64 105.86 12.71L105.71 12.86V13.58C105.88 13.8 105.81 14.02 105.61 14.12L105.31 14.27C105.26 14.29 105.16 14.29 105.11 14.29L104.42 14.27H104.35L103.91 14.15L103.34 14.22C103.29 14.22 103.22 14.22 103.17 14.2L103.1 14.18L102.53 13.91L102.06 13.79C102.04 13.79 101.99 13.79 101.96 13.77L101.74 13.62L101.2 13.35C101.15 13.33 101.1 13.3 101.08 13.25L100.76 12.83L100.54 12.66L100.47 12.59L100.31 12.32ZM121.8 21.87L121.73 22.12V22.49C121.73 22.61 121.66 22.76 121.56 22.84L121.34 23.01C121.29 23.06 121.24 23.06 121.19 23.08L120.79 23.2C120.74 23.22 120.69 23.22 120.62 23.2L120.15 23.13L120.05 23.2C119.9 23.32 119.73 23.32 119.58 23.25L119.18 23.05H118.88L118.34 23.15L117.87 23.2C117.82 23.2 117.75 23.22 117.7 23.2L117.21 23.05L116.89 23.22C116.87 23.24 116.82 23.24 116.79 23.24L116.35 23.34H116.2L115.98 23.32L115.36 23.17L115.01 23.27C114.96 23.29 114.89 23.29 114.84 23.29L114.22 23.22C114.17 23.22 114.1 23.2 114.05 23.17L113.85 23.05L113.6 23.2C113.5 23.27 113.38 23.27 113.28 23.25L112.86 23.15L112.59 23.25C112.49 23.3 112.42 23.3 112.34 23.27L111.7 23.15L111.55 23.17C111.5 23.19 111.45 23.17 111.4 23.17L110.91 23.1L109.95 23.2L109.38 23.27C109.26 23.29 109.11 23.27 109.03 23.17L108.91 23.05L108.51 23.2C108.41 23.25 108.31 23.25 108.24 23.22L107.94 23.15L107.32 23.3C107.27 23.32 107.2 23.35 107.15 23.32L106.8 23.25L106.18 23.15L105.86 23.22C105.79 23.24 105.71 23.22 105.64 23.2L105.47 23.15L105.2 23.13C105.05 23.18 104.93 23.2 104.83 23.15L104.68 23.05L104.09 23.17C104.02 23.19 103.94 23.19 103.87 23.17L103.72 23.12L103.2 23.22H103.08L102.56 23.17L102.04 23.05L101.6 23.12H100.88C100.76 23.14 100.58 23.12 100.48 23.02L100.21 22.77C100.06 22.62 100.01 22.5 100.04 22.42L100.09 22.32L100.07 21.75C100.07 21.68 100.07 21.65 100.09 21.58L100.34 21.04V20.74L100.27 20.3V18.74L100.1 18.39C100.08 18.32 100.05 18.24 100.05 18.17L100.12 17.6L100.07 17.38C100.05 17.28 100.05 17.23 100.07 17.16L100.22 16.81L100.27 16.17C100.27 16.07 100.32 16 100.37 15.95L100.47 15.83C100.52 15.76 100.62 15.73 100.69 15.71L101.21 15.61C101.28 15.59 101.36 15.59 101.43 15.61L101.63 15.68L102.25 15.7L102.45 15.68H102.57L103.06 15.73L103.28 15.61C103.4 15.54 103.58 15.51 103.7 15.59L103.95 15.69L104.67 15.59C104.84 15.52 105.02 15.59 105.14 15.71L105.36 15.93C105.46 16.03 105.48 16.13 105.46 16.28L105.44 16.6L105.59 17.24L105.61 17.49V17.61L105.54 18.13V18.67L105.59 18.79L105.81 18.69C105.83 18.67 105.91 18.64 105.96 18.64H106.53L106.9 18.69L107.3 18.57C107.32 18.57 107.35 18.55 107.37 18.55L107.74 18.5C107.81 18.5 107.91 18.5 107.99 18.55L108.43 18.82L108.92 18.77H109.27L109.81 18.82L110.16 18.6C110.28 18.53 110.41 18.53 110.53 18.58L110.73 18.65L111.45 18.63H111.67L112.51 18.61H112.73C112.9 18.59 113.03 18.61 113.08 18.68L113.15 18.83L113.79 18.58C113.89 18.53 113.99 18.53 114.09 18.58L114.46 18.7H114.9L115.1 18.55C115.17 18.5 115.27 18.45 115.35 18.45H115.65C115.7 18.45 115.77 18.47 115.82 18.5L116.44 18.82L116.79 18.62C116.86 18.57 116.96 18.57 117.06 18.6L117.31 18.65L117.85 18.82L118.05 18.7C118.12 18.65 118.25 18.63 118.35 18.65L118.65 18.7L119.14 18.72L119.66 18.7L120.2 18.63L120.69 18.56H121.13C121.33 18.56 121.5 18.66 121.55 18.83L121.67 19.13L121.82 19.65C121.82 19.7 121.84 19.67 121.84 19.72V20C121.84 20.07 121.84 20.07 121.82 20.15L121.65 20.62L121.72 21.31L121.82 21.58C121.85 21.68 121.82 21.77 121.8 21.87ZM108.26 9.38L108.61 8.78999L108.56 8.64C108.54 8.54 108.51 8.43999 108.54 8.37L108.74 7.8L108.84 6.98L108.67 6.83C108.52 6.71 108.47 6.51 108.55 6.34L108.67 6.09L108.3 5.67L108.23 5.5L108.13 5.08L107.78 4.92999L107.24 4.78C107.19 4.76 107.14 4.76001 107.09 4.71001L107.02 4.66C106.9 4.56 106.8 4.38999 106.82 4.25999L106.87 4.03999L106.77 3.55V2.91L106.92 2.34L106.99 1.82001V1.47L106.89 1.22C106.82 1 106.91 0.750005 107.14 0.630005L107.44 0.509995C107.51 0.459995 107.59 0.440007 107.66 0.460007L108.23 0.559998L108.87 0.490005C108.94 0.490005 109.04 0.509993 109.12 0.539993L109.37 0.690002L109.72 0.789993L110.16 0.839996L110.65 0.960007C110.67 0.960007 110.7 0.959996 110.72 0.979996L111.12 1.17999C111.19 1.19999 111.27 1.28001 111.29 1.35001L111.51 1.78999L111.71 2.11L112.08 2.28C112.13 2.3 112.2 2.37999 112.23 2.42999L112.3 2.55L112.87 3.37C112.89 3.39 112.92 3.42 112.92 3.44L113.14 4.13L113.24 4.48V4.58L113.22 5.05L113.49 5.37C113.54 5.44 113.56 5.49 113.56 5.59L113.61 6.08L113.63 6.13C113.65 6.23 113.68 6.28 113.65 6.38L113.5 6.95L113.65 7.91L113.67 8.08C113.67 8.15 113.67 8.25 113.65 8.33L113.35 8.97V9.28999L113.33 9.73L113.35 10.17C113.35 10.27 113.3 10.42 113.23 10.49L113.06 10.69V11.04C113.06 11.16 113.04 11.26 112.94 11.36L112.64 11.63L112.62 11.9C112.62 12.05 112.5 12.2 112.37 12.27L112.02 12.44L111.8 12.76L111.7 12.86L111.4 13.08L111.13 13.4C111.06 13.47 110.93 13.52 110.83 13.52L110.61 13.54L110.12 13.74L109.8 13.86L109.21 14.06C109.16 14.08 109.16 14.06 109.14 14.06L108.18 14.13L107.86 14.25C107.61 14.35 107.37 14.25 107.27 14.05L107.1 13.68L107 13.58C106.93 13.48 106.88 13.31 106.93 13.18L107.05 12.83L107.07 12.46L106.87 11.77C106.87 11.75 106.85 11.75 106.85 11.7V11.26L106.78 10.72L106.76 10.52C106.76 10.35 106.81 10.2 106.93 10.12L107.15 9.97L107.45 9.8C107.52 9.75 107.62 9.73 107.72 9.75L108.16 9.8L108.26 9.42999C108.24 9.44999 108.24 9.43001 108.26 9.38ZM116.09 13.75C116.07 13.7 116.04 13.6 116.04 13.55V12.86L116.06 12.51C116.06 12.39 116.11 12.34 116.18 12.26L116.28 12.16L116.13 11.47V11.17C116.13 11.15 116.13 11.07 116.15 11.05L116.32 10.68V10.09L116.34 9.5L116.14 9.03C116.12 9.01 116.14 8.96 116.14 8.91V8.61L116.04 7.92V7.82001L116.06 7.5C116.06 7.48 116.08 7.4 116.11 7.38L116.28 7.03L116.18 6.41V6.31L116.25 5.84L116.23 5.82001C116.16 5.70001 116.16 5.6 116.18 5.47L116.3 5V4.53L116.35 4.17999L116.18 3.71001C116.16 3.61001 116.16 3.56001 116.18 3.46001L116.28 3.14L116.16 2.67V2.52L116.28 1.89999L116.11 1.46001C116.11 1.44001 116.09 1.41 116.09 1.36L116.07 1.19C116.05 1.07 116.12 0.919996 116.22 0.839996L116.49 0.589996L116.64 0.490005L116.99 0.389999C117.06 0.369999 117.16 0.369999 117.24 0.389999L117.54 0.490005L117.96 0.589996L118.73 0.389999L118.85 0.339996C118.9 0.319996 119 0.320007 119.05 0.320007L119.37 0.339996L119.79 0.320007H120.58C120.7 0.320007 120.85 0.370001 120.93 0.470001L121.33 0.889999C121.45 1.04 121.53 1.14001 121.5 1.21001L121.45 1.31L121.38 2.08V2.38L121.28 3.02L121.35 3.37C121.37 3.47 121.37 3.52 121.35 3.62L121.25 3.89L121.32 4.58L121.44 5C121.46 5.07 121.44 5.17 121.42 5.27L121.37 5.42L121.49 6.06V6.36L121.42 6.88L121.32 7.47L121.25 7.89L121.35 8.50999C121.37 8.57999 121.35 8.67999 121.33 8.75999L121.26 8.92999L121.33 9.47L121.35 9.84L121.4 10.51L121.38 10.91L121.4 11.48C121.4 11.6 121.38 11.68 121.33 11.75L121.26 11.85L121.43 12.39C121.45 12.44 121.48 12.56 121.45 12.61L121.38 12.98V13.67L121.36 13.84L121.26 14.48L121.41 15.05V15.2L121.36 15.5C121.34 15.62 121.29 15.7 121.19 15.77L120.89 15.99C120.84 16.04 120.74 16.04 120.69 16.04H120.54L120.1 15.94L119.33 16.06L118.98 16.16C118.93 16.18 118.83 16.18 118.78 16.16L118.48 16.06L117.96 16.18H117.22L116.82 16.16C116.67 16.16 116.52 16.09 116.45 15.91L116.3 15.51L116.18 15.09L116.08 14.69C116.06 14.54 116.1 14.39 116.2 14.32L116.35 14.17L116.09 13.75Z" fill="#EA5457"/>
<path d="M146.93 12.66L146.86 12.98L146.88 13.65L146.86 13.95L146.88 14.05C146.93 14.2 146.88 14.4 146.76 14.49L146.32 14.91C146.22 15.01 146.1 15.03 146 15.03L145.78 15.01L145.21 15.03L144.86 15.05C144.81 15.05 144.74 15.05 144.69 15.03L144.49 14.93L143.95 14.81L143.31 14.79L143.14 14.89C143.07 14.94 142.97 14.96 142.89 14.96L142.35 14.89L141.98 15.04C141.86 15.09 141.73 15.06 141.66 15.02L141.56 14.95L141.07 14.83L140.48 15.13C140.43 15.15 140.36 15.15 140.28 15.15L139.98 15.13C139.91 15.13 139.81 15.11 139.73 15.03L139.58 14.86L139.04 14.98C138.97 15 138.89 15 138.82 14.98L138.57 14.86L138.03 15.11C138.01 15.13 137.93 15.16 137.91 15.16H137.74C137.69 15.16 137.59 15.16 137.54 15.14L136.95 14.82L136.55 15.02C136.53 15.04 136.45 15.07 136.4 15.07L135.54 15.12H134.92C134.87 15.12 134.8 15.1 134.75 15.07L134.43 14.87L133.99 15.04C133.94 15.06 133.87 15.06 133.82 15.06L133.42 15.04C133.37 15.04 133.3 15.02 133.27 14.99L133.1 14.89L132.78 15.06C132.71 15.11 132.58 15.11 132.51 15.08L132.19 15.01L131.42 14.94L131.25 14.99C131.2 15.01 131.15 15.04 131.08 15.01L130.41 14.86L130.01 15.08C129.96 15.1 129.89 15.1 129.84 15.1H129.1C129.05 15.1 128.98 15.12 128.9 15.08L128.46 14.81L128.16 14.93C127.99 15 127.89 14.98 127.84 14.93L127.77 14.86L127 15.03H126.68L126.24 15.01L126.17 14.99L125.63 14.84L125.26 14.86L124.77 14.91L124.45 14.98C124.35 15 124.23 14.96 124.13 14.91L123.73 14.66C123.63 14.61 123.58 14.46 123.56 14.36L123.54 14.19C123.54 14.14 123.54 14.07 123.56 14.02L123.76 13.5L123.81 13.18L123.69 12.54L123.64 12.05V11.58C123.64 11.48 123.66 11.38 123.74 11.31L123.91 11.14C124.06 10.99 124.28 10.94 124.45 11.04L124.75 11.19L125.07 10.99C125.12 10.94 125.19 10.92 125.24 10.92L125.51 10.9C125.56 10.9 125.66 10.9 125.71 10.92L125.96 11.02L126.68 10.92C126.75 10.92 126.85 10.92 126.9 10.94L127.22 11.06L127.29 11.01C127.39 10.96 127.54 10.96 127.66 11.01L128.13 11.18L128.4 11.03C128.45 11.01 128.52 10.96 128.6 10.96H129L129.49 11.01L130.18 11.06L130.45 11.11L130.92 11.04H131L131.42 11.06L132.01 11.13H132.68L133.17 11.2C133.27 11.08 133.44 11.03 133.59 11.08L134.06 11.18L134.41 11.16L134.76 11.04C134.83 11.02 134.93 10.99 135.03 11.04L135.6 11.21L135.72 11.14C135.74 11.12 135.79 11.09 135.84 11.09L136.36 10.99C136.43 10.97 136.48 10.97 136.53 10.99L136.9 11.09L137.37 10.97C137.49 10.92 137.62 10.95 137.72 11.02L137.97 11.14L138.39 11.12L139.01 11.05H139.13L139.38 11.07L139.87 11.22L140.59 11.1L140.89 11.08L141.29 10.93C141.34 10.91 141.39 10.88 141.44 10.88H141.86L142.38 10.93L142.6 10.91C142.7 10.89 142.75 10.91 142.82 10.93L143.36 11.18L143.66 11.08C143.76 11.03 143.88 11.03 143.98 11.08L144.23 11.18L144.87 11.03C144.94 11.01 145.07 11.01 145.14 11.05L145.51 11.2L145.81 11.22L145.96 11.17C146.13 11.12 146.31 11.17 146.43 11.29L146.58 11.46C146.65 11.53 146.7 11.63 146.7 11.73V12L146.9 12.4C146.93 12.44 146.96 12.54 146.93 12.66ZM124.39 5.74998C124.37 5.67998 124.37 5.57998 124.37 5.49998L124.47 4.72997L124.59 4.05998L124.71 3.48998L124.66 3.21998C124.64 3.11998 124.66 2.96997 124.73 2.89997L124.98 2.59998L125.2 2.15998L125.32 1.95998L125.59 1.53997C125.66 1.41997 125.81 1.33997 125.91 1.33997H126.08L126.65 1.06999L126.9 0.799981C126.97 0.699981 127.12 0.649972 127.25 0.649972L127.67 0.699975L127.87 0.549981C127.97 0.479981 128.07 0.479973 128.17 0.479973L128.71 0.529977L129.48 0.359978L129.58 0.339974H129.93C130 0.339974 130.08 0.389981 130.13 0.409981L130.5 0.629983L131.56 0.459984L132 0.309975C132.05 0.289975 132.1 0.309975 132.15 0.309975H132.52L132.64 0.32998L133.36 0.599984L133.56 0.479973C133.61 0.429973 133.68 0.42997 133.73 0.42997L134.05 0.409981C134.17 0.409981 134.32 0.459975 134.4 0.559975L134.62 0.809975C134.69 0.909975 134.74 1.00998 134.72 1.15998L134.7 1.37998L134.8 1.81999L134.85 2.16998C134.87 2.26998 134.83 2.33998 134.78 2.43998L134.56 2.80998L134.63 3.27998V3.64997C134.63 3.76997 134.61 3.89998 134.48 3.99998L134.43 4.04998C134.36 4.11998 134.23 4.11997 134.16 4.11997H133.72L133.47 4.16998L132.93 4.28997C132.83 4.30997 132.73 4.30998 132.63 4.23998L132.46 4.11997L131.94 4.21998H131.84L131.52 4.19997L130.83 4.12998L129.87 4.29998L129.92 4.69997L129.9 4.81998L129.7 5.70998L130.1 5.92997L131.11 6.12998H131.38L131.63 6.00997C131.73 5.95997 131.83 5.93998 131.95 5.98998L132.39 6.10998L132.76 5.93998C132.81 5.91998 132.88 5.88998 132.93 5.88998H133.15C133.25 5.88998 133.32 5.95997 133.4 6.00997L133.65 6.20998L134.19 6.15998C134.34 6.13998 134.46 6.22998 134.56 6.32998L134.63 6.42997C134.75 6.59997 134.78 6.74997 134.7 6.89997L134.58 7.11997L134.8 7.50997C134.82 7.55997 134.85 7.65997 134.85 7.75997V8.02998L134.78 8.46998L134.76 8.76998L134.61 9.40998C134.61 9.45998 134.59 9.52998 134.54 9.57998L134.32 9.84998C134.22 9.96998 134.1 10.02 134.02 9.99998L133.87 9.97997H133.06L132.69 9.92997C132.64 9.92997 132.59 9.90998 132.57 9.87998L132.37 9.75997L131.85 9.82998H131.73L131.24 9.72997L130.62 9.82998L130 9.89997L129.58 9.91998H128.74L128.22 9.79998L127.63 9.72997H127.56L127.12 9.60998C127.1 9.60998 127.07 9.58997 127.05 9.58997L126.68 9.36997L126.46 9.34998C126.36 9.32998 126.26 9.27997 126.19 9.17997L125.67 8.43998L125.4 8.11997L125.13 7.86997C125.06 7.79997 124.98 7.66998 124.98 7.56998V7.29998L124.86 6.57998L124.61 6.05998L124.39 5.74998ZM146.12 19.58C146.22 19.68 146.24 19.78 146.24 19.9V20.2C146.24 20.22 146.22 20.25 146.22 20.27L146.12 20.74L146.02 21.16L146.17 21.73C146.19 21.78 146.19 21.85 146.17 21.9L146.15 22.02L146.2 22.34C146.22 22.51 146.2 22.64 146.08 22.76L145.68 23.13L145.58 23.2L145.41 23.25C145.31 23.3 145.21 23.3 145.11 23.25L144.64 23.05L144.12 23.17C144.07 23.19 144.02 23.17 143.97 23.17L142.96 23.07L142.59 23.17L142.52 23.19L142.12 23.24C142.07 23.24 142.05 23.26 142 23.24L141.43 23.12L141.33 23.19C141.26 23.26 141.13 23.29 141.03 23.29L140.51 23.27C140.46 23.27 140.41 23.25 140.36 23.22L140.04 23.05L139.82 23.17C139.7 23.24 139.52 23.24 139.4 23.17L139.15 23.05L138.71 23.27C138.59 23.34 138.41 23.34 138.29 23.27L138.02 23.12L137.85 23.19C137.73 23.26 137.58 23.26 137.45 23.19L137.18 23.07H136.64L136.22 23.05L135.68 23.2L135.24 23.3L134.87 23.32H134.75L134.16 23.17H133.57L133.32 23.22C133.27 23.24 133.17 23.24 133.12 23.24L132.65 23.14L131.79 23.34C131.69 23.36 131.57 23.36 131.49 23.32L131.09 23.12L130.69 23.19C130.62 23.21 130.54 23.19 130.47 23.17L130.2 23.07L129.73 23.27C129.68 23.29 129.63 23.32 129.58 23.32H129.11C129.09 23.32 129.06 23.3 129.04 23.3L128.79 23.25L128.64 23.18L128.49 23.2L128.29 23.32C128.22 23.37 128.12 23.37 128.04 23.37L127.47 23.35L126.9 23.3H126.83C126.66 23.35 126.51 23.35 126.41 23.23L126.26 23.06L125.67 23.21C125.6 23.23 125.52 23.23 125.45 23.21L125.1 23.09L125 23.04L124.88 22.97C124.76 22.9 124.68 22.75 124.68 22.62V22.1L124.61 21.78C124.61 21.71 124.61 21.63 124.63 21.58L124.73 21.33L124.83 20.86V19.53L124.71 19.36C124.66 19.29 124.64 19.19 124.64 19.11V18.64L124.79 18.27L124.91 17.7L124.84 17.28L124.74 16.96C124.69 16.79 124.76 16.56 124.91 16.47L125.35 16.15C125.47 16.08 125.62 16.08 125.75 16.15L126 16.25L126.79 16.15L127.16 16.13H127.43L128.12 16.23L128.24 16.18C128.46 16.06 128.66 16.03 128.71 16.11L128.81 16.23L129.23 16.18C129.33 16.16 129.38 16.18 129.45 16.23L129.77 16.38C129.92 16.45 129.99 16.58 130.02 16.7L130.07 16.97C130.07 17.04 130.07 17.12 130.05 17.17L129.85 17.74L129.97 17.89C130.04 17.96 130.07 18.11 130.07 18.21L130.02 18.75C130.02 18.82 130 18.85 129.97 18.9L129.92 19.02H130.22L130.69 19.07H131.26L131.36 19.09L131.56 19.16L131.93 19.04C132.03 19.02 132.18 19.04 132.28 19.11L132.58 19.31L133.22 19.19C133.29 19.17 133.37 19.21 133.44 19.24L133.59 19.31L133.86 19.09C133.96 19.02 134.11 18.99 134.23 19.04L134.5 19.14L135.07 19.31L135.34 19.14C135.44 19.09 135.59 19.04 135.69 19.07L136.33 19.27L136.77 19.34L137.19 19.14C137.24 19.12 137.31 19.12 137.36 19.12L137.78 19.14L137.9 19.07C138.02 19.02 138.17 19.02 138.3 19.12L138.6 19.32L139.22 19.34L139.71 19.09L139.91 19.02C139.96 19 140.03 19 140.08 19L140.7 19.1L141.27 19.15L141.74 19.1H141.81L142.03 19.12L142.38 19.05H142.5L143.27 19.12L143.79 19.14L143.84 19.09C143.94 19.04 144.09 19.04 144.19 19.09L144.54 19.26L144.89 19.06C144.94 19.04 145.04 19.01 145.11 19.01L145.46 19.03C145.56 19.03 145.66 19.08 145.73 19.15L146.12 19.58ZM135.65 7.86997L135.58 7.44997V7.32998L135.63 6.90998L135.65 6.80998L135.77 6.55998L135.87 6.43998L136.19 6.16998C136.24 6.14998 136.31 6.09998 136.36 6.09998L136.71 5.99998L137.03 5.94997H137.15L137.69 5.99998H138.09L138.21 5.94997C138.33 5.89997 138.46 5.87997 138.58 5.94997L138.98 6.14997H139.45L140.46 5.97997L140.58 5.67997L140.83 4.71998L140.34 4.51998L139.53 4.31998H139.16C139.14 4.31998 139.11 4.31998 139.06 4.29998L138.59 4.12998L138.15 4.37998C138.08 4.42998 137.98 4.42997 137.9 4.42997L137.55 4.35998L137.25 4.42997C137.08 4.47997 136.95 4.44998 136.88 4.35998L136.76 4.20998H136.34C136.27 4.20998 136.17 4.18998 136.09 4.13998L135.92 4.01998C135.85 3.94998 135.8 3.86998 135.77 3.76998L135.72 3.44997V3.32998L135.79 2.90998L135.84 2.23998L135.77 2.16998C135.67 2.01998 135.65 1.81997 135.75 1.67997L135.9 1.42997L135.85 1.17997C135.83 1.07997 135.85 0.979981 135.9 0.909981L136.05 0.659981C136.15 0.509981 136.32 0.40998 136.49 0.43998L136.79 0.489983H137.11L137.21 0.509972L137.73 0.629983L138.2 0.559975L139.29 0.359978C139.36 0.359978 139.44 0.359983 139.51 0.379983L139.83 0.499978L140.27 0.42997L140.94 0.359978L141.63 0.339974H141.68L142.37 0.43998C142.44 0.45998 142.54 0.489975 142.59 0.559975L142.66 0.629983L143.13 0.979973L143.77 0.999978C143.82 0.999978 143.87 1.01998 143.92 1.04998L144.12 1.14997C144.14 1.16997 144.19 1.16998 144.22 1.21998L144.54 1.58997L144.89 1.85998C144.96 1.90998 145.01 2.00998 145.04 2.10998L145.11 2.45998L145.33 2.72997C145.33 2.74997 145.35 2.77998 145.35 2.79998L145.5 3.06999C145.52 3.08999 145.52 3.16998 145.52 3.18998L145.62 3.82998L145.89 3.97997C145.99 4.04997 146.04 4.14998 146.06 4.27998L146.08 4.54998C146.08 4.59998 146.08 4.66998 146.06 4.74998L145.76 5.55998L145.86 6.07998V6.24998L145.71 6.83997L145.69 6.98998L145.64 7.50997C145.64 7.55997 145.59 7.62997 145.57 7.67997L145.32 8.07998C145.32 8.09998 145.27 8.14997 145.27 8.14997L145.1 8.31999L144.51 8.75997L144.34 9.07998C144.32 9.14998 144.27 9.22998 144.19 9.24998L143.77 9.46998L143.5 9.56999C143.48 9.56999 143.45 9.58997 143.43 9.58997L142.96 9.65998H142.86L142.24 9.60998L141.77 9.80998C141.75 9.82998 141.7 9.82998 141.67 9.82998L140.78 9.97997C140.71 9.99997 140.58 9.95997 140.53 9.92997L140.41 9.85998L139.89 9.97997C139.77 9.99997 139.67 9.97998 139.59 9.90998L139.44 9.80998L138.82 9.92997H138.25L137.73 9.99998C137.61 10.02 137.51 9.99997 137.43 9.92997L137.11 9.65998L136.94 9.77998C136.92 9.77998 136.89 9.79998 136.87 9.79998L136.45 9.91998C136.3 9.96998 136.1 9.93998 135.98 9.79998L135.81 9.59998C135.71 9.47998 135.69 9.32998 135.71 9.19998L135.83 8.70998L135.68 8.48998C135.66 8.41998 135.63 8.36999 135.63 8.31999V7.86997H135.65Z" fill="#EA5457"/>
<path d="M152.88 15.7V15.43C152.88 15.38 152.9 15.41 152.9 15.36L153.1 14.62V14.08L152.98 13.64C152.96 13.57 152.96 13.54 152.96 13.47L153.06 12.98C153.06 12.93 153.08 12.86 153.11 12.83L153.23 12.63L153.28 12.58L153.55 12.28L153.85 11.88L154.2 11.29L154.25 11.12C154.3 10.92 154.42 10.77 154.6 10.77L154.9 10.75L155.59 9.95998L155.66 9.65998C155.68 9.58998 155.73 9.53998 155.78 9.48998L155.98 9.28997L156.38 8.84998L156.58 8.57998L156.78 8.20998L157 7.61997L156.85 6.47997L156.75 6.35998C156.7 6.30998 156.65 6.18998 156.65 6.10998V5.70998L156.08 5.53997L154.7 5.18998L154.13 5.30998L153.54 5.52998L153.34 6.04998C153.34 6.06998 153.32 6.11998 153.29 6.16998L152.92 6.63998L152.87 6.80998C152.85 6.92998 152.75 7.02998 152.62 7.07998L152.15 7.27998C151.98 7.34998 151.8 7.34998 151.75 7.27998L151.65 7.15998L151.28 6.98998C151.26 6.96998 151.23 6.96998 151.23 6.96998L150.71 6.54998L150.24 6.34998L149.62 6.02998L149.13 5.90998C149.11 5.90998 149.08 5.90998 149.06 5.88998L148.89 5.78997C148.82 5.73997 148.74 5.63997 148.72 5.53997L148.57 5.13998V4.66998C148.57 4.59998 148.59 4.49998 148.64 4.41998L148.96 3.94997L149.08 3.72997L149.38 3.23998C149.38 3.21998 149.43 3.16998 149.43 3.16998L149.83 2.72997L149.9 2.55998C149.95 2.40998 150.02 2.35998 150.15 2.30998L150.35 2.23998L150.62 1.86997C150.64 1.81997 150.72 1.79998 150.77 1.76998L151.31 1.46998C151.33 1.44998 151.36 1.44997 151.36 1.44997L151.78 1.32998L152.08 1.00997C152.13 0.959972 152.23 0.909977 152.3 0.889977L152.62 0.839974H153.14L154.67 0.469979C154.72 0.449979 154.77 0.469979 154.82 0.469979L155.63 0.589974L155.93 0.569985C156 0.569985 156.08 0.549974 156.15 0.589974L156.55 0.809975L156.95 0.82998L157.52 0.809975C157.59 0.809975 157.64 0.809978 157.72 0.859978L158.14 1.07998L158.66 1.29998H159.01C159.11 1.29998 159.21 1.31997 159.28 1.39997L159.38 1.51998L159.78 1.83997L159.85 1.93998L160.1 2.37998L160.54 2.54998C160.59 2.56998 160.66 2.59997 160.71 2.64997L160.96 2.94997C160.98 2.96997 161.01 2.99998 161.01 3.01998L161.18 3.36997L161.4 3.93998C161.42 4.00998 161.45 4.08998 161.42 4.18998L161.4 4.33997L161.6 5.12998L161.77 5.32998C161.79 5.37998 161.82 5.42997 161.82 5.44997L161.92 5.79998C161.92 5.84998 161.94 5.89997 161.94 5.94997L161.92 6.34998V7.38998C161.92 7.48998 161.87 7.55998 161.82 7.63998L161.67 7.80998L161.79 8.37998V8.49998L161.74 8.76998C161.72 8.91998 161.64 9.03999 161.57 9.06999L161.42 9.11997L161.25 9.75997C161.23 9.82997 161.2 9.90997 161.15 9.92997L161.08 9.99998L160.71 10.42L160.61 10.72C160.59 10.82 160.54 10.84 160.49 10.89L160 11.2L159.43 11.69L158.91 12.33C158.91 12.45 158.86 12.5 158.76 12.6L158.54 12.82L158.37 13.41C158.35 13.51 158.27 13.56 158.22 13.61L158.12 13.68L157.97 14.25C157.97 14.3 157.92 14.37 157.9 14.42L157.65 14.72L157.7 15.04C157.72 15.11 157.7 15.21 157.68 15.29L157.51 15.69L157.49 16.01C157.47 16.23 157.34 16.36 157.22 16.38L157 16.43L156.95 16.48C156.88 16.58 156.78 16.65 156.65 16.65H155.76C155.71 16.65 155.64 16.65 155.59 16.63L155.22 16.41L154.68 16.34L154.48 16.49C154.41 16.54 154.28 16.61 154.18 16.59L153.74 16.52H153.57C153.42 16.52 153.27 16.47 153.2 16.35L152.95 15.95C152.88 15.87 152.88 15.8 152.88 15.7ZM153.67 17.82L153.92 17.87L154.46 17.92L154.51 17.87C154.58 17.8 154.71 17.72 154.81 17.72L155.16 17.7L155.6 17.75L156.24 17.77L156.36 17.79L156.78 17.94C156.93 17.84 157.13 17.87 157.27 18.01L157.54 18.26C157.64 18.36 157.71 18.46 157.69 18.61L157.67 18.83L157.6 19.25L157.5 19.92V20.27L157.57 20.96L157.74 21.45C157.74 21.47 157.76 21.5 157.76 21.55V21.67C157.76 21.74 157.74 21.84 157.69 21.92L157.44 22.29C157.44 22.31 157.42 22.31 157.39 22.34L156.92 22.81L156.85 22.83C156.63 22.95 156.48 22.98 156.43 22.9L156.33 22.78L155.98 22.9C155.88 22.95 155.76 22.97 155.66 22.92L155.19 22.72L154.94 22.77C154.89 22.79 154.84 22.82 154.77 22.79L154.35 22.72L154.08 22.74H153.96L153.44 22.69C153.42 22.69 153.34 22.67 153.32 22.64L153.2 22.59C152.95 22.47 152.83 22.22 152.9 22.07L153.05 21.8L152.93 21.58C152.88 21.48 152.83 21.38 152.86 21.31L152.98 20.69L152.93 20.15L152.81 19.85C152.79 19.75 152.79 19.63 152.83 19.55L152.98 19.25L152.88 19.03C152.83 18.88 152.88 18.76 152.95 18.63L153.1 18.43L153.27 18.06C153.38 17.9 153.55 17.8 153.67 17.82Z" fill="#EA5457"/>
<path d="M13.2599 12.34C13.2599 12.07 13.26 11.81 13.28 11.55C13.29 11.43 13.3099 11.28 13.2899 11.17C13.2399 11.47 13.24 11.54 13.28 11.39C13.31 11.23 13.33 11.07 13.34 10.91C13.4 10.08 12.56 9.29001 11.75 9.32001C10.84 9.36001 10.23 10.02 10.16 10.91C10.21 10.22 10.12 10.96 10.11 11.18C10.1 11.31 10.11 11.44 10.1 11.56C10.09 11.82 10.08 12.09 10.08 12.35C10.08 13.18 10.81 13.98 11.67 13.94C12.54 13.89 13.2599 13.23 13.2599 12.34Z" fill="#EA5457"/>
<path d="M13.43 3.86001C13.43 3.61001 13.42 3.37 13.4 3.12C13.39 3.02 13.38 2.92001 13.37 2.82001C13.37 2.76001 13.36 2.70001 13.35 2.63001C13.28 2.02001 13.27 2.07001 13.3 2.77001C13.46 1.96001 13.07 1.02001 12.19 0.820014C11.4 0.640014 10.41 1.06 10.24 1.93C10.16 2.34 10.17 2.57 10.22 2.98C10.15 2.42 10.21 2.91001 10.22 3.03001C10.25 3.31001 10.26 3.59 10.26 3.87C10.27 4.7 10.99 5.50001 11.85 5.46001C12.7 5.41001 13.44 4.75001 13.43 3.86001Z" fill="#EA5457"/>
<path d="M34.12 21.37C34.12 21.08 34.09 20.79 34.08 20.5C34.07 20.26 34.08 20.04 34.02 19.8C33.98 19.53 33.98 19.7 34.02 20.31C34.05 20.14 34.07 19.96 34.08 19.79C34.01 20.06 33.94 20.32 33.86 20.59C33.87 20.56 33.89 20.53 33.9 20.5C34.08 20.09 34.18 19.72 34.06 19.28C33.96 18.91 33.67 18.51 33.33 18.33C32.64 17.97 31.51 18.09 31.16 18.9C31.06 19.13 30.97 19.33 30.93 19.58C30.83 20.29 31 19.06 30.91 19.77C30.87 20.03 30.9 20.23 30.93 20.5C30.96 20.76 30.91 20.15 30.9 20.36C30.88 20.69 30.95 21.03 30.95 21.36C30.95 22.19 31.68 22.99 32.54 22.95C33.39 22.92 34.12 22.26 34.12 21.37Z" fill="#EA5457"/>
<path d="M34.2 4.47001C34.2 4.20001 34.19 3.93002 34.16 3.66002C34.14 3.51002 34.12 3.36002 34.11 3.21002C34.1 3.13002 34.1 3.05001 34.09 2.97001C34.07 2.76001 34.14 2.68002 34.03 3.13002C33.01 3.13002 31.99 3.13002 30.97 3.13002C30.97 3.14002 30.98 3.15002 30.98 3.16002C31.21 3.96002 32.11 4.54002 32.93 4.27002C33.74 4.01002 34.29 3.17002 34.04 2.32002C34.04 2.31002 34.03 2.30001 34.03 2.29001C33.84 1.64001 33.2 1.09001 32.5 1.12001C31.81 1.15001 31.14 1.59001 30.97 2.29001C30.8 2.99001 31.03 3.75001 31.03 4.47001C31.03 5.30001 31.76 6.10001 32.62 6.06001C33.47 6.02001 34.2 5.36001 34.2 4.47001Z" fill="#EA5457"/>
<path d="M108.2 12.74C108.16 12.19 108.03 11.68 107.91 11.14C107.93 11.28 107.95 11.42 107.97 11.56C107.97 11.55 107.97 11.54 107.97 11.52C107.93 11.09 107.82 10.71 107.51 10.4C107.23 10.12 106.78 9.92001 106.39 9.94001C105.6 9.98001 104.72 10.64 104.8 11.53C104.85 12.03 105.01 12.5 105.08 13C105.06 12.86 105.04 12.72 105.02 12.58C105.03 12.64 105.03 12.69 105.04 12.75C105.07 13.17 105.2 13.56 105.5 13.87C105.78 14.15 106.23 14.35 106.62 14.33C107.42 14.29 108.26 13.62 108.2 12.74Z" fill="#EA5457"/>
<path d="M107.93 3.23C107.93 2.93 107.87 2.62 107.9 2.31C107.88 2.45 107.86 2.59 107.84 2.73C107.88 2.56 107.9 2.37 107.91 2.2C107.89 2.34 107.87 2.48 107.85 2.62C107.85 2.6 107.86 2.58 107.86 2.56C107.93 2.13 107.93 1.73 107.7 1.34C107.51 1.01 107.13 0.700001 106.75 0.610001C106.34 0.520001 105.89 0.540004 105.53 0.770004C105.2 0.980004 104.87 1.32 104.8 1.72C104.77 1.9 104.74 2.07999 104.73 2.25999C104.75 2.11999 104.77 1.98 104.79 1.84C104.69 2.32 104.76 2.75 104.76 3.22C104.76 4.05 105.49 4.85 106.35 4.81C107.21 4.78 107.93 4.12 107.93 3.23Z" fill="#EA5457"/>
<path d="M136.72 8.07999C136.72 8.06999 136.71 8.05998 136.71 8.03998C136.73 8.17998 136.75 8.32 136.77 8.46C136.76 8.36 136.77 8.25999 136.77 8.16999C136.76 8.05999 136.76 7.95999 136.76 7.84999C136.76 7.44999 136.58 7.00998 136.3 6.72998C136.02 6.44998 135.57 6.24999 135.18 6.26999C134.77 6.28999 134.34 6.41998 134.06 6.72998C133.77 7.03998 133.6 7.41999 133.6 7.84999C133.6 7.96999 133.61 8.09999 133.61 8.21999C133.62 8.45999 133.6 8.66999 133.68 8.91999C133.8 9.30999 134.06 9.65998 134.41 9.86998C134.75 10.07 135.25 10.15 135.63 10.03C136.01 9.90999 136.38 9.66999 136.58 9.29999C136.76 8.93999 136.85 8.49999 136.72 8.07999Z" fill="#EA5457"/>
<path d="M136.72 2.66002C136.72 2.48002 136.75 2.30001 136.76 2.12001C136.74 2.26001 136.72 2.40001 136.7 2.54001C136.7 2.52001 136.71 2.50001 136.71 2.48001C136.8 2.07001 136.77 1.63001 136.55 1.26001C136.36 0.93001 135.98 0.620014 135.6 0.530014C135.19 0.440014 134.74 0.460018 134.38 0.690018C134.04 0.910018 133.74 1.23001 133.65 1.64001C133.6 1.87001 133.58 2.10002 133.57 2.33002C133.56 2.44002 133.55 2.55002 133.55 2.66002C133.56 3.07002 133.72 3.49001 134.01 3.78001C134.29 4.06001 134.74 4.26002 135.13 4.24002C135.54 4.22002 135.97 4.09001 136.25 3.78001C136.53 3.47001 136.72 3.08002 136.72 2.66002Z" fill="#EA5457"/>
</svg>
