<svg width="15" height="13" viewBox="0 0 15 13" fill="none" xmlns="http://www.w3.org/2000/svg">
	<g clip-path="url(#clip0_38_6865)">
		<path d="M7.08 0C3.17 0 0 2.5 0 5.59C0 7.6 1.34 9.36 3.36 10.35C3.21 10.9 2.82 12.35 2.75 12.66C2.65 13.04 2.89 13.04 3.05 12.94C3.17 12.86 4.99 11.62 5.77 11.09C6.2 11.15 6.63 11.19 7.08 11.19C10.99 11.19 14.16 8.69 14.16 5.6C14.16 2.51 10.98 0 7.08 0ZM11.47 7.24L10.51 5.93L10.29 6.11C10.29 6.11 10.29 6.76 10.29 7.1C10.29 7.39 9.54 7.39 9.54 7.1C9.54 6.91 9.56 4.4 9.54 4.12C9.54 3.97 9.73 3.89 9.92 3.89C10.1 3.89 10.28 3.96 10.28 4.1C10.29 4.48 10.28 5.16 10.28 5.16C10.28 5.16 11.36 4.07 11.52 3.92C11.68 3.76 12.17 4.26 12.01 4.42C11.74 4.69 11.05 5.44 11.05 5.44L12.07 6.78C12.26 7.04 11.65 7.5 11.46 7.24H11.47ZM6.07 4.1C6.2 4.38 6.91 6.32 7.11 6.86C7.25 7.24 6.56 7.5 6.42 7.12C6.24 6.65 6.29 6.63 6.29 6.63H4.96L4.81 7.14C4.65 7.5 3.98 7.21 4.14 6.85C4.35 6.36 5 4.49 5.18 4.1C5.25 3.94 5.42 3.88 5.59 3.88C5.8 3.88 6.01 3.97 6.07 4.1ZM4.36 3.88C4.81 3.88 4.81 4.59 4.36 4.59C3.88 4.59 3.64 4.59 3.64 4.59V7.04C3.64 7.38 2.88 7.38 2.88 7.04C2.88 6.57 2.88 4.57 2.88 4.57H2.15C1.72 4.57 1.72 3.87 2.15 3.87C2.15 3.87 3.85 3.88 4.36 3.88ZM7.37 6.89C7.37 6.89 7.37 4.85 7.37 4.22C7.37 4 7.57 3.89 7.76 3.89C7.95 3.89 8.15 4 8.15 4.22C8.15 4.68 8.15 6.57 8.15 6.57C8.15 6.57 8.77 6.57 9.12 6.57C9.47 6.57 9.46 7.3 9.12 7.3C8.78 7.3 8.01 7.3 7.66 7.3C7.31 7.3 7.37 6.89 7.37 6.89Z" fill="#FFF6E9" />
		<path d="M6.03 5.96L5.62 4.69L5.19 5.96H6.03Z" fill="#FFF6E9" />
	</g>
	<defs>
		<clipPath id="clip0_38_6865">
			<rect width="14.15" height="13" fill="white" />
		</clipPath>
	</defs>
</svg>
