<svg width="251" height="915" viewBox="0 0 251 915" fill="none" xmlns="http://www.w3.org/2000/svg">
<path d="M250.87 914.43H250.16C250.16 896.59 186.77 887.39 125.46 878.49C94.73 874.03 62.9399 869.42 39.4899 863.74C12.6599 857.25 0.159912 850.29 0.159912 841.85C0.159912 833.41 12.6599 826.45 39.4899 819.96C62.9399 814.29 94.72 809.67 125.46 805.21C186.77 796.31 250.16 787.11 250.16 769.27C250.16 751.43 186.77 742.23 125.46 733.33C94.72 728.87 62.9399 724.26 39.4899 718.58C12.6599 712.09 0.159912 705.13 0.159912 696.69C0.159912 688.25 12.6599 681.29 39.4899 674.8C62.9399 669.13 94.72 664.51 125.46 660.05C186.77 651.15 250.16 641.95 250.16 624.11C250.16 606.27 186.77 597.07 125.46 588.17C94.72 583.71 62.9399 579.1 39.4899 573.42C12.6599 566.93 0.159912 559.97 0.159912 551.53C0.159912 543.09 12.6599 536.13 39.4899 529.64C62.9399 523.97 94.73 519.35 125.46 514.89C186.77 505.99 250.16 496.79 250.16 478.95C250.16 461.11 186.77 451.91 125.46 443.01C94.73 438.55 62.9399 433.94 39.4899 428.26C12.6599 421.77 0.159912 414.81 0.159912 406.37C0.159912 397.93 12.6599 390.97 39.4899 384.48C62.9399 378.81 94.72 374.19 125.46 369.73C186.77 360.83 250.16 351.63 250.16 333.79C250.16 315.95 186.77 306.75 125.46 297.85C94.73 293.39 62.9399 288.77 39.4899 283.1C12.6599 276.61 0.159912 269.65 0.159912 261.21C0.159912 252.77 12.6599 245.81 39.4899 239.32C62.9399 233.65 94.73 229.03 125.46 224.57C186.77 215.67 250.16 206.47 250.16 188.63C250.16 170.79 186.77 161.58 125.46 152.68C94.72 148.22 62.9399 143.6 39.4899 137.93C12.6599 131.44 0.159912 124.48 0.159912 116.04C0.159912 107.6 12.6599 100.64 39.4899 94.15C62.9399 88.48 94.72 83.86 125.46 79.4C186.77 70.5 250.16 61.3 250.16 43.45H250.87C250.87 51.89 238.37 58.85 211.54 65.34C188.09 71.02 156.31 75.63 125.57 80.09C64.2599 88.99 0.869934 98.19 0.869934 116.04C0.869934 133.89 64.2599 143.09 125.57 151.99C156.3 156.45 188.09 161.07 211.54 166.74C238.37 173.23 250.87 180.19 250.87 188.63C250.87 197.07 238.37 204.03 211.54 210.52C188.09 216.19 156.31 220.81 125.57 225.27C64.2599 234.17 0.869934 243.37 0.869934 261.21C0.869934 279.05 64.2599 288.25 125.57 297.15C156.31 301.61 188.09 306.23 211.54 311.9C238.37 318.39 250.87 325.35 250.87 333.79C250.87 342.23 238.37 349.19 211.54 355.68C188.09 361.35 156.3 365.97 125.57 370.43C64.2599 379.33 0.869934 388.53 0.869934 406.37C0.869934 424.21 64.2599 433.41 125.57 442.31C156.31 446.77 188.09 451.38 211.54 457.06C238.37 463.55 250.87 470.51 250.87 478.95C250.87 487.39 238.37 494.35 211.54 500.84C188.09 506.51 156.31 511.13 125.57 515.59C64.2599 524.49 0.869934 533.69 0.869934 551.53C0.869934 569.37 64.2599 578.57 125.57 587.47C156.3 591.93 188.09 596.54 211.54 602.22C238.37 608.71 250.87 615.67 250.87 624.11C250.87 632.55 238.37 639.51 211.54 646C188.09 651.67 156.3 656.29 125.57 660.75C64.2599 669.65 0.869934 678.85 0.869934 696.69C0.869934 714.53 64.2599 723.73 125.57 732.63C156.3 737.09 188.09 741.7 211.54 747.38C238.37 753.87 250.87 760.83 250.87 769.27C250.87 777.71 238.37 784.67 211.54 791.16C188.09 796.83 156.31 801.45 125.57 805.91C64.2599 814.81 0.869934 824.01 0.869934 841.85C0.869934 859.69 64.2599 868.89 125.57 877.79C156.3 882.25 188.09 886.86 211.54 892.54C238.37 899.04 250.87 905.99 250.87 914.43Z" fill="#EA5457"/>
<path d="M250.87 907.33H250.16C250.16 889.49 186.77 880.29 125.46 871.39C94.73 866.93 62.9399 862.32 39.4899 856.64C12.6599 850.15 0.159912 843.19 0.159912 834.75C0.159912 826.31 12.6599 819.35 39.4899 812.86C62.9399 807.19 94.72 802.57 125.46 798.11C186.77 789.21 250.16 780.01 250.16 762.17C250.16 744.33 186.77 735.13 125.46 726.23C94.72 721.77 62.9399 717.16 39.4899 711.48C12.6599 704.99 0.159912 698.03 0.159912 689.59C0.159912 681.15 12.6599 674.19 39.4899 667.7C62.9399 662.03 94.72 657.41 125.46 652.95C186.77 644.05 250.16 634.85 250.16 617.01C250.16 599.17 186.77 589.97 125.46 581.07C94.72 576.61 62.9399 572 39.4899 566.32C12.6599 559.83 0.159912 552.87 0.159912 544.43C0.159912 535.99 12.6599 529.03 39.4899 522.54C62.9399 516.87 94.73 512.25 125.46 507.79C186.77 498.89 250.16 489.69 250.16 471.85C250.16 454.01 186.77 444.81 125.46 435.91C94.73 431.45 62.9399 426.84 39.4899 421.16C12.6599 414.67 0.159912 407.71 0.159912 399.27C0.159912 390.83 12.6599 383.87 39.4899 377.38C62.9399 371.71 94.72 367.09 125.46 362.63C186.77 353.73 250.16 344.53 250.16 326.69C250.16 308.85 186.77 299.65 125.46 290.75C94.73 286.29 62.9399 281.67 39.4899 276C12.6599 269.51 0.159912 262.55 0.159912 254.11C0.159912 245.67 12.6599 238.71 39.4899 232.22C62.9399 226.55 94.73 221.93 125.46 217.47C186.77 208.57 250.16 199.37 250.16 181.53C250.16 163.69 186.77 154.48 125.46 145.58C94.73 141.12 62.9399 136.5 39.4899 130.83C12.6599 124.34 0.159912 117.38 0.159912 108.94C0.159912 100.5 12.6599 93.54 39.4899 87.05C62.9399 81.38 94.72 76.76 125.46 72.3C186.77 63.4 250.16 54.2 250.16 36.35H250.87C250.87 44.79 238.37 51.75 211.54 58.24C188.09 63.92 156.31 68.53 125.57 72.99C64.2599 81.89 0.869934 91.09 0.869934 108.94C0.869934 126.79 64.2599 135.99 125.57 144.89C156.3 149.35 188.09 153.97 211.54 159.64C238.37 166.13 250.87 173.09 250.87 181.53C250.87 189.97 238.37 196.93 211.54 203.42C188.09 209.09 156.31 213.71 125.57 218.17C64.2599 227.07 0.869934 236.27 0.869934 254.11C0.869934 271.95 64.2599 281.15 125.57 290.05C156.3 294.51 188.09 299.13 211.54 304.8C238.37 311.29 250.87 318.25 250.87 326.69C250.87 335.13 238.37 342.09 211.54 348.58C188.09 354.25 156.31 358.87 125.57 363.33C64.2599 372.23 0.869934 381.43 0.869934 399.27C0.869934 417.11 64.2599 426.31 125.57 435.21C156.3 439.67 188.09 444.28 211.54 449.96C238.37 456.45 250.87 463.41 250.87 471.85C250.87 480.29 238.37 487.25 211.54 493.74C188.09 499.41 156.31 504.03 125.57 508.49C64.2599 517.39 0.869934 526.59 0.869934 544.43C0.869934 562.27 64.2599 571.47 125.57 580.37C156.3 584.83 188.09 589.44 211.54 595.12C238.37 601.61 250.87 608.57 250.87 617.01C250.87 625.45 238.37 632.41 211.54 638.9C188.09 644.57 156.3 649.19 125.57 653.65C64.2599 662.55 0.869934 671.75 0.869934 689.59C0.869934 707.43 64.2599 716.63 125.57 725.53C156.3 729.99 188.09 734.6 211.54 740.28C238.37 746.77 250.87 753.73 250.87 762.17C250.87 770.61 238.37 777.57 211.54 784.06C188.09 789.73 156.31 794.35 125.57 798.81C64.2599 807.71 0.869934 816.91 0.869934 834.75C0.869934 852.59 64.2599 861.79 125.57 870.69C156.3 875.15 188.09 879.76 211.54 885.44C238.37 891.93 250.87 898.89 250.87 907.33Z" fill="#EA5457"/>
<path d="M250.87 900.23H250.16C250.16 882.39 186.77 873.19 125.46 864.29C94.73 859.83 62.9399 855.22 39.4899 849.54C12.6599 843.05 0.159912 836.09 0.159912 827.65C0.159912 819.21 12.6599 812.25 39.4899 805.76C62.9399 800.09 94.72 795.47 125.46 791.01C186.77 782.11 250.16 772.91 250.16 755.07C250.16 737.23 186.77 728.03 125.46 719.13C94.72 714.67 62.9399 710.06 39.4899 704.38C12.6599 697.89 0.159912 690.93 0.159912 682.49C0.159912 674.05 12.6599 667.09 39.4899 660.6C62.9399 654.93 94.72 650.31 125.46 645.85C186.77 636.95 250.16 627.75 250.16 609.91C250.16 592.07 186.77 582.87 125.46 573.97C94.72 569.51 62.9399 564.9 39.4899 559.22C12.6599 552.73 0.159912 545.77 0.159912 537.33C0.159912 528.89 12.6599 521.93 39.4899 515.44C62.9399 509.77 94.73 505.15 125.46 500.69C186.77 491.79 250.16 482.59 250.16 464.75C250.16 446.91 186.77 437.71 125.46 428.81C94.73 424.35 62.9399 419.74 39.4899 414.06C12.6599 407.57 0.159912 400.61 0.159912 392.17C0.159912 383.73 12.6599 376.77 39.4899 370.28C62.9399 364.61 94.72 359.99 125.46 355.53C186.77 346.63 250.16 337.43 250.16 319.59C250.16 301.75 186.77 292.55 125.46 283.65C94.73 279.19 62.9399 274.57 39.4899 268.9C12.6599 262.41 0.159912 255.45 0.159912 247.01C0.159912 238.57 12.6599 231.61 39.4899 225.12C62.9399 219.45 94.73 214.83 125.46 210.37C186.77 201.47 250.16 192.27 250.16 174.43C250.16 156.59 186.77 147.38 125.46 138.48C94.73 134.02 62.9399 129.4 39.4899 123.73C12.6599 117.24 0.159912 110.28 0.159912 101.84C0.159912 93.4 12.6599 86.44 39.4899 79.95C62.9399 74.28 94.72 69.66 125.46 65.2C186.77 56.3 250.16 47.1 250.16 29.25H250.87C250.87 37.69 238.37 44.65 211.54 51.14C188.09 56.82 156.31 61.43 125.57 65.89C64.2599 74.79 0.869934 83.99 0.869934 101.84C0.869934 119.68 64.2599 128.89 125.57 137.79C156.3 142.25 188.09 146.87 211.54 152.54C238.37 159.03 250.87 165.99 250.87 174.43C250.87 182.87 238.37 189.83 211.54 196.32C188.09 201.99 156.31 206.61 125.57 211.07C64.2599 219.97 0.869934 229.17 0.869934 247.01C0.869934 264.85 64.2599 274.05 125.57 282.95C156.31 287.41 188.09 292.03 211.54 297.7C238.37 304.19 250.87 311.15 250.87 319.59C250.87 328.03 238.37 334.99 211.54 341.48C188.09 347.15 156.31 351.77 125.57 356.23C64.2599 365.13 0.869934 374.33 0.869934 392.17C0.869934 410.01 64.2599 419.21 125.57 428.11C156.31 432.57 188.09 437.18 211.54 442.86C238.37 449.35 250.87 456.31 250.87 464.75C250.87 473.19 238.37 480.15 211.54 486.64C188.09 492.31 156.31 496.93 125.57 501.39C64.2599 510.29 0.869934 519.49 0.869934 537.33C0.869934 555.17 64.2599 564.37 125.57 573.27C156.3 577.73 188.09 582.34 211.54 588.02C238.37 594.51 250.87 601.47 250.87 609.91C250.87 618.35 238.37 625.31 211.54 631.8C188.09 637.47 156.3 642.09 125.57 646.55C64.2599 655.45 0.869934 664.65 0.869934 682.49C0.869934 700.33 64.2599 709.53 125.57 718.43C156.3 722.89 188.09 727.5 211.54 733.18C238.37 739.67 250.87 746.63 250.87 755.07C250.87 763.51 238.37 770.47 211.54 776.96C188.09 782.63 156.31 787.25 125.57 791.71C64.2599 800.61 0.869934 809.81 0.869934 827.65C0.869934 845.49 64.2599 854.69 125.57 863.59C156.3 868.05 188.09 872.66 211.54 878.34C238.37 884.83 250.87 891.79 250.87 900.23Z" fill="#EA5457"/>
<path d="M250.87 893.13H250.16C250.16 875.29 186.77 866.09 125.46 857.19C94.73 852.73 62.9399 848.12 39.4899 842.44C12.6599 835.95 0.159912 828.99 0.159912 820.55C0.159912 812.11 12.6599 805.15 39.4899 798.66C62.9399 792.99 94.72 788.37 125.46 783.91C186.77 775.01 250.16 765.81 250.16 747.97C250.16 730.13 186.77 720.93 125.46 712.03C94.72 707.57 62.9399 702.96 39.4899 697.28C12.6599 690.79 0.159912 683.83 0.159912 675.39C0.159912 666.95 12.6599 659.99 39.4899 653.5C62.9399 647.83 94.72 643.21 125.46 638.75C186.77 629.85 250.16 620.65 250.16 602.81C250.16 584.97 186.77 575.77 125.46 566.87C94.72 562.41 62.9399 557.8 39.4899 552.12C12.6599 545.63 0.159912 538.67 0.159912 530.23C0.159912 521.79 12.6599 514.83 39.4899 508.34C62.9399 502.67 94.73 498.05 125.46 493.59C186.77 484.69 250.16 475.49 250.16 457.65C250.16 439.81 186.77 430.61 125.46 421.71C94.73 417.25 62.9399 412.64 39.4899 406.96C12.6599 400.47 0.159912 393.51 0.159912 385.07C0.159912 376.63 12.6599 369.67 39.4899 363.18C62.9399 357.51 94.72 352.89 125.46 348.43C186.77 339.53 250.16 330.33 250.16 312.49C250.16 294.65 186.77 285.45 125.46 276.55C94.73 272.09 62.9399 267.47 39.4899 261.8C12.6599 255.31 0.159912 248.35 0.159912 239.91C0.159912 231.47 12.6599 224.51 39.4899 218.02C62.9399 212.35 94.73 207.73 125.46 203.27C186.77 194.37 250.16 185.17 250.16 167.33C250.16 149.49 186.77 140.28 125.46 131.38C94.73 126.92 62.9399 122.3 39.4899 116.63C12.6599 110.14 0.159912 103.18 0.159912 94.74C0.159912 86.3 12.6599 79.34 39.4899 72.85C62.9399 67.18 94.72 62.56 125.46 58.1C186.77 49.2 250.16 40 250.16 22.15H250.87C250.87 30.59 238.37 37.55 211.54 44.04C188.09 49.72 156.31 54.33 125.57 58.79C64.2599 67.69 0.869934 76.89 0.869934 94.74C0.869934 112.58 64.2599 121.79 125.57 130.69C156.3 135.15 188.09 139.77 211.54 145.44C238.37 151.93 250.87 158.89 250.87 167.33C250.87 175.77 238.37 182.73 211.54 189.22C188.09 194.89 156.31 199.51 125.57 203.97C64.2599 212.87 0.869934 222.07 0.869934 239.91C0.869934 257.75 64.2599 266.95 125.57 275.85C156.3 280.31 188.09 284.93 211.54 290.6C238.37 297.09 250.87 304.05 250.87 312.49C250.87 320.93 238.37 327.89 211.54 334.38C188.09 340.05 156.31 344.67 125.57 349.13C64.2599 358.03 0.869934 367.23 0.869934 385.07C0.869934 402.91 64.2599 412.11 125.57 421.01C156.3 425.47 188.09 430.08 211.54 435.76C238.37 442.25 250.87 449.21 250.87 457.65C250.87 466.09 238.37 473.05 211.54 479.54C188.09 485.21 156.3 489.83 125.57 494.29C64.2599 503.19 0.869934 512.39 0.869934 530.23C0.869934 548.07 64.2599 557.27 125.57 566.17C156.3 570.63 188.09 575.24 211.54 580.92C238.37 587.41 250.87 594.37 250.87 602.81C250.87 611.25 238.37 618.21 211.54 624.7C188.09 630.37 156.3 634.99 125.57 639.45C64.2599 648.35 0.869934 657.55 0.869934 675.39C0.869934 693.23 64.2599 702.43 125.57 711.33C156.3 715.79 188.09 720.4 211.54 726.08C238.37 732.57 250.87 739.53 250.87 747.97C250.87 756.41 238.37 763.37 211.54 769.86C188.09 775.53 156.31 780.15 125.57 784.61C64.2599 793.51 0.869934 802.71 0.869934 820.55C0.869934 838.39 64.2599 847.59 125.57 856.49C156.3 860.95 188.09 865.56 211.54 871.24C238.37 877.73 250.87 884.69 250.87 893.13Z" fill="#EA5457"/>
<path d="M250.87 886.02H250.16C250.16 868.18 186.77 858.98 125.46 850.08C94.73 845.62 62.9399 841.01 39.4899 835.33C12.6599 828.84 0.159912 821.88 0.159912 813.44C0.159912 805 12.6599 798.04 39.4899 791.55C62.9399 785.88 94.72 781.26 125.46 776.8C186.77 767.9 250.16 758.7 250.16 740.86C250.16 723.02 186.77 713.82 125.46 704.92C94.72 700.46 62.9399 695.85 39.4899 690.17C12.6599 683.68 0.159912 676.72 0.159912 668.28C0.159912 659.84 12.6599 652.88 39.4899 646.39C62.9399 640.72 94.72 636.1 125.46 631.64C186.77 622.74 250.16 613.54 250.16 595.7C250.16 577.86 186.77 568.66 125.46 559.76C94.72 555.3 62.9399 550.69 39.4899 545.01C12.6599 538.52 0.159912 531.56 0.159912 523.12C0.159912 514.68 12.6599 507.72 39.4899 501.23C62.9399 495.56 94.72 490.94 125.46 486.48C186.77 477.58 250.16 468.38 250.16 450.54C250.16 432.7 186.77 423.5 125.46 414.6C94.73 410.14 62.9399 405.53 39.4899 399.85C12.6599 393.36 0.159912 386.4 0.159912 377.96C0.159912 369.52 12.6599 362.56 39.4899 356.07C62.9399 350.4 94.72 345.78 125.46 341.32C186.77 332.42 250.16 323.22 250.16 305.38C250.16 287.54 186.77 278.34 125.46 269.44C94.73 264.98 62.9399 260.36 39.4899 254.69C12.6599 248.2 0.159912 241.24 0.159912 232.8C0.159912 224.36 12.6599 217.4 39.4899 210.91C62.9399 205.24 94.72 200.62 125.46 196.16C186.77 187.26 250.16 178.06 250.16 160.22C250.16 142.38 186.77 133.17 125.46 124.27C94.73 119.81 62.9399 115.19 39.4899 109.52C12.6599 103.03 0.159912 96.07 0.159912 87.63C0.159912 79.19 12.6599 72.23 39.4899 65.74C62.9399 60.07 94.72 55.45 125.46 50.99C186.77 42.09 250.16 32.89 250.16 15.04H250.87C250.87 23.48 238.37 30.44 211.54 36.93C188.09 42.6 156.31 47.22 125.57 51.68C64.2599 60.58 0.869934 69.78 0.869934 87.63C0.869934 105.47 64.2599 114.68 125.57 123.58C156.3 128.04 188.09 132.66 211.54 138.33C238.37 144.82 250.87 151.78 250.87 160.22C250.87 168.66 238.37 175.62 211.54 182.11C188.09 187.78 156.31 192.4 125.57 196.86C64.2599 205.76 0.869934 214.96 0.869934 232.8C0.869934 250.64 64.2599 259.84 125.57 268.74C156.3 273.2 188.09 277.82 211.54 283.49C238.37 289.98 250.87 296.94 250.87 305.38C250.87 313.82 238.37 320.78 211.54 327.27C188.09 332.94 156.31 337.56 125.57 342.02C64.2599 350.92 0.869934 360.12 0.869934 377.96C0.869934 395.8 64.2599 405 125.57 413.9C156.3 418.36 188.09 422.97 211.54 428.65C238.37 435.14 250.87 442.1 250.87 450.54C250.87 458.98 238.37 465.94 211.54 472.43C188.09 478.1 156.3 482.72 125.57 487.18C64.2599 496.08 0.869934 505.28 0.869934 523.12C0.869934 540.96 64.2599 550.16 125.57 559.06C156.3 563.52 188.09 568.13 211.54 573.81C238.37 580.3 250.87 587.26 250.87 595.7C250.87 604.14 238.37 611.1 211.54 617.59C188.09 623.26 156.3 627.88 125.57 632.34C64.2599 641.24 0.869934 650.44 0.869934 668.28C0.869934 686.12 64.2599 695.32 125.57 704.22C156.3 708.68 188.09 713.29 211.54 718.97C238.37 725.46 250.87 732.42 250.87 740.86C250.87 749.3 238.37 756.26 211.54 762.75C188.09 768.42 156.31 773.04 125.57 777.5C64.2599 786.4 0.869934 795.6 0.869934 813.44C0.869934 831.28 64.2599 840.48 125.57 849.38C156.3 853.84 188.09 858.45 211.54 864.13C238.37 870.63 250.87 877.58 250.87 886.02Z" fill="#EA5457"/>
<path d="M250.87 878.92H250.16C250.16 861.08 186.77 851.88 125.46 842.98C94.73 838.52 62.9399 833.91 39.4899 828.23C12.6599 821.74 0.159912 814.78 0.159912 806.34C0.159912 797.9 12.6599 790.94 39.4899 784.45C62.9399 778.78 94.72 774.16 125.46 769.7C186.77 760.8 250.16 751.6 250.16 733.76C250.16 715.92 186.77 706.72 125.46 697.82C94.72 693.36 62.9399 688.75 39.4899 683.07C12.6599 676.58 0.159912 669.62 0.159912 661.18C0.159912 652.74 12.6599 645.78 39.4899 639.29C62.9399 633.62 94.72 629 125.46 624.54C186.77 615.64 250.16 606.44 250.16 588.6C250.16 570.76 186.77 561.56 125.46 552.66C94.72 548.2 62.9399 543.59 39.4899 537.91C12.6599 531.42 0.159912 524.46 0.159912 516.02C0.159912 507.58 12.6599 500.62 39.4899 494.13C62.9399 488.46 94.72 483.84 125.46 479.38C186.77 470.48 250.16 461.28 250.16 443.44C250.16 425.6 186.77 416.4 125.46 407.5C94.73 403.04 62.9399 398.42 39.4899 392.75C12.6599 386.26 0.159912 379.3 0.159912 370.86C0.159912 362.42 12.6599 355.46 39.4899 348.97C62.9399 343.3 94.72 338.68 125.46 334.22C186.77 325.32 250.16 316.12 250.16 298.28C250.16 280.44 186.77 271.24 125.46 262.34C94.73 257.88 62.9399 253.26 39.4899 247.59C12.6599 241.1 0.159912 234.14 0.159912 225.7C0.159912 217.26 12.6599 210.3 39.4899 203.81C62.9399 198.14 94.72 193.52 125.46 189.06C186.77 180.16 250.16 170.96 250.16 153.12C250.16 135.28 186.77 126.07 125.46 117.17C94.73 112.71 62.9399 108.09 39.4899 102.42C12.6599 95.93 0.159912 88.97 0.159912 80.53C0.159912 72.09 12.6599 65.13 39.4899 58.64C62.9399 52.97 94.72 48.35 125.46 43.89C186.77 34.99 250.16 25.79 250.16 7.94H250.87C250.87 16.38 238.37 23.34 211.54 29.83C188.09 35.5 156.31 40.12 125.57 44.58C64.2599 53.48 0.869934 62.68 0.869934 80.53C0.869934 98.37 64.2599 107.58 125.57 116.48C156.3 120.94 188.09 125.56 211.54 131.23C238.37 137.72 250.87 144.68 250.87 153.12C250.87 161.56 238.37 168.52 211.54 175.01C188.09 180.68 156.31 185.3 125.57 189.76C64.2599 198.66 0.869934 207.86 0.869934 225.7C0.869934 243.54 64.2599 252.74 125.57 261.64C156.3 266.1 188.09 270.72 211.54 276.39C238.37 282.88 250.87 289.84 250.87 298.28C250.87 306.72 238.37 313.68 211.54 320.17C188.09 325.84 156.31 330.46 125.57 334.92C64.2599 343.82 0.869934 353.02 0.869934 370.86C0.869934 388.7 64.2599 397.9 125.57 406.8C156.3 411.26 188.09 415.87 211.54 421.55C238.37 428.04 250.87 435 250.87 443.44C250.87 451.88 238.37 458.84 211.54 465.33C188.09 471 156.3 475.62 125.57 480.08C64.2599 488.98 0.869934 498.18 0.869934 516.02C0.869934 533.86 64.2599 543.06 125.57 551.96C156.3 556.42 188.09 561.03 211.54 566.71C238.37 573.2 250.87 580.16 250.87 588.6C250.87 597.04 238.37 604 211.54 610.49C188.09 616.16 156.3 620.78 125.57 625.24C64.2599 634.14 0.869934 643.34 0.869934 661.18C0.869934 679.02 64.2599 688.22 125.57 697.12C156.3 701.58 188.09 706.19 211.54 711.87C238.37 718.36 250.87 725.32 250.87 733.76C250.87 742.2 238.37 749.16 211.54 755.65C188.09 761.32 156.31 765.94 125.57 770.4C64.2599 779.3 0.869934 788.5 0.869934 806.34C0.869934 824.18 64.2599 833.38 125.57 842.28C156.3 846.74 188.09 851.35 211.54 857.03C238.37 863.53 250.87 870.48 250.87 878.92Z" fill="#EA5457"/>
<path d="M250.87 871.82H250.16C250.16 853.98 186.77 844.78 125.46 835.88C94.73 831.42 62.9399 826.81 39.4899 821.13C12.6599 814.64 0.159912 807.68 0.159912 799.24C0.159912 790.8 12.6599 783.84 39.4899 777.35C62.9399 771.68 94.72 767.06 125.46 762.6C186.77 753.7 250.16 744.5 250.16 726.66C250.16 708.82 186.77 699.62 125.46 690.72C94.72 686.26 62.9399 681.65 39.4899 675.97C12.6599 669.48 0.159912 662.52 0.159912 654.08C0.159912 645.64 12.6599 638.68 39.4899 632.19C62.9399 626.52 94.72 621.9 125.46 617.44C186.77 608.54 250.16 599.34 250.16 581.5C250.16 563.66 186.77 554.46 125.46 545.56C94.72 541.1 62.9399 536.49 39.4899 530.81C12.6599 524.32 0.159912 517.36 0.159912 508.92C0.159912 500.48 12.6599 493.52 39.4899 487.03C62.9399 481.36 94.72 476.74 125.46 472.28C186.77 463.38 250.16 454.18 250.16 436.34C250.16 418.5 186.77 409.3 125.46 400.4C94.73 395.94 62.9399 391.32 39.4899 385.65C12.6599 379.16 0.159912 372.2 0.159912 363.76C0.159912 355.32 12.6599 348.36 39.4899 341.87C62.9399 336.2 94.72 331.58 125.46 327.12C186.77 318.22 250.16 309.02 250.16 291.18C250.16 273.34 186.77 264.14 125.46 255.24C94.73 250.78 62.9399 246.16 39.4899 240.49C12.6599 234 0.159912 227.04 0.159912 218.6C0.159912 210.16 12.6599 203.2 39.4899 196.71C62.9399 191.04 94.72 186.42 125.46 181.96C186.77 173.06 250.16 163.86 250.16 146.02C250.16 128.18 186.77 118.97 125.46 110.07C94.73 105.61 62.9399 100.99 39.4899 95.32C12.6599 88.83 0.159912 81.87 0.159912 73.43C0.159912 64.99 12.6599 58.03 39.4899 51.54C62.9399 45.87 94.72 41.25 125.46 36.79C186.77 27.89 250.16 18.69 250.16 0.839996H250.87C250.87 9.28 238.37 16.24 211.54 22.73C188.09 28.4 156.31 33.02 125.57 37.48C64.2599 46.38 0.869934 55.58 0.869934 73.43C0.869934 91.27 64.2599 100.48 125.57 109.38C156.3 113.84 188.09 118.46 211.54 124.13C238.37 130.62 250.87 137.58 250.87 146.02C250.87 154.46 238.37 161.42 211.54 167.91C188.09 173.58 156.31 178.2 125.57 182.66C64.2599 191.56 0.869934 200.76 0.869934 218.6C0.869934 236.44 64.2599 245.64 125.57 254.54C156.3 259 188.09 263.62 211.54 269.29C238.37 275.78 250.87 282.74 250.87 291.18C250.87 299.62 238.37 306.58 211.54 313.07C188.09 318.74 156.31 323.36 125.57 327.82C64.2599 336.72 0.869934 345.92 0.869934 363.76C0.869934 381.6 64.2599 390.8 125.57 399.7C156.3 404.16 188.09 408.77 211.54 414.45C238.37 420.94 250.87 427.9 250.87 436.34C250.87 444.78 238.37 451.74 211.54 458.23C188.09 463.9 156.3 468.52 125.57 472.98C64.2599 481.88 0.869934 491.08 0.869934 508.92C0.869934 526.76 64.2599 535.96 125.57 544.86C156.3 549.32 188.09 553.93 211.54 559.61C238.37 566.1 250.87 573.06 250.87 581.5C250.87 589.94 238.37 596.9 211.54 603.39C188.09 609.06 156.3 613.68 125.57 618.14C64.2599 627.04 0.869934 636.24 0.869934 654.08C0.869934 671.92 64.2599 681.12 125.57 690.02C156.3 694.48 188.09 699.09 211.54 704.77C238.37 711.26 250.87 718.22 250.87 726.66C250.87 735.1 238.37 742.06 211.54 748.55C188.09 754.22 156.31 758.84 125.57 763.3C64.2599 772.2 0.869934 781.4 0.869934 799.24C0.869934 817.08 64.2599 826.28 125.57 835.18C156.3 839.64 188.09 844.25 211.54 849.93C238.37 856.42 250.87 863.38 250.87 871.82Z" fill="#EA5457"/>
<path d="M111.8 729.22C116.34 729.22 120.03 732.91 120.03 737.45C120.03 741.99 116.34 745.68 111.8 745.68C107.26 745.68 103.57 741.99 103.57 737.45C103.57 732.91 107.26 729.22 111.8 729.22ZM111.8 721.62C103.06 721.62 95.97 728.71 95.97 737.45C95.97 746.19 103.06 753.28 111.8 753.28C120.54 753.28 127.63 746.19 127.63 737.45C127.63 728.71 120.54 721.62 111.8 721.62Z" fill="#EA5457"/>
<path d="M111.8 449.75C116.34 449.75 120.03 453.44 120.03 457.98C120.03 462.52 116.34 466.21 111.8 466.21C107.26 466.21 103.57 462.52 103.57 457.98C103.57 453.44 107.26 449.75 111.8 449.75ZM111.8 442.15C103.06 442.15 95.97 449.24 95.97 457.98C95.97 466.72 103.06 473.81 111.8 473.81C120.54 473.81 127.63 466.72 127.63 457.98C127.63 449.24 120.54 442.15 111.8 442.15Z" fill="#EA5457"/>
<path d="M111.8 169.59C116.34 169.59 120.03 173.28 120.03 177.82C120.03 182.36 116.34 186.05 111.8 186.05C107.26 186.05 103.57 182.36 103.57 177.82C103.57 173.28 107.26 169.59 111.8 169.59ZM111.8 161.99C103.06 161.99 95.97 169.08 95.97 177.82C95.97 186.56 103.06 193.65 111.8 193.65C120.54 193.65 127.63 186.56 127.63 177.82C127.63 169.08 120.54 161.99 111.8 161.99Z" fill="#EA5457"/>
<path d="M27.3299 602.44C31.5699 600.69 36.4499 602.72 38.1999 606.96L44.4699 604.38C41.2899 596.67 32.4599 593 24.7599 596.18C17.0499 599.36 13.3799 608.19 16.5599 615.9L22.8299 613.32C21.0599 609.06 23.0899 604.19 27.3299 602.44Z" fill="#EA5457"/>
<path d="M207.89 242.39C203.4 243.33 198.98 240.44 198.04 235.95L191.41 237.34C193.12 245.5 201.12 250.73 209.28 249.02C217.44 247.31 222.67 239.31 220.96 231.15L214.33 232.54C215.27 237.03 212.38 241.45 207.89 242.39Z" fill="#EA5457"/>
</svg>
