<svg width="360" height="219" viewBox="0 0 360 219" fill="none" xmlns="http://www.w3.org/2000/svg">
<mask id="mask0_224_670" style="mask-type:luminance" maskUnits="userSpaceOnUse" x="0" y="0" width="360" height="219">
<path d="M360 0.94043H0V218.61H360V0.94043Z" fill="white"/>
</mask>
<g mask="url(#mask0_224_670)">
<path d="M20.34 236.341C-1.89001 236.341 -13.76 223.96 -13.76 208.8C-13.76 200.21 -9.47001 191.37 2.90999 191.37C10.99 191.37 17.06 195.921 20.34 206.281C21.86 210.831 28.93 208.55 27.41 203.75C27.41 203.5 27.16 203.24 27.16 202.74C36.25 201.22 45.1 195.921 51.41 187.581C54.44 183.791 48.38 178.991 45.35 183.031C39.79 190.361 31.2 194.9 23.37 195.66C18.82 188.59 11.5 183.79 2.90999 183.79H1.38999L1.13999 183.54C-5.18001 174.7 -0.630011 148.68 17.56 132.76C21.1 129.73 16.3 123.921 12.51 127.201C9.97999 129.471 7.70999 131.751 5.68999 134.271C2.90999 133.011 -3.15001 125.931 -3.15001 116.841C-3.15001 100.921 4.17999 86.2705 23.88 86.2705C39.04 86.2705 46.36 93.6005 45.35 116.591V117.35C42.32 125.69 39.54 135.54 37.01 147.41C36 151.96 43.58 153.98 44.59 148.93C55.96 94.6205 70.61 86.2805 84.76 86.2805C97.14 86.2805 102.7 93.8605 102.7 105.48C102.7 122.41 88.81 146.66 73.14 156.76C69.1 159.54 73.14 165.851 77.18 163.331C79.2 162.071 81.22 160.301 83.24 158.781C80.97 195.921 63.28 236.341 20.34 236.341Z" fill="white"/>
<path d="M-21.34 208.8C-21.34 225.98 -10.48 243.92 20.34 243.92C68.09 243.92 90.82 195.92 91.08 150.95C102.45 138.07 110.28 120.63 110.28 105.48C110.28 88.3002 100.17 78.7002 84.76 78.7002C72.63 78.7002 61.52 84.7602 52.17 101.94C49.39 85.5202 39.79 78.7002 23.88 78.7002C0.639994 78.7002 -10.73 96.3802 -10.73 116.85C-10.73 127.97 -5.93001 136.56 1.13999 140.34C-8.96001 155.75 -12 174.19 -6.44001 185.56C-16.29 189.35 -21.35 198.95 -21.35 208.8H-21.34ZM73.14 156.76C69.1 159.54 73.14 165.85 77.18 163.33C79.2 162.07 81.22 160.3 83.24 158.78C80.97 195.92 63.28 236.34 20.34 236.34C-1.89 236.34 -13.76 223.96 -13.76 208.8C-13.76 200.21 -9.47001 191.37 2.90999 191.37C10.99 191.37 17.06 195.92 20.34 206.28C21.86 210.83 28.93 208.55 27.41 203.75C27.41 203.5 27.16 203.24 27.16 202.74C36.25 201.22 45.1 195.92 51.41 187.58C54.44 183.79 48.38 178.99 45.35 183.03C39.79 190.36 31.2 194.9 23.37 195.66C18.82 188.59 11.5 183.79 2.90999 183.79H1.38999L1.13999 183.54C-5.18001 174.7 -0.630007 148.68 17.56 132.76C21.1 129.73 16.3 123.92 12.51 127.2C9.97999 129.47 7.71 131.75 5.68999 134.27C2.90999 133.01 -3.15001 125.93 -3.15001 116.84C-3.15001 100.92 4.17999 86.2702 23.88 86.2702C39.04 86.2702 46.36 93.6002 45.35 116.59V117.35C42.32 125.69 39.54 135.54 37.01 147.41C36 151.96 43.58 153.98 44.59 148.93C55.96 94.6202 70.61 86.2802 84.76 86.2802C97.14 86.2802 102.7 93.8602 102.7 105.48C102.7 122.41 88.81 146.66 73.14 156.76Z" fill="#231815"/>
<path d="M111.79 236.341C88.8 236.341 73.64 220.681 73.64 196.171C73.64 160.301 90.06 138.071 108.5 138.071C117.09 138.071 126.94 141.611 126.94 156.761C126.94 170.151 121.13 178.491 112.29 186.061C108.5 189.091 113.55 194.901 117.34 191.621C127.19 183.541 134.52 172.171 134.52 156.761C134.52 135.541 119.61 130.491 108.5 130.491C113.81 121.901 124.16 117.351 135.03 117.351C156.25 117.351 168.12 131.241 168.12 157.521C168.12 199.711 143.11 236.341 111.78 236.341H111.79Z" fill="white"/>
<path d="M66.07 196.17C66.07 226.23 85.78 243.92 111.8 243.92C144.14 243.92 175.72 208.801 175.72 157.521C175.72 123.671 158.29 109.771 135.05 109.771C120.65 109.771 105.75 116.59 99.43 130.99C99.18 131.24 99.18 131.5 99.18 132C78.97 138.06 66.09 164.34 66.09 196.17H66.07ZM112.3 186.06C108.51 189.09 113.56 194.9 117.35 191.62C127.2 183.54 134.53 172.17 134.53 156.76C134.53 135.54 119.62 130.49 108.51 130.49C113.82 121.9 124.17 117.35 135.04 117.35C156.26 117.35 168.13 131.241 168.13 157.521C168.13 199.711 143.12 236.341 111.79 236.341C88.8 236.341 73.64 220.68 73.64 196.17C73.64 160.3 90.06 138.07 108.5 138.07C117.09 138.07 126.94 141.61 126.94 156.76C126.94 170.15 121.13 178.49 112.29 186.06H112.3Z" fill="#231815"/>
<path d="M166.36 236.091C179.5 236.091 186.32 231.291 191.37 221.941C196.42 212.341 195.92 197.181 203.24 181.271C205.51 176.721 212.33 180.011 210.31 184.301C204.25 196.931 204.5 209.561 199.95 220.931C201.21 232.551 206.52 236.091 221.93 236.091C254.01 236.091 243.91 203.501 255.02 181.021C257.04 176.731 263.86 180.011 261.59 184.561C257.04 193.911 257.04 206.791 254.52 218.161C256.79 232.561 265.89 236.351 278.52 236.101C298.98 235.851 311.61 208.061 311.36 189.361C311.36 180.771 308.58 178.751 303.78 178.241C300.5 181.021 296.45 183.551 291.91 185.821C287.36 188.091 284.08 181.271 288.37 179.251C297.46 174.961 315.4 164.091 315.4 138.071C315.4 127.961 309.08 117.351 296.71 117.351C285.59 117.351 273.22 124.681 264.88 148.421C263.36 152.711 257.05 150.951 257.55 146.651C260.58 124.421 247.45 117.351 239.36 117.351C225.21 117.351 216.88 125.691 206.77 154.991C205.51 159.031 199.44 157.771 199.44 153.731C199.44 125.941 195.65 117.351 182.51 117.351C163.06 117.351 155.23 135.541 155.23 152.211C155.23 161.561 162.56 165.351 165.84 165.351C169.12 165.351 170.64 168.891 168.87 171.411C155.73 189.601 146.89 208.551 146.89 220.171C146.89 230.531 152.95 236.091 166.34 236.091H166.36Z" fill="white"/>
<path d="M166.36 236.09C152.97 236.09 146.91 230.53 146.91 220.17C146.91 208.55 155.75 189.6 168.89 171.41C170.66 168.88 169.14 165.35 165.86 165.35C162.58 165.35 155.25 161.56 155.25 152.21C155.25 135.54 163.08 117.35 182.53 117.35C195.67 117.35 199.46 125.94 199.46 153.73C199.46 157.77 205.52 159.04 206.79 154.99C216.89 125.69 225.23 117.35 239.38 117.35C247.46 117.35 260.6 124.42 257.57 146.65C257.07 150.94 263.38 152.71 264.9 148.42C273.24 124.67 285.62 117.35 296.73 117.35C309.11 117.35 315.42 127.96 315.42 138.07C315.42 164.09 297.48 174.95 288.39 179.25C284.1 181.27 287.38 188.09 291.93 185.82C296.48 183.55 300.52 181.02 303.8 178.24C308.6 178.75 311.38 180.77 311.38 189.36C311.63 208.05 299 235.84 278.54 236.1C265.91 236.35 256.81 232.56 254.54 218.16C257.07 206.79 257.07 193.91 261.61 184.56C263.88 180.01 257.06 176.73 255.04 181.02C243.92 203.5 254.03 236.09 221.95 236.09C206.54 236.09 201.23 232.55 199.97 220.93C204.52 209.56 204.26 196.93 210.33 184.3C212.35 180.01 205.53 176.72 203.26 181.27C195.93 197.19 196.44 212.34 191.39 221.94C186.34 231.29 179.52 236.09 166.38 236.09H166.36ZM139.33 220.17C139.33 233.56 147.41 243.66 166.36 243.66C179.24 243.66 188.84 238.1 195.16 230.02C198.95 239.37 208.04 243.66 221.94 243.66C237.86 243.66 245.94 238.1 250.49 229.77C256.3 240.38 267.16 243.92 278.53 243.66C306.07 243.15 319.2 209.3 318.95 189.35C318.7 180 315.41 174.95 310.11 172.17C318.95 162.57 322.99 150.7 322.99 138.07C322.99 123.42 312.63 109.78 296.72 109.78C285.35 109.78 273.98 116.35 265.39 129.99C263.37 116.85 255.54 109.78 239.37 109.78C224.72 109.78 214.87 118.12 206.78 134.79C205.77 119.38 201.22 109.78 182.53 109.78C161.06 109.78 147.67 129.99 147.67 152.22C147.67 166.11 153.73 170.66 159.29 172.18C147.42 189.61 139.33 206.54 139.33 220.18V220.17Z" fill="#231815"/>
<path d="M358.35 115.58C353.8 112.04 347.74 109.77 339.4 109.77C336.37 109.77 333.08 110.02 330.05 110.53C326.01 108 322.47 103.2 322.47 96.3799C322.47 85.5199 331.82 76.6699 348.49 76.6699C365.16 76.6699 373.75 85.2599 373.75 95.8699C373.75 104.71 369.2 111.79 358.34 115.58H358.35ZM320.71 236.08C307.57 236.08 297.22 228 297.22 210.06C297.22 197.18 308.59 172.17 319.45 159.53C322.73 155.99 317.18 150.69 313.89 154.48L310.1 159.03C306.31 156 304.29 152.46 304.29 146.15C304.29 127.46 322.23 117.35 339.41 117.35C355.33 117.35 359.62 126.95 359.62 136.8C359.62 149.94 352.8 163.58 333.09 184.29C329.81 187.57 335.11 193.13 338.65 189.34C341.68 186.31 344.46 183.28 346.73 180.5C352.29 178.48 357.34 180.25 357.34 187.07C357.34 211.07 341.17 236.08 320.71 236.08Z" fill="white"/>
<path d="M322.48 96.3801C322.48 85.5201 331.83 76.67 348.5 76.67C365.17 76.67 373.76 85.2601 373.76 95.8701C373.76 104.71 369.21 111.79 358.35 115.58C353.8 112.04 347.74 109.77 339.4 109.77C336.37 109.77 333.08 110.02 330.05 110.53C326.01 108 322.47 103.2 322.47 96.3801H322.48ZM289.64 210.06C289.64 234.56 305.05 243.66 320.71 243.66C348.25 243.66 364.92 212.59 364.92 187.07C364.92 177.47 359.61 173.18 352.79 172.92C362.89 159.78 367.19 148.42 367.19 136.79C367.19 131.48 365.93 126.18 363.4 121.88C375.02 116.83 381.34 106.22 381.34 95.86C381.34 79.69 366.69 69.0801 348.5 69.0801C330.31 69.0801 314.9 80.2 314.9 96.36C314.9 103.43 317.68 108.99 321.47 113.03C307.07 118.59 296.71 130.71 296.71 146.12C296.71 154.96 301 161.03 306.06 165.07C296.97 178.96 289.64 197.15 289.64 210.04V210.06ZM333.09 184.29C329.81 187.57 335.11 193.13 338.65 189.34C341.68 186.31 344.46 183.28 346.73 180.5C352.29 178.48 357.34 180.25 357.34 187.07C357.34 211.07 341.17 236.08 320.71 236.08C307.57 236.08 297.22 228 297.22 210.06C297.22 197.18 308.59 172.17 319.45 159.53C322.73 155.99 317.18 150.69 313.89 154.48L310.1 159.03C306.31 156 304.29 152.46 304.29 146.15C304.29 127.46 322.23 117.35 339.41 117.35C355.33 117.35 359.62 126.95 359.62 136.8C359.62 149.94 352.8 163.58 333.09 184.29Z" fill="#231815"/>
</g>
</svg>
