<svg width="140" height="27" viewBox="0 0 140 27" fill="none" xmlns="http://www.w3.org/2000/svg">
	<path d="M26.77 24.49L26.71 24.63L26.77 24.94C26.83 25.25 26.69 25.5 26.46 25.56L26.12 25.64C26.09 25.64 26.06 25.67 26.04 25.67L25.67 25.7L24.91 25.84H24.23L23.86 25.76L23.13 25.68L22.96 25.79C22.88 25.85 22.73 25.9 22.62 25.87L22.2 25.81L21.97 25.89C21.86 25.95 21.69 25.95 21.55 25.86L21.15 25.63L20.33 25.66L19.93 25.72L18.74 25.86H18.32L17.61 25.89C17.53 25.89 17.41 25.86 17.36 25.83L16.91 25.58L16.46 25.78C16.43 25.81 16.4 25.81 16.38 25.81L16.01 25.88H15.87L15.45 25.82L14.94 25.9H14.46C14.43 25.9 14.38 25.93 14.32 25.9L13.78 25.76L13.36 25.87L13.28 25.9L12.8 25.96C12.72 25.96 12.63 25.96 12.55 25.9L12.18 25.73L11.53 25.87C11.5 25.87 11.47 25.9 11.45 25.9H10.83C10.77 25.9 10.72 25.87 10.66 25.84L10.18 25.64L9.67 25.67H9.26999L8.75999 25.7L8.08 25.64L7.42999 25.81C7.39999 25.81 7.36999 25.84 7.34999 25.84L6.89999 25.87H6.81999L6.2 25.81L5.92 25.89C5.86 25.92 5.81 25.95 5.75 25.95H4.81999C4.73999 25.95 4.65 25.92 4.59 25.87L4.25 25.64L3.56999 25.89C3.45999 25.95 3.32 25.95 3.2 25.89L2.86 25.75L2.62999 25.81C2.54999 25.84 2.45999 25.84 2.37999 25.81L1.73 25.64L1.5 25.75C1.42 25.81 1.3 25.81 1.22 25.81L0.939987 25.75C0.829987 25.72 0.68999 25.67 0.62999 25.58L0.289993 25.13C0.259993 25.1 0.229996 25.07 0.229996 25.05L0.0299988 24.6C0.0299988 24.57 0 24.52 0 24.46V24.35C0 24.27 -1.22003e-06 24.21 0.0299988 24.15L0.279999 23.5L0.169998 23.33C0.139998 23.27 0.139999 23.16 0.139999 23.1V22.56L0.169998 21.91C0.169998 21.85 0.199996 21.77 0.229996 21.74L0.339996 21.54C0.199996 21.31 0.229998 20.98 0.419998 20.81L0.649994 20.64C0.759994 20.56 0.929993 20.5 1.03999 20.53L1.23999 20.56L1.86 20.53L2.09 20.42C2.2 20.36 2.36999 20.34 2.50999 20.39L2.90999 20.53L3.42 20.47H4.26999L4.68999 20.36V20.33L4.65999 19.65L4.37999 19.03C4.34999 18.97 4.34999 18.92 4.34999 18.86V18.52C4.34999 18.44 4.34999 18.32 4.40999 18.24L4.58 18.04L4.5 17.84C4.42 17.61 4.47 17.39 4.67 17.22L5.06999 16.91C5.14999 16.83 5.26999 16.8 5.37999 16.8H5.65999L6.28 16.74L6.50999 16.71H6.67999L7.36 16.85C7.42 16.85 7.47 16.88 7.5 16.91L7.61 16.97L8.28999 16.91L8.56999 16.8C8.76999 16.72 8.96999 16.72 9.04999 16.83L9.22 17L9.75999 16.92L10.13 16.81C10.36 16.73 10.61 16.81 10.72 16.98L10.89 17.23C10.92 17.26 10.95 17.31 10.95 17.37L11.06 17.77L11.2 18.42C11.23 18.53 11.23 18.59 11.2 18.7L10.97 19.26L11.08 19.77L11.11 20.08V20.25H11.53C11.59 20.25 11.67 20.28 11.73 20.31L11.87 20.37L12.49 20.54L13.2 20.4L13.74 20.37L14.25 20.26C14.31 20.23 14.42 20.26 14.48 20.29L14.76 20.35L15.3 20.27C15.38 20.24 15.5 20.27 15.58 20.33L15.78 20.44C15.78 20.41 15.81 20.38 15.81 20.36L15.95 19.77L16.01 19.21L15.76 18.5C15.73 18.39 15.7 18.25 15.76 18.13L15.96 17.79L15.93 17.39C15.93 17.31 15.96 17.19 16.01 17.11L16.09 16.97C16.2 16.8 16.37 16.74 16.6 16.83L16.94 16.94L17.17 16.8C17.31 16.69 17.54 16.69 17.68 16.77L18.02 16.94L18.41 16.86C18.47 16.83 18.58 16.86 18.64 16.89L18.92 16.95L19.51 17.01L19.93 16.87C20.04 16.81 20.18 16.81 20.3 16.87L20.5 16.95L21.26 16.87C21.34 16.87 21.43 16.87 21.51 16.93L21.74 17.01L21.99 17.12C22.13 17.18 22.24 17.29 22.27 17.43L22.41 17.99C22.41 18.05 22.44 18.07 22.44 18.1V18.38L22.33 19.09L22.3 19.15L22.22 19.49L22.28 20L22.31 20.34C22.34 20.34 22.39 20.37 22.45 20.4L22.62 20.46H23.16L23.7 20.29C23.81 20.26 23.98 20.26 24.1 20.35L24.35 20.46L25.11 20.52L25.36 20.44C25.39 20.44 25.42 20.41 25.44 20.41L25.75 20.35C25.86 20.32 26.03 20.38 26.12 20.46L26.52 20.77C26.69 20.91 26.77 21.14 26.72 21.28L26.64 21.53L26.78 21.84C26.86 22.01 26.86 22.18 26.75 22.35L26.52 22.69L26.55 23.03V23.74L26.75 24.19C26.79 24.32 26.79 24.41 26.77 24.49ZM1.25 9.25001C1.22 9.19001 1.18999 9.14 1.18999 9.02L1.25 8.40001V7.47001L1.36 6.96001L1.53 6.17001L1.42 5.86001C1.36 5.66001 1.42 5.49001 1.53 5.35001L1.75999 5.10001L1.95999 4.62001L1.92999 4.54001C1.86999 4.26001 1.95999 4.03 2.09999 3.98L2.37999 3.87001V3.59C2.37999 3.42 2.46 3.31001 2.58 3.22001L2.92 2.97001L3.34 2.35001L3.45 2.10001C3.48 1.99001 3.55999 1.90001 3.67999 1.85001L4.09999 1.65001L4.23999 1.42001C4.26999 1.36001 4.29999 1.31001 4.37999 1.25001L4.68999 1.08001C4.71999 1.05001 4.8 1.02001 4.83 1.02001L5.39 0.940006L5.89999 0.830006L6.03999 0.800007L6.43999 0.860008L6.83 0.660007C6.89 0.630007 6.97 0.600006 7.03 0.600006H7.59L7.92999 0.520008C7.98999 0.490008 8.03999 0.490005 8.06999 0.490005L9.25999 0.520008C9.28999 0.520008 9.28999 0.550007 9.31999 0.550007L10.03 0.690006L10.28 0.460007C10.36 0.380007 10.51 0.350006 10.62 0.350006H11.16L11.72 0.430008L12.28 0.570007C12.36 0.600007 12.45 0.630008 12.51 0.680008L12.65 0.820007C12.79 0.960007 12.82 1.10001 12.79 1.24001L12.73 1.49001L12.67 2.08001L12.73 2.87001L12.87 3.15001C12.93 3.29001 12.93 3.46001 12.87 3.60001L12.64 4.08001L12.87 4.39001C12.93 4.47001 12.95 4.53001 12.95 4.62001L12.98 5.02C13.01 5.25 12.92 5.47001 12.73 5.56001L12.5 5.64001C12.44 5.67001 12.42 5.64001 12.36 5.64001L11.91 5.61001L11.49 5.81001C11.41 5.84001 11.29 5.84001 11.21 5.81001L10.62 5.67001L10.59 5.73C10.42 5.9 10.19 5.90001 10.05 5.81001L9.76999 5.67001L8.7 5.7L7.83 5.84L7.54999 6.43001C7.51999 6.51001 7.43999 6.6 7.37999 6.63L7.17999 6.74001L6.98 7.45V8.44001L7.14999 9.32001L7.48999 9.83001L7.86 9.8C8 9.8 8.16999 9.86001 8.25999 9.97001L8.56999 10.34L9.43999 10.23C9.46999 10.23 9.52 10.2 9.58 10.23L10.23 10.37L10.68 10.34H10.79L11.18 10.37L11.86 10.2C11.92 10.17 11.97 10.17 12.06 10.2L12.14 10.23C12.2 10.26 12.28 10.26 12.34 10.31L12.68 10.62C12.82 10.76 12.85 10.93 12.82 11.1L12.76 11.41L12.84 11.86V12.03L12.76 12.54L12.7 13.05L12.73 13.64L12.79 14.15L12.76 14.8C12.76 14.88 12.7 15 12.65 15.08L12.54 15.21C12.48 15.29 12.37 15.32 12.26 15.35L11.64 15.43H10.91L10.66 15.4L10.12 15.6C10.06 15.63 9.95 15.66 9.87 15.63L9.22 15.46L8.25999 15.32L7.84 15.46C7.76 15.49 7.64 15.49 7.56 15.46L7 15.29L6.58 15.37C6.52 15.37 6.40999 15.4 6.34999 15.37L6.03999 15.26L5.87 15.18L5.62 14.9L5.14 14.98C5.03 15.01 4.88999 14.98 4.79999 14.92L4.37999 14.61L4.09999 14.53C4.01999 14.5 3.95999 14.42 3.89999 14.33L3.7 14.02L3.33 13.43H3.08C2.83 13.43 2.59999 13.32 2.56999 13.18L2.50999 12.9L2.06 12.25C2.03 12.19 1.98 12.14 1.98 12.05L1.92 11.77V11.15L1.58 10.9C1.47 10.82 1.40999 10.76 1.37999 10.62L1.31999 10.37V10.21L1.39999 9.50001L1.25 9.25001ZM13.92 12.22C13.86 12.14 13.81 12.05 13.84 11.91L13.92 11.43L14.03 10.87C14.03 10.81 14.06 10.81 14.06 10.79L14.26 10.42C14.37 10.19 14.6 10.05 14.85 10.14L15.22 10.25L15.3 10.19C15.44 10.08 15.67 9.99001 15.81 10.08L16.04 10.19L16.58 10.05C16.72 9.99 16.83 10.02 16.95 10.08L17.35 10.28L18.06 10.03C18.12 10 18.23 10 18.29 10L18.77 10.08L19.11 9.71001C19.14 9.68001 19.17 9.65001 19.19 9.65001L19.73 9.31001L19.81 8.46001L19.73 7.47001V7.39001L19.81 6.85001L19.41 6.48L18.93 6.09L18.37 5.95L16.87 5.87001L16.76 5.84L16.08 5.61001L15.8 5.78001C15.74 5.81001 15.69 5.84 15.63 5.84L15.01 5.87001H14.93L14.65 5.84C14.54 5.81 14.4 5.73001 14.31 5.61001L14.14 5.38C14.14 5.35 14.11 5.32 14.11 5.3L13.94 4.88C13.91 4.85 13.88 4.77001 13.88 4.74001L13.85 3.98C13.85 3.9 13.85 3.90001 13.88 3.81001L13.99 3.56001L14.07 3.05L13.99 2.17001L13.93 1.97001C13.9 1.91001 13.9 1.77001 13.93 1.72001L14.13 1.04001C14.16 0.960009 14.21 0.870005 14.27 0.810005L14.38 0.730007C14.46 0.650007 14.61 0.620007 14.72 0.620007L15.26 0.680008L15.85 0.480007L16.24 0.400005L16.78 0.370007C16.84 0.370007 16.92 0.370005 16.98 0.400005L17.63 0.650005L18.53 0.540009C18.59 0.540009 18.67 0.540007 18.73 0.570007L19.27 0.740005L19.83 0.680008L20.25 0.570007C20.31 0.540007 20.36 0.540007 20.45 0.570007L20.85 0.630005C20.93 0.630005 21.02 0.690005 21.08 0.740005L21.5 1.14001L22.54 1.45001L22.71 1.48001C22.85 1.51001 23.02 1.59001 23.08 1.76001L23.22 2.10001L23.73 2.21001C23.84 2.24001 23.98 2.32001 24.04 2.44001L24.27 2.84L24.5 2.98C24.58 3.04 24.64 3.15 24.67 3.23L24.78 3.62001L25.03 4.21001L25.23 4.72001C25.26 4.80001 25.26 4.83001 25.26 4.92001V5.17001L25.43 5.51001C25.49 5.62001 25.51 5.71001 25.49 5.85001L25.35 6.41L25.41 6.92001L25.52 7.15001C25.58 7.26001 25.6 7.35001 25.58 7.43001L25.41 8.39001L25.61 9.04001C25.64 9.15001 25.64 9.29 25.61 9.38L25.38 9.86001L25.33 10.21L25.25 10.8L25.08 11.42L25 11.93L24.92 12.35C24.92 12.43 24.86 12.49 24.81 12.58L24.47 12.95L24.41 13.01L24.21 13.18L23.98 13.63C23.92 13.74 23.81 13.83 23.67 13.86L23.39 13.92L22.77 14.34C22.74 14.37 22.71 14.34 22.66 14.37L22.38 14.45L22.04 14.7L21.33 15.07C21.3 15.1 21.22 15.13 21.16 15.13L20.93 15.16H20.42L19.97 15.36C19.89 15.42 19.74 15.42 19.66 15.39L19.41 15.33L18.59 15.58C18.51 15.61 18.42 15.61 18.34 15.58L17.44 15.33L17.04 15.41H16.9L16.28 15.3L16 15.44C15.94 15.47 15.83 15.47 15.77 15.47L15.18 15.41L14.7 15.49C14.59 15.52 14.39 15.46 14.3 15.38L14.12 15.21C14.01 15.1 13.92 14.93 13.95 14.76L14.03 14.22L14.09 13.77L13.92 13.18C13.89 13.04 13.92 12.9 14 12.78L14.17 12.55L13.92 12.22Z" fill="#EA5457" />
	<path d="M36.7799 3.5L36.8099 3.64V4.19999L36.7799 4.62C36.7799 4.68 36.7199 4.78999 36.6999 4.84999L36.4999 5.19L36.5299 5.64C36.5299 5.72 36.4999 5.80999 36.4499 5.91999L36.2799 6.19999C36.1399 6.42999 35.9099 6.56999 35.7999 6.47999L35.5999 6.33999L35.1199 6.30999C35.1199 6.33999 35.0899 6.38999 35.0599 6.41999L34.9499 6.55999L35.0899 6.87C35.1499 6.98 35.1699 7.15 35.1199 7.29L34.9499 7.76999L34.8399 8.39L34.9499 8.93L35.0099 9.61V9.97999L35.0899 10.26C35.1199 10.37 35.1199 10.46 35.0899 10.57L34.8599 11.19L35.0899 11.75C35.1199 11.78 35.1499 11.83 35.1499 11.89V12.12C35.1499 12.18 35.1499 12.23 35.1199 12.32L34.9199 12.77L34.8399 13.5L35.0099 13.67C35.1199 13.78 35.2099 13.95 35.1799 14.09L35.1499 14.37V15.02L35.0699 15.64L35.1299 15.81C35.1899 15.98 35.1599 16.15 35.0499 16.29L34.8799 16.49L35.1299 17.08C35.1599 17.16 35.1899 17.28 35.1899 17.36L35.1099 17.92L34.9999 18.26L34.9699 18.85L34.8899 19.44L35.1699 20.09C35.1999 20.17 35.1999 20.26 35.1999 20.32V20.38L35.6199 20.35H35.6999C35.7799 20.35 35.8999 20.38 35.9799 20.46L36.3999 20.77C36.4599 20.83 36.4799 20.85 36.5099 20.94L36.6499 21.19C36.7099 21.27 36.7099 21.42 36.6799 21.53L36.5999 21.9L36.5399 22.32L36.4599 22.94L36.5399 23.42V23.56L36.4799 24.12L36.5899 24.43C36.5899 24.46 36.6199 24.46 36.6199 24.51L36.6499 24.76C36.6799 24.93 36.5899 25.1 36.4799 25.21L35.9999 25.63C35.9399 25.69 35.8299 25.74 35.7499 25.74H35.6699C35.5299 25.77 35.3599 25.74 35.2699 25.63L35.0999 25.46L34.5099 25.63L34.1399 25.71C34.0799 25.74 33.9999 25.77 33.9099 25.74L33.4299 25.66H33.1199C33.0099 25.66 32.8699 25.6 32.7799 25.52L32.7499 25.49L32.3799 25.6C32.2099 25.66 32.0099 25.66 31.9299 25.57L31.7899 25.43L31.2799 25.68C31.2199 25.71 31.1099 25.74 31.0299 25.74L30.4399 25.71C30.4099 25.71 30.3299 25.68 30.2999 25.65L29.9599 25.51C29.8999 25.48 29.8199 25.45 29.7599 25.37L29.6199 25.17C29.5899 25.11 29.5599 25.11 29.5599 25.09L29.4499 24.78C29.4199 24.67 29.3899 24.55 29.4199 24.47L29.5899 24.02L29.3099 23.48C29.2799 23.45 29.2499 23.37 29.2499 23.31L29.2199 23C29.2199 22.83 29.2799 22.69 29.3599 22.6L29.5899 22.4L29.3099 21.78C29.2499 21.61 29.2799 21.41 29.3699 21.3L29.5399 21.1L29.3999 20.73L29.2599 20.08C29.2299 19.94 29.2599 19.85 29.3199 19.74L29.5699 19.37L29.5099 19.06V18.95L29.5899 18.24L29.4199 17.87C29.3899 17.79 29.3599 17.7 29.3899 17.62L29.5299 17.03L29.2999 16.61L29.2699 16.5L29.2099 16.16C29.2099 16.08 29.2099 15.96 29.2699 15.85L29.4099 15.68L29.5199 14.78L29.4399 14.64C29.4099 14.56 29.4099 14.5 29.4099 14.44V13.28L29.3799 13.03C29.3799 12.97 29.3499 12.92 29.3799 12.86L29.5799 12.32L29.3299 11.53V11.39L29.3599 10.85L29.2799 10.57C29.2499 10.46 29.3099 10.32 29.3599 10.2L29.4699 10.03L29.2999 9.47C29.2699 9.36 29.2699 9.3 29.2999 9.19L29.4399 8.87999V8.46L29.4699 7.64L29.5299 7.29999L29.3599 6.73999V6.57L29.4399 5.97999V5.66999L29.4099 5.11L29.2099 4.51999C29.1799 4.45999 29.1499 4.35 29.1799 4.29L29.3199 3.75L29.3799 3.47L29.5199 2.87999L29.2899 2.32C29.2299 2.18 29.2599 2.00999 29.3199 1.91999L29.3799 1.80999C29.4099 1.74999 29.4399 1.75 29.4599 1.73L29.9999 1.21999L30.3399 0.969994C30.4199 0.909994 30.5399 0.859997 30.6199 0.859997H31.5799C31.6399 0.859997 31.6899 0.889994 31.7499 0.919994L32.0599 1.02999L32.7099 0.919994H32.8499L33.1299 0.949997L33.9499 0.919994L34.2299 0.949997C34.3399 0.949997 34.4799 1.03 34.5699 1.12V1.14999L34.7699 1.12L35.4499 0.979996C35.5099 0.949996 35.6499 0.949996 35.6999 0.979996L35.8699 1.04C35.9299 1.07 35.9799 1.06999 36.0099 1.09999L36.2899 1.3C36.4299 1.41 36.5199 1.55 36.5199 1.7V2.07L36.4899 2.83L36.6299 3.11C36.6599 3.17 36.6899 3.19 36.6899 3.22L36.7799 3.5ZM45.1399 12.27C45.1999 12.35 45.2199 12.47 45.2199 12.55V12.86L45.1899 13L45.0799 13.31L44.9099 13.82L45.0799 14.24C45.1099 14.32 45.1399 14.47 45.1099 14.58L44.9099 15.21L44.9699 15.75L45.0799 15.92C45.1399 16 45.1899 16.09 45.1899 16.23V16.79L45.1599 17.16L45.0499 17.67L45.2199 18.29V19.36L45.1599 19.95C45.1599 20.03 45.1299 20.06 45.0999 20.12L44.9299 20.46L44.8999 21L45.0099 21.88C45.1499 22.05 45.1799 22.28 45.0899 22.44L44.8399 23.03L44.9799 23.54L45.1199 23.94C45.1199 23.97 45.1499 24 45.1499 24.05L45.1799 24.45V24.56L45.0999 24.93C45.0699 25.1 44.9299 25.27 44.7599 25.33L44.3899 25.47L44.0799 25.64C43.9699 25.72 43.8299 25.72 43.6899 25.7L43.2099 25.56L42.8699 25.73C42.7899 25.79 42.6699 25.79 42.5899 25.79L42.0499 25.73L41.8199 25.67L41.5399 25.61C41.4599 25.67 41.3399 25.72 41.2299 25.72H40.8899L40.5499 25.66L40.2399 25.8C40.1799 25.83 40.0999 25.83 40.0099 25.83L38.9099 25.75L38.3199 25.64C38.2399 25.61 38.1499 25.61 38.0699 25.53L37.8999 25.36C37.8399 25.3 37.7899 25.22 37.7899 25.11L37.7099 24.46L37.6499 24.32C37.6199 24.24 37.6499 24.12 37.6799 24.01L37.8799 23.56L37.9099 23.14L37.9899 22.58L37.7399 22.21C37.6299 22.07 37.6299 21.9 37.6799 21.73L37.9299 21.19L37.8999 21.08C37.8699 21 37.8699 20.88 37.9299 20.77L38.1299 20.4C38.2099 20.2 38.4099 20.06 38.6099 20.09L38.8899 20.12C38.9999 20.12 39.1199 20.15 39.1999 20.26L39.3699 20.46L39.5099 20.4L39.4299 19.92L39.2299 19.44C39.1999 19.36 39.1699 19.3 39.1999 19.19L39.3099 18.79L39.3399 18.23V18.03L39.3699 17.18L39.4499 16.5L39.3699 16.3C39.3699 16.27 39.3399 16.24 39.3399 16.22L39.2599 15.49C39.2599 15.41 39.2299 15.38 39.2599 15.29L39.3399 15.12L39.5099 14.44L39.3999 13.85L39.3399 13.17L39.2599 12.77V12.63L39.2899 12.35C39.2899 12.32 39.3199 12.32 39.3199 12.29L39.5499 11.64L39.3499 11.36C39.2899 11.25 39.2699 11.16 39.2899 11.02L39.3999 10.46L39.3699 10.09L39.2299 9.64V8.90999L39.1999 8.46L39.2299 7.9V7.30999L39.4299 6.79999V6.34999L39.0099 6.54999C38.8999 6.60999 38.7299 6.61 38.6399 6.58L38.5299 6.51999C38.4999 6.48999 38.4699 6.48999 38.4499 6.48999L37.8599 6.07C37.7199 5.96 37.6299 5.75999 37.6599 5.58999L37.7399 5.19L37.9099 4.65L37.9699 4.08999L37.7199 3.80999C37.6599 3.72999 37.6399 3.64 37.6399 3.5V3.19C37.6399 3.11 37.6699 3.07999 37.6999 3.01999L37.8999 2.59999L37.8399 2.57C37.6999 2.43 37.6399 2.22999 37.6999 2.05999L37.7299 1.91999C37.7599 1.83999 37.8099 1.74999 37.8999 1.66999L38.4399 1.25C38.4699 1.25 38.4999 1.24999 38.5199 1.21999L38.6299 1.16C38.7099 1.13 38.7999 1.07999 38.9099 1.09999L39.5299 1.18L39.7599 1.14999L39.8399 1.07C39.9199 0.959996 40.0699 0.899994 40.1799 0.899994H40.3199L40.3999 0.929996L40.6799 0.989994L40.8499 0.959995C40.9299 0.929995 41.0499 0.929994 41.1299 0.989994L41.3599 1.07H42.1199L42.9399 1.14999L43.3399 0.949997C43.4199 0.889997 43.5399 0.889996 43.6199 0.889996L44.0199 0.949997L44.4999 1.05999C44.6099 1.08999 44.7299 1.16999 44.7799 1.25999L44.9199 1.46C44.9799 1.52 45.0299 1.6 45.0299 1.71L45.0599 2.36L45.1199 2.66999C45.1499 2.77999 45.0899 2.86999 45.0599 2.94999L44.9499 3.22999L44.9199 3.82L45.0899 4.26999C45.0899 4.29999 45.1199 4.32999 45.1199 4.37999L45.1799 5.05999C45.1799 5.11999 45.1799 5.2 45.1499 5.29L45.0699 5.51999L45.1799 5.97C45.2399 6.14 45.2099 6.28 45.1199 6.37L45.0099 6.47999L44.9799 7.07L44.8999 7.89L45.1499 8.4C45.1799 8.46 45.1799 8.56999 45.1799 8.62999V8.94L45.1499 9L45.0899 9.39L44.8899 10.04L45.1699 10.6C45.2299 10.68 45.2299 10.83 45.1999 10.94L45.1399 11.17L44.8599 11.82L45.1399 12.27ZM54.2299 10.47L54.1199 10.87L54.1799 11.52L54.2399 11.94V12.42L54.2099 12.56L53.9299 13.38L54.0699 13.89C54.0999 13.97 54.0999 14 54.0999 14.09V14.2L54.1599 14.68V14.76L54.1299 15.47C54.1299 15.53 54.0999 15.5 54.0999 15.55L53.9899 15.97L54.1599 16.34C54.2399 16.48 54.2399 16.65 54.1899 16.79L53.9599 17.24L54.0399 17.44C54.0699 17.52 54.0699 17.61 54.0699 17.67V18.83L53.8999 19.45L53.9299 20.04L54.0399 20.18C54.1799 20.32 54.2399 20.52 54.1499 20.72L54.0399 20.97L54.1199 21.79V22.35L54.1499 22.72V22.86L54.0699 23.57L53.9599 24.16L54.0199 24.22C54.1299 24.3 54.1899 24.39 54.2199 24.5L54.2799 24.75C54.2799 24.83 54.2799 24.95 54.2499 25L54.0499 25.51L53.9399 25.68L53.6899 25.93C53.6099 26.01 53.4899 26.07 53.3799 26.07L52.9799 26.1L52.8399 26.18C52.6999 26.29 52.4999 26.35 52.3599 26.26L52.1099 26.15L51.3799 26.09L50.6699 26.29L50.2199 26.35H49.9699C49.9399 26.35 49.8899 26.38 49.8299 26.35L49.1199 26.18H49.0099C48.7599 26.21 48.5299 26.1 48.4699 25.9L48.3899 25.62C48.3899 25.59 48.3599 25.59 48.3599 25.54V24.89L48.2199 24.41L48.1399 24.27C48.1099 24.19 48.0799 24.04 48.1099 23.96L48.2499 23.31L48.1699 22.86V22.71L48.2299 22.26L48.2899 21.78L48.1499 21.3C48.1199 21.19 48.1199 21.02 48.1799 20.91L48.3199 20.71L48.0699 20C48.0399 19.89 48.0399 19.8 48.0699 19.69L48.1799 19.41L48.2099 18.96L48.1499 18.4V18.31L48.2099 17.72L48.1299 17.1V17.01L48.1899 16.47L48.2499 15.88L48.0799 15.63C48.0199 15.55 48.0199 15.43 48.0199 15.35L48.0999 14.81L48.1799 14.33L48.2099 14.25L48.3499 13.91L48.2699 13.26V13.12L48.3499 12.81L48.0399 12.05C48.0099 11.97 48.0099 11.82 48.0399 11.74L48.1799 11.37L48.2399 10.81L48.1799 10.67V10.47L48.3499 9.62L48.3199 9.19999L48.1499 8.86C48.1199 8.8 48.0899 8.75 48.0899 8.69V8.12999L48.1199 7.54L48.0599 6.94999C48.0599 6.86999 48.0599 6.84 48.0899 6.75L48.2899 6.23999L48.3499 6.04L48.1199 5.44999C48.0599 5.24999 48.0599 5.05 48.1499 4.97L48.3199 4.83L48.0899 4.26999C48.0599 4.15999 48.0599 4.07 48.0899 3.96L48.2299 3.58999L48.3399 3.16999L48.3999 2.54999L48.3199 1.89999V1.25C48.2099 1.05 48.2399 0.879995 48.3799 0.689995L48.5799 0.459995C48.7799 0.229995 49.0599 0.149996 49.1699 0.229996L49.3999 0.399994L50.0799 0.229996H50.4999L50.8099 0.289997L51.5399 0.349995L51.9099 0.319996C51.9699 0.319996 52.0199 0.319995 52.0799 0.349995L52.3299 0.409996L52.7499 0.179996C52.8099 0.149996 52.8899 0.119995 52.9499 0.119995L53.3499 0.0899963C53.5199 0.0899963 53.7199 0.199996 53.7999 0.339996L53.9999 0.679996C54.1099 0.879996 54.1699 1.01999 54.1099 1.09999L53.9699 1.21L54.1699 1.75C54.2299 1.92 54.2299 2.06 54.1399 2.2L53.8899 2.59999L53.9699 2.73999C54.0799 2.87999 54.1099 3.05 54.0799 3.19L53.9399 3.77999L54.0799 4.08999C54.1099 4.14999 54.1599 4.26 54.1599 4.32V4.83L54.1899 5.25L54.1299 5.9C54.1299 6.01 54.0999 6.06999 54.0499 6.12999L53.9699 6.23999L54.1699 7.02999C54.1999 7.10999 54.1999 7.19999 54.1699 7.27999L54.1399 7.41999L53.9099 8.04L54.1599 8.86C54.1599 8.89 54.1899 8.89 54.1899 8.94L54.2199 9.30999L54.2499 9.87V10.32L54.2299 10.47Z" fill="#EA5457" />
	<path d="M74.2402 24.72L74.1802 25.09C74.1802 25.17 74.1502 25.2 74.1202 25.26L73.8902 25.6C73.7802 25.74 73.6102 25.85 73.4702 25.83L73.2202 25.8L72.6302 25.83C72.5202 25.83 72.3802 25.83 72.2602 25.72L72.1202 25.58L70.8202 25.81L70.4802 25.84H70.3702L69.1802 25.7L68.5902 25.62C68.5302 25.68 68.4802 25.7 68.4202 25.7L68.3402 25.73C68.2802 25.76 68.2302 25.73 68.2002 25.73H67.4702L67.1602 25.79H66.9902L66.3702 25.71H65.9202L65.2402 25.65L64.8402 25.76H64.6702L63.9902 25.73L63.6502 25.76C63.5102 25.79 63.4502 25.76 63.3402 25.68L63.0902 25.51C62.8902 25.68 62.6902 25.76 62.5502 25.65H62.5202L62.2402 25.71L62.1802 25.74H61.7602L61.5302 25.77L61.1602 25.83C61.0802 25.83 60.9602 25.83 60.9102 25.8L60.2902 25.55L59.8702 25.66L59.8102 25.69L59.2502 25.77L58.7702 25.83H58.6302L58.2902 25.77C58.1202 25.74 57.9802 25.6 57.9202 25.43L57.8102 25.09C57.8102 25.06 57.7802 25.03 57.7802 25.01L57.7202 24.45V24.34L57.7502 24.17L57.6902 23.61L57.6102 22.88V22.15L57.5502 22.09C57.4702 21.98 57.4102 21.84 57.4402 21.67L57.6102 21.08L57.7502 20.74L57.5802 20.46C57.5002 20.32 57.5002 20.18 57.5202 20.06L57.6902 19.55L57.8002 18.87L57.6302 18.73C57.5202 18.65 57.4602 18.5 57.4902 18.33L57.5702 17.79L57.4602 17.42C57.4002 17.22 57.4602 17.08 57.5702 16.97L57.7702 16.8L57.6602 16.18C57.6302 16.1 57.6602 15.98 57.6902 15.9L57.7702 15.79L57.6602 14.94L57.5202 14.77C57.4402 14.66 57.4102 14.52 57.4402 14.37L57.7202 13.3L57.6402 12.82V12.68L57.7202 12.31L57.8002 11.77L57.4902 11.29C57.4602 11.23 57.4102 11.12 57.4102 11.06V10.78L57.4902 9.9V9.55999L57.4102 9.15999V8.98999L57.5202 8.54L57.6302 7.89V7.21C57.6302 7.18 57.6002 7.07 57.6302 7.04L57.7402 6.80999L57.7702 6.12999L57.4902 5.62C57.4302 5.48 57.4302 5.30999 57.5202 5.16999L57.6902 4.89L57.6102 4.51999L57.4702 4.23999C57.4102 4.12999 57.4402 3.93 57.5002 3.82L57.7502 3.41999L57.8102 2.79999L57.5802 2.37999C57.5502 2.34999 57.5202 2.24 57.5202 2.21L57.4902 1.87C57.4602 1.64 57.5502 1.47 57.7202 1.36L57.9702 1.21999C58.0302 1.18999 58.1102 1.16 58.1702 1.16L58.6802 1.12999C58.7902 1.12999 58.9102 1.12999 58.9602 1.18999L59.0702 1.27L59.6102 1.04C59.6902 1.01 59.8602 0.979995 59.9502 1.00999L60.3502 1.12L61.0302 1.04H61.7602L62.2702 1.09999L62.7802 1.04C62.8902 1.01 63.0302 1.03999 63.1202 1.09999L63.3202 1.23999L63.3502 1.27L64.1402 1.02C64.2002 0.989997 64.2802 0.959994 64.3702 0.989994L64.7702 1.07L65.0502 1.04C65.1302 1.04 65.2202 1.04 65.2802 1.07L65.7602 1.27L66.4402 1.21H66.9802L67.4002 1.07C67.5702 1.01 67.7702 1.00999 67.8502 1.09999L67.9902 1.23999L68.3902 1.16C68.5002 1.13 68.6402 1.12999 68.7602 1.18999H68.8202L68.9002 1.12999C69.0702 0.989993 69.2902 0.959996 69.4902 1.07L69.8602 1.27L70.2802 0.989994C70.3902 0.909994 70.5102 0.909996 70.6202 0.929996L70.9002 0.959995C70.9302 0.959995 71.0102 0.959994 71.0402 0.989994L71.5502 1.21999L72.0902 1.02L72.5402 0.939995C72.6202 0.909995 72.7702 0.909994 72.8502 0.969994L73.4402 1.27999C73.4702 1.30999 73.5002 1.30999 73.5002 1.30999L73.6102 1.39C73.7502 1.5 73.8402 1.63999 73.8102 1.80999L73.7502 2.04L73.9202 2.40999C73.9802 2.51999 73.9802 2.61 73.9502 2.69L73.8702 3.27999L73.8102 3.76L73.9502 4.18C73.9802 4.29 73.9802 4.37999 73.9502 4.48999L73.8702 4.76999V5.33L73.8402 5.47L73.7002 5.83999C73.7002 5.86999 73.6702 5.89999 73.6402 5.94999L73.3902 6.29C73.2202 6.52 72.9702 6.6 72.8502 6.54L72.6202 6.4L72.2802 6.43L71.5702 6.71C71.4902 6.74 71.3402 6.74 71.2602 6.71L71.0302 6.62999L70.4402 6.59999L70.1002 6.71C70.0702 6.71 70.0402 6.73999 70.0202 6.73999L69.3102 6.76999H69.2502L68.5202 6.69L68.3502 6.72C68.2902 6.72 68.2102 6.72 68.1502 6.69C68.0902 6.69 68.0402 6.65999 67.9802 6.62999L67.4702 6.37999L67.1602 6.61C67.0202 6.72 66.8502 6.75 66.7402 6.69L66.5402 6.58L65.8302 6.61H65.3802L64.8202 6.5L64.0602 6.64L63.8102 6.72C63.7802 6.75 63.7302 6.72 63.7002 6.72V6.75C63.7302 6.81 63.7302 6.92 63.7302 7L63.6702 7.33999C63.6702 7.39999 63.6402 7.44999 63.6102 7.47999L63.5502 7.62V8.18L63.5802 9.08L63.6602 9.41999C63.6902 9.49999 63.6602 9.67 63.6302 9.76L63.4902 10.1L63.3802 10.72L63.4902 10.92C63.6002 11.15 63.6302 11.37 63.5202 11.48L63.3502 11.62L63.5802 12.13C63.5802 12.16 63.6102 12.19 63.6102 12.19L63.6902 12.53C63.7202 12.64 63.7202 12.7 63.6902 12.81L63.4902 13.29L63.4102 13.94L63.5202 14.48L63.6002 14.99C63.6302 15.16 63.5702 15.27 63.4902 15.39L63.3502 15.59L63.4902 16.13V16.72L63.6002 17.06L63.6302 17.17V17.76L63.4302 18.49V18.86L63.3502 19.31L63.5502 20.07V20.13H63.6902L64.0302 20.05C64.1102 20.02 64.2302 20.02 64.3102 20.05L64.6202 20.13L65.1002 20.07H65.9502L66.3702 19.96C66.4302 19.93 66.5402 19.93 66.6002 19.96L67.0202 20.07L67.1302 20.13L67.3302 20.24H67.9202L68.0602 20.18C68.1202 20.15 68.1702 20.15 68.2602 20.15L68.2902 20.12C68.4302 20.04 68.6002 20.06 68.7402 20.15L69.0502 20.29L69.4702 20.12C69.5302 20.09 69.6102 20.09 69.7002 20.09L70.4102 20.2H71.3402L71.4002 20.23L71.8502 20.29L72.2702 20.06C72.3502 20 72.4702 19.98 72.5502 19.98L73.2302 20.06L73.3702 20.12C73.4802 20.15 73.6202 20.2 73.6802 20.32L73.9102 20.72C73.9102 20.75 73.9402 20.78 73.9402 20.78L74.0802 21.15C74.1102 21.26 74.1102 21.29 74.0802 21.4L74.0102 21.7L74.2102 22.15C74.2402 22.21 74.2402 22.32 74.2402 22.4L74.1802 22.85V23.33L73.9302 24.15L74.0402 24.23C74.1802 24.35 74.2602 24.55 74.2402 24.72ZM82.3902 24.32C82.4202 24.4 82.4502 24.46 82.4502 24.52V25.34C82.4502 25.45 82.3901 25.54 82.3401 25.62L82.0602 25.93C81.9802 26.04 81.8602 26.1 81.7202 26.1H80.6502L80.2002 26.13L79.5402 26.21H78.8102C78.7502 26.21 78.7002 26.21 78.6402 26.18L78.1902 26.01L77.6802 26.24C77.6002 26.3 77.4501 26.3 77.3701 26.27L77.0901 26.21C76.9801 26.18 76.8602 26.13 76.8102 26.01L76.4402 25.47C76.4102 25.41 76.3802 25.39 76.3802 25.36L76.2702 25.05C76.2102 24.91 76.2402 24.8 76.2702 24.71L76.3502 24.6L76.3802 23.98C76.3802 23.92 76.4102 23.87 76.4402 23.84L76.5802 23.59L76.4102 22.8L76.3302 22.18L76.2502 21.93V21.79L76.3302 20.92L76.2702 20.86C76.2102 20.75 76.2102 20.63 76.2402 20.55L76.3802 19.93C76.4102 19.82 76.4402 19.76 76.4902 19.7L76.5702 19.62L76.5102 18.94L76.4802 18.09L76.2802 17.84C76.2002 17.73 76.2002 17.56 76.2502 17.39L76.3302 17.16L76.3902 16.71L76.2802 16L76.2002 15.49L76.1702 14.78V14.64L76.2502 14.41L76.3902 13.76L76.4702 13.22L76.3302 12.88C76.3302 12.85 76.3002 12.85 76.3002 12.8L76.2202 12.07C76.2202 11.93 76.2502 11.84 76.2802 11.79L76.3602 11.68L76.4702 10.81L76.4102 10.73C76.3802 10.62 76.3802 10.59 76.4102 10.48L76.5202 10.03V9.37999L76.3502 8.82V8.14C76.3502 8.06 76.3802 7.94 76.4302 7.86L76.5402 7.72V7.07L76.4602 6.30999V5.89L76.2602 5.37999L76.1502 5.04C76.1202 4.98 76.1202 4.89999 76.1502 4.83999L76.5502 3.46L76.3502 3.22999C76.2902 3.16999 76.2702 3.12 76.2702 3V2.48999L76.2102 2.04V1.18999L76.2402 1.11C76.2402 1.05 76.2702 0.939993 76.3202 0.879993L76.6302 0.539997C76.7102 0.429997 76.8802 0.399994 77.0302 0.399994H77.3701L77.6502 0.229996C77.7302 0.169996 77.8502 0.149994 77.9602 0.149994L78.4102 0.209995L79.2302 0.269997L79.3401 0.239994C79.4201 0.179994 79.5401 0.159996 79.6201 0.179996L80.0402 0.259995L80.4602 0.199997H80.6002L81.3102 0.309994L81.5602 0.279995C81.7302 0.249995 81.9302 0.309997 82.0402 0.449997L82.2402 0.729996C82.3502 0.869996 82.3802 1.04 82.3202 1.21L82.2102 1.48999L82.2902 1.89L82.3202 2.57V2.65L82.2602 3.15999L82.3701 3.72V3.91999L82.2902 4.26C82.2602 4.32 82.2602 4.42999 82.2102 4.48999L82.0702 4.62999L82.1302 5.22V6.01L82.3002 6.43C82.3602 6.54 82.3602 6.70999 82.3002 6.84999L82.1602 7.12999L82.1902 7.66999V7.80999L82.1102 8.21L82.3102 8.51999C82.3402 8.57999 82.3701 8.63 82.3701 8.72L82.4302 9.16999C82.4302 9.30999 82.4002 9.45 82.3202 9.54L82.1802 9.68L82.4102 10.33C82.4702 10.44 82.4402 10.58 82.3802 10.73L82.2402 11.01L82.3002 11.21C82.4102 11.46 82.4702 11.69 82.3302 11.77L82.1302 11.88V12.61L82.1602 13.03V13.79L82.2402 14.47L82.3502 14.7C82.4102 14.81 82.4102 14.98 82.3502 15.12L82.2702 15.35L82.3502 16L82.3802 16.08V16.5L82.3002 17.01L82.3602 17.77L82.3302 18.22L82.3002 18.7L82.4702 19.43V19.6L82.4102 20.05L82.3302 20.56L82.4702 21.07C82.5002 21.18 82.5002 21.3 82.4402 21.38L82.2402 21.86L82.1802 22.45L82.3202 22.59C82.4002 22.7 82.4302 22.84 82.4302 22.96L82.4002 23.36C82.4002 23.5 82.3402 23.61 82.2602 23.67L82.1502 23.78L82.3902 24.32Z" fill="#EA5457" />
	<path d="M94.67 17.18C94.67 17.29 94.61 17.41 94.53 17.46L94.22 17.71L94.11 18.22L94.08 18.64C94.08 18.7 94.08 18.78 94.05 18.81L93.85 19.18L93.79 19.29L93.39 19.69L93.28 20.25C93.28 20.31 93.22 20.39 93.2 20.45L92.89 20.85L92.61 21.25C92.55 21.33 92.44 21.39 92.33 21.42L91.99 21.5L91.88 21.92C91.85 22.03 91.8 22.15 91.65 22.23L91.2 22.46L90.92 23.02L90.61 23.5C90.61 23.53 90.58 23.56 90.55 23.58L90.24 23.86L89.82 24.28L89.34 24.65C89.31 24.68 89.23 24.71 89.2 24.71L88.83 24.82L88.8 25.07C88.8 25.18 88.72 25.3 88.63 25.38L88.4 25.55C88.32 25.63 88.17 25.66 88.06 25.66L87.41 25.6C87.35 25.6 87.27 25.54 87.21 25.52L86.9 25.32C86.84 25.29 86.76 25.24 86.73 25.15L86.48 24.64C86.48 24.61 86.42 24.58 86.42 24.53L86.36 24.16L85.77 23.79L85.69 23.71L85.49 23.48L85.38 23.31L85.27 22.83L84.87 22.63C84.76 22.57 84.67 22.46 84.64 22.35L84.56 22.21C84.56 22.18 84.53 22.15 84.53 22.1L84.5 21.7C84.5 21.56 84.5 21.47 84.58 21.36L84.86 21.05L84.92 20.85C84.98 20.71 85.09 20.65 85.2 20.6L85.74 20.4L86.14 19.95L86.37 19.33C86.4 19.25 86.48 19.19 86.54 19.13L86.74 18.99L87.19 18.51L87.22 18.34C87.22 18.28 87.28 18.23 87.3 18.17L87.64 17.72L88.06 17.3L88.23 16.65C88.23 16.59 88.29 16.57 88.31 16.51L88.65 16.11L88.68 15.86C88.71 15.66 88.82 15.55 88.96 15.49L89.27 15.35L89.16 14.93C89.13 14.76 89.16 14.65 89.27 14.51L89.64 14.06V13.64L89.67 13.24C89.67 13.21 89.67 13.13 89.7 13.1L89.9 12.62L89.98 11.89L90.01 11.71L90.15 10.81L90.18 10.44L90.21 9.68001L90.27 9.31001L90.21 8.60001L90.18 8.49001C90.15 8.38001 90.18 8.32001 90.21 8.21001L90.49 7.42001L90.43 7.22001C90.4 7.16001 90.37 7.16001 90.37 7.08001V6.57001L89.83 6.54001C89.8 6.54001 89.8 6.51001 89.77 6.51001L89.35 6.40001L88.62 6.48L88.31 6.62001C88.28 6.65001 88.23 6.62001 88.17 6.62001H87.72C87.61 6.62001 87.47 6.59001 87.38 6.51001L87.13 6.26001L86.68 6.40001C86.57 6.43001 86.43 6.43001 86.34 6.37001L86.11 6.23L85.83 6.15001C85.6 6.07001 85.46 5.95001 85.46 5.75001V5.47001L85.35 4.93001C85.35 4.85001 85.35 4.76 85.38 4.7L85.52 4.3L85.41 3.91L85.3 3.46001C85.27 3.29001 85.33 3.15001 85.41 3.04001L85.61 2.81001L85.38 2.10001V1.82001C85.38 1.74001 85.44 1.62001 85.49 1.54001L85.69 1.31001C85.8 1.17001 86.03 1.11001 86.2 1.17001L86.48 1.25001L86.91 1.21001L87.5 1.04001C87.61 1.01001 87.75 1.01001 87.84 1.07001L88.12 1.21001L88.85 0.980007C88.91 0.950007 89.02 0.950008 89.08 0.950008L89.39 1.01001L89.9 1.21001L91.09 1.15001H91.85L91.93 1.09001C92.01 0.980008 92.16 0.890007 92.3 0.890007H92.75C92.83 0.890007 92.95 0.920008 93.03 1.00001L93.28 1.20001L93.9 1.06001H94.49L94.57 1.09001L95.11 1.17001L95.62 1.03001C95.68 1.00001 95.76 1.00001 95.82 1.00001L96.41 1.08001L96.89 1.00001H97.93C97.99 1.00001 98.07 1.00001 98.13 1.03001L98.44 1.14001L98.98 1.22001H99.77L100.05 1.11001C100.22 1.03001 100.39 1.05001 100.47 1.11001L100.61 1.22001L100.81 1.30001C101.06 1.38001 101.21 1.53001 101.21 1.72001V2.03001L101.35 2.48V3.55L101.43 4.23C101.46 4.34 101.4 4.48001 101.32 4.57001L101.18 4.77L101.29 5.17001L101.37 5.54001C101.45 5.82001 101.29 6.08001 101.03 6.19001L100.72 6.3L100.44 6.53001C100.38 6.59001 100.27 6.61001 100.19 6.61001H99.54L98.89 6.44001L98.47 6.50001C98.41 6.50001 98.33 6.50001 98.27 6.47001L97.76 6.3L97.65 6.41C97.57 6.49 97.42 6.52 97.31 6.52L96.77 6.49001C96.69 6.49001 96.57 6.43 96.52 6.38L96.49 6.35001L96.43 6.46001L96.15 6.86001L96.29 7.31001C96.29 7.37001 96.32 7.42 96.32 7.48L96.26 7.90001L96.37 8.55C96.37 8.63 96.34 8.75001 96.31 8.83001L96.2 9.08001L96.37 9.59C96.4 9.67 96.37 9.70001 96.37 9.79001L96.29 10.41L96.23 10.8C96.23 10.86 96.2 10.94 96.17 10.97L95.97 11.28L96.05 11.84L96.11 12.57V12.65L96.05 13.07C96.05 13.18 96.02 13.27 95.97 13.32L95.72 13.57L95.8 13.85C95.83 13.93 95.83 14.08 95.77 14.16L95.4 14.92L95.32 15.29C95.32 15.37 95.26 15.43 95.21 15.52L95.01 15.75L94.95 16.2C94.95 16.23 94.92 16.31 94.89 16.34L94.69 16.79L94.67 17.18ZM102.54 21.28L102.57 21.45C102.57 21.59 102.51 21.7 102.43 21.82L101.98 22.3L101.78 22.67C101.75 22.75 101.67 22.81 101.61 22.84L101.22 23.07L101.02 23.49L100.77 23.91L100.66 24.02L100.1 24.53C100.1 24.53 100.07 24.59 100.04 24.59L99.59 24.84C99.59 25.09 99.28 25.26 98.91 25.24H98.85C98.82 25.24 98.74 25.24 98.71 25.21L98.23 24.98C98.2 24.95 98.17 24.95 98.15 24.95L97.81 24.7L97.7 24.59L97.3 23.97L97.16 23.89L96.57 23.49L96.46 23.38L96.12 22.84L95.67 22.47L95.42 22.19L95.02 21.79L94.71 21.31C94.65 21.23 94.63 21.11 94.63 21.03L94.66 20.44L94.74 19.93C94.74 19.87 94.8 19.79 94.82 19.73L95.22 19.19C95.22 19.16 95.28 19.13 95.28 19.13L95.51 18.9L95.76 18.28L95.87 17.69L96.07 17.15V16.95C96.07 16.84 96.15 16.7 96.24 16.61L96.61 16.27L96.47 15.73C96.41 15.56 96.47 15.36 96.58 15.25L96.78 15.08L96.75 14.66C96.75 14.49 96.83 14.32 96.98 14.24C97.09 14.16 97.21 14.27 97.23 14.41L97.26 14.72L97.63 15.17C97.66 15.2 97.69 15.23 97.69 15.25L97.97 15.9L98.25 16.13C98.31 16.19 98.39 16.21 98.42 16.33L98.56 16.78L99.01 17.4L99.15 17.65L99.55 18.27L99.86 18.64L100.42 18.92C100.5 18.98 100.56 19.03 100.59 19.09L100.79 19.43L100.99 19.85L101.67 20.3L101.78 20.41L101.98 20.69L102.26 20.8C102.43 20.88 102.54 21.05 102.54 21.28ZM112.36 13.77L112.3 14.17L112.16 14.59C112.16 14.65 112.13 14.67 112.1 14.73L111.82 15.07C111.76 15.15 111.68 15.18 111.59 15.21L111.11 15.35C110.94 15.41 110.77 15.35 110.69 15.27L110.55 15.13L109.82 15.21H109.37L109.26 15.63L109.4 15.88C109.43 15.94 109.48 15.99 109.48 16.05L109.54 16.33V16.47L109.51 17.09L109.4 17.71L109.2 18.33L109.23 18.95L109.2 19.54L109.4 19.99C109.43 20.07 109.46 20.19 109.46 20.27L109.43 20.47L109.32 21.15L109.24 21.57L109.38 22.13C109.41 22.21 109.41 22.36 109.35 22.44L109.24 22.72L109.44 23.03C109.5 23.14 109.52 23.28 109.5 23.4L109.39 23.88L109.33 24.61L109.41 24.84C109.47 24.98 109.49 25.07 109.44 25.21L109.33 25.49C109.3 25.57 109.22 25.66 109.13 25.72L108.73 25.95C108.7 25.98 108.62 26.01 108.56 26.01L108.22 26.07L107.74 26.21H107.23L106.75 26.24L106.38 26.3H105.87C105.81 26.3 105.76 26.27 105.7 26.24L105.19 26.01H104.68L104.48 26.09C104.28 26.2 104.06 26.2 103.89 26.03L103.66 25.83C103.52 25.69 103.46 25.52 103.52 25.32L103.63 25.01L103.66 24.56L103.46 23.91C103.43 23.83 103.46 23.71 103.49 23.6L103.66 23.23L103.43 22.81C103.37 22.7 103.35 22.53 103.4 22.41L103.51 22.21L103.65 21.53L103.45 21.08C103.42 21.02 103.42 20.91 103.42 20.83L103.48 20.63L103.62 19.81L103.48 19.47C103.45 19.41 103.48 19.39 103.48 19.3L103.54 18.65C103.37 18.51 103.34 18.34 103.43 18.11L103.6 17.74L103.35 17.32C103.32 17.24 103.32 17.18 103.32 17.12V16.51L103.46 15.83V15.38L103.35 15.07C103.32 14.93 103.35 14.82 103.41 14.7L103.61 14.39L103.41 14.02C103.35 13.91 103.35 13.71 103.41 13.6L103.66 13.06L103.49 12.86C103.43 12.78 103.38 12.69 103.38 12.55L103.41 12.04L103.38 11.62C103.38 11.54 103.41 11.42 103.46 11.34L103.6 11.14L103.4 10.6C103.4 10.57 103.37 10.57 103.37 10.52L103.31 9.65001V9.17001C103.31 9.11001 103.34 9.11 103.34 9.09L103.51 8.58001L103.37 8.24001C103.31 8.10001 103.34 7.99001 103.37 7.90001L103.45 7.76001L103.25 6.94001V6.74001L103.36 6.34L103.56 5.75001L103.48 5.72001C103.34 5.61001 103.25 5.41001 103.31 5.21001L103.45 4.62001C103.45 4.56001 103.48 4.56001 103.48 4.54001L103.65 4.23L103.59 3.72001L103.39 2.87001L103.33 2.7V2.56001L103.44 1.91001L103.52 1.35001V0.980007C103.52 0.900007 103.58 0.750008 103.63 0.700008L103.91 0.360008C103.99 0.250008 104.16 0.160007 104.28 0.160007H104.48L105.24 0.300007L105.78 0.330006H105.84C105.95 0.270006 106.07 0.270006 106.18 0.330006L106.46 0.410007L107.17 0.240005C107.2 0.240005 107.2 0.210007 107.23 0.210007L107.54 0.180008L108.3 0.0700073H108.47L108.53 0.100006C108.59 0.130006 108.64 0.130008 108.7 0.180008L109.32 0.690006C109.43 0.800006 109.55 0.940008 109.52 1.11001L109.49 1.45001L109.52 1.62001V1.82001L109.41 2.3L109.24 3.12001L109.27 3.46001L109.41 3.86001C109.44 3.94001 109.44 4.00001 109.41 4.11001L109.33 4.62001L109.41 5.49001C109.49 5.57001 109.49 5.80001 109.38 6.03001L109.21 6.34L109.35 6.93001V7.07001L109.32 7.52L109.35 7.97001V8.73L109.43 9.10001L109.51 9.61001V9.69001H109.71L110.25 9.58001C110.33 9.55001 110.45 9.55001 110.53 9.61001L111.09 9.84C111.26 9.67 111.51 9.64001 111.74 9.81001L111.99 10.01C112.05 10.07 112.1 10.09 112.13 10.21L112.24 10.55C112.27 10.61 112.3 10.75 112.27 10.8L112.13 11.42L112.07 11.82L112.21 12.61L112.27 12.86C112.27 12.89 112.3 12.89 112.3 12.94L112.36 13.77Z" fill="#EA5457" />
	<path d="M114.65 13.74L114.2 13.12C114.17 13.09 114.14 13.04 114.14 13.01L113.97 12.59C113.94 12.51 113.91 12.45 113.94 12.34L114 12.06L113.66 11.55C113.6 11.44 113.55 11.3 113.58 11.18L113.66 10.87L113.6 10.39L113.49 10.08C113.46 10 113.46 9.97 113.46 9.88L113.49 9.32L113.46 8.53L113.23 7.46L113.17 7.29V7.15L113.28 6.02L113.31 5.96L113.51 5.34L113.59 5.2L113.9 4.86L113.84 4.38C113.84 4.21 113.87 4.1 113.95 4.01L114.09 3.9L114.26 3.08L114.34 2.91C114.4 2.8 114.48 2.71 114.59 2.66L115.07 2.46L115.44 1.92L115.52 1.81L115.86 1.56L115.94 1.42C115.97 1.36 116 1.31 116.08 1.25L116.67 0.91L116.92 0.629997L117.09 0.549999L117.46 0.379997C117.54 0.349997 117.63 0.319998 117.71 0.349998L118.3 0.459999L118.78 0.349998C118.84 0.319998 118.95 0.319998 119.01 0.349998L119.18 0.379997L120.31 0.239998C120.48 0.209998 120.65 0.27 120.76 0.41L120.99 0.689999C121.05 0.769999 121.07 0.86 121.07 1L121.04 1.48V3.03C121.04 3.11 120.98 3.2 120.96 3.26L120.82 3.54L120.99 3.96C121.05 4.07 121.02 4.24 120.96 4.38L120.79 4.69C120.87 5 120.65 5.28 120.31 5.37L119.52 5.57L119.35 5.8L119.27 6.51C119.27 6.57 119.24 6.65 119.21 6.71L118.9 7.11L118.87 7.45L118.9 8.52L118.96 9.42L119.16 9.7L119.44 10.29L119.67 10.69L120.18 10.8C120.21 10.8 120.24 10.83 120.26 10.86L120.66 11.06C120.74 11.12 120.83 11.17 120.86 11.26L120.94 11.43C120.97 11.51 121 11.57 121 11.66V12.85L121.06 13.22L121.12 13.76C121.15 13.93 121.09 14.1 120.98 14.18L120.81 14.35V15.17C121.01 15.42 120.92 15.68 120.7 15.79L120.36 15.96C120.3 15.99 120.19 15.99 120.13 15.99L119.34 15.96H119.26L118.75 15.82L118.1 15.9C118.04 15.9 117.96 15.9 117.9 15.87L117.82 15.84L117.17 15.53L116.63 15.39C116.6 15.39 116.55 15.39 116.52 15.36L116.27 15.19L115.65 14.88C115.59 14.85 115.54 14.82 115.51 14.77L115.14 14.29L114.89 14.09L114.81 14.01L114.65 13.74ZM139.2 24.66L139.12 24.94V25.36C139.12 25.5 139.04 25.67 138.92 25.76L138.67 25.96C138.61 26.02 138.56 26.02 138.5 26.04L138.05 26.18C137.99 26.21 137.94 26.21 137.85 26.18L137.31 26.1L137.2 26.18C137.03 26.32 136.83 26.32 136.66 26.24L136.21 26.01H135.87L135.25 26.12L134.71 26.18C134.65 26.18 134.57 26.21 134.51 26.18L133.95 26.01L133.58 26.21C133.55 26.24 133.5 26.24 133.47 26.24L132.96 26.35H132.79L132.54 26.32L131.83 26.15L131.44 26.26C131.38 26.29 131.3 26.29 131.24 26.29L130.54 26.21C130.48 26.21 130.4 26.18 130.34 26.15L130.11 26.01L129.83 26.18C129.72 26.26 129.58 26.26 129.46 26.24L128.98 26.13L128.67 26.24C128.56 26.3 128.47 26.3 128.39 26.27L127.66 26.13L127.49 26.16C127.43 26.19 127.38 26.16 127.32 26.16L126.76 26.08L125.66 26.19L125.01 26.27C124.87 26.3 124.7 26.27 124.61 26.16L124.47 26.02L124.02 26.19C123.91 26.25 123.79 26.25 123.71 26.22L123.37 26.14L122.66 26.31C122.6 26.34 122.52 26.37 122.46 26.34L122.06 26.26L121.35 26.15L121 26.21C120.92 26.24 120.83 26.21 120.75 26.18L120.55 26.12L120.24 26.09C120.07 26.15 119.93 26.17 119.82 26.12L119.65 26.01L118.97 26.15C118.89 26.18 118.8 26.18 118.72 26.15L118.55 26.09L117.95 26.21H117.81L117.22 26.15L116.63 26.01L116.12 26.09H115.3C115.16 26.12 114.96 26.09 114.85 25.98L114.54 25.7C114.37 25.53 114.31 25.39 114.34 25.3L114.4 25.19L114.37 24.54C114.37 24.46 114.37 24.43 114.4 24.34L114.68 23.72V23.38L114.6 22.87V21.11L114.4 20.71C114.37 20.63 114.34 20.54 114.34 20.46L114.42 19.81L114.36 19.56C114.33 19.45 114.33 19.39 114.36 19.31L114.53 18.91L114.59 18.18C114.59 18.07 114.65 17.98 114.7 17.93L114.81 17.79C114.87 17.71 114.98 17.68 115.06 17.65L115.65 17.54C115.73 17.51 115.82 17.51 115.9 17.54L116.13 17.62L116.84 17.65L117.07 17.62H117.21L117.77 17.68L118.02 17.54C118.16 17.46 118.36 17.43 118.5 17.51L118.78 17.62L119.6 17.51C119.8 17.43 120 17.51 120.14 17.65L120.39 17.9C120.5 18.01 120.53 18.13 120.5 18.3L120.47 18.67L120.64 19.4L120.67 19.68V19.82L120.59 20.41V21.03L120.65 21.17L120.9 21.06C120.93 21.03 121.01 21 121.07 21H121.72L122.14 21.06L122.59 20.92C122.62 20.92 122.65 20.89 122.67 20.89L123.09 20.83C123.17 20.83 123.29 20.83 123.37 20.89L123.88 21.2L124.44 21.14H124.84L125.46 21.2L125.85 20.95C125.99 20.87 126.13 20.87 126.27 20.92L126.5 21L127.32 20.97H127.57L128.53 20.94H128.78C128.98 20.91 129.12 20.94 129.18 21.02L129.26 21.19L129.99 20.91C130.1 20.85 130.22 20.85 130.33 20.91L130.75 21.05H131.26L131.49 20.88C131.57 20.82 131.69 20.77 131.77 20.77H132.11C132.17 20.77 132.25 20.8 132.31 20.83L133.02 21.2L133.41 20.97C133.49 20.91 133.61 20.91 133.72 20.94L134 21L134.62 21.2L134.85 21.06C134.93 21 135.08 20.98 135.19 21L135.53 21.06L136.09 21.09L136.68 21.06L137.3 20.98L137.86 20.9H138.37C138.6 20.9 138.79 21.01 138.85 21.21L138.99 21.55L139.16 22.14C139.16 22.2 139.19 22.17 139.19 22.22V22.53C139.19 22.61 139.19 22.61 139.16 22.7L138.96 23.24L139.04 24.03L139.15 24.34C139.26 24.44 139.23 24.55 139.2 24.66ZM123.74 10.38L124.14 9.7L124.08 9.53C124.05 9.42 124.02 9.3 124.05 9.22L124.28 8.57L124.39 7.64L124.19 7.47C124.02 7.33 123.96 7.1 124.05 6.91L124.19 6.63L123.77 6.15L123.69 5.95L123.58 5.47L123.18 5.3L122.56 5.13C122.5 5.1 122.45 5.1 122.39 5.05L122.31 4.99C122.17 4.88 122.06 4.68 122.08 4.54L122.14 4.29L122.03 3.73V3L122.2 2.35L122.28 1.76V1.36L122.17 1.08C122.09 0.829998 122.2 0.539998 122.45 0.399998L122.79 0.259998C122.87 0.199998 122.96 0.180001 123.04 0.200001L123.69 0.309998L124.42 0.23C124.5 0.23 124.62 0.260001 124.7 0.290001L124.98 0.459999L125.38 0.57L125.89 0.629997L126.45 0.77C126.48 0.77 126.51 0.769999 126.53 0.799999L126.98 1.03C127.06 1.06 127.15 1.14 127.18 1.23L127.43 1.74L127.66 2.11L128.08 2.31C128.14 2.34 128.22 2.42 128.25 2.48L128.33 2.62L128.98 3.55C129.01 3.58 129.04 3.61 129.04 3.63L129.29 4.42L129.4 4.82V4.93L129.37 5.47L129.68 5.84C129.74 5.92 129.76 5.98 129.76 6.09L129.82 6.65L129.85 6.71C129.88 6.82 129.91 6.88 129.88 6.99L129.71 7.64L129.88 8.74L129.91 8.94C129.91 9.02 129.91 9.14 129.88 9.22L129.54 9.95V10.32L129.51 10.83L129.54 11.34C129.54 11.45 129.48 11.62 129.4 11.71L129.2 11.94V12.34C129.2 12.48 129.17 12.59 129.06 12.71L128.72 13.02L128.69 13.33C128.69 13.5 128.55 13.67 128.41 13.75L128.01 13.95L127.76 14.32L127.65 14.43L127.31 14.68L127.01 15.01C126.93 15.09 126.78 15.15 126.67 15.15L126.42 15.18L125.86 15.41L125.49 15.55L124.81 15.78C124.75 15.81 124.75 15.78 124.73 15.78L123.63 15.86L123.26 16C122.98 16.11 122.7 16 122.58 15.77L122.38 15.35L122.27 15.24C122.19 15.13 122.13 14.93 122.19 14.79L122.33 14.39L122.36 13.97L122.13 13.18C122.13 13.15 122.1 13.15 122.1 13.1V12.59L122.02 11.97L121.99 11.74C121.99 11.54 122.05 11.37 122.19 11.29L122.44 11.12L122.78 10.92C122.86 10.86 122.98 10.84 123.09 10.86L123.6 10.92L123.71 10.5C123.71 10.47 123.71 10.44 123.74 10.38ZM132.68 15.38C132.65 15.32 132.62 15.21 132.62 15.15V14.36L132.65 13.96C132.65 13.82 132.71 13.76 132.79 13.68L132.9 13.57L132.73 12.78V12.44C132.73 12.41 132.73 12.33 132.76 12.3L132.96 11.88V11.2L132.99 10.52L132.76 9.98C132.73 9.95 132.76 9.9 132.76 9.84V9.51L132.65 8.72V8.61L132.68 8.24C132.68 8.21 132.71 8.13 132.74 8.1L132.94 7.7L132.83 6.99V6.88L132.91 6.34L132.88 6.31C132.8 6.17 132.8 6.06 132.82 5.91L132.96 5.37V4.83L133.02 4.43L132.82 3.89C132.79 3.78 132.79 3.72 132.82 3.61L132.93 3.24L132.79 2.7V2.53L132.93 1.82L132.73 1.31C132.73 1.28 132.7 1.25 132.7 1.2L132.67 1C132.64 0.86 132.73 0.689998 132.84 0.599998L133.15 0.32L133.32 0.209999L133.72 0.0999985C133.8 0.0699985 133.92 0.0699985 134 0.0999985L134.34 0.209999L134.82 0.32L135.69 0.0900002L135.83 0.0299988C135.89 -1.22003e-06 136 0 136.06 0L136.43 0.0299988L136.91 0H137.81C137.95 0 138.12 0.0599982 138.21 0.169998L138.66 0.649998C138.8 0.819998 138.89 0.93 138.86 1.02L138.8 1.13L138.72 2.01V2.35L138.61 3.08L138.69 3.48C138.72 3.59 138.72 3.65 138.69 3.76L138.58 4.07L138.66 4.86L138.8 5.34C138.83 5.42 138.8 5.54 138.77 5.65L138.71 5.82L138.85 6.55V6.89L138.77 7.48L138.67 8.21L138.59 8.69L138.7 9.4C138.73 9.48 138.7 9.6 138.67 9.68L138.59 9.88L138.67 10.5L138.7 10.92L138.76 11.68L138.73 12.13L138.76 12.78C138.76 12.92 138.73 13.01 138.68 13.09L138.6 13.2L138.8 13.82C138.83 13.88 138.86 14.02 138.83 14.07L138.75 14.49V15.28L138.72 15.48L138.61 16.21L138.78 16.86V17.03L138.72 17.37C138.69 17.51 138.64 17.6 138.52 17.68L138.18 17.93C138.12 17.99 138.01 17.99 137.95 17.99H137.78L137.27 17.88L136.4 18.02L136 18.13C135.94 18.16 135.83 18.16 135.77 18.13L135.43 18.02L134.84 18.16H133.99L133.54 18.13C133.37 18.13 133.2 18.05 133.12 17.85L132.95 17.4L132.81 16.92L132.7 16.47C132.67 16.3 132.73 16.13 132.84 16.05L133.01 15.88L132.68 15.38Z" fill="#EA5457" />
	<path d="M15.1199 13.87C15.1199 13.17 15.14 12.46 15.14 11.76C15.14 10.93 14.4099 10.13 13.5499 10.17C12.6899 10.21 11.9599 10.87 11.9599 11.76C11.9599 12.46 11.9399 13.17 11.9399 13.87C11.9399 14.7 12.67 15.5 13.53 15.46C14.39 15.42 15.1199 14.76 15.1199 13.87Z" fill="#EA5457" />
	<path d="M15.1199 4.26C15.0999 3.42 15.1299 2.52 14.9699 1.7C14.8099 0.880002 13.7899 0.340001 13.0199 0.590001C12.1499 0.870001 11.7399 1.67 11.9099 2.54C11.7899 1.93 11.8799 2.53 11.8899 2.69C11.8999 2.86 11.8999 3.03 11.8999 3.2C11.9099 3.55 11.9399 3.9 11.9499 4.26C11.9699 5.09 12.6699 5.89 13.5399 5.85C14.3799 5.81 15.1299 5.15 15.1199 4.26Z" fill="#EA5457" />
	<path d="M38.84 4.90999C38.82 4.71999 38.8 4.52 38.77 4.33C38.74 4.14 38.74 4.11999 38.76 4.26999C38.74 4.06999 38.73 3.86999 38.72 3.66999C38.71 3.49999 38.58 2.93999 38.64 2.87999C38.63 3.48999 38.66 3.49999 38.71 2.92999C38.72 2.83999 38.72 2.75999 38.71 2.66999C38.68 1.83999 38 1.03999 37.12 1.07999C36.28 1.11999 35.5 1.77999 35.53 2.66999C35.53 2.84999 35.54 2.83999 35.56 2.63999C35.52 2.82999 35.5 3.00999 35.5 3.19999C35.52 3.37999 35.54 3.55 35.57 3.72C35.54 3.55 35.53 3.52999 35.53 3.65999C35.5 3.83999 35.55 4.08 35.57 4.26C35.59 4.46 35.62 4.64999 35.65 4.84999C35.68 5.03999 35.68 5.06 35.66 4.9C35.74 5.72 36.33 6.52999 37.25 6.48999C38.04 6.45999 38.93 5.78999 38.84 4.90999Z" fill="#EA5457" />
	<path d="M38.6499 24.29C38.6499 23.56 38.6199 22.84 38.6199 22.11C38.6199 21.28 37.89 20.48 37.03 20.52C36.17 20.56 35.4399 21.22 35.4399 22.11C35.4399 22.84 35.47 23.56 35.47 24.29C35.47 25.12 36.2 25.92 37.06 25.88C37.92 25.84 38.6499 25.18 38.6499 24.29Z" fill="#EA5457" />
	<path d="M123.29 14.53C123.26 14.16 123.26 13.8 123.25 13.43C123.25 13.26 123.24 13.09 123.23 12.92C123.22 12.7 123.18 11.94 123.21 12.63C123.17 11.8 122.51 11 121.62 11.04C120.79 11.08 119.99 11.74 120.03 12.63C120.04 12.8 120.06 12.96 120.09 13.13C120.06 12.83 120.04 12.76 120.05 12.93C120.04 13.09 120.07 13.28 120.07 13.44C120.08 13.81 120.08 14.17 120.11 14.54C120.18 15.37 120.79 16.17 121.7 16.13C122.5 16.09 123.36 15.42 123.29 14.53Z" fill="#EA5457" />
	<path d="M123 3.61001C123 3.29001 123 2.98001 123.02 2.66001C123.03 2.54001 123.04 2.41001 123.05 2.29001C123.06 2.10001 123.05 2.12001 123.02 2.35001C123.06 2.17001 123.08 1.99001 123.08 1.81001C123.07 0.980007 122.36 0.180007 121.49 0.220007C120.64 0.260007 119.89 0.920007 119.9 1.81001C119.95 1.48001 119.94 1.55001 119.88 2.04001C119.88 2.12001 119.88 2.21001 119.88 2.29001C119.87 2.41001 119.86 2.54001 119.85 2.66001C119.83 2.98001 119.83 3.29001 119.83 3.61001C119.83 4.44001 120.56 5.24001 121.42 5.20001C122.27 5.16001 123.01 4.50001 123 3.61001Z" fill="#EA5457" />
</svg>
