<svg width="17" height="13" viewBox="0 0 17 13" fill="none" xmlns="http://www.w3.org/2000/svg">
	<g clip-path="url(#clip0_38_6862)">
		<path fill="#ea5456" d="M13.21 7.47001L12.25 6.34001C11.63 5.61001 11.72 5.01001 11.75 4.06001C11.75 3.87001 11.63 3.69001 11.44 3.64001L10.32 3.32001C10.09 3.25001 9.84999 3.39001 9.78999 3.62001C9.59999 4.43001 8.93999 5.19001 8.13999 5.19001C7.33999 5.19001 6.66999 4.44001 6.48999 3.64001C6.43999 3.41001 6.19999 3.28001 5.96999 3.34001L4.83999 3.64001C4.64999 3.69001 4.51999 3.87001 4.51999 4.06001C4.54999 4.95001 4.62999 5.63001 4.01999 6.34001L3.04999 7.49001C2.59999 8.02001 2.35999 8.69001 2.35999 9.38001V11.79C2.35999 12.46 2.89999 13 3.56999 13H12.67C13.36 13 13.91 12.44 13.91 11.76V9.41001C13.91 8.70001 13.66 8.01001 13.2 7.47001H13.21ZM8.14999 10.87C6.99999 10.87 6.05999 9.94001 6.05999 8.78001C6.05999 7.62001 6.98999 6.69001 8.14999 6.69001C9.30999 6.69001 10.24 7.62001 10.24 8.78001C10.24 9.94001 9.30999 10.87 8.14999 10.87Z" />
		<path fill="#ea5456" d="M15.67 2.22C14.11 0.91 11.2 0 8.15002 0C5.10002 0 2.19002 0.91 0.630016 2.22C0.0900164 2.67 -0.249984 4.09 0.240016 5.03C0.590016 5.71 1.00002 6 1.74002 5.77L2.97002 5.26C3.45002 5.14 3.57002 4.82 3.47002 4.28C3.25002 3.08 3.58002 2.69 4.66002 2.42C5.67002 2.16 7.06002 2.13 8.15002 2.13C9.24002 2.13 10.63 2.16 11.64 2.42C12.72 2.69 13.05 3.08 12.83 4.28C12.73 4.83 12.85 5.14 13.33 5.26L14.56 5.77C15.3 6 15.71 5.71 16.06 5.03C16.54 4.09 16.2 2.67 15.67 2.22Z" />
	</g>
	<defs>
		<clipPath id="clip0_38_6862">
			<rect width="16.3" height="13" fill="white" />
		</clipPath>
	</defs>
</svg>
