<svg width="15" height="13" viewBox="0 0 15 13" fill="none" xmlns="http://www.w3.org/2000/svg">
	<path fill="#ea5456" d="M3.06002 4.79999C2.79002 4.79999 2.58002 5.01999 2.58002 5.27999C2.58002 5.53999 2.80002 5.75999 3.06002 5.75999C3.32002 5.75999 3.54002 5.53999 3.54002 5.27999C3.54002 5.01999 3.32002 4.79999 3.06002 4.79999Z" />
	<path fill="#ea5456" d="M7.83 4.75C7.54 4.75 7.31 4.98 7.31 5.27C7.31 5.56 7.54 5.79 7.83 5.79C8.12 5.79 8.35 5.56 8.35 5.27C8.35 4.98 8.12 4.75 7.83 4.75Z" />
	<path fill="#ea5456" d="M12.14 0H1.87C0.84 0 0 0.84 0 1.87V7.96C0 9 0.84 9.83 1.87 9.83H5.5L6.73 12.74C6.73 12.74 6.81 12.99 7.02 12.99C7.23 12.99 7.31 12.74 7.31 12.74L8.54 9.83H12.13C13.17 9.83 14 8.99 14 7.96V1.87C14 0.83 13.16 0 12.13 0H12.14ZM4.4 5.39C4.4 6.5 3.24 6.54 3.24 6.54C2.79 6.54 2.54 6.24 2.54 6.24V6.44H1.7V2.98C1.75 2.99 2.54 2.98 2.54 2.98V4.3C2.74 3.96 3.31 3.97 3.31 3.97C4.55 4.09 4.4 5.39 4.4 5.39ZM5.88 4.08V6.45H5.06V4.11C5.06 3.79 4.66 3.7 4.66 3.7V2.87C5.97 2.92 5.88 4.08 5.88 4.08ZM7.83 6.54C7.07 6.54 6.45 5.97 6.45 5.27C6.45 4.57 7.07 4 7.83 4C8.59 4 9.21 4.57 9.21 5.27C9.21 5.97 8.59 6.54 7.83 6.54ZM12.33 6.54C12.33 6.54 12.34 7.74 11.12 7.74H10.75V6.96H10.97C10.97 6.96 11.48 7.01 11.48 6.22C11.48 6.22 11.38 6.54 10.66 6.54C10.66 6.54 9.64 6.47 9.64 5.47V5.09C9.64 5.09 9.66 4.06 10.79 3.97C10.79 3.97 11.23 3.92 11.5 4.29V4.04H12.33V6.54Z" />
	<path fill="#ea5456" d="M11.02 4.76001C10.74 4.76001 10.51 4.99001 10.51 5.27001C10.51 5.55001 10.74 5.78001 11.02 5.78001C11.3 5.78001 11.53 5.55001 11.53 5.27001C11.53 4.99001 11.3 4.76001 11.02 4.76001Z" />
</svg>
