<svg width="97" height="25" viewBox="0 0 97 25" fill="none" xmlns="http://www.w3.org/2000/svg">
<path d="M1.28002 14.0701L1.21003 13.8L1.06002 13.1301L0.660026 12.8801L0.590019 12.8101L0.390022 12.5601C0.370022 12.5101 0.32003 12.4601 0.32003 12.4401L0.17002 12.0201L0.0500253 11.7701C-0.0199747 11.6501 2.95863e-05 11.47 0.0700296 11.35L0.240028 11.1C0.340028 10.95 0.490022 10.8801 0.640022 10.9001L0.890022 10.92L0.960029 10.67C1.01003 10.55 1.13002 10.4001 1.28002 10.3701L1.65002 10.2701H2.27003L2.54002 9.95007C2.61002 9.85007 2.71002 9.80005 2.81002 9.80005L3.06002 9.78009L3.38003 9.38007L3.63003 9.08008L3.95002 8.68005C3.97002 8.63005 4.02003 8.61008 4.07003 8.58008L4.56002 8.33008V8.01007C4.56002 7.91007 4.56002 7.84004 4.61002 7.79004L4.96003 7.20007L5.06002 7.00006L5.04002 6.70007C5.04002 6.63007 5.04002 6.53007 5.09002 6.45007L5.36002 6.01007L5.29002 5.76007H5.24003L4.94002 5.69006L4.64002 5.74005C4.62002 5.74005 4.54003 5.76005 4.49003 5.74005L3.82003 5.57007L3.70002 5.67004C3.63002 5.74004 3.48003 5.79008 3.38003 5.77008L2.81002 5.67004H1.92002C1.85002 5.67004 1.77002 5.65004 1.72002 5.60004L1.52003 5.45007L1.25002 5.40009C1.03002 5.35009 0.880027 5.18008 0.880027 4.96008L0.900016 4.61005L0.950019 4.04004V3.69006L1.07003 3.32007L0.900016 2.60004C0.880016 2.53004 0.90002 2.43007 0.92002 2.38007L1.07003 2.01007C0.95003 1.84007 0.950019 1.66004 1.09002 1.54004L1.31002 1.39008L1.41003 1.34009L1.78002 1.22003L2.25002 1.07007C2.40002 1.02007 2.57002 1.05008 2.67002 1.14008L2.82003 1.29004L3.36002 1.24005H3.46003L3.93001 1.29004L4.35003 1.27008H4.70002L5.34002 1.12006L5.39002 1.10004L5.86002 1.08008C5.88002 1.08008 5.93002 1.06008 5.98002 1.08008L6.28002 1.15009L6.63003 1.13007C6.68003 1.13007 6.75003 1.13009 6.80003 1.15009L7.39002 1.32007L7.71003 1.30005L8.35003 1.18005L8.82003 1.06006C8.89003 1.04006 8.99002 1.04008 9.09002 1.08008L9.39002 1.18005L9.74003 1.33008L10.21 1.35004L10.95 1.30005L11.39 1.23004L11.93 1.21008L12.15 1.11005C12.22 1.06005 12.3 1.06006 12.37 1.06006L12.86 1.08008L13.35 1.01007H13.57C13.62 1.01007 13.69 1.03006 13.72 1.06006L14.39 1.31006L14.51 1.36005C14.71 1.46005 14.81 1.63008 14.78 1.83008L14.73 2.15009L14.93 2.82007L14.98 3.31006V3.58008L14.86 4.25006C14.86 4.27006 14.84 4.35006 14.81 4.37006L14.76 4.47003L14.69 4.94006C14.69 4.99006 14.67 5.06008 14.62 5.14008L14.42 5.39008C14.37 5.44008 14.27 5.51004 14.2 5.54004L13.93 5.61005C13.86 5.63005 13.78 5.63005 13.71 5.61005L13.34 5.49005L12.77 5.47003L12.42 5.64008C12.37 5.66008 12.27 5.66003 12.22 5.66003L11.78 5.61005L11.34 5.71008C11.27 5.71008 11.19 5.71006 11.12 5.69006L10.87 5.57007L10.47 5.72003L10.54 5.92004V5.99005L10.56 6.26007V6.41003L10.41 7.03009V7.20007C10.41 7.25007 10.39 7.32009 10.36 7.40009L10.01 8.07007L9.96003 8.51007L9.94002 8.61005L9.84002 8.91003C9.84002 8.91003 9.79002 8.93008 9.79002 8.96008L9.49003 9.45007L9.22002 9.85004L9.24003 10.0001C9.26003 10.2001 9.17003 10.3501 9.02003 10.4401L8.77003 10.5901L8.55002 11.0301C8.55002 11.0501 8.50002 11.0801 8.50002 11.0801L8.30002 11.35L7.98002 11.67L7.88003 11.72L7.51002 11.8901L7.36002 12.2601C7.31002 12.4101 7.24002 12.4601 7.09002 12.5101L6.77003 12.61L6.28002 13.0101L6.06002 13.2601C6.01002 13.3101 5.94002 13.33 5.86002 13.36L5.56002 13.4301L5.07003 13.7001L4.60003 14.17L4.16003 14.3901L4.14002 14.41C4.09002 14.48 4.02002 14.5101 3.94002 14.5301L3.42002 14.6801L3.05003 14.8801C3.03003 14.8801 3.00002 14.9001 2.98002 14.9001L2.71003 14.97C2.64003 14.99 2.56003 14.9701 2.49003 14.9501L1.92002 14.7501C1.87002 14.7301 1.82003 14.7001 1.77003 14.6501L1.67002 14.55L1.35003 14.2001C1.33003 14.1701 1.30002 14.1201 1.28002 14.0701ZM23.06 22.2001L22.89 22.5001L23.01 22.8201C23.08 22.9901 23.03 23.1901 22.91 23.3101L22.69 23.5301C22.54 23.6801 22.37 23.7001 22.2 23.6301L21.93 23.5301L21.56 23.7001C21.46 23.7501 21.31 23.7701 21.26 23.7501L21.16 23.7001L20.64 23.55L20.15 23.6L19.56 23.7701C19.49 23.7901 19.36 23.7901 19.29 23.7701L19.17 23.72L18.53 23.5201L18.28 23.72C18.21 23.79 18.06 23.8401 17.96 23.8201L17.44 23.7501C17.42 23.7501 17.37 23.7301 17.34 23.7001L16.94 23.5301L16.72 23.6801C16.67 23.7301 16.6 23.7501 16.52 23.7501L16.15 23.7701H16.08L15.68 23.7501L14.89 23.55L14.79 23.6201C14.62 23.7401 14.42 23.7701 14.35 23.6901L14.2 23.5701L13.61 23.5901L12.99 23.79C12.94 23.81 12.89 23.79 12.84 23.79H12.64C12.59 23.79 12.54 23.7701 12.52 23.7401L11.95 23.5201L11.73 23.5701L11.26 23.6901C11.21 23.7101 11.14 23.7101 11.09 23.7101L10.6 23.6401L10.23 23.7101C10.18 23.7301 10.13 23.7101 10.08 23.7101L9.46003 23.61L9.36002 23.66C9.14002 23.76 8.94002 23.8101 8.87002 23.6801L8.72002 23.5101L7.98002 23.5801L7.61002 23.7001C7.51002 23.7501 7.39002 23.7201 7.29002 23.6801L7.02003 23.5601L6.48002 23.6301H6.43002C6.38001 23.6801 6.31002 23.7001 6.26002 23.6801L6.19002 23.7001C6.09002 23.7201 5.97002 23.7001 5.89002 23.6501L5.67002 23.7501C5.57002 23.8001 5.47003 23.8201 5.35003 23.7701L4.91003 23.6501L4.32003 23.7001L4.12002 23.7501C3.97002 23.8001 3.80001 23.8001 3.68001 23.6801L3.51002 23.5101L3.07003 23.66C2.92003 23.71 2.77002 23.73 2.70002 23.66L2.58002 23.5601L2.06002 23.6801C1.89002 23.7301 1.69002 23.63 1.59002 23.48L1.42002 23.23C1.40002 23.18 1.35003 23.1101 1.35003 23.0601L1.33002 22.86C1.33002 22.81 1.33003 22.7601 1.35003 22.6901L1.57003 22.1L1.47002 22.0301C1.40002 21.9601 1.32003 21.8601 1.32003 21.7601L1.30003 21.3201C1.30003 21.2701 1.30003 21.2201 1.32003 21.1501L1.52003 20.73L1.59002 20.41L1.34002 19.8701C1.29002 19.7201 1.29002 19.6 1.36002 19.47L1.56002 19.2001L1.46003 18.85L1.34002 18.36C1.32002 18.26 1.34002 18.2101 1.36002 18.1401L1.51002 17.8201L1.41003 17.5701C1.39003 17.4701 1.39003 17.4201 1.41003 17.3201L1.53002 16.9501L1.48002 16.9001C1.36002 16.6801 1.41003 16.4301 1.60003 16.2601L1.85003 16.0601C1.90003 16.0101 1.95002 16.0401 2.00002 16.0101L2.44002 15.8901C2.49002 15.8701 2.54002 15.8701 2.61002 15.8901L3.05003 15.9601L3.37002 15.9401H3.74003L4.28002 15.9601L4.97002 16.0301L5.54002 16.05L5.69002 16.0701L5.96003 15.9501C6.08003 15.9001 6.23002 15.9001 6.36002 16.0001L6.80003 16.2701C6.92003 16.3401 7.00002 16.4401 7.00002 16.5901L7.02003 16.79L7.00002 17.36C7.00002 17.48 6.95003 17.58 6.88003 17.66L6.78002 17.73L6.90002 18.0301C6.97002 18.1501 6.95003 18.3001 6.88003 18.4501L6.73002 18.72L6.93002 19.04C6.95002 19.09 6.98002 19.1401 6.98002 19.1901H7.08002L7.52003 19.0901C7.57003 19.0701 7.62002 19.0901 7.64002 19.0901L8.21003 19.11L8.48002 19.16L9.15002 19.11L9.57003 19.0901H10.16C10.18 19.0901 10.21 19.09 10.26 19.11L10.46 19.16H11.05L11.59 19.0101C11.64 18.9901 11.69 18.9901 11.76 19.0101L12.06 19.0601L12.65 18.9601C12.7 18.9601 12.77 18.9401 12.82 18.9601L13.24 19.0601L13.49 19.0101C13.61 18.9901 13.76 19.0101 13.84 19.0801L13.96 19.1801L14.5 19.23L15.12 19.0601L15.39 19.04H15.51L16.37 19.1901L16.89 19.04C16.94 19.02 16.96 19.0201 16.99 19.0201H17.48L18.17 19.0701L18.37 19.0001C18.47 18.9501 18.62 18.9801 18.72 19.0201L18.94 19.1201L19.58 19.1401L20.2 19.0901L20.37 19.04C20.42 19.02 20.44 19.0201 20.47 19.0201H20.96C21.01 19.0201 21.06 19.02 21.11 19.04L21.48 19.16L21.97 19.1801L22.07 19.16C22.32 19.06 22.54 19.16 22.64 19.36L22.81 19.66C22.81 19.68 22.83 19.6801 22.83 19.7101L22.93 20.0101C22.95 20.0601 22.98 20.16 22.95 20.23L22.83 20.7701L22.88 20.8901C22.9 20.9401 22.95 21.0401 22.95 21.0901V21.5601L23.05 21.7601C23.14 21.9001 23.14 22.0501 23.06 22.2001ZM14.94 10.5101L15.43 10.7101C15.53 10.7601 15.63 10.81 15.68 10.91L15.83 11.2801C15.85 11.3001 15.85 11.3801 15.85 11.4001L15.87 11.6501C15.87 11.7201 15.85 11.8001 15.8 11.8701L15.68 12.0901C15.68 12.1101 15.63 12.16 15.63 12.16L15.38 12.4301L15.28 12.8301C15.26 12.9801 15.16 13.0801 15.03 13.1301L14.68 13.2801L14.73 13.6C14.75 13.82 14.73 13.9701 14.68 14.0001L14.56 14.05L14.02 14.5201L13.75 14.79C13.6 14.94 13.4 14.9401 13.33 14.8101L13.18 14.5901L12.78 14.61C12.68 14.61 12.56 14.5901 12.48 14.5101L12.11 14.2101L11.7 14.0001C11.68 14.0001 11.65 13.9501 11.63 13.9501L11.38 13.7501L10.94 13.6801L10.52 13.5801C10.4 13.5601 10.25 13.4601 10.2 13.3101L10.13 13.0901L9.78002 12.9901C9.71002 12.9701 9.63002 12.9201 9.58002 12.8701L9.18001 12.4301C9.16001 12.3801 9.11002 12.3101 9.11002 12.2601L9.06002 12.0101C9.04002 11.8601 9.06003 11.76 9.13003 11.66L9.43001 11.29L9.70002 10.97C9.70002 10.95 9.72002 10.92 9.75002 10.92L10.17 10.6L10.32 10.2501L10.37 9.83008C10.39 9.71008 10.47 9.58007 10.59 9.51007L10.79 9.39008L10.81 8.92004C10.81 8.90004 10.83 8.82005 10.86 8.80005L10.98 8.50006C11 8.43006 11.05 8.38004 11.08 8.35004C11.2 8.23004 11.38 8.20005 11.5 8.30005L11.72 8.45007L12.26 8.77008C12.28 8.79008 12.31 8.79004 12.31 8.79004L12.71 9.11005L12.73 9.16003L12.9 9.36005L13.34 9.71008L13.74 10.0601L14.06 10.0801C14.08 10.0801 14.16 10.1001 14.18 10.1301L14.94 10.5101ZM17.36 14.3901L17.61 13.9001L17.44 13.6C17.42 13.53 17.42 13.4801 17.42 13.4301L17.44 12.8101L17.39 12.5101C17.37 12.3901 17.41 12.2901 17.46 12.2101L17.56 12.0901L17.44 11.47C17.44 11.4 17.42 11.37 17.44 11.3L17.59 10.86V9.97003L17.39 9.53009C17.37 9.46009 17.34 9.41006 17.37 9.31006L17.44 9.04004L17.37 8.60004V8.50006L17.39 8.01007L17.41 7.94006L17.56 7.35004L17.41 7.13007C17.31 6.98007 17.36 6.81003 17.46 6.66003L17.63 6.44006L17.48 5.92004C17.46 5.87004 17.46 5.80006 17.48 5.75006L17.55 5.53009L17.4 5.26007C17.35 5.16007 17.35 5.04006 17.38 4.94006L17.58 4.35004L17.63 3.83008L17.61 3.81006C17.51 3.74006 17.46 3.64005 17.46 3.49005L17.48 2.92004C17.48 2.87004 17.5 2.87004 17.5 2.85004L17.57 2.63007L17.4 2.11005C17.38 2.06005 17.35 1.96003 17.38 1.91003L17.48 1.47003C17.5 1.42003 17.53 1.35005 17.58 1.30005L17.68 1.20007C17.75 1.10007 17.88 1.05005 17.98 1.05005H18.42C18.49 1.05005 18.59 1.07004 18.64 1.10004L18.79 1.17004H19.21L19.88 1.10004L20.42 1.00006L20.86 0.980042H21.21L21.85 0.960083L22.12 0.980042C22.19 0.980042 22.29 1.03008 22.37 1.08008L22.47 1.18005C22.62 1.30005 22.67 1.48009 22.59 1.65009L22.49 1.90009L22.71 2.44006C22.76 2.56006 22.76 2.64007 22.71 2.76007L22.64 2.93005L22.66 3.45007L22.64 4.02008C22.64 4.07008 22.62 4.09006 22.62 4.12006L22.52 4.47003L22.72 4.91003C22.77 4.98003 22.77 5.11008 22.74 5.21008L22.59 5.68005V6.15009L22.64 6.32007C22.69 6.42007 22.66 6.52008 22.62 6.64008L22.5 6.91003L22.7 7.50006L22.77 7.99005V8.46008L22.75 9.03009L22.77 9.33008V9.85004C22.77 9.90004 22.75 9.95003 22.72 9.97003L22.55 10.4401L22.67 10.9601C22.69 11.0801 22.69 11.2101 22.65 11.2801L22.55 11.4301L22.75 12.1501C22.77 12.2201 22.75 12.22 22.75 12.3L22.7 12.67L22.68 12.72L22.56 13.1401L22.66 13.66L22.68 14.0301L22.75 14.5201V15.2101L22.7 15.5601L22.72 15.7801C22.74 15.9801 22.67 16.1501 22.52 16.2501L22.12 16.5201C22.05 16.5701 21.95 16.5701 21.87 16.5701L21.52 16.55L21.45 16.6C21.33 16.65 21.18 16.6201 21.08 16.5801L20.91 16.48L20.44 16.3801L19.82 16.4501L19.5 16.47L18.86 16.4901H18.76L18.32 16.3701L18.25 16.3901C18.1 16.4401 17.9 16.39 17.81 16.29L17.51 15.9901C17.41 15.8901 17.39 15.7901 17.39 15.6901V15.47C17.39 15.42 17.37 15.3701 17.39 15.3201L17.49 15.1201L17.37 14.73C17.33 14.59 17.31 14.4901 17.36 14.3901Z" fill="#EA5457"/>
<path d="M25.3101 9.63007L25.4301 8.57007L25.3601 8.25006C25.3401 8.18006 25.3401 8.10009 25.3601 8.03009L25.4801 7.68005L25.6501 7.31006L25.5301 6.59009L25.3101 6.24005L24.8901 5.67004C24.8901 5.67004 24.8701 5.65006 24.8701 5.62006L24.7501 5.35004C24.6801 5.18004 24.6801 5.03003 24.7701 4.91003L24.9201 4.71008L24.8001 4.56006C24.7001 4.44006 24.7001 4.26008 24.7501 4.14008L24.8501 3.94006V3.22003C24.8001 3.07003 24.8301 2.92009 25.0201 2.78009L25.4201 2.48004L25.4701 2.41003C25.5401 2.29003 25.7201 2.21008 25.8701 2.21008H26.3101L26.6801 2.23004H27.6901L27.7401 1.98004L27.8401 1.46008L27.9101 0.920044C27.9101 0.870044 27.9601 0.800061 27.9801 0.750061L28.1001 0.580078C28.1701 0.510078 28.2701 0.460054 28.3701 0.430054L28.5701 0.410034L28.6201 0.390076H29.0401C29.0601 0.390076 29.0901 0.410034 29.1101 0.410034L29.6001 0.510071H30.1901C30.2901 0.510071 30.3901 0.530046 30.4601 0.610046L30.5801 0.730042C30.6801 0.830041 30.7501 0.950037 30.7301 1.10004L30.7101 1.35004L30.7801 1.75006C30.8001 1.82006 30.8001 1.90003 30.7801 1.97003L30.6101 2.51007L30.5401 2.73004L30.7101 3.20007C30.7601 3.35007 30.7601 3.45005 30.7101 3.55005L30.6401 3.67004L30.7101 4.36005C30.7101 4.43005 30.7101 4.51006 30.6901 4.56006L30.5201 4.98004L30.5001 5.28009L30.6001 5.75006C30.6201 5.87006 30.6201 6.00007 30.5801 6.07007L30.5301 6.14008C30.5101 6.19008 30.4601 6.21005 30.4101 6.24005L30.0401 6.46008L29.8401 6.66003L29.4901 7.20007L29.3901 7.82007L29.4101 8.93005L29.3401 9.37006L29.8101 9.81006L30.2101 10.23C30.5301 10.23 30.7501 10.4801 30.7001 10.8201L30.7201 11.2401L30.7401 11.8801C30.7401 11.9501 30.7401 12 30.7201 12.05L30.6001 12.42V12.9401L30.5001 13.41V13.4301C30.6701 13.6301 30.7001 13.9 30.5001 14.1L30.3301 14.2701C30.2301 14.3401 30.0801 14.3901 29.9601 14.3701L29.3201 14.2701H28.7001C28.5801 14.2701 28.4501 14.2201 28.3801 14.1201L28.2301 13.97H27.7901L27.2501 13.8C27.1801 13.78 27.1001 13.7001 27.0501 13.6301L26.7501 13.2101L26.4501 12.9901C26.3501 12.9201 26.3001 12.8201 26.3001 12.7701L26.2801 12.67L25.9601 12.3201C25.9101 12.2501 25.8601 12.17 25.8601 12.1L25.8101 11.73L25.5401 11.1901C25.5201 11.1201 25.5201 11.0201 25.5201 10.9401L25.5701 10.67L25.3201 10.2001C25.3001 10.1301 25.2701 10.08 25.2701 9.98004L25.3101 9.63007ZM36.1701 21.8301C36.1901 21.9001 36.1901 21.9 36.1901 21.98V22.2801C36.1901 22.3301 36.1401 22.4001 36.1201 22.4501L35.9201 22.8201L35.9901 23.17L36.0101 23.2701C36.0801 23.5701 35.9401 23.81 35.7401 23.86L35.3701 23.9601L35.0201 24.0301C34.9701 24.0501 34.9001 24.0501 34.8501 24.0301L34.5001 23.9601L34.1001 24.1301C34.0501 24.1501 33.9801 24.1801 33.9301 24.1801H33.5101L33.4101 24.16L32.9701 24.0101L32.6001 23.9601L32.0801 24.11C32.0301 24.13 31.9801 24.1301 31.9601 24.1301H31.5601L31.1401 24.2001H30.3701L29.3301 23.98L29.1301 23.91L28.7601 23.9301C28.6901 23.9301 28.5901 23.9101 28.5101 23.8801L28.1101 23.66L27.9101 23.7101C27.7401 23.7601 27.5601 23.7301 27.4401 23.5901L27.2401 23.3701L26.4501 22.85C26.3801 22.8 26.3501 22.8 26.3301 22.73L26.2601 22.5601L25.9901 22.2601L25.6401 21.7401C25.5901 21.6901 25.5701 21.6201 25.5701 21.5201V21.05L25.4201 20.9301C25.3001 20.8301 25.2501 20.7101 25.2701 20.5301L25.2901 20.2101L25.3601 19.3901L25.4801 18.7701V18.2801C25.4801 18.2601 25.5001 18.26 25.5001 18.23L25.5501 17.8801L25.5701 17.8101L25.6901 17.4601C25.7101 17.3601 25.7901 17.3101 25.8401 17.2601L26.2101 16.9601L26.2301 16.86C26.2801 16.64 26.4001 16.5101 26.5801 16.4901L26.9001 16.47L27.2001 16.17L27.4501 15.9001C27.5701 15.7501 27.7501 15.7001 27.8701 15.7501L28.0701 15.8201L28.2901 15.6C28.3601 15.53 28.4601 15.48 28.5601 15.48L29.0301 15.4301H29.1301L29.6201 15.5001L30.2901 15.2801C30.4101 15.2301 30.4901 15.2301 30.5901 15.2801L30.8901 15.4001L31.5801 15.23C31.6301 15.21 31.6501 15.23 31.6801 15.23H32.0301L32.1501 15.2501L32.5701 15.4001L32.9701 15.3C33.0401 15.28 33.1401 15.2801 33.2401 15.3201L33.4101 15.3701L35.1401 15.54L35.5101 15.4901C35.5801 15.4701 35.6801 15.4901 35.7301 15.5101L35.8301 15.5601C35.9801 15.6301 36.0501 15.76 36.0501 15.91L36.0701 16.2101V16.36L35.9701 16.7601L35.8701 17.3801L35.8901 17.8V17.92L35.8701 18.0701L36.0201 18.4401C36.0901 18.6101 36.0701 18.8101 35.9501 18.9601L35.9001 19.0101C35.7801 19.1301 35.6001 19.1801 35.4101 19.0801L35.1101 18.9301L34.8401 19.05C34.7401 19.1 34.6701 19.1 34.5701 19.05L34.2001 18.9301L33.6601 19.0801C33.6401 19.0801 33.6101 19.1 33.5901 19.1H33.2201C33.1701 19.1 33.0701 19.1001 33.0201 19.0801L32.7201 18.91L32.1301 19.2101L32.0301 19.23L31.8801 19.2501H31.7801L30.5901 19.2001L30.6901 20.36L31.8801 20.48L32.2301 20.4301L32.8201 20.36L32.9701 20.29C33.0401 20.24 33.1701 20.2201 33.2701 20.2401L33.6201 20.3401L33.7201 20.3901L33.9701 20.5601L34.4401 20.3101C34.4601 20.2901 34.5401 20.2601 34.5901 20.2601L34.9401 20.2401C35.0101 20.2401 35.1101 20.26 35.1601 20.29L35.4101 20.4401L35.8101 20.7101C35.9301 20.8101 36.0101 20.9301 36.0101 21.0601V21.41L36.1701 21.8301ZM36.8901 9.58008L36.7701 10.2701L36.8201 10.8401V10.9601L36.7501 11.23L36.7001 11.7701C36.7001 11.8701 36.6501 11.97 36.5801 12.04L36.4101 12.2101L36.3601 12.5101C36.3601 12.5801 36.3101 12.66 36.2601 12.73L35.9401 13.05L35.6901 13.2501L35.0701 13.79C35.0501 13.81 35.0201 13.8401 35.0001 13.8401L34.7001 14.0101C34.6801 14.0301 34.6501 14.0301 34.6301 14.0301L34.2101 14.1801C34.1901 14.1801 34.1601 14.2001 34.1401 14.2001L33.8701 14.22H33.8201L33.2001 14.17H32.2401C32.1401 14.17 32.0401 14.12 31.9701 14.05L31.9201 14.0001C31.8501 13.9301 31.8501 13.9 31.8201 13.8L31.7201 13.3101V13.1901L31.7701 12.6201L31.8201 12.35L31.5701 11.8801C31.5501 11.8601 31.5201 11.7801 31.5201 11.7601L31.5001 11.5101V11.3901L31.6501 10.67C31.6301 10.55 31.8001 10.4201 32.0701 10.3201L32.1701 10.3L32.6601 10.05L33.0301 9.21008L32.9301 8.94006C32.9101 8.87006 32.9101 8.87004 32.9101 8.79004L32.9301 7.78009L32.7801 7.19006L32.5301 6.82007L32.1301 6.38007L31.9101 6.28009C31.7101 6.18009 31.5901 6.08009 31.5901 6.03009L31.6101 5.93005L31.5101 5.41003C31.4901 5.29003 31.5301 5.21005 31.5801 5.11005L31.7501 4.89008L31.6001 4.59009C31.5301 4.44009 31.5301 4.27004 31.6001 4.17004L31.7501 4.00006L31.5801 3.38007V2.98004C31.5801 2.93004 31.6001 2.93007 31.6001 2.88007L31.7201 2.46008L31.5701 2.14008C31.5501 2.07008 31.5201 1.99004 31.5501 1.92004L31.6701 1.40009L31.7401 0.880066C31.7401 0.860066 31.7601 0.830078 31.7601 0.830078L31.8301 0.660034C31.8801 0.490034 32.0301 0.360046 32.1801 0.360046L32.4501 0.340088H33.2401L33.5101 0.390076L33.8801 0.440063C33.9301 0.440063 34.0301 0.460071 34.0801 0.510071L34.2501 0.630066C34.4501 0.780066 34.5501 0.930068 34.4701 1.07007L34.3701 1.29004V1.91003L34.4201 2.28009L35.5801 2.30005L35.7801 2.25006C35.8301 2.23006 35.8801 2.23006 35.9501 2.25006L36.5201 2.35004L36.6901 2.37006C36.7601 2.37006 36.8601 2.44005 36.9401 2.49005L37.2901 2.81006C37.3601 2.86006 37.4101 2.96007 37.4101 3.01007V3.16003L37.3601 3.90009L37.4801 4.30005C37.5001 4.35005 37.4801 4.40007 37.4801 4.45007V4.72003L37.4101 5.29004L37.4301 5.36005C37.5301 5.61005 37.4301 5.85007 37.2601 5.95007L36.9401 6.10004L36.4201 6.87006L36.5701 6.97003C36.6901 7.07003 36.7401 7.19009 36.7401 7.34009V7.59009L36.9901 8.01007C37.0101 8.06007 37.0401 8.13004 37.0401 8.23004L37.0201 8.70007L36.8901 9.58008ZM47.8801 20.47L47.7101 20.8201V21.0201C47.7101 21.1401 47.6401 21.2901 47.5401 21.3701L47.3701 21.5201L47.1201 22.16L47.1401 22.3101C47.1601 22.5101 47.0701 22.66 46.9201 22.73L46.5701 22.9501L46.4001 23.17C46.3501 23.24 46.3001 23.27 46.2301 23.29L45.9801 23.36L45.7601 23.66C45.6901 23.76 45.5601 23.8101 45.4401 23.8101L45.1401 23.8301L44.6701 24.0001C44.6201 24.0201 44.5501 24.0201 44.5001 24.0201L44.0801 24.0001L43.7301 24.17C43.6601 24.22 43.5301 24.24 43.4601 24.22L42.6001 24.0201L42.4301 24.1401C42.3601 24.2101 42.2601 24.2401 42.1801 24.2401H41.5901C41.5701 24.2401 41.4901 24.24 41.4701 24.22L41.0701 24.0701L40.6001 24.1201H39.4601L39.2901 24.0701L38.6501 24.1201C38.6001 24.1201 38.5001 24.12 38.4501 24.1L38.1501 23.98L37.9801 24.05C37.7801 24.17 37.5101 24.1501 37.3601 23.9501L37.2401 23.8C37.0701 23.58 37.0201 23.3601 37.1201 23.2801L37.2901 23.1301L37.1401 22.8101C37.0701 22.6601 37.0701 22.5101 37.1201 22.4401L37.2201 22.3701L37.2401 21.8801L37.1401 21.2101L37.0901 20.9401C37.0701 20.7701 37.1401 20.64 37.2401 20.54L37.4101 20.3901C37.4601 20.3401 37.5301 20.3201 37.5801 20.3201L37.8001 20.2701H37.9501L38.4401 20.3701L39.0101 20.42L39.6001 20.4401L39.8501 20.3401C39.8701 20.3401 39.9001 20.3201 39.9201 20.3201L40.2701 20.2701C40.3201 20.2701 40.3901 20.27 40.4401 20.29L41.0801 20.5101L41.1001 20.4601C41.1501 20.3901 41.2701 20.3601 41.3501 20.3401L42.5401 20.1401L42.2901 19.2801L41.3801 19.2601L41.2801 19.2401L40.8601 19.1201C40.8401 19.1201 40.7901 19.1001 40.7601 19.0701L40.6101 18.9501H40.0201L39.3501 19.0701L39.0001 19.17C38.9001 19.19 38.7801 19.1901 38.7001 19.1501L38.5501 19.05L38.0101 19.1201C37.9601 19.1201 37.8901 19.12 37.8401 19.1L37.5701 19.0301C37.4701 19.0101 37.4001 18.9301 37.3501 18.8301L37.2801 18.7101C37.2601 18.6401 37.2601 18.59 37.2601 18.54V18.3201L37.1601 17.8801V17.7601L37.2101 17.3901L37.0101 16.8701C36.9901 16.7701 36.9901 16.7201 37.0101 16.6201L37.1301 16.2501L37.0801 16.0301C37.0601 15.8801 37.1301 15.7801 37.2001 15.6801L37.3201 15.5801C37.4201 15.4801 37.5201 15.4601 37.6201 15.4601L38.2101 15.48H38.7801L39.1301 15.5801L39.5001 15.5601L39.9701 15.54L40.4401 15.3901C40.5101 15.3701 40.6401 15.3401 40.7401 15.3901L41.1801 15.54L41.6201 15.47C41.6901 15.45 41.7701 15.4701 41.8201 15.4901L42.0201 15.54L42.6401 15.3701C42.6901 15.3501 42.7101 15.3701 42.7401 15.3701H43.6801C43.7301 15.3701 43.8001 15.37 43.8801 15.42L44.3001 15.67L44.5501 15.7401L45.2701 15.8401H45.4901C45.5601 15.8401 45.6601 15.86 45.7101 15.91L46.0601 16.1301L46.1301 16.1801L46.2801 16.3801L46.7201 16.6301C46.7401 16.6501 46.8201 16.68 46.8401 16.73L47.0401 17.0301L47.2901 17.4301L47.5401 18.0701L47.6101 18.1401C47.6801 18.2101 47.7301 18.3101 47.7301 18.4401V19.4301L47.9001 20.22C47.9301 20.27 47.9301 20.39 47.8801 20.47ZM38.3001 12.2401C38.1801 12.1201 38.1301 12.0201 38.1501 11.8401L38.3001 11.2501V10.9501L38.2801 10.48L38.3301 9.86005L38.3101 9.54004V9.49005L38.3801 8.92004L38.2101 8.43005C38.1901 8.33005 38.1901 8.28005 38.2101 8.18005L38.2801 8.03009L38.3501 7.26007L38.3001 6.82007L38.2801 6.35004C38.2801 6.28004 38.2801 6.25007 38.3001 6.20007L38.4501 5.83008L38.3501 5.51007L38.2001 4.99005L38.1801 4.94006L38.1601 4.54004V4.42004L38.3101 3.88007V3.36005L38.2401 2.99005L38.1901 2.57007L38.1701 1.93005V1.86005L38.2201 1.54004C38.2401 1.42004 38.3201 1.37004 38.3901 1.29004L38.6401 1.09009C38.6901 1.04009 38.7901 0.990051 38.8601 0.990051L39.3501 0.970032L39.6701 0.920044C39.7901 0.900044 39.8901 0.920051 39.9901 0.990051L40.1601 1.11005L40.8301 0.960083L41.3001 0.860046C41.3501 0.840046 41.4501 0.840046 41.5001 0.860046L41.6001 0.880066C41.7001 0.900066 41.8201 0.950049 41.8701 1.05005L42.2201 1.62006C42.3901 1.77006 42.4701 1.99003 42.3901 2.16003L42.2401 2.46008L42.4401 2.73004C42.5101 2.83004 42.5401 2.95008 42.5101 3.08008L42.4101 3.57007L42.4301 3.94006V4.04004L42.4101 4.34009L42.3601 5.06006L42.3401 5.36005H42.3601L42.9501 5.19006L43.1201 5.12006C43.2401 5.05006 43.3701 5.05006 43.4701 5.12006V4.80005L43.5701 4.45007L43.5201 3.98004V3.58008L43.3701 3.04004C43.3501 2.99004 43.3501 2.89009 43.3701 2.84009L43.4401 2.54004C43.4401 2.49004 43.4601 2.49006 43.4901 2.44006L43.6901 2.12006L43.6201 1.65009C43.6001 1.48009 43.6701 1.30008 43.8201 1.21008L44.1401 1.01007L44.2401 0.960083L44.5101 0.860046H45.6001C45.6501 0.860046 45.7001 0.880034 45.7501 0.910034L46.1001 1.03009L46.3501 0.930054C46.4201 0.880054 46.5001 0.860066 46.5701 0.880066L46.8401 0.930054C46.8901 0.930054 46.9601 0.950061 47.0101 1.00006L47.4501 1.32007C47.6001 1.44007 47.6701 1.59004 47.6201 1.79004L47.5501 2.09009L47.4801 2.26007L47.7301 2.93005C47.7501 3.00005 47.7501 3.10005 47.7301 3.18005L47.7101 3.28009L47.4601 3.85004L47.6801 4.54004L47.7001 4.66003V5.03009L47.7201 5.38007V5.92004C47.7201 5.99004 47.7201 6.02009 47.7001 6.09009L47.5801 6.41003L47.6501 6.98004V7.52008L47.6301 8.09009L47.6501 8.21008V8.36005L47.6001 8.88007L47.7201 9.28009C47.7401 9.38009 47.7401 9.50008 47.7001 9.58008L47.6001 9.80005L47.7201 10.22V10.8901C47.7201 10.9601 47.7001 10.99 47.6701 11.04L47.5701 11.3101L47.5201 11.9301L47.5401 12.47V12.54L47.5201 12.8901L47.5401 13.2401L47.6101 13.6801C47.6301 13.8801 47.5601 14.0501 47.4101 14.1501L47.0901 14.3701C46.9901 14.4401 46.8401 14.47 46.7201 14.42L46.4201 14.3L46.0001 14.2501L45.8801 14.3701C45.7601 14.4701 45.5801 14.52 45.4401 14.47L44.8701 14.2701L44.5201 14.29L44.2701 14.3901C44.1001 14.4601 43.9001 14.4101 43.7801 14.2701L43.6801 14.1501C43.5801 14.0301 43.5601 13.8801 43.5801 13.7501L43.6501 13.5001L43.5001 12.91L43.3501 12.42C43.3301 12.32 43.3301 12.2001 43.3701 12.1201L43.4701 11.97L43.5701 11.55L43.3701 11.11C43.3501 11.06 43.3501 11.0101 43.3501 10.9601V9.82007L43.3701 9.70007L43.0001 9.77008C42.9501 9.77008 42.9001 9.79008 42.8501 9.77008L42.4501 9.67004H42.3501V9.77008L42.2001 10.5601L42.4001 10.8801C42.4501 10.9501 42.5001 11.0501 42.4701 11.1801L42.4501 11.48L42.4701 11.9001C42.4701 12.0201 42.4501 12.1 42.4001 12.17L42.2801 12.3401L42.4001 12.7601L42.4701 13.1301C42.4701 13.1801 42.4701 13.2801 42.4501 13.3301L42.3301 13.73C42.3301 13.75 42.3101 13.8001 42.2801 13.8301L42.0801 14.1801C42.0301 14.2801 41.8801 14.3501 41.7801 14.3801L41.4301 14.4501C41.3601 14.4701 41.3101 14.4701 41.2601 14.4501L40.7701 14.3L40.4701 14.47C40.4001 14.52 40.2701 14.5201 40.1701 14.4901L39.7701 14.3701L39.1301 14.2501C38.8801 14.4001 38.5901 14.3501 38.4901 14.1301L38.3201 13.7801C38.3201 13.7601 38.3001 13.7301 38.3001 13.7101L38.2501 13.4901V12.8701L38.3701 12.3301L38.3001 12.2401Z" fill="#EA5457"/>
<path d="M50.3 12.3701L50.08 11.8C50.08 11.78 50.06 11.75 50.06 11.73L50 11.4001V11.2801L50.02 11.0101C50.02 10.9601 50.04 10.9601 50.04 10.9401L50.26 10.4001L50.16 10.3C50.06 10.18 50.01 10.0001 50.06 9.83008L50.21 9.51007L50.14 9.02008C50.14 8.97008 50.14 8.87007 50.16 8.82007L50.31 8.47003L50.14 7.93005C50.12 7.86005 50.14 7.81007 50.14 7.76007L50.19 7.59009V7.02008L50.04 6.58008C50.02 6.51008 50.02 6.38006 50.06 6.31006L50.26 5.89008L50.16 5.82007C50.06 5.70007 50.04 5.55009 50.09 5.40009L50.16 5.15009V4.71008L50.04 4.17004V3.68005C50.04 3.63005 50.06 3.61008 50.06 3.58008L50.23 3.09009L50.03 2.72003C50.01 2.67003 49.98 2.65007 49.98 2.57007V1.90009L50.03 1.68005C50.05 1.58005 50.1 1.53004 50.15 1.48004L50.55 1.13007C50.62 1.06007 50.72 1.01007 50.82 1.01007H51.02C51.09 1.01007 51.19 1.03005 51.27 1.11005L51.49 1.28009L52.01 1.01007C52.06 0.990071 52.11 0.960083 52.16 0.960083H52.33C52.38 0.960083 52.4 0.940083 52.45 0.960083L53.14 1.18005L53.34 1.11005C53.36 1.09005 53.39 1.09009 53.41 1.09009L53.98 0.990051C54 0.990051 54.03 0.970032 54.05 0.970032H54.22C54.39 0.970032 54.54 1.09005 54.62 1.24005L54.77 1.61005C54.77 1.63005 54.79 1.63005 54.79 1.68005L54.84 2.20007C54.84 2.27007 54.84 2.30006 54.82 2.37006L54.77 2.57007L54.82 3.04004L54.92 3.36005C54.92 3.38005 54.94 3.41008 54.94 3.46008V3.61005L55.46 3.68005L55.66 3.66003C55.76 3.64003 55.88 3.68007 55.96 3.76007L56.31 4.03009C56.51 4.18009 56.61 4.35003 56.56 4.47003L56.46 4.64008L56.48 4.69006C56.55 4.79006 56.55 4.94009 56.5 5.09009L56.33 5.56006L56.45 5.76007C56.47 5.81007 56.5 5.86005 56.5 5.93005L56.52 6.25006V6.37006L56.4 6.94006C56.38 7.01006 56.33 7.06005 56.28 7.11005L55.98 7.41003C55.91 7.48003 55.83 7.53009 55.73 7.53009H55.41L55.06 7.58008H54.94V7.68005L54.87 8.20007V8.37006L54.82 8.86005L54.75 9.48004L54.87 9.50006L55.41 9.65009H55.78C55.95 9.65009 56.1 9.75009 56.18 9.90009L56.3 10.1201L56.47 10.4401C56.52 10.5101 56.52 10.5901 56.52 10.6901V10.8101L56.5 10.9301L56.33 11.3701V12.04L56.4 12.2101C56.45 12.3101 56.47 12.3801 56.47 12.4601L56.42 12.8801C56.42 12.9501 56.37 13.03 56.32 13.1L56.1 13.35C55.95 13.52 55.75 13.55 55.61 13.47L55.36 13.35L55.04 13.3301L54.57 13.4001H54.5L54.45 13.47C54.38 13.57 54.25 13.5901 54.13 13.5901H54.06C53.99 13.5901 53.89 13.5701 53.81 13.5201L53.59 13.3701L53.42 13.2701L52.93 13.3401C52.86 13.3601 52.78 13.3401 52.73 13.3201L52.56 13.42C52.54 13.44 52.49 13.47 52.44 13.47L52.02 13.5201C51.9 13.5401 51.82 13.5 51.75 13.42L51.63 13.3201L51.01 13.3901L50.86 13.41C50.71 13.43 50.56 13.3601 50.46 13.2601L50.26 13.0101C50.14 12.8601 50.09 12.7101 50.16 12.5701L50.3 12.3701ZM60.35 16.91L60.42 17.3301V17.4501L60.4 17.9401V18.2101C60.4 18.4101 60.3 18.5601 60.15 18.6301L59.88 18.7501C59.81 18.8001 59.71 18.8001 59.63 18.7701L59.41 18.72L59.01 18.92C58.96 18.94 58.89 18.9401 58.84 18.9401H58.44C58.37 18.9401 58.32 18.9401 58.24 18.8901L58.02 18.7701L57.43 18.8201L56.89 18.9401C56.82 18.9601 56.74 18.9401 56.67 18.8901L56.57 18.8401L55.36 18.79V19.85L56.55 20.17L56.92 20.22L57.69 20.0001C57.79 19.9801 57.89 20 57.99 20.05L58.29 20.22L58.86 20.1C58.93 20.08 59.01 20.08 59.08 20.1L59.35 20.22L59.65 20.1201C59.8 20.0701 59.97 20.1401 60.07 20.2401L60.14 20.3101C60.29 20.4601 60.34 20.6601 60.26 20.8301L60.14 21.1L60.24 21.4501L60.26 21.5701V22.2401L60.31 22.5901C60.33 22.6601 60.31 22.7601 60.29 22.8401L60.19 23.0901L60.24 23.2101C60.31 23.3301 60.29 23.48 60.24 23.61L60.07 23.9601C60 24.1301 59.82 24.2101 59.65 24.2101L59.13 24.1901C59.11 24.1901 59.08 24.17 59.06 24.17L58.64 24.0701L58.15 23.92L57.95 24.04C57.8 24.14 57.65 24.14 57.51 24.04L57.29 23.92L56.8 23.97H56.68L56.33 23.92L55.76 23.9901L54.13 24.04L53.93 24.0601H53.83L53.21 23.9601C53.19 23.9601 53.14 23.94 53.11 23.91L52.67 23.6901L52.35 23.7101C52.2 23.7101 52.05 23.64 51.98 23.54L51.86 23.3701L51.49 23.1L51.22 22.8801L50.65 22.2101C50.63 22.1901 50.58 22.1601 50.58 22.1401L50.43 21.8201L50.36 21.7501C50.26 21.6301 50.21 21.4801 50.26 21.3101L50.41 20.91L50.31 20.5601L50.19 20.2101C50.17 20.1601 50.17 20.1401 50.17 20.0601L50.24 18.9501L50.19 18.4601V18.36L50.26 18.0101L50.24 17.7401C50.24 17.6701 50.24 17.62 50.26 17.54L50.46 17.0001C50.46 16.9801 50.51 16.9501 50.51 16.9301L50.66 16.6801C50.66 16.6601 50.68 16.6301 50.68 16.6301L51.05 16.1901L51.25 15.9401L51.35 15.8701L51.79 15.6C51.84 15.55 51.91 15.5301 51.99 15.5301H52.36L52.73 15.2801C52.8 15.2301 52.88 15.23 52.93 15.23H53.13L53.77 14.8801C53.79 14.8601 53.84 14.86 53.87 14.86L54.19 14.79L54.29 14.7701L55.2 14.7501C55.27 14.7501 55.37 14.77 55.42 14.8L55.91 15.0701H56.31L56.48 14.92C56.6 14.8 56.8 14.77 56.95 14.85L57.22 14.9501L57.81 14.85H58.21C58.26 14.85 58.31 14.83 58.36 14.85L58.8 15.0001L59.42 14.8301H59.52C59.77 14.7801 60.01 14.9301 60.09 15.1801L60.14 15.4001C60.14 15.4201 60.16 15.42 60.16 15.47L60.18 15.9401L60.3 16.1901C60.32 16.2601 60.35 16.29 60.35 16.36V16.91ZM61.31 13.4501C61.21 13.5201 61.04 13.5501 60.91 13.5001L60.69 13.4301L60.2 13.5801C60.15 13.6001 60.05 13.5801 60 13.5601L59.41 13.36L59.26 13.4301C59.16 13.4801 59.04 13.5001 58.94 13.4501L58.54 13.3L58.39 13.4001C58.22 13.5001 58.02 13.5 57.87 13.35L57.62 13.1501C57.52 13.0501 57.5 12.9501 57.5 12.8301V12.29L57.45 11.85L57.38 11.5801C57.38 11.5301 57.38 11.41 57.4 11.36L57.52 11.04L57.45 10.6C57.45 10.5 57.47 10.4501 57.5 10.3801L57.65 10.0801C57.65 10.0601 57.67 10.0101 57.67 10.0101L57.99 9.59009C58.06 9.47009 58.16 9.42004 58.26 9.42004L58.41 9.40009H58.95L59.22 9.42004V9.32007L59.15 9.22003C59.08 9.10003 59.08 8.97004 59.1 8.85004L59.25 8.43005L59.2 7.89008V7.79004L59.3 7.35004L58.98 7.45007C58.93 7.47007 58.88 7.47003 58.83 7.47003L58.53 7.45007L58.21 7.50006C58.14 7.50006 58.06 7.50007 57.99 7.45007L57.84 7.38007C57.57 7.26007 57.4 7.03005 57.49 6.86005L57.66 6.59009L57.44 6.32007C57.39 6.25007 57.34 6.15008 57.34 6.02008L57.36 5.70007L57.38 5.60004L57.58 5.20007L57.56 4.58008C57.56 4.51008 57.56 4.48003 57.58 4.41003L57.68 4.21008L57.78 3.91003C57.85 3.71003 58 3.59005 58.15 3.61005L58.4 3.63007L58.97 3.65009H59.22L59.05 3.18005C59 3.06005 59.03 2.93006 59.1 2.81006L59.32 2.49005L59.3 2.09009L59.18 1.77008C59.11 1.57008 59.2 1.35004 59.4 1.23004L59.67 1.06006C59.69 1.06006 59.72 1.04004 59.74 1.04004L59.94 0.990051C59.99 0.970051 60.11 0.970051 60.16 0.990051L60.51 1.06006L61.05 1.23004L61.35 1.18005H61.47L61.94 1.20007L62.29 1.15009C62.34 1.15009 62.41 1.13009 62.46 1.15009L62.86 1.25006H63.13C63.2 1.25006 63.33 1.27007 63.38 1.32007L63.7 1.57007C63.85 1.69007 63.92 1.84003 63.9 1.97003L63.85 2.12006C63.85 2.17006 63.83 2.17003 63.8 2.22003L63.7 2.39008L63.97 2.98004C63.99 3.05004 64.02 3.10007 64.02 3.20007L63.97 3.72003L63.87 4.21008L63.94 4.53009C63.96 4.63009 63.94 4.75008 63.89 4.83008L63.74 5.15009L63.86 5.47003C63.88 5.54003 63.88 5.62003 63.86 5.72003L63.81 6.02008L63.86 6.37006L63.96 6.72003C63.98 6.82003 63.98 6.94008 63.94 7.02008L63.69 7.56006L63.81 7.71008C63.91 7.83008 63.96 7.98009 63.91 8.15009L63.79 8.57007L63.74 8.84009L63.89 9.24005C63.91 9.31005 63.94 9.39005 63.91 9.49005L63.86 9.81006L63.76 10.6501L63.86 10.92C63.86 10.94 63.88 10.9701 63.88 10.9901L63.93 11.3101V11.4301L63.83 12.0001L63.68 12.42L63.73 12.6201C63.78 12.7901 63.75 12.92 63.66 13.04L63.49 13.2101C63.44 13.2801 63.34 13.3101 63.27 13.3301L62.75 13.4001L62.63 13.4501C62.51 13.5001 62.36 13.5001 62.28 13.4501L62.16 13.35L61.52 13.3L61.31 13.4501ZM71.49 19.9001C71.49 19.9701 71.51 20.0001 71.49 20.0701L71.37 20.42L71.32 21.0901L71.27 21.3901C71.27 21.4401 71.25 21.4601 71.25 21.4901L71 22.0801L70.98 22.23C70.98 22.28 70.96 22.3501 70.93 22.3801L70.73 22.6801C70.71 22.7301 70.68 22.78 70.63 22.8L70.09 23.1501L69.92 23.3701C69.87 23.4401 69.75 23.4901 69.65 23.5201L69.38 23.54L69.08 23.66L69.03 23.6801L68.51 23.8L67.99 24.0201C67.94 24.0401 67.89 24.04 67.84 24.04H67.27L66.5 24.11C66.43 24.11 66.33 24.1101 66.25 24.0601L65.98 23.91L65.58 24.11C65.53 24.13 65.46 24.16 65.41 24.16L64.74 24.1801L64.34 24.16C64.27 24.16 64.19 24.1401 64.14 24.0901L63.92 23.9401L63.48 24.0901C63.43 24.1101 63.36 24.11 63.31 24.11L62.74 24.0601L62.27 24.1801H62.1C61.98 24.2001 61.83 24.1801 61.73 24.0601L61.48 23.79C61.43 23.72 61.38 23.62 61.38 23.54L61.36 23.0001L61.26 22.8801C61.21 22.8101 61.21 22.7101 61.21 22.6301L61.23 22.2101L61.16 21.5201V20.9301C61.16 20.8301 61.18 20.7301 61.28 20.6301L61.7 20.2101C61.77 20.1401 61.87 20.0901 61.97 20.0901H62.17C62.22 20.0901 62.29 20.09 62.34 20.11L62.54 20.2101L63.13 20.04C63.23 20.02 63.35 20.0201 63.43 20.0601L63.73 20.23L64.13 20.1301C64.2 20.1101 64.28 20.1301 64.35 20.1501L64.47 20.22L65.21 20.2701L66 19.8L65.95 18.86L65.01 18.8401L64.84 18.9401C64.77 18.9901 64.64 18.9901 64.54 18.9601L64.05 18.79L63.75 18.8401H63.68L63.04 18.8201H62.72L62.1 18.67L61.95 18.6901C61.75 18.7101 61.58 18.64 61.51 18.47L61.41 18.2001L61.34 18.0301C61.32 17.9301 61.32 17.8801 61.34 17.7801L61.49 17.36L61.47 16.79L61.35 16.5901C61.33 16.5201 61.33 16.47 61.33 16.42V16.0001L61.48 15.3801C61.48 15.3601 61.5 15.3301 61.53 15.2801L61.65 15.0601C61.72 14.9401 61.85 14.89 61.97 14.86L62.34 14.8101C62.39 14.8101 62.46 14.8101 62.51 14.8301L62.98 14.98L63.1 14.91C63.2 14.84 63.37 14.8401 63.5 14.8901L63.85 15.0101L64.37 14.86C64.47 14.84 64.59 14.81 64.67 14.86L64.79 14.9301L65.14 14.8101C65.19 14.7901 65.24 14.7601 65.29 14.7601H66.3C66.32 14.7601 66.35 14.7601 66.4 14.7801L67.29 15.05L68.03 14.9001L68.4 14.8801C68.47 14.8801 68.52 14.8801 68.6 14.9301L68.87 15.05L69.29 15.2501L69.39 15.3201L69.74 15.67L70.04 15.8201C70.11 15.8701 70.19 15.92 70.21 15.97L70.48 16.41L70.63 16.4601C70.75 16.5101 70.85 16.6601 70.88 16.8101L70.95 17.1801L71.17 17.6501L71.24 17.7001C71.44 17.8001 71.54 18.02 71.49 18.22L71.42 18.5701V19.0101L71.49 19.9001ZM73.61 8.74005V9.21008C73.61 9.38008 73.49 9.56007 73.31 9.63007L73.04 9.73004L72.57 9.95007C72.45 10.0001 72.27 9.97005 72.17 9.93005L71.82 9.73004L71.28 9.88007C71.26 9.88007 71.23 9.90009 71.21 9.90009H71.14C71.14 9.92009 71.12 9.95003 71.12 9.97003L70.97 10.4401L71.04 10.91L71.09 11.23V11.8701L71.14 12.3401L71.16 12.86V13.2801C71.16 13.3801 71.11 13.4801 71.01 13.5801L70.71 13.85C70.59 13.95 70.41 14.0001 70.27 13.9501L69.95 13.8301L69.73 13.7601L69.33 13.86H68.79L68.22 13.98H68.07L67.67 13.91C67.65 13.91 67.6 13.89 67.57 13.86L67.35 13.7401L67.03 13.9601C66.96 14.0101 66.86 14.0101 66.78 14.0101L66.48 13.9901C66.36 13.9901 66.23 13.89 66.16 13.79L65.99 13.4901C65.97 13.4401 65.94 13.4201 65.94 13.3901L65.84 13.04C65.82 12.94 65.82 12.89 65.84 12.79L65.99 12.3901L65.87 11.9901C65.82 11.8201 65.82 11.6901 65.89 11.6201L66.01 11.5201L65.76 11.17C65.69 11.07 65.66 10.95 65.69 10.85L65.79 10.3801L65.69 10.0301C65.67 9.96009 65.67 9.88006 65.69 9.81006L65.79 9.51007L65.77 9.11005V9.01007L65.89 8.52008L65.79 7.75006L65.77 7.70007C65.72 7.60007 65.7 7.55007 65.7 7.45007L65.77 6.96008L65.7 6.49005V6.34009L65.87 5.75006L65.89 5.53009L65.74 5.04004C65.72 4.99004 65.72 4.89009 65.74 4.84009L65.84 4.54004L65.74 3.97003C65.72 3.87003 65.74 3.80007 65.79 3.70007L65.94 3.45007L65.79 3.25006C65.72 3.13006 65.72 3.00007 65.74 2.88007L65.91 2.36005L66.01 1.96008L65.94 1.84009C65.87 1.69009 65.92 1.49004 66.04 1.35004L66.19 1.18005C66.31 1.06005 66.44 1.01009 66.54 1.03009L66.71 1.08008L67.4 1.10004L67.62 1.03009C67.67 1.01009 67.72 0.980042 67.77 0.980042H68.09L68.66 0.810059C68.71 0.790059 68.76 0.790039 68.81 0.790039H68.98C69 0.790039 69.05 0.790059 69.08 0.810059L69.77 1.06006H69.97L70.32 1.04004C70.44 1.02004 70.54 1.04008 70.64 1.14008L70.89 1.34009C71.01 1.44009 71.06 1.59007 71.04 1.76007L70.99 2.06006L71.09 2.33008C71.16 2.48008 71.16 2.63007 71.11 2.70007L71.01 2.80005L70.91 3.42004L71.03 3.96008L71.05 4.03009L71.07 4.50006V5.04004L71.39 5.09009L72.01 5.04004L72.38 4.84009C72.45 4.79009 72.53 4.79004 72.6 4.79004H72.62C72.72 4.79004 72.79 4.86003 72.87 4.91003L73.36 5.38007C73.46 5.48007 73.53 5.58007 73.51 5.70007L73.49 5.85004V6.32007L73.39 6.76007L73.37 7.38007L73.47 7.82007C73.47 7.84007 73.49 7.87008 73.49 7.89008L73.54 8.46008L73.61 8.74005Z" fill="#EA5457"/>
<path d="M75.09 10.66V10.22L75.02 9.68004C75.02 9.61004 75.02 9.51004 75.07 9.43004L75.24 9.16002L75.2599 8.76006L75.24 8.12004V8.05003L75.2899 7.73003L75.0399 7.26006C75.0199 7.19006 75.02 7.14007 75.02 7.09007V6.60002C75.02 6.50002 75.04 6.43005 75.07 6.38005L75.27 6.08006L75.1199 5.68004C75.0699 5.58004 75.12 5.41004 75.17 5.31004L75.27 5.16002V4.54002L75.1499 4.10002V3.09007L74.9799 2.62004C74.9799 2.60004 74.96 2.57007 74.96 2.52007V2.05003C74.96 1.95003 74.9799 1.88006 75.0099 1.83006L75.16 1.61003C75.16 1.59003 75.21 1.56004 75.21 1.56004L75.6499 1.09007C75.6999 1.04007 75.77 1.02004 75.85 0.990037L75.97 0.970017C76.04 0.950017 76.12 0.950037 76.22 0.990037L76.7099 1.16002L76.88 1.18004L77.5499 1.20006L77.92 1.18004H78.04L78.39 1.23003L79.01 1.13005C79.21 1.01005 79.45 1.03006 79.6 1.20006L79.82 1.45006C79.92 1.55006 79.97 1.65003 79.94 1.80003L79.89 2.17003C79.89 2.19003 79.87 2.27002 79.84 2.29002L79.64 2.69005L79.89 3.06004C79.94 3.11004 79.9899 3.21008 79.9899 3.28008V3.63005L80.53 3.65007L80.63 3.60002C80.75 3.53002 80.95 3.50006 81.07 3.58006H81.09C81.36 3.73006 81.49 3.98002 81.41 4.10002L81.26 4.35002L81.4599 4.82005C81.4799 4.89005 81.51 4.97005 81.48 5.07005L81.41 5.56004L81.39 5.86003L81.41 6.23003C81.43 6.40003 81.39 6.53005 81.26 6.63005L81.1099 6.73003C81.0099 6.80003 80.94 6.80003 80.84 6.80003L80.3999 6.75005L80.1499 6.80003L80.1 6.82005H79.75L79.85 6.97002C79.9 7.04002 79.92 7.17007 79.92 7.27007L79.8999 7.54002L79.92 8.18004C79.92 8.30004 79.9 8.35006 79.82 8.45006L79.7 8.62004L79.85 8.57005C79.92 8.55005 80.02 8.55005 80.1 8.57005L80.47 8.69005L80.7399 8.62004C80.9099 8.57004 81.0899 8.64007 81.1799 8.77007L81.25 8.87004C81.35 8.97004 81.4 9.12007 81.35 9.27007L81.28 9.52007L81.48 9.92003C81.5 9.99003 81.53 10.07 81.53 10.12V10.66L81.51 10.7601L81.39 11.1501L81.41 11.42C81.43 11.54 81.39 11.69 81.29 11.79L81.0199 12.06C80.9199 12.16 80.7699 12.21 80.6499 12.18L80.2999 12.11L80 12.16H79.8999L79.6 12.11L79.53 12.16C79.46 12.23 79.38 12.2601 79.31 12.2601L78.8699 12.31H78.4299C78.3799 12.31 78.33 12.31 78.28 12.29L77.84 12.0901L77.4899 12.19L77.14 12.2601H76.72C76.7 12.2601 76.6699 12.24 76.6499 12.24L75.88 12.0201C75.73 12.0901 75.53 12.04 75.41 11.87L75.21 11.6C75.19 11.58 75.16 11.53 75.16 11.5L75.09 11.3C75.07 11.25 75.07 11.2001 75.07 11.1301L75.09 10.66ZM85.54 23.23C85.56 23.43 85.47 23.58 85.32 23.67L85.1499 23.7701C85.1299 23.7901 85.05 23.8201 85.03 23.8201L84.4899 23.94L84.07 23.99C84.02 23.99 83.9499 23.99 83.8999 23.97L83.6499 23.9001L82.9299 24.05C82.8599 24.07 82.86 24.07 82.78 24.05L82.6099 24.0301H82.2399C82.1899 24.0301 82.12 24.0301 82.07 24.0101L81.6 23.81L81.2 23.98C81.15 24 81.05 24 81 24H80.63L80.1099 24.0201L79.7099 24C79.6899 24 79.6599 24 79.6099 23.98L79.17 23.8301L78.6 23.9001H78.48L78.1099 23.85L77.7099 23.9501C77.6599 23.9701 77.59 24 77.51 23.97L77.2099 23.92L77.16 23.9001L76.8599 23.8L76.04 23.8201C75.84 23.9701 75.57 23.94 75.45 23.72L75.3 23.4501C75.28 23.4001 75.25 23.3 75.25 23.23V22.98C75.25 22.93 75.3 22.86 75.32 22.81L75.3699 22.7101L75.1499 22.2701C75.1299 22.2201 75.13 22.1501 75.13 22.0701L75.1799 21.5301C75.1799 21.5101 75.2 21.4801 75.2 21.4601L75.22 21.44L75.1199 21.17L75.1 21.1C75.08 21 75.08 20.9501 75.1 20.8801L75.3699 20.19L75.2 19.87C75.2 19.85 75.1799 19.8201 75.1799 19.7701L75.13 19.37V19.2701L75.1499 18.97C75.1499 18.95 75.17 18.9201 75.17 18.9001L75.3699 18.3301L75.22 17.9601C75.2 17.8601 75.2 17.8101 75.22 17.7101L75.3699 17.31L75.17 17.0101C75.1 16.8901 75.0999 16.79 75.1199 16.66L75.22 16.3401L75.24 15.8L75.31 15.31L75.16 15.1401C75.11 15.0701 75.06 14.9701 75.06 14.8901V14.5201C75.06 14.4701 75.06 14.4001 75.08 14.3201L75.3 13.9001C75.3 13.8801 75.32 13.8501 75.35 13.8301L75.57 13.5801C75.69 13.4601 75.87 13.38 76.01 13.43L76.28 13.5L76.48 13.35C76.58 13.28 76.6999 13.2501 76.7999 13.2801L77 13.3C77.02 13.3 77.05 13.3001 77.07 13.3201L77.54 13.49L78.01 13.37C78.11 13.35 78.23 13.3501 78.31 13.3901L78.41 13.4601L79.1 13.41H79.2L79.3699 13.43H79.7399C79.8899 13.43 80.0399 13.48 80.1099 13.6L80.3299 13.9001C80.3799 13.9701 80.4299 14.1001 80.3999 14.2001L80.38 14.35V14.8401L80.53 15.19C80.58 15.17 80.6 15.17 80.63 15.17H81.0499C81.1199 15.17 81.2199 15.22 81.2699 15.24L81.5199 15.3901L82.04 15.19C82.14 15.17 82.24 15.17 82.34 15.19L82.59 15.2601L83.01 15.24C83.06 15.24 83.1299 15.2401 83.1799 15.2601L83.6 15.41L84.0199 15.2601C84.0699 15.2401 84.14 15.24 84.19 15.24L84.59 15.2601H84.81C84.88 15.2601 84.96 15.26 85.03 15.31L85.1799 15.3801C85.3999 15.5301 85.55 15.73 85.48 15.87L85.3599 16.0901L85.48 16.5301C85.5 16.6001 85.5 16.68 85.48 16.75L85.31 17.3901V17.74L85.3599 17.8401C85.4799 18.0101 85.46 18.26 85.31 18.43L85.2099 18.5301C85.1599 18.5801 85.0399 18.6501 84.9599 18.6501L84.59 18.7001L83.7999 18.7701L83.75 18.79C83.68 18.84 83.58 18.8601 83.5 18.8401L82.8299 18.69L82.66 18.7101L82.2399 18.8801C82.2199 18.9001 82.19 18.9001 82.17 18.9001L81.75 18.9501H81.63L80.9599 18.8C80.9399 18.8 80.8899 18.78 80.8599 18.75L80.66 18.6301L80.51 18.68V18.8801C80.51 18.93 80.5099 19.0001 80.4899 19.0801L80.3699 19.3801L80.4899 19.5301C80.5899 19.6301 80.6599 19.7801 80.6099 19.9501L80.54 20.22L81.16 20.37L81.4599 20.12C81.5599 20.05 81.7099 20.0501 81.8299 20.0701L81.9299 20.0901C81.9999 20.1101 82.0299 20.11 82.0799 20.16L82.35 20.36L83.09 20.2101H83.19L83.66 20.2601C83.73 20.1101 83.9599 20.09 84.1799 20.19L84.5499 20.36L84.6 20.3401C84.82 20.2201 85.09 20.27 85.19 20.44L85.31 20.6401C85.36 20.6901 85.3599 20.76 85.3599 20.86V21.23L85.34 21.2801L85.29 21.6501L85.44 21.92C85.46 21.97 85.51 22.07 85.51 22.12V22.61L85.4899 22.7801L85.54 23.23ZM86.28 12.24L85.9299 12.0201C85.8799 12.0701 85.83 12.09 85.78 12.12V12.1401C85.68 12.1901 85.6299 12.21 85.5799 12.19H85.4299L85.26 12.1401L84.91 12.24C84.86 12.26 84.81 12.24 84.79 12.24L84.2699 12.19L84.22 12.2101C84.12 12.2601 83.97 12.2801 83.85 12.2101L83.53 12.0101L83.1799 12.11C83.0599 12.13 82.88 12.13 82.78 12.04L82.56 11.8401C82.49 11.7701 82.41 11.64 82.41 11.54V11.1401L82.51 10.6501L82.34 10.0801V9.93004L82.39 9.58006L82.34 9.36003C82.32 9.19003 82.3399 9.06005 82.4599 8.94005L82.78 8.64006C82.85 8.57006 82.93 8.54002 83 8.54002L83.8599 8.44005C83.9099 8.44005 83.96 8.42005 84.01 8.44005L84.1799 7.95006L84.0799 7.83006C84.0599 7.78006 84.03 7.73002 84.03 7.66002L84.01 7.24004C84.01 7.17004 84.01 7.14005 84.03 7.07005L84.1499 6.72002L83.78 6.74004L83.41 6.81004C83.31 6.83004 83.24 6.83002 83.16 6.79002L83.09 6.74004L82.67 6.57005C82.55 6.52005 82.45 6.40002 82.42 6.22002L82.3999 5.97002C82.3999 5.90002 82.42 5.80006 82.47 5.70006L82.59 5.53008L82.6099 4.99004L82.41 4.35002L82.39 4.30003L82.3699 4.15007C82.3499 4.03007 82.4199 3.93006 82.4899 3.83006L82.66 3.63005C82.71 3.56005 82.7799 3.53006 82.8599 3.51006L83.2999 3.39006H83.45L83.75 3.41002C83.77 3.41002 83.8 3.41004 83.85 3.43004L84.07 3.50005L84.2699 3.06004L84.0499 2.74004C83.9799 2.64004 83.95 2.52004 84 2.37004L84.1499 2.02007L84.0799 1.75005C84.0299 1.58005 84.1 1.40008 84.25 1.28008L84.3699 1.18004C84.4899 1.11004 84.67 1.08005 84.79 1.13005L84.9899 1.20006L85.41 1.03008C85.51 0.980076 85.6299 1.01008 85.7099 1.03008L85.8599 1.08006L86.6 1.06004H86.85L87.4899 1.08006L87.9299 1.10002L88.1799 1.12004C88.3499 1.12004 88.4999 1.22005 88.5499 1.32005L88.6199 1.49004L88.79 1.74004C88.86 1.84004 88.9099 2.01006 88.8599 2.14006L88.7099 2.58006L88.8599 2.88005C88.9099 2.95005 88.93 3.08006 88.91 3.20006L88.81 3.60002L88.79 4.09007L88.7699 4.14006L88.72 4.39006C88.79 4.39006 88.87 4.41005 88.94 4.44005L89.3599 4.61003L89.78 4.59007L90.3999 4.52007L90.75 4.45006L91 4.43004C91.05 4.43004 91.0999 4.41004 91.1499 4.43004L91.59 4.53008V4.46007L91.64 3.94005L91.69 3.22002L91.54 3.07005C91.49 3.02005 91.47 2.95004 91.44 2.87004L91.34 2.40007V2.05003L91.41 1.58006C91.43 1.46006 91.48 1.36004 91.56 1.31004L91.78 1.14006C91.85 1.07006 91.9799 1.04005 92.0799 1.07005L92.5499 1.12004H92.85L93.1499 1.05003C93.1999 1.03003 93.2499 1.05003 93.2699 1.05003L93.8599 1.07005L94.28 0.900071C94.33 0.880071 94.43 0.880051 94.48 0.880051L94.78 0.900071L95.1 0.830063C95.17 0.810063 95.27 0.810063 95.35 0.830063L95.75 0.980027L96.0499 1.13005C96.0699 1.15005 96.0999 1.15007 96.1199 1.15007L96.6099 1.55003C96.6799 1.62003 96.73 1.70007 96.76 1.77007L96.78 1.87004C96.8 1.94004 96.78 2.07006 96.76 2.14006L96.56 2.61003V2.78008L96.7099 3.35002V3.87004L96.6099 4.46007L96.73 5.03008L96.75 5.10002C96.8 5.22002 96.8 5.32006 96.75 5.45006L96.53 5.94005L96.6499 6.04002C96.7499 6.11002 96.82 6.29002 96.82 6.41002V6.71007L96.7999 6.78008L96.6799 7.47002L96.66 7.64006L96.78 8.13005C96.83 8.30005 96.8 8.50003 96.73 8.55003L96.5799 8.65007L96.7999 9.39006L96.85 9.64006V9.79002L96.7999 10.1401C96.7999 10.1601 96.78 10.2401 96.75 10.2601L96.53 10.7001L96.73 11.0701C96.8 11.2201 96.8 11.32 96.73 11.47L96.63 11.69L96.38 12.0101C96.33 12.1101 96.2099 12.16 96.1099 12.18L95.8599 12.2001H95.76L95.41 12.1501L94.94 12.2001C94.89 12.2001 94.7899 12.2 94.7399 12.18L94.44 12.0301L93.92 12.1301C93.82 12.1501 93.6999 12.1501 93.6199 12.0801L93.5199 11.98L93.17 12.23C93.07 12.3 92.9699 12.3001 92.8699 12.2801L92.25 12.18L92.0799 12.23C91.9099 12.28 91.73 12.21 91.64 12.06L91.4899 11.86C91.4699 11.81 91.42 11.74 91.42 11.69L91.35 11.3201C91.35 11.2501 91.3499 11.15 91.3699 11.1L91.54 10.7001L91.5199 10.3801L91.42 9.69005C91.42 9.62005 91.42 9.54004 91.44 9.49004L91.64 9.07005L91.54 8.97002C91.49 8.90002 91.47 8.82005 91.47 8.75005L91.2699 8.82005H91.1499L90.56 8.80003L90.39 8.92003C90.27 8.99003 90.07 8.99003 89.95 8.92003L89.6499 8.75005L88.79 8.92003L88.89 9.24004V9.39006L88.84 9.69005C88.84 9.76005 88.8199 9.81006 88.7699 9.89006L88.6499 10.04L88.82 10.66V10.7801L88.7999 11.2701L88.78 11.3401L88.7099 11.6401C88.7099 11.6901 88.66 11.74 88.64 11.79L88.54 11.91C88.47 12.03 88.34 12.0801 88.22 12.0801H87.75L87.3999 12.06L86.56 12.2801C86.48 12.3201 86.38 12.32 86.28 12.24ZM96.8699 16.1501L96.72 16.5701L96.7699 16.79C96.7899 16.91 96.8199 16.9901 96.7699 17.0901L96.6499 17.36L96.75 17.56C96.8 17.66 96.7999 17.73 96.7699 17.86L96.6 18.4501L96.7699 18.94C96.7899 19.01 96.79 19.04 96.79 19.11V19.2601L96.7699 19.36L96.5499 19.9501V20.5201L96.6199 20.5701C96.7699 20.6701 96.84 20.8201 96.82 21.0101L96.7999 21.3801V21.5801C96.8199 21.7501 96.75 21.88 96.63 21.98L96.5799 22V22.2001L96.6499 22.25C96.7999 22.37 96.8199 22.57 96.7699 22.74L96.67 23.11L96.6 23.41C96.6 23.46 96.55 23.5301 96.53 23.5801L96.3599 23.8C96.3099 23.87 96.21 23.9201 96.14 23.9501L95.8699 24.0201C95.7999 24.0401 95.6999 24.0401 95.6199 24.0201L95.2699 23.92H94.63C94.61 23.92 94.58 23.9001 94.56 23.9001L94.3599 23.8801L93.72 23.9501L93.35 24C93.3 24 93.2299 24 93.1799 23.98L92.78 23.8801L92.3999 24C92.2999 24.05 92.1799 24.02 92.0799 23.98L91.66 23.81L91.4599 23.8801C91.3399 23.93 91.1899 23.9 91.1099 23.86L90.9899 23.79L90.32 23.81L89.75 23.93L89.6 23.9501C89.55 23.9701 89.4799 23.97 89.4299 23.97L88.76 23.92L88.41 24.04C88.34 24.06 88.2099 24.09 88.1099 24.04L87.79 23.94L87.39 23.79L87.34 23.81C87.22 23.88 87.04 23.88 86.92 23.81L86.6499 23.66C86.4799 23.56 86.3799 23.36 86.3999 23.22L86.47 22.97L86.32 22.55C86.3 22.48 86.2999 22.4501 86.2999 22.3801L86.32 22.11C86.32 22.09 86.34 22.06 86.34 22.04L86.51 21.5201L86.39 21.22C86.37 21.15 86.37 21.05 86.39 20.97L86.4899 20.72L86.66 20.37C86.73 20.22 86.86 20.1701 87.01 20.1501L87.26 20.1301H87.3299L87.92 20.1501C87.94 20.1501 87.9899 20.17 87.9899 20.17L88.3599 20.2701L89 20.22H89.7699C89.7899 20.22 89.82 20.24 89.84 20.24L90.26 20.36H91L91.0499 20.31C91.0999 20.24 91.1999 20.19 91.2999 20.16H91.3699V20.1401L91.44 19.8401L91.54 19.3L91.4899 18.93L91.47 18.9501C91.4 18.9701 91.32 18.9701 91.25 18.9501L90.81 18.85L90.76 18.8301L90.44 18.68L90.14 18.8C90.04 18.85 89.97 18.8501 89.89 18.8201L89.2 18.6501L88.8299 18.75L88.56 18.85C88.46 18.9 88.3099 18.9001 88.2099 18.8301L87.91 18.6301L87.56 18.6501L87.26 18.7701C87.16 18.8201 87.04 18.79 86.94 18.75L86.57 18.5801C86.45 18.5101 86.37 18.41 86.35 18.23L86.3299 17.9601L86.28 17.47C86.28 17.37 86.3299 17.2501 86.3999 17.1501L86.6199 16.93L86.3999 16.3901C86.3799 16.3401 86.38 16.27 86.38 16.19L86.45 15.8201C86.45 15.7501 86.4999 15.7 86.5499 15.62L86.75 15.4001C86.82 15.3001 86.9199 15.25 87.0199 15.25L87.29 15.23L87.9599 15.2101L88.3599 15.11C88.4099 15.09 88.51 15.0901 88.56 15.0901L88.98 15.16L89.72 15.0901H90.2099C90.3799 15.0901 90.5299 15.14 90.5799 15.24L90.6499 15.3901H91.3699L91.32 14.99L91.22 14.5201C91.22 14.4501 91.2199 14.3701 91.2399 14.3201L91.41 13.9001L91.56 13.5801C91.66 13.3801 91.91 13.33 92.1 13.41L92.47 13.5301L92.84 13.31C92.8899 13.29 92.9399 13.2601 92.9899 13.2601L93.14 13.24H93.56C93.61 13.24 93.6799 13.26 93.7099 13.29L94.1499 13.44L94.67 13.37C94.74 13.35 94.82 13.3701 94.8699 13.3901L95.19 13.5101L95.44 13.3401C95.49 13.2901 95.59 13.24 95.66 13.24H95.91C96.06 13.24 96.21 13.29 96.28 13.44L96.4299 13.69C96.4499 13.74 96.5 13.8401 96.5 13.8901L96.5199 14.36L96.7399 15C96.7399 15.02 96.76 15.0201 96.76 15.0701L96.81 15.47V16C96.87 16.05 96.9 16.1001 96.8699 16.1501Z" fill="#EA5457"/>
<path d="M38.23 22.5099C38.23 22.2799 38.25 22.0499 38.25 21.8099C38.25 21.4099 38.07 20.9699 37.79 20.6899C37.51 20.4099 37.06 20.2099 36.67 20.2299C36.26 20.2499 35.83 20.3799 35.55 20.6899C35.26 20.9999 35.09 21.3799 35.09 21.8099C35.09 22.0399 35.06 22.2699 35.07 22.5099C35.07 22.9199 35.24 23.3399 35.53 23.6299C35.81 23.9099 36.26 24.1099 36.65 24.0899C37.06 24.0699 37.49 23.9399 37.77 23.6299C38.05 23.3199 38.23 22.9399 38.23 22.5099Z" fill="#EA5457"/>
<path d="M38.18 17.51C38.19 17.37 38.2 17.24 38.2 17.1C38.21 16.88 38.16 16.68 38.06 16.49C38 16.29 37.89 16.12 37.73 15.98C37.59 15.83 37.4201 15.72 37.2201 15.65C37.0301 15.55 36.8301 15.51 36.6101 15.51C36.4701 15.53 36.3301 15.55 36.1901 15.57C35.9201 15.65 35.6901 15.78 35.4901 15.98C35.2001 16.29 35.03 16.67 35.03 17.1C35.03 17.24 35.02 17.37 35.01 17.51C35 17.73 35.05 17.93 35.15 18.12C35.21 18.32 35.32 18.49 35.48 18.63C35.62 18.78 35.7901 18.89 35.9901 18.96C36.1801 19.06 36.3801 19.1 36.6001 19.1C36.7401 19.08 36.8801 19.06 37.0201 19.04C37.2901 18.96 37.5201 18.83 37.7201 18.63C37.8001 18.52 37.8901 18.42 37.9701 18.31C38.1101 18.06 38.18 17.8 38.18 17.51Z" fill="#EA5457"/>
<path d="M32.7301 12.87C32.7301 12.63 32.7101 12.39 32.7401 12.15C32.7201 12.29 32.7001 12.43 32.6801 12.57C32.6801 12.53 32.6901 12.49 32.7001 12.45C32.7801 12.02 32.7701 11.62 32.5401 11.23C32.3501 10.9 31.9701 10.59 31.5901 10.5C31.1801 10.41 30.7301 10.43 30.3701 10.66C30.0401 10.87 29.7101 11.21 29.6401 11.61C29.5601 12.05 29.5601 12.44 29.5601 12.87C29.5601 13.28 29.7401 13.7 30.0201 13.99C30.3001 14.27 30.7501 14.47 31.1401 14.45C31.9901 14.42 32.7301 13.76 32.7301 12.87Z" fill="#EA5457"/>
<path d="M32.73 4.61002C32.73 3.64002 32.81 2.86001 32.87 2.04001C32.94 1.21001 32.09 0.420047 31.28 0.450047C30.36 0.490047 29.77 1.15001 29.69 2.04001C29.67 2.34001 29.6 2.75005 29.59 3.27005C29.58 3.72005 29.54 4.17002 29.54 4.61002C29.54 5.44002 30.2701 6.24005 31.1301 6.20005C32.0001 6.16005 32.72 5.50002 32.73 4.61002Z" fill="#EA5457"/>
<path d="M58.64 11.95C58.64 11.76 58.65 11.57 58.66 11.38C58.64 11.52 58.62 11.66 58.6 11.8C58.64 11.61 58.68 11.42 58.69 11.23C58.7 10.83 58.51 10.39 58.23 10.11C57.95 9.83002 57.5 9.63006 57.11 9.65006C56.7 9.67006 56.27 9.80002 55.99 10.11C55.7 10.42 55.54 10.8 55.53 11.23C55.53 11.24 55.53 11.2501 55.53 11.2701C55.55 11.1301 55.57 10.99 55.59 10.85C55.5 11.2 55.48 11.5901 55.49 11.9601C55.49 12.3701 55.66 12.7901 55.95 13.0801C56.23 13.3601 56.68 13.56 57.07 13.54C57.48 13.52 57.91 13.3901 58.19 13.0801C58.46 12.7701 58.65 12.38 58.64 11.95Z" fill="#EA5457"/>
<path d="M58.53 6.00998C58.53 5.94998 58.53 5.89995 58.54 5.84995C58.52 5.98995 58.5 6.12999 58.48 6.26999C58.51 6.05999 58.54 5.84998 58.57 5.62998C58.55 5.76998 58.53 5.90996 58.51 6.04996C58.55 5.74996 58.61 5.45995 58.64 5.15995C58.68 4.77995 58.44 4.29995 58.18 4.03995C57.9 3.75995 57.45 3.55999 57.06 3.57999C56.65 3.59999 56.22 3.72995 55.94 4.03995C55.86 4.14995 55.77 4.24996 55.69 4.35996C55.55 4.60996 55.47 4.86995 55.47 5.15995C55.47 5.17995 55.47 5.19 55.47 5.21C55.49 5.07 55.51 4.92995 55.53 4.78995C55.46 5.07995 55.44 5.39998 55.4 5.68998C55.42 5.54998 55.44 5.40999 55.46 5.26999C55.42 5.50999 55.36 5.76998 55.37 6.00998C55.38 6.42998 55.54 6.83998 55.83 7.12998C56.11 7.40998 56.56 7.61 56.95 7.59C57.36 7.57 57.79 7.43998 58.07 7.12998C58.35 6.82998 58.55 6.42998 58.53 6.00998Z" fill="#EA5457"/>
<path d="M62.48 17.2199C62.48 16.8499 62.44 16.44 62.38 16.08C62.4 16.22 62.42 16.36 62.44 16.5C62.44 16.47 62.43 16.44 62.44 16.4C62.45 16 62.26 15.56 61.98 15.28C61.7 15 61.25 14.8 60.86 14.82C60.45 14.84 60.02 14.97 59.74 15.28C59.45 15.59 59.29 15.97 59.28 16.4C59.28 16.59 59.31 16.77 59.35 16.96C59.33 16.82 59.31 16.68 59.29 16.54C59.3 16.77 59.33 16.9899 59.33 17.2199C59.33 17.6299 59.51 18.05 59.79 18.34C60.07 18.62 60.52 18.82 60.91 18.8C61.76 18.77 62.49 18.1099 62.48 17.2199Z" fill="#EA5457"/>
<path d="M62.51 22.7C62.5 22.48 62.45 22.26 62.42 22.04C62.44 22.18 62.46 22.32 62.48 22.46C62.46 22.27 62.45 22.08 62.45 21.89C62.43 22.03 62.41 22.17 62.39 22.31C62.42 22.14 62.44 21.96 62.46 21.79C62.5 21.41 62.25 20.93 62 20.67C61.72 20.39 61.27 20.19 60.88 20.21C60.47 20.23 60.04 20.36 59.76 20.67C59.68 20.78 59.59 20.88 59.51 20.99C59.37 21.24 59.29 21.5 59.29 21.79C59.29 21.81 59.29 21.82 59.28 21.84C59.3 21.7 59.32 21.56 59.34 21.42C59.3 21.7 59.27 21.95 59.28 22.23C59.3 22.51 59.33 22.79 59.39 23.07C59.37 22.93 59.35 22.79 59.33 22.65C59.33 22.67 59.33 22.68 59.33 22.7C59.35 23.12 59.49 23.52 59.79 23.82C60.07 24.1 60.52 24.3 60.91 24.28C61.32 24.26 61.75 24.13 62.03 23.82C62.32 23.52 62.53 23.12 62.51 22.7Z" fill="#EA5457"/>
<path d="M83.4201 10.66C83.4201 10.52 83.4001 10.38 83.4101 10.24C83.3901 10.38 83.3701 10.52 83.3501 10.66C83.3701 10.51 83.4001 10.34 83.4101 10.19C83.4201 9.97 83.3701 9.77002 83.2701 9.58002C83.2101 9.38002 83.1001 9.21001 82.9401 9.07001C82.8001 8.92001 82.6301 8.80999 82.4301 8.73999C82.2401 8.63999 82.0401 8.59998 81.8201 8.59998C81.4101 8.61998 80.9801 8.75 80.7001 9.06C80.6201 9.17 80.5301 9.27 80.4501 9.38C80.3101 9.63 80.2301 9.88999 80.2301 10.18C80.2301 10.19 80.2301 10.2 80.2301 10.21C80.2501 10.07 80.2701 9.92998 80.2901 9.78998C80.2601 9.99998 80.2201 10.2 80.2301 10.4C80.2401 10.49 80.2401 10.57 80.2401 10.65C80.2301 10.87 80.2801 11.07 80.3801 11.26C80.4401 11.46 80.5501 11.63 80.7101 11.77C80.8501 11.92 81.0201 12.03 81.2201 12.1C81.4101 12.2 81.6101 12.24 81.8301 12.24C82.2401 12.22 82.6701 12.09 82.9501 11.78C83.2401 11.47 83.4101 11.09 83.4201 10.66Z" fill="#EA5457"/>
<path d="M83.4401 5.27002C83.4401 5.23002 83.4401 5.19997 83.4401 5.15997C83.4201 5.29997 83.4001 5.44002 83.3801 5.58002C83.3801 5.57002 83.3801 5.55999 83.3901 5.54999C83.4101 5.40999 83.4301 5.27 83.4501 5.13C83.4501 5.12 83.4501 5.11999 83.4501 5.10999C83.4601 4.88999 83.4101 4.69 83.3101 4.5C83.2501 4.3 83.1401 4.12999 82.9801 3.98999C82.8401 3.83999 82.6701 3.72997 82.4701 3.65997C82.2801 3.55997 82.0801 3.52002 81.8601 3.52002C81.7201 3.54002 81.5801 3.56002 81.4401 3.58002C81.1701 3.66002 80.9401 3.78999 80.7401 3.98999C80.6601 4.09999 80.5701 4.2 80.4901 4.31C80.3501 4.56 80.2701 4.81999 80.2701 5.10999C80.2701 5.11999 80.2701 5.12 80.2701 5.13C80.2901 4.99 80.3101 4.85002 80.3301 4.71002C80.2901 4.90002 80.2701 5.08002 80.2701 5.27002C80.2601 5.49002 80.3101 5.69 80.4101 5.88C80.4701 6.08 80.5801 6.25001 80.7401 6.39001C80.8801 6.54001 81.0501 6.64997 81.2501 6.71997C81.4401 6.81997 81.6401 6.85999 81.8601 6.85999C82.0001 6.83999 82.1401 6.81999 82.2801 6.79999C82.5501 6.71999 82.7801 6.59001 82.9801 6.39001C83.0601 6.28001 83.1501 6.18001 83.2301 6.07001C83.3701 5.83001 83.4401 5.56002 83.4401 5.27002Z" fill="#EA5457"/>
<path d="M87.5899 17.22C87.5899 17.15 87.5899 17.0901 87.5899 17.0201C87.5699 17.1601 87.5499 17.3001 87.5299 17.4401C87.5599 17.2601 87.5899 17.09 87.5999 16.91C87.6099 16.69 87.5599 16.49 87.4599 16.3C87.3999 16.1 87.2899 15.93 87.1299 15.79C86.9899 15.64 86.8199 15.5301 86.6199 15.4601C86.4299 15.3601 86.23 15.3201 86.01 15.3201C85.87 15.3401 85.7299 15.3601 85.5899 15.3801C85.3199 15.4601 85.09 15.59 84.89 15.79C84.81 15.9 84.72 16 84.64 16.11C84.5 16.36 84.42 16.62 84.42 16.91C84.42 16.93 84.4199 16.95 84.4099 16.98C84.4299 16.84 84.4499 16.7001 84.4699 16.5601C84.4399 16.7901 84.3999 17 84.3999 17.22C84.3899 17.44 84.44 17.6401 84.54 17.8301C84.6 18.0301 84.7099 18.2001 84.8699 18.3401C85.0099 18.4901 85.1799 18.6 85.3799 18.67C85.5699 18.77 85.7699 18.8101 85.9899 18.8101C86.1299 18.7901 86.2699 18.7701 86.4099 18.7501C86.6799 18.6701 86.9099 18.5401 87.1099 18.3401C87.1899 18.2301 87.2799 18.1301 87.3599 18.0201C87.5199 17.7801 87.5899 17.51 87.5899 17.22Z" fill="#EA5457"/>
<path d="M87.41 22.44C87.41 22.3 87.4 22.16 87.41 22.02C87.39 22.16 87.37 22.3 87.35 22.44C87.39 22.27 87.4 22.11 87.42 21.94C87.43 21.72 87.38 21.52 87.28 21.33C87.22 21.13 87.11 20.96 86.95 20.82C86.81 20.67 86.64 20.56 86.44 20.49C86.25 20.39 86.05 20.35 85.83 20.35C85.42 20.37 84.99 20.5 84.71 20.81C84.63 20.92 84.54 21.02 84.46 21.13C84.32 21.38 84.24 21.64 84.24 21.93C84.24 21.94 84.24 21.95 84.24 21.96C84.26 21.82 84.28 21.68 84.3 21.54C84.22 21.83 84.23 22.13 84.23 22.43C84.23 22.84 84.41 23.26 84.69 23.55C84.83 23.7 85 23.81 85.2 23.88C85.39 23.98 85.59 24.02 85.81 24.02C86.22 24 86.65 23.87 86.93 23.56C87.23 23.26 87.41 22.88 87.41 22.44Z" fill="#EA5457"/>
</svg>
