<svg width="573" height="230" viewBox="0 0 573 230" fill="none" xmlns="http://www.w3.org/2000/svg">
	<path d="M50 100C77.6142 100 100 77.6142 100 50C100 22.3858 77.6142 0 50 0C22.3858 0 0 22.3858 0 50C0 77.6142 22.3858 100 50 100Z" fill="#EA5457" />
	<path d="M207.5 1C234.52 1 256.5 22.98 256.5 50C256.5 77.02 234.52 99 207.5 99C180.48 99 158.5 77.02 158.5 50C158.5 22.98 180.48 1 207.5 1ZM207.5 0C179.89 0 157.5 22.39 157.5 50C157.5 77.61 179.89 100 207.5 100C235.11 100 257.5 77.61 257.5 50C257.5 22.39 235.11 0 207.5 0Z" fill="#EA5457" />
	<path d="M365 1C392.02 1 414 22.98 414 50C414 77.02 392.02 99 365 99C337.98 99 316 77.02 316 50C316 22.98 337.98 1 365 1ZM365 0C337.39 0 315 22.39 315 50C315 77.61 337.39 100 365 100C392.61 100 415 77.61 415 50C415 22.39 392.61 0 365 0Z" fill="#EA5457" />
	<path d="M522.5 1C549.52 1 571.5 22.98 571.5 50C571.5 77.02 549.52 99 522.5 99C495.48 99 473.5 77.02 473.5 50C473.5 22.98 495.48 1 522.5 1ZM522.5 0C494.89 0 472.5 22.39 472.5 50C472.5 77.61 494.89 100 522.5 100C550.11 100 572.5 77.61 572.5 50C572.5 22.39 550.11 0 522.5 0Z" fill="#EA5457" />
	<path d="M487.15 51.15V49.05C489.92 49.02 491.83 48.01 491.83 46.38V46.11H487.15V44.05H494.26V45.98C494.26 49.48 491.24 51.15 487.15 51.15ZM498.75 53.83V55.96H487.8V51.74H490.23V53.83H498.75ZM496.22 50.32H494.36V48.2H496.22V47.25H494.82V45.13H496.22V43.9H498.58V52.83H496.22V50.32Z" fill="#EA5457" />
	<path d="M500.66 51.05V48.91C502.28 48.8 503.3 47.47 503.5 46.06H500.83V44.06H508.51V46.06H505.91C505.88 46.43 505.81 46.78 505.7 47.13L508.99 49.23L507.73 50.95L504.72 48.97C503.79 50.16 502.36 51.01 500.66 51.05ZM501.31 51.64H512.15V56.1H509.72V53.69H501.31V51.64ZM512.14 43.91V51.22H509.76V48.45H508.17V46.4H509.76V43.9H512.14V43.91Z" fill="#EA5457" />
	<path d="M519.17 48.58L522.67 54.11L520.62 55.38L518.35 51.57C517.38 54.01 515.85 55.38 514.02 55.39V52.91C515.87 52.7 517.08 49.19 517.08 44.15L519.51 44.23C519.51 45.83 519.39 47.28 519.17 48.58ZM525.73 43.91V55.96H523.35V50.03H520.81V47.8H523.35V43.91H525.73Z" fill="#EA5457" />
	<path d="M531.76 51.3V49.14C533.38 49.01 534.4 47.62 534.61 46.08H531.93V44.05H539.61V46.08H537.01C536.98 46.46 536.91 46.84 536.8 47.21L540.13 49.51L538.79 51.2L535.86 49.1C534.92 50.36 533.48 51.26 531.76 51.3ZM543.42 53.83V55.96H532.47V51.74H534.9V53.83H543.42ZM540.87 46.48V43.91H543.25V52.84H540.87V48.55H539.26V46.48H540.87Z" fill="#EA5457" />
	<path d="M550.61 49.55H545.39V44.05H552.8V46H547.78V47.62H550.71C551.8 47.62 552.85 47.49 553.49 47.25V49.15C552.87 49.41 551.74 49.55 550.61 49.55ZM548.17 54.31H556.56V55.96H545.81V52.36H554.08V51.88H545.78V50.23H556.43V53.83H548.16V54.31H548.17ZM557.85 45.56V47.73H556.44V49.8H554.06V43.9H556.44V45.55H557.85V45.56Z" fill="#EA5457" />
	<path d="M346.35 46.79H338.52V44.97H341.38V43.9399H343.81V44.97H346.35V46.79ZM338.97 49.64C338.97 48 340.59 47.14 342.6 47.14C344.6 47.14 346.23 48 346.23 49.64C346.23 51.28 344.61 52.14 342.6 52.14C340.59 52.14 338.97 51.27 338.97 49.64ZM350.44 54.1299V56.2H339.49V52.4899H341.9V54.1299H350.44ZM341.23 49.64C341.23 50.06 341.74 50.4199 342.6 50.4199C343.46 50.4199 343.97 50.07 343.97 49.64C343.97 49.21 343.46 48.8599 342.6 48.8599C341.74 48.8599 341.23 49.22 341.23 49.64ZM347.93 51.2999H346.76V49.3099H347.93V48.29H346.76V46.2999H347.93V44.14H350.27V53.1299H347.93V51.2999Z" fill="#EA5457" />
	<path d="M352.28 50.71V48.62C353.83 48.54 354.86 47.41 355.1 46.26H352.45V44.28H360.13V46.26H357.52C357.51 46.49 357.45 46.71 357.39 46.94L360.55 48.69L359.44 50.45L356.43 48.71C355.5 49.84 354.03 50.67 352.28 50.71ZM363.57 53.65C363.57 55.65 361.17 56.34 358.14 56.34C355.11 56.34 352.71 55.65 352.71 53.65C352.71 51.65 355.11 50.96 358.14 50.96C361.17 50.95 363.57 51.64 363.57 53.65ZM361 53.65C361 53.09 359.73 52.86 358.14 52.86C356.55 52.86 355.28 53.09 355.28 53.65C355.28 54.23 356.55 54.44 358.14 54.44C359.73 54.44 361 54.22 361 53.65ZM364.86 46V48.27H363.45V50.78H361.07V44.15H363.45V46H364.86Z" fill="#EA5457" />
	<path d="M365.87 50.09V48.02C367.77 47.79 369.12 46.31 369.16 44.21L371.54 44.35C371.54 45.08 371.4 45.79 371.13 46.44L374.45 48.19L373.35 49.91L370.09 48.12C369.06 49.24 367.57 50.01 365.87 50.09ZM377.49 54.55V56.2H366.6V52.6H375.01V52.12H366.57V50.47H377.36V54.07H368.95V54.55H377.49ZM377.37 50.05H374.99V44.15H377.37V50.05Z" fill="#EA5457" />
	<path d="M391.48 49.96V51.85H379.29V49.96H391.48ZM385.06 48.24C383.71 49.03 381.76 49.5 379.7 49.52V47.67C381.44 47.63 383.26 47.22 384.06 46.5H379.91V44.68H384.17V43.66H386.6V44.68H390.86V46.5H386.75L386.62 46.77L391.18 47.79L390.62 49.58L385.06 48.24ZM379.94 52.49H390.78V56.34H388.37V54.36H379.95V52.49H379.94Z" fill="#EA5457" />
	<path d="M23.9399 51.15V49.05C26.7099 49.02 28.6199 48.01 28.6199 46.38V46.11H23.9399V44.05H31.0499V45.98C31.0499 49.48 28.0299 51.15 23.9399 51.15ZM35.5299 53.83V55.96H24.5799V51.74H27.0099V53.83H35.5299ZM33.0099 50.32H31.1499V48.2H33.0099V47.25H31.6099V45.13H33.0099V43.9H35.3699V52.83H33.0099V50.32Z" fill="#FFF6E9" />
	<path d="M37.4399 51.05V48.91C39.0599 48.8 40.0799 47.47 40.2799 46.06H37.6099V44.06H45.2899V46.06H42.6899C42.6599 46.43 42.5899 46.78 42.4799 47.13L45.7699 49.23L44.5099 50.95L41.4999 48.97C40.5699 50.16 39.1499 51.01 37.4399 51.05ZM38.0899 51.64H48.9299V56.1H46.4999V53.69H38.0899V51.64ZM48.9299 43.91V51.22H46.5499V48.45H44.9599V46.4H46.5499V43.9H48.9299V43.91Z" fill="#FFF6E9" />
	<path d="M62.9899 49.72V51.68H58.0899V53.32H55.6899V51.68H50.7899V49.72H62.9899ZM53.9399 53.98H62.4299V55.96H51.5099V52.39H53.9399V53.98ZM62.2599 49.02H51.5399V43.91H62.2599V49.02ZM59.8899 45.79H53.9099V47.14H59.8899V45.79Z" fill="#FFF6E9" />
	<path d="M69.7699 55.39H64.3799V53.16H69.8699C70.9799 53.16 72.2399 53.02 72.9899 52.68V54.88C72.2399 55.23 70.9699 55.39 69.7699 55.39ZM72.3899 47.9C72.3899 50.26 70.7799 51.81 68.5499 51.81C66.3099 51.81 64.6999 50.26 64.6999 47.9C64.6999 45.54 66.3099 43.99 68.5499 43.99C70.7799 44 72.3899 45.55 72.3899 47.9ZM66.9999 47.9C66.9999 48.93 67.5899 49.68 68.5499 49.68C69.4999 49.68 70.0999 48.93 70.0999 47.9C70.0999 46.88 69.4899 46.12 68.5499 46.12C67.5999 46.13 66.9999 46.89 66.9999 47.9ZM76.0599 55.96H73.6799V43.91H76.0599V55.96Z" fill="#FFF6E9" />
	<path d="M190.03 55.76H187.48V46.49H185.45V44.26H190.04V55.76H190.03Z" fill="#EA5457" />
	<path d="M195.19 47.2101C195.19 48.0101 194.6 48.6201 193.79 48.6201C192.97 48.6201 192.38 48.0101 192.38 47.2101C192.38 46.4101 192.97 45.8 193.79 45.8C194.6 45.8 195.19 46.4101 195.19 47.2101ZM195.19 52.8101C195.19 53.6101 194.6 54.2201 193.79 54.2201C192.97 54.2201 192.38 53.6101 192.38 52.8101C192.38 52.0101 192.97 51.4001 193.79 51.4001C194.6 51.4001 195.19 52.0101 195.19 52.8101Z" fill="#EA5457" />
	<path d="M200.87 55.76H198.32V46.49H196.29V44.26H200.88V55.76H200.87Z" fill="#EA5457" />
	<path d="M203.25 50.48V48.35C205.15 48.12 206.41 46.36 206.45 43.96L208.85 44.1C208.85 44.89 208.72 45.65 208.47 46.37L211.74 48.44L210.53 50.16L207.51 48.17C206.51 49.51 205.02 50.39 203.25 50.48ZM214.68 53.41C214.68 55.41 212.28 56.1 209.25 56.1C206.22 56.1 203.82 55.41 203.82 53.41C203.82 51.41 206.22 50.72 209.25 50.72C212.28 50.71 214.68 51.4 214.68 53.41ZM212.11 53.41C212.11 52.85 210.84 52.62 209.25 52.62C207.66 52.62 206.39 52.85 206.39 53.41C206.39 53.99 207.66 54.2 209.25 54.2C210.84 54.2 212.11 53.98 212.11 53.41ZM215.98 45.76V48.03H214.57V50.54H212.19V43.91H214.57V45.76H215.98Z" fill="#EA5457" />
	<path d="M222.32 50.06H217.1V44.05H224.51V46.01H219.49V48.1H222.42C223.51 48.1 224.56 47.96 225.2 47.71V49.64C224.57 49.91 223.44 50.06 222.32 50.06ZM217.5 50.85H228.14V55.96H217.5V50.85ZM219.89 54H225.76V52.81H219.89V54ZM229.55 48.23H228.14V50.43H225.76V43.91H228.14V45.91H229.55V48.23Z" fill="#EA5457" />
	<path d="M50 230C77.6142 230 100 207.614 100 180C100 152.386 77.6142 130 50 130C22.3858 130 0 152.386 0 180C0 207.614 22.3858 230 50 230Z" fill="#EA5457" />
	<path d="M207.5 131C234.52 131 256.5 152.98 256.5 180C256.5 207.02 234.52 229 207.5 229C180.48 229 158.5 207.02 158.5 180C158.5 152.99 180.48 131 207.5 131ZM207.5 130C179.89 130 157.5 152.39 157.5 180C157.5 207.61 179.89 230 207.5 230C235.11 230 257.5 207.61 257.5 180C257.5 152.39 235.11 130 207.5 130Z" fill="#EA5457" />
	<path d="M365 131C392.02 131 414 152.98 414 180C414 207.02 392.02 229 365 229C337.98 229 316 207.02 316 180C316 152.99 337.98 131 365 131ZM365 130C337.39 130 315 152.39 315 180C315 207.61 337.39 230 365 230C392.61 230 415 207.61 415 180C415 152.39 392.61 130 365 130Z" fill="#EA5457" />
	<path d="M522.5 131C549.52 131 571.5 152.98 571.5 180C571.5 207.02 549.52 229 522.5 229C495.48 229 473.5 207.02 473.5 180C473.5 152.99 495.48 131 522.5 131ZM522.5 130C494.89 130 472.5 152.39 472.5 180C472.5 207.61 494.89 230 522.5 230C550.11 230 572.5 207.61 572.5 180C572.5 152.39 550.11 130 522.5 130Z" fill="#EA5457" />
	<path d="M277.5 162.5L295 180L277.5 197.5" stroke="#EA5457" stroke-width="3" stroke-miterlimit="10" />
	<path d="M435 162.5L452.5 180L435 197.5" stroke="#EA5457" stroke-width="3" stroke-miterlimit="10" />
	<path d="M120 162.5L137.5 180L120 197.5" stroke="#EA5457" stroke-width="3" stroke-miterlimit="10" />
	<path d="M277.5 32.5L295 50L277.5 67.5" stroke="#EA5457" stroke-width="3" stroke-miterlimit="10" />
	<path d="M435 32.5L452.5 50L435 67.5" stroke="#EA5457" stroke-width="3" stroke-miterlimit="10" />
	<path d="M120 32.5L137.5 50L120 67.5" stroke="#EA5457" stroke-width="3" stroke-miterlimit="10" />
	<path d="M496.21 181.26V179.1C497.82 178.97 498.85 177.62 499.05 176.15H496.38V174.12H504.05V176.15H501.45C501.42 176.52 501.35 176.87 501.25 177.22L504.55 179.45L503.24 181.16L500.29 179.1C499.37 180.34 497.93 181.22 496.21 181.26ZM499.17 183.89H507.55V186.03H496.74V181.81H499.17V183.89ZM508.8 176.25V178.56H507.39V182.89H505V173.97H507.38V176.24H508.8V176.25Z" fill="#EA5457" />
	<path d="M521.83 180.39H509.64V178.44H521.83V180.39ZM521.07 177.99H518.66V175.94H510.35V173.98H521.07V177.99ZM521.13 186.03H510.35V181.11H521.13V186.03ZM518.77 184.17V182.97H512.7V184.17H518.77Z" fill="#EA5457" />
	<path d="M526.96 181.22C524.63 181.22 523.05 179.8 523.05 177.61C523.05 175.44 524.63 174 526.96 174C529.29 174 530.87 175.44 530.87 177.61C530.87 179.79 529.29 181.22 526.96 181.22ZM526.46 183.89H534.7V186.03H524.03V181.81H526.46V183.89ZM526.96 179.23C527.86 179.23 528.5 178.65 528.5 177.61C528.5 176.57 527.87 175.99 526.96 175.99C526.05 175.99 525.42 176.57 525.42 177.61C525.42 178.65 526.06 179.23 526.96 179.23ZM535.95 176.38V178.69H534.54V182.89H532.16V173.97H534.54V176.37H535.95V176.38Z" fill="#EA5457" />
	<path d="M539.98 183.36C540.93 183.36 542.05 183.22 542.79 182.95V185.04C542.07 185.34 540.79 185.46 539.77 185.46H537V174.23H539.33V183.36H539.98ZM548.79 173.98V186.03H546.56V180.67H545.56V185.82H543.36V174.04H545.56V178.41H546.56V173.98H548.79Z" fill="#EA5457" />
	<path d="M179.94 176.37H175.2V183.23H177.77C178.91 183.23 180.15 183.02 180.89 182.68V184.82C180.16 185.19 178.83 185.4 177.67 185.4H172.79V174.2H179.94V176.37ZM183.9 185.96H181.52V173.91H183.9V185.96Z" fill="#EA5457" />
	<path d="M191.02 179.4L194.46 183.94L192.57 185.34L190.2 182.08C189.23 184.18 187.72 185.38 185.91 185.4V183C187.67 182.8 188.83 180.25 188.92 176.38H186.25V174.19H193.84V176.38H191.31C191.29 177.47 191.19 178.48 191.02 179.4ZM198.55 180.63H197.14V185.96H194.76V173.91H197.14V178.31H198.55V180.63Z" fill="#EA5457" />
	<path d="M207.29 177.54C207.29 179.73 205.68 181.15 203.33 181.15C200.97 181.15 199.37 179.73 199.37 177.54C199.37 175.37 200.98 173.93 203.33 173.93C205.68 173.92 207.29 175.36 207.29 177.54ZM202.84 183.81H211.22V185.95H200.41V181.73H202.84V183.81ZM201.73 177.54C201.73 178.58 202.41 179.16 203.32 179.16C204.23 179.16 204.91 178.58 204.91 177.54C204.91 176.5 204.23 175.92 203.32 175.92C202.41 175.92 201.73 176.49 201.73 177.54ZM211.05 182.83H208.67V173.91H211.05V182.83Z" fill="#EA5457" />
	<path d="M217.07 180.91V178.76C218.68 178.65 219.69 177.39 219.91 176.05H217.24V174.05H224.91V176.05H222.31C222.28 176.39 222.21 176.73 222.11 177.05L225.36 179.07L224.13 180.81L221.12 178.89C220.2 180.05 218.77 180.87 217.07 180.91ZM217.55 181.5H228.24V186.1H225.81V183.55H217.54V181.5H217.55ZM229.65 178.28H228.24V181.07H225.86V173.9H228.24V175.99H229.65V178.28Z" fill="#EA5457" />
	<path d="M242.21 173.91V180.15H239.83V178.12H238C237.52 179.38 236.17 180.14 234.33 180.14C232.02 180.14 230.46 178.93 230.46 177.04C230.46 175.16 232.01 173.94 234.33 173.94C236.14 173.94 237.48 174.69 237.97 175.9H239.83V173.92H242.21V173.91ZM239.87 180.57H242.21V185.96H231.57V180.57H233.91V181.36H239.86V180.57H239.87ZM235.82 177.03C235.82 176.31 235.24 175.84 234.32 175.84C233.4 175.84 232.82 176.31 232.82 177.03C232.82 177.75 233.4 178.22 234.32 178.22C235.24 178.22 235.82 177.75 235.82 177.03ZM239.87 184.07V183.21H233.92V184.07H239.87Z" fill="#EA5457" />
	<path d="M30.3401 173.99H32.5301V185.77H30.3401V182.5H28.1101C27.1501 184.43 25.5601 185.39 23.8101 185.42V183.19C25.6001 183.05 26.7701 181.29 26.7701 177.9V176.36H23.8101V174.22H29.0401V176.49H30.3401V173.99ZM30.3401 180.28V178.7H29.0101C28.9801 179.26 28.9101 179.79 28.8301 180.28H30.3401ZM35.6301 173.93V185.98H33.4101V173.93H35.6301Z" fill="#FFF6E9" />
	<path d="M37.0701 177.4C37.0701 175.38 38.6401 173.94 40.9501 173.94C43.2601 173.94 44.8301 175.38 44.8301 177.4C44.8301 179.43 43.2601 180.86 40.9501 180.86C38.6301 180.86 37.0701 179.43 37.0701 177.4ZM37.9701 181.52H48.5201V186.12H46.0901V183.57H37.9601V181.52H37.9701ZM39.4401 177.4C39.4401 178.33 40.0501 178.9 40.9501 178.9C41.8401 178.9 42.4601 178.34 42.4601 177.4C42.4601 176.46 41.8401 175.9 40.9501 175.9C40.0401 175.91 39.4401 176.47 39.4401 177.4ZM48.5201 176.89V177.78H49.9301V179.8H48.5201V181.1H46.1401V173.93H48.5201V174.88H49.9301V176.9H48.5201V176.89Z" fill="#FFF6E9" />
	<path d="M57.51 173.99H59.71V185.77H57.51V184.22L55.66 185.28L54.14 182.68C53.43 184.43 52.31 185.36 50.78 185.42V183.15C51.95 183.01 52.68 180.82 52.73 177.44H50.97V175.31H52.73V173.9H54.99V175.31H56.74V177.44H54.99C54.98 178.29 54.93 179.08 54.83 179.8L57.51 184.13V180.76H56.2V178.52H57.51V173.99ZM62.78 173.93V185.98H60.55V173.93H62.78Z" fill="#FFF6E9" />
	<path d="M64.64 179.83V177.9C67.45 177.87 69.35 177.18 69.35 176.12V175.99H64.64V174.07H71.75V175.64C71.75 178.77 68.66 179.83 64.64 179.83ZM76.2 184.33V185.98H65.3V182.38H73.71V181.9H65.27V180.25H76.06V183.85H67.65V184.33H76.2ZM73.73 179.28H71.85V177.35H73.73V176.66H72.32V174.73H73.73V173.94H76.07V179.84H73.73V179.28Z" fill="#FFF6E9" />
	<path d="M334.53 173.97H336.73V185.75H334.53V184.23L332.75 185.22L331.2 182.4C330.49 184.33 329.35 185.35 327.8 185.41V183.08C329.01 182.91 329.76 180.39 329.8 176.36H328.04V174.2H333.75V176.36H332.06C332.05 177.43 331.99 178.42 331.89 179.31L334.53 183.88V180.45H333V178.21H334.54V173.97H334.53ZM339.8 173.91V185.96H337.57V173.91H339.8Z" fill="#EA5457" />
	<path d="M341.52 180.91V178.76C343.13 178.65 344.14 177.39 344.36 176.05H341.69V174.05H349.36V176.05H346.76C346.73 176.39 346.66 176.73 346.56 177.05L349.81 179.07L348.58 180.81L345.57 178.89C344.65 180.05 343.23 180.87 341.52 180.91ZM342 181.5H352.69V186.1H350.26V183.55H342V181.5ZM354.1 178.28H352.69V181.07H350.31V173.9H352.69V175.99H354.1V178.28Z" fill="#EA5457" />
	<path d="M366.78 179.69H359.3V174.05H366.78V179.69ZM370.36 186.1L365.03 184.7C363.68 185.6 361.67 185.96 359.67 185.96V184.01C361.43 184.01 363.13 183.67 363.9 182.87H359.79V180.95H363.95V180.13H366.38V180.95H370.56V182.87H366.51L366.38 183.17L370.97 184.19L370.36 186.1ZM364.42 175.98H361.65V177.76H364.42V175.98ZM370.56 180.39H368.18V173.91H370.56V180.39Z" fill="#EA5457" />
	<path d="M381.81 179.03L385.38 184L383.45 185.38L380.97 181.78C379.95 184.09 378.4 185.38 376.55 185.39V182.93C378.48 182.7 379.84 179.18 379.85 174.14L382.28 174.22C382.27 176.03 382.1 177.64 381.81 179.03ZM388.08 173.91V185.96H385.7V173.91H388.08Z" fill="#EA5457" />
	<path d="M402.19 178.52V180.42H390V178.52H393.98V176.73H396.38V178.52H402.19ZM401.6 183.57C401.6 185.39 399.34 186.1 396.1 186.1C392.86 186.1 390.6 185.39 390.6 183.57C390.6 181.75 392.86 181.04 396.1 181.04C399.34 181.05 401.6 181.75 401.6 183.57ZM399.03 175.84H390.71V173.91H401.43V177.96H399.03V175.84ZM399.06 183.57C399.06 183.09 397.85 182.85 396.1 182.85C394.35 182.85 393.14 183.09 393.14 183.57C393.14 184.06 394.35 184.29 396.1 184.29C397.85 184.29 399.06 184.07 399.06 183.57Z" fill="#EA5457" />
</svg>
