<svg width="738" height="193" viewBox="0 0 738 193" fill="none" xmlns="http://www.w3.org/2000/svg">
<path d="M37.0199 186.119C17.6599 186.119 7.31995 175.339 7.31995 162.139C7.31995 154.659 11.0599 146.959 21.8399 146.959C28.8799 146.959 34.1599 150.919 37.0199 159.939C38.3399 163.899 44.4999 161.919 43.1799 157.739C43.1799 157.519 42.9599 157.299 42.9599 156.859C50.8799 155.539 58.5799 150.919 64.0799 143.659C66.7199 140.359 61.4399 136.179 58.7999 139.699C53.9599 146.079 46.4799 150.039 39.6599 150.699C35.6999 144.539 29.3199 140.359 21.8399 140.359H20.5199L20.2999 140.139C14.7999 132.439 18.7599 109.779 34.5999 95.9194C37.6799 93.2794 33.5 88.2195 30.2 91.0795C28 93.0595 26.0199 95.0394 24.2599 97.2394C21.8399 96.1394 16.5599 89.9794 16.5599 82.0594C16.5599 68.1994 22.9399 55.4395 40.0999 55.4395C53.2999 55.4395 59.6799 61.8194 58.7999 81.8394V82.4995C56.1599 89.7595 53.7399 98.3394 51.5399 108.679C50.6599 112.639 57.26 114.399 58.14 109.999C68.04 62.6995 80.7999 55.4395 93.1199 55.4395C103.9 55.4395 108.74 62.0395 108.74 72.1595C108.74 86.8995 96.6399 108.019 82.9999 116.819C79.4799 119.239 82.9999 124.739 86.5199 122.539C88.2799 121.439 90.0399 119.899 91.7999 118.579C89.8199 150.919 74.4199 186.119 37.0199 186.119Z" fill="white"/>
<path d="M0.719971 162.14C0.719971 177.1 10.18 192.72 37.02 192.72C78.6 192.72 98.4 150.92 98.62 111.76C108.52 100.54 115.34 85.3599 115.34 72.1599C115.34 57.1999 106.54 48.8398 93.12 48.8398C82.56 48.8398 72.88 54.1198 64.74 69.0798C62.32 54.7798 53.96 48.8398 40.1 48.8398C19.86 48.8398 9.95996 64.2398 9.95996 82.0598C9.95996 91.7398 14.14 99.2198 20.3 102.52C11.5 115.94 8.85998 132 13.7 141.9C5.11998 145.2 0.719971 153.56 0.719971 162.14ZM83 116.82C79.48 119.24 83 124.74 86.52 122.54C88.28 121.44 90.04 119.9 91.8 118.58C89.82 150.92 74.42 186.12 37.02 186.12C17.66 186.12 7.31998 175.34 7.31998 162.14C7.31998 154.66 11.06 146.96 21.84 146.96C28.88 146.96 34.16 150.92 37.02 159.94C38.34 163.9 44.5 161.92 43.18 157.74C43.18 157.52 42.96 157.3 42.96 156.86C50.88 155.54 58.58 150.92 64.08 143.66C66.72 140.36 61.44 136.18 58.8 139.7C53.96 146.08 46.48 150.04 39.66 150.7C35.7 144.54 29.32 140.36 21.84 140.36H20.52L20.3 140.14C14.8 132.44 18.76 109.78 34.6 95.9198C37.68 93.2798 33.5 88.2198 30.2 91.0798C28 93.0598 26.02 95.0398 24.26 97.2398C21.84 96.1398 16.56 89.9798 16.56 82.0598C16.56 68.1998 22.94 55.4398 40.1 55.4398C53.3 55.4398 59.68 61.8198 58.8 81.8398V82.4998C56.16 89.7598 53.74 98.3398 51.54 108.68C50.66 112.64 57.26 114.4 58.14 110C68.04 62.6998 80.8 55.4398 93.12 55.4398C103.9 55.4398 108.74 62.0399 108.74 72.1599C108.74 86.8998 96.64 108.02 83 116.82Z" fill="#040000"/>
<path d="M116.66 159.059C96.6399 159.059 83.4399 145.419 83.4399 124.079C83.4399 92.8394 97.7399 73.4794 113.8 73.4794C121.28 73.4794 129.86 76.5594 129.86 89.7594C129.86 101.419 124.8 108.679 117.1 115.279C113.8 117.919 118.2 122.979 121.5 120.119C130.08 113.079 136.46 103.179 136.46 89.7594C136.46 71.2794 123.48 66.8795 113.8 66.8795C118.42 59.3995 127.44 55.4395 136.9 55.4395C155.38 55.4395 165.72 67.5394 165.72 90.4194C165.72 127.159 143.94 159.059 116.66 159.059Z" fill="white"/>
<path d="M76.84 124.08C76.84 150.26 94 165.66 116.66 165.66C144.82 165.66 172.32 135.08 172.32 90.4198C172.32 60.9398 157.14 48.8398 136.9 48.8398C124.36 48.8398 111.38 54.7799 105.88 67.3199C105.66 67.5399 105.66 67.7598 105.66 68.1998C88.06 73.4798 76.84 96.3598 76.84 124.08ZM117.1 115.28C113.8 117.92 118.2 122.98 121.5 120.12C130.08 113.08 136.46 103.18 136.46 89.7598C136.46 71.2798 123.48 66.8799 113.8 66.8799C118.42 59.3999 127.44 55.4398 136.9 55.4398C155.38 55.4398 165.72 67.5398 165.72 90.4198C165.72 127.16 143.94 159.06 116.66 159.06C96.64 159.06 83.44 145.42 83.44 124.08C83.44 92.8398 97.74 73.4798 113.8 73.4798C121.28 73.4798 129.86 76.5598 129.86 89.7598C129.86 101.42 124.8 108.68 117.1 115.28Z" fill="#040000"/>
<path d="M164.18 158.839C175.62 158.839 181.56 154.659 185.96 146.519C190.36 138.159 189.92 124.959 196.3 111.099C198.28 107.139 204.22 109.999 202.46 113.739C197.18 124.739 197.4 135.739 193.44 145.639C194.54 155.759 199.16 158.839 212.58 158.839C240.52 158.839 231.72 130.459 241.4 110.879C243.16 107.139 249.1 109.999 247.12 113.959C243.16 122.099 243.16 133.319 240.96 143.219C242.94 155.759 250.86 159.059 261.86 158.839C279.68 158.619 290.68 134.419 290.46 118.139C290.46 110.659 288.04 108.899 283.86 108.459C281 110.879 277.48 113.079 273.52 115.059C269.56 117.039 266.7 111.099 270.44 109.339C278.36 105.599 293.98 96.1394 293.98 73.4794C293.98 64.6794 288.48 55.4395 277.7 55.4395C268.02 55.4395 257.24 61.8195 249.98 82.4995C248.66 86.2395 243.16 84.6995 243.6 80.9595C246.24 61.5995 234.8 55.4395 227.76 55.4395C215.44 55.4395 208.18 62.6995 199.38 88.2195C198.28 91.7395 193 90.6394 193 87.1194C193 62.9194 189.7 55.4395 178.26 55.4395C161.32 55.4395 154.5 71.2795 154.5 85.7995C154.5 93.9395 160.88 97.2394 163.74 97.2394C166.6 97.2394 167.92 100.319 166.38 102.519C154.94 118.359 147.24 134.859 147.24 144.979C147.24 153.999 152.52 158.839 164.18 158.839Z" fill="white"/>
<path d="M164.18 158.84C152.52 158.84 147.24 154 147.24 144.98C147.24 134.86 154.94 118.36 166.38 102.52C167.92 100.32 166.6 97.2398 163.74 97.2398C160.88 97.2398 154.5 93.9398 154.5 85.7999C154.5 71.2799 161.32 55.4398 178.26 55.4398C189.7 55.4398 193 62.9198 193 87.1198C193 90.6398 198.28 91.7398 199.38 88.2198C208.18 62.6998 215.44 55.4398 227.76 55.4398C234.8 55.4398 246.24 61.5999 243.6 80.9599C243.16 84.6999 248.66 86.2398 249.98 82.4998C257.24 61.8198 268.02 55.4398 277.7 55.4398C288.48 55.4398 293.98 64.6798 293.98 73.4798C293.98 96.1398 278.36 105.6 270.44 109.34C266.7 111.1 269.56 117.04 273.52 115.06C277.48 113.08 281 110.88 283.86 108.46C288.04 108.9 290.46 110.66 290.46 118.14C290.68 134.42 279.68 158.62 261.86 158.84C250.86 159.06 242.94 155.76 240.96 143.22C243.16 133.32 243.16 122.1 247.12 113.96C249.1 110 243.16 107.14 241.4 110.88C231.72 130.46 240.52 158.84 212.58 158.84C199.16 158.84 194.54 155.76 193.44 145.64C197.4 135.74 197.18 124.74 202.46 113.74C204.22 110 198.28 107.14 196.3 111.1C189.92 124.96 190.36 138.16 185.96 146.52C181.56 154.66 175.62 158.84 164.18 158.84ZM140.64 144.98C140.64 156.64 147.68 165.44 164.18 165.44C175.4 165.44 183.76 160.6 189.26 153.56C192.56 161.7 200.48 165.44 212.58 165.44C226.44 165.44 233.48 160.6 237.44 153.34C242.5 162.58 251.96 165.66 261.86 165.44C285.84 165 297.28 135.52 297.06 118.14C296.84 110 293.98 105.6 289.36 103.18C297.06 94.8198 300.58 84.4798 300.58 73.4798C300.58 60.7198 291.56 48.8398 277.7 48.8398C267.8 48.8398 257.9 54.5598 250.42 66.4398C248.66 54.9999 241.84 48.8398 227.76 48.8398C215 48.8398 206.42 56.0998 199.38 70.6198C198.5 57.1998 194.54 48.8398 178.26 48.8398C159.56 48.8398 147.9 66.4398 147.9 85.7999C147.9 97.8998 153.18 101.86 158.02 103.18C147.68 118.36 140.64 133.1 140.64 144.98Z" fill="#040000"/>
<path d="M331.38 53.8995C327.42 50.8195 322.14 48.8395 314.88 48.8395C312.24 48.8395 309.38 49.0595 306.74 49.4995C303.22 47.2995 300.14 43.1195 300.14 37.1795C300.14 27.7195 308.28 20.0195 322.8 20.0195C337.32 20.0195 344.8 27.4995 344.8 36.7395C344.8 44.4395 340.84 50.5995 331.38 53.8995ZM298.6 158.84C287.16 158.84 278.14 151.8 278.14 136.18C278.14 124.96 288.04 103.18 297.5 92.1795C300.36 89.0995 295.52 84.4795 292.66 87.7795L289.36 91.7395C286.06 89.0995 284.3 86.0195 284.3 80.5195C284.3 64.2395 299.92 55.4395 314.88 55.4395C328.74 55.4395 332.48 63.7995 332.48 72.3795C332.48 83.8195 326.54 95.6995 309.38 113.74C306.52 116.6 311.14 121.44 314.22 118.14C316.86 115.5 319.28 112.86 321.26 110.44C326.1 108.68 330.5 110.22 330.5 116.16C330.5 137.06 316.42 158.84 298.6 158.84Z" fill="white"/>
<path d="M300.14 37.1799C300.14 27.7199 308.28 20.0199 322.8 20.0199C337.32 20.0199 344.8 27.4999 344.8 36.7399C344.8 44.4399 340.84 50.5999 331.38 53.8999C327.42 50.8199 322.14 48.8399 314.88 48.8399C312.24 48.8399 309.38 49.0599 306.74 49.4999C303.22 47.2999 300.14 43.1199 300.14 37.1799ZM271.54 136.18C271.54 157.52 284.96 165.44 298.6 165.44C322.58 165.44 337.1 138.38 337.1 116.16C337.1 107.8 332.48 104.06 326.54 103.84C335.34 92.3999 339.08 82.4999 339.08 72.3799C339.08 67.7599 337.98 63.1399 335.78 59.3999C345.9 54.9999 351.4 45.7599 351.4 36.7399C351.4 22.6599 338.64 13.4199 322.8 13.4199C306.96 13.4199 293.54 23.0999 293.54 37.1799C293.54 43.3399 295.96 48.1799 299.26 51.6999C286.72 56.5399 277.7 67.0999 277.7 80.5199C277.7 88.2199 281.44 93.4999 285.84 97.0199C277.92 109.12 271.54 124.96 271.54 136.18ZM309.38 113.74C306.52 116.6 311.14 121.44 314.22 118.14C316.86 115.5 319.28 112.86 321.26 110.44C326.1 108.68 330.5 110.22 330.5 116.16C330.5 137.06 316.42 158.84 298.6 158.84C287.16 158.84 278.14 151.8 278.14 136.18C278.14 124.96 288.04 103.18 297.5 92.1799C300.36 89.0999 295.52 84.4799 292.66 87.7799L289.36 91.7399C286.06 89.0999 284.3 86.0199 284.3 80.5199C284.3 64.2399 299.92 55.4399 314.88 55.4399C328.74 55.4399 332.48 63.7999 332.48 72.3799C332.48 83.8199 326.54 95.6999 309.38 113.74Z" fill="#040000"/>
<path d="M396.06 158.839C381.98 158.839 371.2 148.939 371.2 132.219C371.2 118.139 380.88 103.179 397.6 103.179C406.84 103.179 409.26 105.379 408.82 110.879C408.6 115.059 415.2 115.719 415.42 111.319C415.64 105.819 414.1 102.299 411.02 99.8795C416.08 96.7995 419.16 91.7394 420.92 87.1194C422.46 83.3794 416.3 80.7394 414.76 84.9194C411.9 91.9594 408.38 96.5794 399.36 96.5794C391.22 96.5794 385.72 91.0795 385.72 82.4995C385.72 60.7194 405.3 55.4395 421.58 55.4395C443.8 55.4395 454.8 63.5795 454.8 80.9595C454.8 89.7595 451.72 100.979 442.26 109.559C439.18 112.419 443.36 117.259 446.66 114.399C449.3 112.199 451.5 109.559 453.26 106.919C453.92 106.699 454.8 106.479 456.56 106.479C460.96 106.479 464.92 110.219 464.92 116.819C464.92 132.439 450.62 158.839 436.32 158.839C430.6 158.839 427.3 154.659 426.64 148.939V148.719C427.74 147.179 428.84 145.419 429.94 143.439C431.92 139.699 426.2 136.619 424.22 140.359C416.52 154.439 405.74 158.839 396.06 158.839Z" fill="white"/>
<path d="M364.6 132.22C364.6 153.78 379.34 165.44 396.06 165.44C404.42 165.44 413.66 162.36 421.36 154.88C423.78 160.82 429.06 165.44 436.32 165.44C457.44 165.44 471.52 133.32 471.52 116.82C471.52 103.4 463.38 100.1 457.44 99.8799C460.3 93.2799 461.4 86.6799 461.4 80.9599C461.4 61.3799 449.08 48.8398 421.58 48.8398C400.02 48.8398 379.12 59.3998 379.12 82.4998C379.12 89.7598 381.76 95.2598 386.16 98.7798C373.18 104.06 364.6 117.92 364.6 132.22ZM408.82 110.88C408.6 115.06 415.2 115.72 415.42 111.32C415.64 105.82 414.1 102.3 411.02 99.8799C416.08 96.7999 419.16 91.7398 420.92 87.1198C422.46 83.3798 416.3 80.7398 414.76 84.9198C411.9 91.9598 408.38 96.5798 399.36 96.5798C391.22 96.5798 385.72 91.0798 385.72 82.4998C385.72 60.7198 405.3 55.4398 421.58 55.4398C443.8 55.4398 454.8 63.5799 454.8 80.9599C454.8 89.7599 451.72 100.98 442.26 109.56C439.18 112.42 443.36 117.26 446.66 114.4C449.3 112.2 451.5 109.56 453.26 106.92C453.92 106.7 454.8 106.48 456.56 106.48C460.96 106.48 464.92 110.22 464.92 116.82C464.92 132.44 450.62 158.84 436.32 158.84C430.6 158.84 427.3 154.66 426.64 148.94V148.72C427.74 147.18 428.84 145.42 429.94 143.44C431.92 139.7 426.2 136.62 424.22 140.36C416.52 154.44 405.74 158.84 396.06 158.84C381.98 158.84 371.2 148.94 371.2 132.22C371.2 118.14 380.88 103.18 397.6 103.18C406.84 103.18 409.26 105.38 408.82 110.88Z" fill="#040000"/>
<path d="M453.7 158.84C447.54 158.84 444.24 154.22 444.24 148.5C444.24 134.64 459.86 77.8796 478.78 33.8796C480.32 29.9196 474.38 27.2796 472.62 31.2396C471.74 32.9996 471.08 34.9796 470.2 36.9596C460.74 32.7796 460.08 28.8196 460.08 25.5196C460.08 13.6396 477.02 6.59961 492.42 6.59961C505.84 6.59961 511.34 11.6596 511.34 19.7996C511.34 34.9796 502.76 48.6196 484.06 79.8596C484.06 80.0796 483.84 80.0796 483.84 80.2996C481.64 84.0396 487.36 87.5596 489.56 83.8196L490.66 82.0596C500.56 65.5596 510.46 55.4396 524.76 55.4396C539.06 55.4396 543.46 66.8796 543.46 82.0596C543.46 115.94 523 158.84 494.62 158.84C483.62 158.84 472.62 152.46 472.62 138.16C472.62 127.16 480.76 106.92 506.28 110.22C510.46 110.66 511.34 104.28 507.16 103.62C477.24 99.8796 466.02 119.68 466.02 138.16C466.02 142.12 466.68 145.42 467.78 148.5C463.16 156.2 458.54 158.84 453.7 158.84Z" fill="white"/>
<path d="M437.64 148.5C437.64 159.06 444.9 165.44 453.7 165.44C460.52 165.44 466.46 161.7 471.52 154.88C476.8 161.92 485.6 165.44 494.62 165.44C522.56 165.44 550.06 124.74 550.06 82.06C550.06 58.96 539.28 48.84 524.76 48.84C518.16 48.84 512.44 50.6 507.38 53.68C514.42 40.7 517.94 31.02 517.94 19.8C517.94 9.9 512.44 0 492.42 0C467.34 0 453.48 12.76 453.48 25.52C453.48 31.46 457.44 38.28 467.78 42.9C450.62 85.36 437.64 133.32 437.64 148.5ZM506.28 110.22C510.46 110.66 511.34 104.28 507.16 103.62C477.24 99.88 466.02 119.68 466.02 138.16C466.02 142.12 466.68 145.42 467.78 148.5C463.16 156.2 458.54 158.84 453.7 158.84C447.54 158.84 444.24 154.22 444.24 148.5C444.24 134.64 459.86 77.88 478.78 33.88C480.32 29.92 474.38 27.28 472.62 31.24C471.74 33 471.08 34.98 470.2 36.96C460.74 32.78 460.08 28.82 460.08 25.52C460.08 13.64 477.02 6.60001 492.42 6.60001C505.84 6.60001 511.34 11.66 511.34 19.8C511.34 34.98 502.76 48.62 484.06 79.86C484.06 80.08 483.84 80.08 483.84 80.3C481.64 84.04 487.36 87.56 489.56 83.82L490.66 82.06C500.56 65.56 510.46 55.44 524.76 55.44C539.06 55.44 543.46 66.88 543.46 82.06C543.46 115.94 523 158.84 494.62 158.84C483.62 158.84 472.62 152.46 472.62 138.16C472.62 127.16 480.76 106.92 506.28 110.22Z" fill="#040000"/>
<path d="M555.56 159.059C535.54 159.059 522.34 145.419 522.34 124.079C522.34 92.8394 536.64 73.4794 552.7 73.4794C560.18 73.4794 568.76 76.5594 568.76 89.7594C568.76 101.419 563.7 108.679 556 115.279C552.7 117.919 557.1 122.979 560.4 120.119C568.98 113.079 575.36 103.179 575.36 89.7594C575.36 71.2794 562.38 66.8795 552.7 66.8795C557.32 59.3995 566.34 55.4395 575.8 55.4395C594.28 55.4395 604.62 67.5394 604.62 90.4194C604.62 127.159 582.84 159.059 555.56 159.059Z" fill="white"/>
<path d="M515.74 124.08C515.74 150.26 532.9 165.66 555.56 165.66C583.72 165.66 611.22 135.08 611.22 90.4198C611.22 60.9398 596.04 48.8398 575.8 48.8398C563.26 48.8398 550.28 54.7799 544.78 67.3199C544.56 67.5399 544.56 67.7598 544.56 68.1998C526.96 73.4798 515.74 96.3598 515.74 124.08ZM556 115.28C552.7 117.92 557.1 122.98 560.4 120.12C568.98 113.08 575.36 103.18 575.36 89.7598C575.36 71.2798 562.38 66.8799 552.7 66.8799C557.32 59.3999 566.34 55.4398 575.8 55.4398C594.28 55.4398 604.62 67.5398 604.62 90.4198C604.62 127.16 582.84 159.06 555.56 159.06C535.54 159.06 522.34 145.42 522.34 124.08C522.34 92.8398 536.64 73.4798 552.7 73.4798C560.18 73.4798 568.76 76.5598 568.76 89.7598C568.76 101.42 563.7 108.68 556 115.28Z" fill="#040000"/>
<path d="M613.64 158.839C598.68 158.839 590.1 146.959 590.1 134.419C590.1 123.419 594.94 109.119 608.36 96.1395C611.44 93.2795 607.04 88.2195 603.96 91.2995C602.2 92.8395 600.66 94.5995 599.34 96.1395C596.7 93.9395 593.18 88.4394 593.18 82.0594C593.18 68.1994 599.56 55.4395 616.72 55.4395C629.92 55.4395 636.3 61.8194 635.42 81.6194C632.12 90.1994 629.04 100.759 626.18 112.859C625.3 116.819 631.68 118.579 632.78 114.179C642.68 71.9394 654.12 55.4395 670.4 55.4395C679.86 55.4395 684.04 61.3795 684.04 69.9595C684.04 80.2995 678.54 94.1594 667.54 107.359C664.68 110.659 669.74 115.059 672.38 111.759C673.92 109.999 675.24 108.239 676.56 106.479C680.96 106.699 684.7 110.219 684.7 116.819C684.7 132.439 670.4 158.839 656.1 158.839C650.82 158.839 646.86 154.879 645.76 148.719C647.08 146.739 648.4 144.759 649.5 142.339C651.48 138.599 645.76 135.299 643.78 139.259C636.08 153.999 625.96 158.839 613.64 158.839Z" fill="white"/>
<path d="M583.5 134.42C583.5 150.92 595.16 165.44 613.64 165.44C623.32 165.44 633 162.14 640.48 154.66C643.34 160.82 648.62 165.44 656.1 165.44C677.22 165.44 691.3 133.32 691.3 116.82C691.3 105.82 686.02 101.64 680.74 100.32C687.12 89.7599 690.64 79.1999 690.64 69.9599C690.64 56.5399 682.5 48.8398 670.4 48.8398C658.3 48.8398 648.84 55.4398 641.36 68.6398C638.94 54.5598 630.58 48.8398 616.72 48.8398C596.48 48.8398 586.58 64.2398 586.58 82.0598C586.58 90.6398 590.1 97.6799 595.16 101.42C586.8 112.86 583.5 124.52 583.5 134.42ZM608.36 96.1399C611.44 93.2799 607.04 88.2198 603.96 91.2999C602.2 92.8399 600.66 94.5999 599.34 96.1399C596.7 93.9399 593.18 88.4398 593.18 82.0598C593.18 68.1998 599.56 55.4398 616.72 55.4398C629.92 55.4398 636.3 61.8198 635.42 81.6198C632.12 90.1998 629.04 100.76 626.18 112.86C625.3 116.82 631.68 118.58 632.78 114.18C642.68 71.9398 654.12 55.4398 670.4 55.4398C679.86 55.4398 684.04 61.3799 684.04 69.9599C684.04 80.2999 678.54 94.1598 667.54 107.36C664.68 110.66 669.74 115.06 672.38 111.76C673.92 110 675.24 108.24 676.56 106.48C680.96 106.7 684.7 110.22 684.7 116.82C684.7 132.44 670.4 158.84 656.1 158.84C650.82 158.84 646.86 154.88 645.76 148.72C647.08 146.74 648.4 144.76 649.5 142.34C651.48 138.6 645.76 135.3 643.78 139.26C636.08 154 625.96 158.84 613.64 158.84C598.68 158.84 590.1 146.96 590.1 134.42C590.1 123.42 594.94 109.12 608.36 96.1399Z" fill="#040000"/>
<path d="M684.92 158.84C667.32 158.84 660.5 146.3 660.5 132.44C660.5 115.72 668.86 96.7995 678.98 88.6595C682.06 85.7995 678.1 80.7395 674.58 83.3795C673.04 84.6995 671.72 86.0195 670.18 87.5595C666.88 87.3395 663.14 84.0395 663.14 78.9795C663.14 62.2595 688.44 36.5195 706.7 36.5195C712.2 36.5195 717.7 38.2795 717.7 46.4195C717.7 55.2195 713.08 60.7195 705.6 65.5595C702.08 67.9795 705.6 73.4795 709.12 71.2795C713.74 68.4195 717.92 64.4595 720.78 59.6195C726.5 60.0595 730.68 62.0395 730.68 70.8395C730.68 84.0395 722.54 92.6195 713.08 92.6195C711.32 92.6195 707.36 92.1795 704.72 91.5195C702.96 91.2995 701.42 91.0795 700.76 94.1595C699.66 100.76 695.48 114.18 688.88 119.46C685.36 122.32 689.54 127.38 692.84 124.74C695.7 122.32 698.12 119.24 700.1 116.16C702.52 114.84 704.94 114.4 707.14 114.4C712.64 114.4 714.4 118.36 714.4 123.86C714.4 141.02 703.18 158.84 684.92 158.84Z" fill="white"/>
<path d="M660.5 132.44C660.5 115.72 668.86 96.7999 678.98 88.6599C682.06 85.7999 678.1 80.7399 674.58 83.3799C673.04 84.6999 671.72 86.0199 670.18 87.5599C666.88 87.3399 663.14 84.0399 663.14 78.9799C663.14 62.2599 688.44 36.5199 706.7 36.5199C712.2 36.5199 717.7 38.2799 717.7 46.4199C717.7 55.2199 713.08 60.7199 705.6 65.5599C702.08 67.9799 705.6 73.4799 709.12 71.2799C713.74 68.4199 717.92 64.4599 720.78 59.6199C726.5 60.0599 730.68 62.0399 730.68 70.8399C730.68 84.0399 722.54 92.6199 713.08 92.6199C711.32 92.6199 707.36 92.1799 704.72 91.5199C702.96 91.2999 701.42 91.0799 700.76 94.1599C699.66 100.76 695.48 114.18 688.88 119.46C685.36 122.32 689.54 127.38 692.84 124.74C695.7 122.32 698.12 119.24 700.1 116.16C702.52 114.84 704.94 114.4 707.14 114.4C712.64 114.4 714.4 118.36 714.4 123.86C714.4 141.02 703.18 158.84 684.92 158.84C666.66 158.84 660.5 146.3 660.5 132.44ZM653.9 132.44C653.9 149.82 663.8 165.44 684.92 165.44C706.04 165.44 721 145.86 721 123.86C721 113.52 715.28 107.8 707.14 107.8C705.82 107.8 704.72 108.02 703.84 108.24C705.16 104.72 706.04 101.42 706.7 98.7799C708.9 98.9999 711.32 99.2199 713.08 99.2199C724.3 99.2199 737.28 91.0799 737.28 70.8399C737.28 58.9599 730.46 54.5599 723.42 53.4599C724.08 51.2599 724.3 48.8399 724.3 46.4199C724.3 35.6399 716.6 29.9199 706.7 29.9199C683.16 29.9199 656.54 60.0599 656.54 78.9799C656.54 86.8999 660.94 91.5199 665.78 93.2799C658.52 104.06 653.9 118.58 653.9 132.44Z" fill="#040000"/>
</svg>
