<svg width="616" height="193" viewBox="0 0 616 193" fill="none" xmlns="http://www.w3.org/2000/svg">
<path d="M16.94 158.84C10.78 158.84 7.47998 154.22 7.47998 148.5C7.47998 134.64 23.1 77.8796 42.02 33.8796C43.56 29.9196 37.62 27.2796 35.86 31.2396C34.98 32.9996 34.32 34.9796 33.44 36.9596C23.98 32.7796 23.32 28.8196 23.32 25.5196C23.32 13.6396 40.26 6.59961 55.66 6.59961C69.08 6.59961 74.58 11.6596 74.58 19.7996C74.58 34.9796 66 48.6196 47.3 79.8596C47.3 80.0796 47.08 80.0796 47.08 80.2996C44.88 84.0396 50.6 87.5596 52.8 83.8196L53.9 82.0596C63.8 65.5596 73.7 55.4396 88 55.4396C102.3 55.4396 106.7 66.8796 106.7 82.0596C106.7 115.94 86.24 158.84 57.86 158.84C46.86 158.84 35.86 152.46 35.86 138.16C35.86 127.16 44 106.92 69.52 110.22C73.7 110.66 74.58 104.28 70.4 103.62C40.48 99.8796 29.26 119.68 29.26 138.16C29.26 142.12 29.92 145.42 31.02 148.5C26.4 156.2 21.78 158.84 16.94 158.84Z" fill="white"/>
<path d="M0.879883 148.5C0.879883 159.06 8.13988 165.44 16.9399 165.44C23.7599 165.44 29.6999 161.7 34.7599 154.88C40.0399 161.92 48.8399 165.44 57.8599 165.44C85.7999 165.44 113.3 124.74 113.3 82.06C113.3 58.96 102.52 48.84 87.9999 48.84C81.3999 48.84 75.6799 50.6 70.6199 53.68C77.6599 40.7 81.1799 31.02 81.1799 19.8C81.1799 9.9 75.6799 0 55.6599 0C30.5799 0 16.7199 12.76 16.7199 25.52C16.7199 31.46 20.6799 38.28 31.0199 42.9C13.8599 85.36 0.879883 133.32 0.879883 148.5ZM69.5199 110.22C73.6999 110.66 74.5799 104.28 70.3999 103.62C40.4799 99.88 29.2599 119.68 29.2599 138.16C29.2599 142.12 29.9199 145.42 31.0199 148.5C26.3999 156.2 21.7799 158.84 16.9399 158.84C10.7799 158.84 7.47989 154.22 7.47989 148.5C7.47989 134.64 23.0999 77.88 42.0199 33.88C43.5599 29.92 37.6199 27.28 35.8599 31.24C34.9799 33 34.3199 34.98 33.4399 36.96C23.9799 32.78 23.3199 28.82 23.3199 25.52C23.3199 13.64 40.2599 6.60001 55.6599 6.60001C69.0799 6.60001 74.5799 11.66 74.5799 19.8C74.5799 34.98 65.9999 48.62 47.2999 79.86C47.2999 80.08 47.0799 80.08 47.0799 80.3C44.8799 84.04 50.5999 87.56 52.7999 83.82L53.8999 82.06C63.7999 65.56 73.6999 55.44 87.9999 55.44C102.3 55.44 106.7 66.88 106.7 82.06C106.7 115.94 86.2399 158.84 57.8599 158.84C46.8599 158.84 35.8599 152.46 35.8599 138.16C35.8599 127.16 43.9999 106.92 69.5199 110.22Z" fill="#040000"/>
<path d="M108.24 158.839C94.3802 158.839 88.2202 153.559 88.2202 143.659C88.2202 133.759 95.0402 114.399 105.82 102.739C109.56 98.7794 103.18 97.2394 102.96 97.2394C102.96 97.2394 94.3802 96.1394 94.3802 84.4794C94.3802 77.6594 99.2202 55.4395 117.26 55.4395C129.36 55.4395 130.46 62.0395 130.02 82.7195C130.02 86.4595 135.3 87.3395 136.4 83.8195C143.66 62.9195 153.56 55.4395 161.26 55.4395C171.6 55.4395 175.34 60.2794 175.34 71.0594C175.34 87.5594 167.86 109.779 150.04 109.779C145.2 109.779 139.26 105.819 135.52 100.979C133.32 98.1195 129.14 100.319 129.58 103.619C131.12 111.979 131.78 117.699 131.78 124.739C131.78 131.339 130.68 141.459 128.7 146.519C124.52 156.859 119.02 158.839 108.24 158.839Z" fill="white"/>
<path d="M108.24 158.84C94.3801 158.84 88.2201 153.56 88.2201 143.66C88.2201 133.76 95.0401 114.4 105.82 102.74C109.56 98.7798 103.18 97.2398 102.96 97.2398C102.96 97.2398 94.3801 96.1398 94.3801 84.4798C94.3801 77.6598 99.2201 55.4398 117.26 55.4398C129.36 55.4398 130.46 62.0398 130.02 82.7198C130.02 86.4599 135.3 87.3399 136.4 83.8199C143.66 62.9199 153.56 55.4398 161.26 55.4398C171.6 55.4398 175.34 60.2798 175.34 71.0598C175.34 87.5598 167.86 109.78 150.04 109.78C145.2 109.78 139.26 105.82 135.52 100.98C133.32 98.1199 129.14 100.32 129.58 103.62C131.12 111.98 131.78 117.7 131.78 124.74C131.78 131.34 130.68 141.46 128.7 146.52C124.52 156.86 119.02 158.84 108.24 158.84ZM108.24 165.44C119.9 165.44 130.24 160.38 134.86 148.72C137.5 142.34 138.38 132.22 138.38 124.74C138.38 120.34 138.16 116.6 137.72 112.2C141.24 114.84 145.42 116.38 150.04 116.38C167.42 116.38 181.94 94.5998 181.94 71.0598C181.94 54.1198 173.8 48.8398 161.26 48.8398C151.8 48.8398 143.22 55.2198 136.18 67.9798C134.86 56.5398 130.46 48.8398 117.26 48.8398C92.6201 48.8398 87.7801 77.4398 87.7801 84.4798C87.7801 94.8198 92.8401 100.1 97.6801 102.3C87.5601 115.28 81.6201 132.66 81.6201 143.66C81.6201 155.76 88.6601 165.44 108.24 165.44Z" fill="#040000"/>
<path d="M174.24 158.839C160.16 158.839 149.38 148.939 149.38 132.219C149.38 118.139 159.06 103.179 175.78 103.179C185.02 103.179 187.44 105.379 187 110.879C186.78 115.059 193.38 115.719 193.6 111.319C193.82 105.819 192.28 102.299 189.2 99.8795C194.26 96.7995 197.34 91.7394 199.1 87.1194C200.64 83.3794 194.48 80.7394 192.94 84.9194C190.08 91.9594 186.56 96.5794 177.54 96.5794C169.4 96.5794 163.9 91.0795 163.9 82.4995C163.9 60.7194 183.48 55.4395 199.76 55.4395C221.98 55.4395 232.98 63.5795 232.98 80.9595C232.98 89.7595 229.9 100.979 220.44 109.559C217.36 112.419 221.54 117.259 224.84 114.399C227.48 112.199 229.68 109.559 231.44 106.919C232.1 106.699 232.98 106.479 234.74 106.479C239.14 106.479 243.1 110.219 243.1 116.819C243.1 132.439 228.8 158.839 214.5 158.839C208.78 158.839 205.48 154.659 204.82 148.939V148.719C205.92 147.179 207.02 145.419 208.12 143.439C210.1 139.699 204.38 136.619 202.4 140.359C194.7 154.439 183.92 158.839 174.24 158.839Z" fill="white"/>
<path d="M142.78 132.22C142.78 153.78 157.52 165.44 174.24 165.44C182.6 165.44 191.84 162.36 199.54 154.88C201.96 160.82 207.24 165.44 214.5 165.44C235.62 165.44 249.7 133.32 249.7 116.82C249.7 103.4 241.56 100.1 235.62 99.8799C238.48 93.2799 239.58 86.6799 239.58 80.9599C239.58 61.3799 227.26 48.8398 199.76 48.8398C178.2 48.8398 157.3 59.3998 157.3 82.4998C157.3 89.7598 159.94 95.2598 164.34 98.7798C151.36 104.06 142.78 117.92 142.78 132.22ZM187 110.88C186.78 115.06 193.38 115.72 193.6 111.32C193.82 105.82 192.28 102.3 189.2 99.8799C194.26 96.7999 197.34 91.7398 199.1 87.1198C200.64 83.3798 194.48 80.7398 192.94 84.9198C190.08 91.9598 186.56 96.5798 177.54 96.5798C169.4 96.5798 163.9 91.0798 163.9 82.4998C163.9 60.7198 183.48 55.4398 199.76 55.4398C221.98 55.4398 232.98 63.5799 232.98 80.9599C232.98 89.7599 229.9 100.98 220.44 109.56C217.36 112.42 221.54 117.26 224.84 114.4C227.48 112.2 229.68 109.56 231.44 106.92C232.1 106.7 232.98 106.48 234.74 106.48C239.14 106.48 243.1 110.22 243.1 116.82C243.1 132.44 228.8 158.84 214.5 158.84C208.78 158.84 205.48 154.66 204.82 148.94V148.72C205.92 147.18 207.02 145.42 208.12 143.44C210.1 139.7 204.38 136.62 202.4 140.36C194.7 154.44 183.92 158.84 174.24 158.84C160.16 158.84 149.38 148.94 149.38 132.22C149.38 118.14 159.06 103.18 175.78 103.18C185.02 103.18 187.44 105.38 187 110.88Z" fill="#040000"/>
<path d="M240.68 158.839C229.02 158.839 223.74 153.999 223.74 144.979C223.74 134.859 231.44 118.359 242.88 102.519C244.42 100.319 243.1 97.2394 240.24 97.2394C236.94 97.2394 231 93.9395 231 85.7995C231 78.7595 235.62 55.4395 255.86 55.4395C265.32 55.4395 270.38 60.0595 269.72 80.9595C269.72 82.9395 269.5 84.9194 269.5 86.8994C269.28 90.6394 274.78 91.7395 275.88 88.2195C284.46 62.9195 294.8 55.4395 308.44 55.4395C319 55.4395 325.38 63.5795 325.38 75.4595C325.38 87.3395 317.24 101.199 302.06 106.919C298.1 108.459 300.3 114.619 304.26 113.079C308 111.759 311.3 109.999 314.16 108.019C318.56 108.459 320.98 109.999 320.98 117.699C321.2 133.979 310.2 158.619 291.94 158.839C280.72 159.059 272.58 155.539 271.26 140.579C273.24 131.779 273.24 122.099 277.42 112.419C278.96 108.459 273.02 105.819 271.26 109.779C265.1 125.179 266.42 139.479 262.02 147.619C257.62 155.759 252.34 158.839 240.68 158.839Z" fill="white"/>
<path d="M217.14 144.98C217.14 156.64 224.18 165.44 240.68 165.44C253.22 165.44 262.02 160.38 267.08 151.8C271.7 162.36 281.38 165.66 291.94 165.44C316.36 165 327.8 135.08 327.58 117.7C327.36 109.78 324.5 105.16 320.1 102.96C327.8 95.2598 331.98 85.1399 331.98 75.4599C331.98 57.4199 321.2 48.8398 308.44 48.8398C295.68 48.8398 284.46 56.0998 276.32 71.0598C275.44 56.0998 270.6 48.8398 255.86 48.8398C229.02 48.8398 224.4 78.3199 224.4 85.7999C224.4 97.8998 229.68 101.86 234.3 103.18C224.18 118.36 217.14 133.1 217.14 144.98ZM302.06 106.92C298.1 108.46 300.3 114.62 304.26 113.08C308 111.76 311.3 110 314.16 108.02C318.56 108.46 320.98 110 320.98 117.7C321.2 133.98 310.2 158.62 291.94 158.84C280.72 159.06 272.58 155.54 271.26 140.58C273.24 131.78 273.24 122.1 277.42 112.42C278.96 108.46 273.02 105.82 271.26 109.78C265.1 125.18 266.42 139.48 262.02 147.62C257.62 155.76 252.34 158.84 240.68 158.84C229.02 158.84 223.74 154 223.74 144.98C223.74 134.86 231.44 118.36 242.88 102.52C244.42 100.32 243.1 97.2398 240.24 97.2398C236.94 97.2398 231 93.9398 231 85.7999C231 78.7598 235.62 55.4398 255.86 55.4398C265.32 55.4398 270.38 60.0599 269.72 80.9599C269.72 82.9399 269.5 84.9198 269.5 86.8998C269.28 90.6398 274.78 91.7398 275.88 88.2198C284.46 62.9198 294.8 55.4398 308.44 55.4398C319 55.4398 325.38 63.5799 325.38 75.4599C325.38 87.3399 317.24 101.2 302.06 106.92Z" fill="#040000"/>
<path d="M337.7 158.84C321.86 158.84 310.86 145.42 310.86 123.42C310.86 91.5196 332.42 55.4396 363.88 55.4396C373.12 55.4396 380.16 61.8196 380.16 72.1596C380.16 94.1596 362.12 100.1 349.36 102.74C345.18 103.62 346.5 110.22 350.68 109.34C363.44 106.7 386.76 98.9996 386.76 72.1596C386.76 64.2396 383.68 58.0796 379.06 54.1196L387.64 32.7796C389.18 28.8196 383.02 26.1796 381.48 30.1396L379.5 35.1996C373.78 31.8996 370.7 27.7196 370.7 23.9796C370.7 13.1996 387.86 6.59961 403.04 6.59961C415.36 6.59961 421.3 10.3396 421.3 19.5796C421.3 29.6996 408.76 64.0196 385.66 110.66C383.68 114.4 389.62 117.48 391.38 113.74C392.48 111.76 393.36 109.78 394.24 107.8C395.56 107.14 397.54 106.7 399.96 106.7C404.8 106.7 408.54 110 408.54 116.82C408.54 132.66 394.02 158.84 380.82 158.84C376.42 158.84 372.46 155.76 370.7 148.5C372.46 146.08 374.22 143.44 375.54 140.58C377.3 136.84 371.36 133.98 369.38 137.94C363.44 150.7 348.48 158.84 337.7 158.84Z" fill="white"/>
<path d="M304.26 123.42C304.26 153.34 320.54 165.44 337.7 165.44C347.16 165.44 357.72 161.26 365.86 153.56C368.28 160.6 373.34 165.44 380.82 165.44C400.62 165.44 415.14 133.76 415.14 116.82C415.14 103.4 406.56 100.1 399.96 100.1C399.3 100.1 398.64 100.1 397.98 100.32C417.34 60.06 427.9 31.9 427.9 19.58C427.9 8.14 421.08 0 403.04 0C376.42 0 364.1 12.76 364.1 23.98C364.1 31.46 369.38 37.4 376.86 41.36C375.76 44.44 374.44 47.52 373.12 50.6C370.26 49.5 367.18 48.84 363.88 48.84C331.54 48.84 304.26 85.36 304.26 123.42ZM349.36 102.74C345.18 103.62 346.5 110.22 350.68 109.34C363.44 106.7 386.76 99 386.76 72.16C386.76 64.24 383.68 58.08 379.06 54.12L387.64 32.78C389.18 28.82 383.02 26.18 381.48 30.14L379.5 35.2C373.78 31.9 370.7 27.72 370.7 23.98C370.7 13.2 387.86 6.60001 403.04 6.60001C415.36 6.60001 421.3 10.34 421.3 19.58C421.3 29.7 408.76 64.02 385.66 110.66C383.68 114.4 389.62 117.48 391.38 113.74C392.48 111.76 393.36 109.78 394.24 107.8C395.56 107.14 397.54 106.7 399.96 106.7C404.8 106.7 408.54 110 408.54 116.82C408.54 132.66 394.02 158.84 380.82 158.84C376.42 158.84 372.46 155.76 370.7 148.5C372.46 146.08 374.22 143.44 375.54 140.58C377.3 136.84 371.36 133.98 369.38 137.94C363.44 150.7 348.48 158.84 337.7 158.84C321.86 158.84 310.86 145.42 310.86 123.42C310.86 91.52 332.42 55.44 363.88 55.44C373.12 55.44 380.16 61.82 380.16 72.16C380.16 94.16 362.12 100.1 349.36 102.74Z" fill="#040000"/>
<path d="M439.34 53.8995C435.38 50.8195 430.1 48.8395 422.84 48.8395C420.2 48.8395 417.34 49.0595 414.7 49.4995C411.18 47.2995 408.1 43.1195 408.1 37.1795C408.1 27.7195 416.24 20.0195 430.76 20.0195C445.28 20.0195 452.76 27.4995 452.76 36.7395C452.76 44.4395 448.8 50.5995 439.34 53.8995ZM406.56 158.84C395.12 158.84 386.1 151.8 386.1 136.18C386.1 124.96 396 103.18 405.46 92.1795C408.32 89.0995 403.48 84.4795 400.62 87.7795L397.32 91.7395C394.02 89.0995 392.26 86.0195 392.26 80.5195C392.26 64.2395 407.88 55.4395 422.84 55.4395C436.7 55.4395 440.44 63.7995 440.44 72.3795C440.44 83.8195 434.5 95.6995 417.34 113.74C414.48 116.6 419.1 121.44 422.18 118.14C424.82 115.5 427.24 112.86 429.22 110.44C434.06 108.68 438.46 110.22 438.46 116.16C438.46 137.06 424.38 158.84 406.56 158.84Z" fill="white"/>
<path d="M408.1 37.1799C408.1 27.7199 416.24 20.0199 430.76 20.0199C445.28 20.0199 452.76 27.4999 452.76 36.7399C452.76 44.4399 448.8 50.5999 439.34 53.8999C435.38 50.8199 430.1 48.8399 422.84 48.8399C420.2 48.8399 417.34 49.0599 414.7 49.4999C411.18 47.2999 408.1 43.1199 408.1 37.1799ZM379.5 136.18C379.5 157.52 392.92 165.44 406.56 165.44C430.54 165.44 445.06 138.38 445.06 116.16C445.06 107.8 440.44 104.06 434.5 103.84C443.3 92.3999 447.04 82.4999 447.04 72.3799C447.04 67.7599 445.94 63.1399 443.74 59.3999C453.86 54.9999 459.36 45.7599 459.36 36.7399C459.36 22.6599 446.6 13.4199 430.76 13.4199C414.92 13.4199 401.5 23.0999 401.5 37.1799C401.5 43.3399 403.92 48.1799 407.22 51.6999C394.68 56.5399 385.66 67.0999 385.66 80.5199C385.66 88.2199 389.4 93.4999 393.8 97.0199C385.88 109.12 379.5 124.96 379.5 136.18ZM417.34 113.74C414.48 116.6 419.1 121.44 422.18 118.14C424.82 115.5 427.24 112.86 429.22 110.44C434.06 108.68 438.46 110.22 438.46 116.16C438.46 137.06 424.38 158.84 406.56 158.84C395.12 158.84 386.1 151.8 386.1 136.18C386.1 124.96 396 103.18 405.46 92.1799C408.32 89.0999 403.48 84.4799 400.62 87.7799L397.32 91.7399C394.02 89.0999 392.26 86.0199 392.26 80.5199C392.26 64.2399 407.88 55.4399 422.84 55.4399C436.7 55.4399 440.44 63.7999 440.44 72.3799C440.44 83.8199 434.5 95.6999 417.34 113.74Z" fill="#040000"/>
<path d="M443.96 158.839C432.3 158.839 427.02 153.999 427.02 144.979C427.02 134.859 434.72 118.359 446.16 102.519C447.7 100.319 446.38 97.2394 443.52 97.2394C440.22 97.2394 434.28 93.9395 434.28 85.7995C434.28 78.7595 438.9 55.4395 459.14 55.4395C468.6 55.4395 473.66 60.0595 473 80.9595C473 82.9395 472.78 84.9194 472.78 86.8994C472.56 90.6394 478.06 91.7395 479.16 88.2195C487.74 62.9195 498.08 55.4395 511.72 55.4395C522.28 55.4395 528.66 63.5795 528.66 75.4595C528.66 87.3395 520.52 101.199 505.34 106.919C501.38 108.459 503.58 114.619 507.54 113.079C511.28 111.759 514.58 109.999 517.44 108.019C521.84 108.459 524.26 109.999 524.26 117.699C524.48 133.979 513.48 158.619 495.22 158.839C484 159.059 475.86 155.539 474.54 140.579C476.52 131.779 476.52 122.099 480.7 112.419C482.24 108.459 476.3 105.819 474.54 109.779C468.38 125.179 469.7 139.479 465.3 147.619C460.9 155.759 455.62 158.839 443.96 158.839Z" fill="white"/>
<path d="M420.42 144.98C420.42 156.64 427.46 165.44 443.96 165.44C456.5 165.44 465.3 160.38 470.36 151.8C474.98 162.36 484.66 165.66 495.22 165.44C519.64 165 531.08 135.08 530.86 117.7C530.64 109.78 527.78 105.16 523.38 102.96C531.08 95.2598 535.26 85.1399 535.26 75.4599C535.26 57.4199 524.48 48.8398 511.72 48.8398C498.96 48.8398 487.74 56.0998 479.6 71.0598C478.72 56.0998 473.88 48.8398 459.14 48.8398C432.3 48.8398 427.68 78.3199 427.68 85.7999C427.68 97.8998 432.96 101.86 437.58 103.18C427.46 118.36 420.42 133.1 420.42 144.98ZM505.34 106.92C501.38 108.46 503.58 114.62 507.54 113.08C511.28 111.76 514.58 110 517.44 108.02C521.84 108.46 524.26 110 524.26 117.7C524.48 133.98 513.48 158.62 495.22 158.84C484 159.06 475.86 155.54 474.54 140.58C476.52 131.78 476.52 122.1 480.7 112.42C482.24 108.46 476.3 105.82 474.54 109.78C468.38 125.18 469.7 139.48 465.3 147.62C460.9 155.76 455.62 158.84 443.96 158.84C432.3 158.84 427.02 154 427.02 144.98C427.02 134.86 434.72 118.36 446.16 102.52C447.7 100.32 446.38 97.2398 443.52 97.2398C440.22 97.2398 434.28 93.9398 434.28 85.7999C434.28 78.7598 438.9 55.4398 459.14 55.4398C468.6 55.4398 473.66 60.0599 473 80.9599C473 82.9399 472.78 84.9198 472.78 86.8998C472.56 90.6398 478.06 91.7398 479.16 88.2198C487.74 62.9198 498.08 55.4398 511.72 55.4398C522.28 55.4398 528.66 63.5799 528.66 75.4599C528.66 87.3399 520.52 101.2 505.34 106.92Z" fill="#040000"/>
<path d="M538.12 186.119C518.98 186.119 507.54 174.459 507.54 161.699C507.54 154.659 510.62 146.519 521.18 146.519C526.46 146.519 533.06 148.499 536.14 158.399C537.24 162.579 543.62 160.599 542.3 156.639V156.419C552.2 155.099 561.66 149.159 565.62 141.679C567.6 137.939 561.88 134.859 559.9 138.599C557.7 142.559 547.58 149.379 539.22 150.039C534.82 142.999 527.78 140.139 521.84 139.919C518.54 135.739 515.68 129.359 515.68 120.999C515.68 91.5195 536.36 55.4395 567.38 55.4395C577.5 55.4395 581.9 60.4994 581.9 71.2794C581.9 87.5594 568.04 98.9995 549.34 100.319C545.16 100.539 545.38 107.139 549.78 106.919C570.68 105.599 588.5 91.9594 588.5 71.2794C588.5 67.5394 588.06 64.4595 587.18 61.5995C589.82 58.2995 594.66 55.4395 600.16 55.4395C607.2 55.4395 608.52 61.3795 608.52 66.6595C608.52 78.3195 601.04 100.979 579.26 114.399C575.74 116.819 579.04 122.319 582.78 120.119C585.64 118.359 588.28 116.379 590.7 114.179C588.94 163.239 563.86 186.119 538.12 186.119Z" fill="white"/>
<path d="M597.52 108.02V107.8C610.28 93.9398 615.12 77.4398 615.12 66.6599C615.12 55.8799 608.96 48.8398 600.16 48.8398C593.56 48.8398 587.84 51.4798 583.88 55.4398C580.14 50.8198 574.42 48.8398 567.38 48.8398C535.48 48.8398 509.08 85.7998 509.08 121C509.08 129.14 511.28 135.74 514.58 141.02C505.56 143.88 500.94 152.68 500.94 161.7C500.94 176.22 511.5 192.72 538.12 192.72C564.74 192.72 597.52 172.26 597.52 108.02ZM549.34 100.32C545.16 100.54 545.38 107.14 549.78 106.92C570.68 105.6 588.5 91.9598 588.5 71.2798C588.5 67.5398 588.06 64.4599 587.18 61.5999C589.82 58.2999 594.66 55.4398 600.16 55.4398C607.2 55.4398 608.52 61.3799 608.52 66.6599C608.52 78.3199 601.04 100.98 579.26 114.4C575.74 116.82 579.04 122.32 582.78 120.12C585.64 118.36 588.28 116.38 590.7 114.18C588.94 163.24 563.86 186.12 538.12 186.12C518.98 186.12 507.54 174.46 507.54 161.7C507.54 154.66 510.62 146.52 521.18 146.52C526.46 146.52 533.06 148.5 536.14 158.4C537.24 162.58 543.62 160.6 542.3 156.64V156.42C552.2 155.1 561.66 149.16 565.62 141.68C567.6 137.94 561.88 134.86 559.9 138.6C557.7 142.56 547.58 149.38 539.22 150.04C534.82 143 527.78 140.14 521.84 139.92C518.54 135.74 515.68 129.36 515.68 121C515.68 91.5198 536.36 55.4398 567.38 55.4398C577.5 55.4398 581.9 60.4998 581.9 71.2798C581.9 87.5598 568.04 98.9999 549.34 100.32Z" fill="#040000"/>
</svg>
