<svg width="480" height="137" viewBox="0 0 480 137" fill="none" xmlns="http://www.w3.org/2000/svg">
<path d="M39.8 129.84C19.78 129.84 7.45996 114.44 7.45996 91.1196C7.45996 64.9396 20.44 37.6596 43.98 29.9596C42.44 33.0396 41.56 36.7796 40.9 41.1796C40.46 45.3596 46.84 46.2396 47.5 42.0596C49.04 29.5196 51.68 25.5596 65.32 25.5596C82.7 25.5596 87.98 33.6996 87.98 44.0396C87.98 65.3796 76.32 80.5596 63.78 80.5596C57.62 80.5596 51.24 74.3996 51.24 65.8196C51.24 61.6396 44.64 61.4196 44.64 65.8196C44.64 80.5596 55.42 87.1596 63.78 87.1596C67.52 87.1596 71.04 86.2796 74.34 84.7396H74.56C75.88 84.7396 77.42 84.9596 77.42 89.5796C77.42 112.9 59.38 129.84 39.8 129.84Z" fill="white"/>
<path d="M0.859863 91.1199C0.859863 120.6 17.5799 136.44 39.7999 136.44C63.3399 136.44 83.7999 116.42 84.0199 89.5799C84.0199 84.9599 82.9199 81.8799 80.9399 80.1199C89.5199 72.2 94.5799 58.5599 94.5799 44.0399C94.5799 31.0599 87.5399 18.96 65.3199 18.96C58.9399 18.96 54.0999 20.2799 50.5799 22.4799C18.4599 27.32 0.859863 58.5599 0.859863 91.1199ZM51.2399 65.82C51.2399 61.64 44.6399 61.42 44.6399 65.82C44.6399 80.56 55.4199 87.16 63.7799 87.16C67.5199 87.16 71.0399 86.2799 74.3399 84.7399H74.5599C75.8799 84.7399 77.4199 84.9599 77.4199 89.5799C77.4199 112.9 59.3799 129.84 39.7999 129.84C20.2199 129.84 7.45987 114.44 7.45987 91.1199C7.45987 64.9399 20.4399 37.66 43.9799 29.96C42.4399 33.04 41.5599 36.7799 40.8999 41.1799C40.4599 45.3599 46.8399 46.24 47.4999 42.06C49.0399 29.52 51.6799 25.56 65.3199 25.56C82.6999 25.56 87.9799 33.6999 87.9799 44.0399C87.9799 65.3799 76.3199 80.56 63.7799 80.56C57.6199 80.56 51.2399 74.4 51.2399 65.82Z" fill="#040000"/>
<path d="M99.6399 130.059C79.6199 130.059 66.4199 116.419 66.4199 95.0794C66.4199 63.8394 80.7199 44.4794 96.7799 44.4794C104.26 44.4794 112.84 47.5594 112.84 60.7594C112.84 72.4194 107.78 79.6795 100.08 86.2794C96.7799 88.9194 101.18 93.9794 104.48 91.1194C113.06 84.0794 119.44 74.1794 119.44 60.7594C119.44 42.2794 106.46 37.8795 96.7799 37.8795C101.4 30.3995 110.42 26.4395 119.88 26.4395C138.36 26.4395 148.7 38.5394 148.7 61.4194C148.7 98.1595 126.92 130.059 99.6399 130.059Z" fill="white"/>
<path d="M59.8198 95.0798C59.8198 121.26 76.9798 136.66 99.6398 136.66C127.8 136.66 155.3 106.08 155.3 61.4198C155.3 31.9398 140.12 19.8398 119.88 19.8398C107.34 19.8398 94.3598 25.7799 88.8598 38.3199C88.6398 38.5399 88.6398 38.7598 88.6398 39.1998C71.0398 44.4798 59.8198 67.3598 59.8198 95.0798ZM100.08 86.2798C96.7798 88.9198 101.18 93.9798 104.48 91.1198C113.06 84.0798 119.44 74.1798 119.44 60.7598C119.44 42.2798 106.46 37.8799 96.7798 37.8799C101.4 30.3999 110.42 26.4398 119.88 26.4398C138.36 26.4398 148.7 38.5398 148.7 61.4198C148.7 98.1599 126.92 130.06 99.6398 130.06C79.6198 130.06 66.4198 116.42 66.4198 95.0798C66.4198 63.8398 80.7198 44.4798 96.7798 44.4798C104.26 44.4798 112.84 47.5598 112.84 60.7598C112.84 72.4198 107.78 79.6798 100.08 86.2798Z" fill="#040000"/>
<path d="M147.16 129.839C135.5 129.839 130.22 124.999 130.22 115.979C130.22 105.859 137.92 89.3594 149.36 73.5194C150.9 71.3194 149.58 68.2394 146.72 68.2394C143.42 68.2394 137.48 64.9395 137.48 56.7995C137.48 49.7595 142.1 26.4395 162.34 26.4395C171.8 26.4395 176.86 31.0595 176.2 51.9595C176.2 53.9395 175.98 55.9194 175.98 57.8994C175.76 61.6394 181.26 62.7395 182.36 59.2195C190.94 33.9195 201.28 26.4395 214.92 26.4395C225.48 26.4395 231.86 34.5795 231.86 46.4595C231.86 58.3395 223.72 72.1995 208.54 77.9195C204.58 79.4595 206.78 85.6194 210.74 84.0794C214.48 82.7594 217.78 80.9994 220.64 79.0194C225.04 79.4594 227.46 80.9995 227.46 88.6995C227.68 104.979 216.68 129.619 198.42 129.839C187.2 130.059 179.06 126.539 177.74 111.579C179.72 102.779 179.72 93.0995 183.9 83.4195C185.44 79.4595 179.5 76.8195 177.74 80.7794C171.58 96.1795 172.9 110.479 168.5 118.619C164.1 126.759 158.82 129.839 147.16 129.839Z" fill="white"/>
<path d="M123.62 115.98C123.62 127.64 130.66 136.44 147.16 136.44C159.7 136.44 168.5 131.38 173.56 122.8C178.18 133.36 187.86 136.66 198.42 136.44C222.84 136 234.28 106.08 234.06 88.6999C233.84 80.7799 230.98 76.1598 226.58 73.9598C234.28 66.2598 238.46 56.1399 238.46 46.4599C238.46 28.4199 227.68 19.8398 214.92 19.8398C202.16 19.8398 190.94 27.0998 182.8 42.0598C181.92 27.0998 177.08 19.8398 162.34 19.8398C135.5 19.8398 130.88 49.3199 130.88 56.7999C130.88 68.8998 136.16 72.8598 140.78 74.1798C130.66 89.3598 123.62 104.1 123.62 115.98ZM208.54 77.9199C204.58 79.4599 206.78 85.6198 210.74 84.0798C214.48 82.7598 217.78 80.9998 220.64 79.0198C225.04 79.4598 227.46 80.9999 227.46 88.6999C227.68 104.98 216.68 129.62 198.42 129.84C187.2 130.06 179.06 126.54 177.74 111.58C179.72 102.78 179.72 93.0999 183.9 83.4199C185.44 79.4599 179.5 76.8198 177.74 80.7798C171.58 96.1798 172.9 110.48 168.5 118.62C164.1 126.76 158.82 129.84 147.16 129.84C135.5 129.84 130.22 125 130.22 115.98C130.22 105.86 137.92 89.3598 149.36 73.5198C150.9 71.3198 149.58 68.2398 146.72 68.2398C143.42 68.2398 137.48 64.9398 137.48 56.7999C137.48 49.7598 142.1 26.4398 162.34 26.4398C171.8 26.4398 176.86 31.0599 176.2 51.9599C176.2 53.9399 175.98 55.9198 175.98 57.8998C175.76 61.6398 181.26 62.7398 182.36 59.2198C190.94 33.9198 201.28 26.4398 214.92 26.4398C225.48 26.4398 231.86 34.5799 231.86 46.4599C231.86 58.3399 223.72 72.1999 208.54 77.9199Z" fill="#040000"/>
<path d="M243.52 129.84C225.92 129.84 219.1 117.3 219.1 103.44C219.1 86.7195 227.46 67.7995 237.58 59.6595C240.66 56.7995 236.7 51.7395 233.18 54.3795C231.64 55.6995 230.32 57.0195 228.78 58.5595C225.48 58.3395 221.74 55.0395 221.74 49.9795C221.74 33.2595 247.04 7.51953 265.3 7.51953C270.8 7.51953 276.3 9.27952 276.3 17.4195C276.3 26.2195 271.68 31.7195 264.2 36.5595C260.68 38.9795 264.2 44.4795 267.72 42.2795C272.34 39.4195 276.52 35.4595 279.38 30.6195C285.1 31.0595 289.28 33.0395 289.28 41.8395C289.28 55.0395 281.14 63.6195 271.68 63.6195C269.92 63.6195 265.96 63.1795 263.32 62.5195C261.56 62.2995 260.02 62.0795 259.36 65.1595C258.26 71.7595 254.08 85.1795 247.48 90.4595C243.96 93.3195 248.14 98.3795 251.44 95.7395C254.3 93.3195 256.72 90.2395 258.7 87.1595C261.12 85.8395 263.54 85.3995 265.74 85.3995C271.24 85.3995 273 89.3595 273 94.8595C273 112.02 261.78 129.84 243.52 129.84Z" fill="white"/>
<path d="M219.1 103.44C219.1 86.7199 227.46 67.7999 237.58 59.6599C240.66 56.7999 236.7 51.7399 233.18 54.3799C231.64 55.6999 230.32 57.0199 228.78 58.5599C225.48 58.3399 221.74 55.0399 221.74 49.9799C221.74 33.2599 247.04 7.51993 265.3 7.51993C270.8 7.51993 276.3 9.27992 276.3 17.4199C276.3 26.2199 271.68 31.7199 264.2 36.5599C260.68 38.9799 264.2 44.4799 267.72 42.2799C272.34 39.4199 276.52 35.4599 279.38 30.6199C285.1 31.0599 289.28 33.0399 289.28 41.8399C289.28 55.0399 281.14 63.6199 271.68 63.6199C269.92 63.6199 265.96 63.1799 263.32 62.5199C261.56 62.2999 260.02 62.0799 259.36 65.1599C258.26 71.7599 254.08 85.1799 247.48 90.4599C243.96 93.3199 248.14 98.3799 251.44 95.7399C254.3 93.3199 256.72 90.2399 258.7 87.1599C261.12 85.8399 263.54 85.3999 265.74 85.3999C271.24 85.3999 273 89.3599 273 94.8599C273 112.02 261.78 129.84 243.52 129.84C225.26 129.84 219.1 117.3 219.1 103.44ZM212.5 103.44C212.5 120.82 222.4 136.44 243.52 136.44C264.64 136.44 279.6 116.86 279.6 94.8599C279.6 84.5199 273.88 78.7999 265.74 78.7999C264.42 78.7999 263.32 79.0199 262.44 79.2399C263.76 75.7199 264.64 72.4199 265.3 69.7799C267.5 69.9999 269.92 70.2199 271.68 70.2199C282.9 70.2199 295.88 62.0799 295.88 41.8399C295.88 29.9599 289.06 25.5599 282.02 24.4599C282.68 22.2599 282.9 19.8399 282.9 17.4199C282.9 6.63992 275.2 0.919922 265.3 0.919922C241.76 0.919922 215.14 31.0599 215.14 49.9799C215.14 57.8999 219.54 62.5199 224.38 64.2799C217.12 75.0599 212.5 89.5799 212.5 103.44Z" fill="#040000"/>
<path d="M286.86 129.839C272.78 129.839 262 119.939 262 103.219C262 89.1395 271.68 74.1794 288.4 74.1794C297.64 74.1794 300.06 76.3795 299.62 81.8795C299.4 86.0595 306 86.7195 306.22 82.3195C306.44 76.8195 304.9 73.2995 301.82 70.8795C306.88 67.7995 309.96 62.7394 311.72 58.1194C313.26 54.3794 307.1 51.7394 305.56 55.9194C302.7 62.9594 299.18 67.5794 290.16 67.5794C282.02 67.5794 276.52 62.0795 276.52 53.4995C276.52 31.7194 296.1 26.4395 312.38 26.4395C334.6 26.4395 345.6 34.5795 345.6 51.9595C345.6 60.7595 342.52 71.9794 333.06 80.5594C329.98 83.4194 334.16 88.2594 337.46 85.3994C340.1 83.1994 342.3 80.5595 344.06 77.9195C344.72 77.6995 345.6 77.4795 347.36 77.4795C351.76 77.4795 355.72 81.2195 355.72 87.8195C355.72 103.439 341.42 129.839 327.12 129.839C321.4 129.839 318.1 125.659 317.44 119.939V119.719C318.54 118.179 319.64 116.419 320.74 114.439C322.72 110.699 317 107.619 315.02 111.359C307.32 125.439 296.54 129.839 286.86 129.839Z" fill="white"/>
<path d="M255.4 103.22C255.4 124.78 270.14 136.44 286.86 136.44C295.22 136.44 304.46 133.36 312.16 125.88C314.58 131.82 319.86 136.44 327.12 136.44C348.24 136.44 362.32 104.32 362.32 87.8199C362.32 74.3999 354.18 71.0999 348.24 70.8799C351.1 64.2799 352.2 57.6799 352.2 51.9599C352.2 32.3799 339.88 19.8398 312.38 19.8398C290.82 19.8398 269.92 30.3998 269.92 53.4998C269.92 60.7598 272.56 66.2598 276.96 69.7798C263.98 75.0598 255.4 88.9198 255.4 103.22ZM299.62 81.8799C299.4 86.0599 306 86.7199 306.22 82.3199C306.44 76.8199 304.9 73.2999 301.82 70.8799C306.88 67.7999 309.96 62.7398 311.72 58.1198C313.26 54.3798 307.1 51.7398 305.56 55.9198C302.7 62.9598 299.18 67.5798 290.16 67.5798C282.02 67.5798 276.52 62.0798 276.52 53.4998C276.52 31.7198 296.1 26.4398 312.38 26.4398C334.6 26.4398 345.6 34.5799 345.6 51.9599C345.6 60.7599 342.52 71.9798 333.06 80.5598C329.98 83.4198 334.16 88.2598 337.46 85.3998C340.1 83.1998 342.3 80.5599 344.06 77.9199C344.72 77.6999 345.6 77.4799 347.36 77.4799C351.76 77.4799 355.72 81.2199 355.72 87.8199C355.72 103.44 341.42 129.84 327.12 129.84C321.4 129.84 318.1 125.66 317.44 119.94V119.72C318.54 118.18 319.64 116.42 320.74 114.44C322.72 110.7 317 107.62 315.02 111.36C307.32 125.44 296.54 129.84 286.86 129.84C272.78 129.84 262 119.94 262 103.22C262 89.1398 271.68 74.1798 288.4 74.1798C297.64 74.1798 300.06 76.3799 299.62 81.8799Z" fill="#040000"/>
<path d="M368.26 129.84C348.24 129.84 335.92 114.44 335.92 91.1196C335.92 64.9396 348.9 37.6596 372.44 29.9596C370.9 33.0396 370.02 36.7796 369.36 41.1796C368.92 45.3596 375.3 46.2396 375.96 42.0596C377.5 29.5196 380.14 25.5596 393.78 25.5596C411.16 25.5596 416.44 33.6996 416.44 44.0396C416.44 65.3796 404.78 80.5596 392.24 80.5596C386.08 80.5596 379.7 74.3996 379.7 65.8196C379.7 61.6396 373.1 61.4196 373.1 65.8196C373.1 80.5596 383.88 87.1596 392.24 87.1596C395.98 87.1596 399.5 86.2796 402.8 84.7396H403.02C404.34 84.7396 405.88 84.9596 405.88 89.5796C405.88 112.9 387.84 129.84 368.26 129.84Z" fill="white"/>
<path d="M329.32 91.1199C329.32 120.6 346.04 136.44 368.26 136.44C391.8 136.44 412.26 116.42 412.48 89.5799C412.48 84.9599 411.38 81.8799 409.4 80.1199C417.98 72.2 423.04 58.5599 423.04 44.0399C423.04 31.0599 416 18.96 393.78 18.96C387.4 18.96 382.56 20.2799 379.04 22.4799C346.92 27.32 329.32 58.5599 329.32 91.1199ZM379.7 65.82C379.7 61.64 373.1 61.42 373.1 65.82C373.1 80.56 383.88 87.16 392.24 87.16C395.98 87.16 399.5 86.2799 402.8 84.7399H403.02C404.34 84.7399 405.88 84.9599 405.88 89.5799C405.88 112.9 387.84 129.84 368.26 129.84C348.68 129.84 335.92 114.44 335.92 91.1199C335.92 64.9399 348.9 37.66 372.44 29.96C370.9 33.04 370.02 36.7799 369.36 41.1799C368.92 45.3599 375.3 46.24 375.96 42.06C377.5 29.52 380.14 25.56 393.78 25.56C411.16 25.56 416.44 33.6999 416.44 44.0399C416.44 65.3799 404.78 80.56 392.24 80.56C386.08 80.56 379.7 74.4 379.7 65.82Z" fill="#040000"/>
<path d="M426.78 129.84C409.18 129.84 402.36 117.3 402.36 103.44C402.36 86.7195 410.72 67.7995 420.84 59.6595C423.92 56.7995 419.96 51.7395 416.44 54.3795C414.9 55.6995 413.58 57.0195 412.04 58.5595C408.74 58.3395 405 55.0395 405 49.9795C405 33.2595 430.3 7.51953 448.56 7.51953C454.06 7.51953 459.56 9.27952 459.56 17.4195C459.56 26.2195 454.94 31.7195 447.46 36.5595C443.94 38.9795 447.46 44.4795 450.98 42.2795C455.6 39.4195 459.78 35.4595 462.64 30.6195C468.36 31.0595 472.54 33.0395 472.54 41.8395C472.54 55.0395 464.4 63.6195 454.94 63.6195C453.18 63.6195 449.22 63.1795 446.58 62.5195C444.82 62.2995 443.28 62.0795 442.62 65.1595C441.52 71.7595 437.34 85.1795 430.74 90.4595C427.22 93.3195 431.4 98.3795 434.7 95.7395C437.56 93.3195 439.98 90.2395 441.96 87.1595C444.38 85.8395 446.8 85.3995 449 85.3995C454.5 85.3995 456.26 89.3595 456.26 94.8595C456.26 112.02 445.04 129.84 426.78 129.84Z" fill="white"/>
<path d="M402.36 103.44C402.36 86.7199 410.72 67.7999 420.84 59.6599C423.92 56.7999 419.96 51.7399 416.44 54.3799C414.9 55.6999 413.58 57.0199 412.04 58.5599C408.74 58.3399 405 55.0399 405 49.9799C405 33.2599 430.3 7.51993 448.56 7.51993C454.06 7.51993 459.56 9.27992 459.56 17.4199C459.56 26.2199 454.94 31.7199 447.46 36.5599C443.94 38.9799 447.46 44.4799 450.98 42.2799C455.6 39.4199 459.78 35.4599 462.64 30.6199C468.36 31.0599 472.54 33.0399 472.54 41.8399C472.54 55.0399 464.4 63.6199 454.94 63.6199C453.18 63.6199 449.22 63.1799 446.58 62.5199C444.82 62.2999 443.28 62.0799 442.62 65.1599C441.52 71.7599 437.34 85.1799 430.74 90.4599C427.22 93.3199 431.4 98.3799 434.7 95.7399C437.56 93.3199 439.98 90.2399 441.96 87.1599C444.38 85.8399 446.8 85.3999 449 85.3999C454.5 85.3999 456.26 89.3599 456.26 94.8599C456.26 112.02 445.04 129.84 426.78 129.84C408.52 129.84 402.36 117.3 402.36 103.44ZM395.76 103.44C395.76 120.82 405.66 136.44 426.78 136.44C447.9 136.44 462.86 116.86 462.86 94.8599C462.86 84.5199 457.14 78.7999 449 78.7999C447.68 78.7999 446.58 79.0199 445.7 79.2399C447.02 75.7199 447.9 72.4199 448.56 69.7799C450.76 69.9999 453.18 70.2199 454.94 70.2199C466.16 70.2199 479.14 62.0799 479.14 41.8399C479.14 29.9599 472.32 25.5599 465.28 24.4599C465.94 22.2599 466.16 19.8399 466.16 17.4199C466.16 6.63992 458.46 0.919922 448.56 0.919922C425.02 0.919922 398.4 31.0599 398.4 49.9799C398.4 57.8999 402.8 62.5199 407.64 64.2799C400.38 75.0599 395.76 89.5799 395.76 103.44Z" fill="#040000"/>
</svg>
