<svg width="494" height="180" viewBox="0 0 494 180" fill="none" xmlns="http://www.w3.org/2000/svg">
<path d="M42.4001 145.84C21.2801 145.84 7.42017 130.88 7.42017 115.48C7.42017 105.36 12.9202 98.0996 23.4802 98.0996C34.0402 98.0996 39.1002 105.58 39.7602 114.16C39.9802 118.34 46.5801 118.12 46.3601 113.72C45.7001 104.26 39.1002 95.0196 29.2002 92.1596C22.6002 85.7796 20.8401 78.0796 20.8401 70.5996C20.8401 56.5196 31.8401 45.0796 46.3601 45.0796H48.7802C47.4602 47.7196 46.5802 51.0196 46.1402 54.5396C45.7002 58.7196 52.0801 59.5996 52.7401 55.4196C54.0601 44.4196 56.7001 41.5596 69.4601 41.5596C86.4001 41.5596 91.6801 50.5796 91.6801 60.9196C91.6801 76.5396 80.2402 86.6596 71.4402 86.6596C63.9602 86.6596 60.0001 81.1596 59.5602 73.8996C59.3401 69.7196 52.7401 69.9396 52.9601 74.3396C53.4001 83.7996 59.5602 93.2596 71.4402 93.2596H72.1002C76.7202 97.6596 79.1402 105.14 79.1402 113.28C79.1402 131.1 65.9401 145.84 42.4001 145.84Z" fill="white"/>
<path d="M0.820068 115.48C0.820068 133.08 15.5601 152.44 42.4001 152.44C71.6601 152.44 85.7401 133.3 85.7401 113.28C85.7401 105.14 83.54 97.44 79.36 91.72C89.7 87.54 98.2801 75.44 98.2801 60.92C98.2801 47.94 90.8 34.96 69.4601 34.96C62.6401 34.96 57.3601 36.5 53.6201 39.36C51.2001 38.7 49 38.4799 46.36 38.4799C27.88 38.4799 14.2401 53 14.2401 70.6C14.2401 77.64 16.6601 85.12 21.2801 91.5C8.52006 92.6 0.820068 102.5 0.820068 115.48ZM59.5601 73.8999C59.3401 69.7199 52.7401 69.9399 52.9601 74.34C53.4001 83.7999 59.5601 93.26 71.4401 93.26H72.1001C76.7201 97.66 79.1401 105.14 79.1401 113.28C79.1401 131.1 65.9401 145.84 42.4001 145.84C21.2801 145.84 7.42007 130.88 7.42007 115.48C7.42007 105.36 12.9201 98.1 23.4801 98.1C34.0401 98.1 39.1001 105.58 39.7601 114.16C39.9801 118.34 46.58 118.12 46.36 113.72C45.7 104.26 39.1001 95.02 29.2001 92.16C22.6001 85.78 20.8401 78.08 20.8401 70.6C20.8401 56.52 31.84 45.08 46.36 45.08H48.7801C47.4601 47.72 46.5801 51.0199 46.1401 54.5399C45.7001 58.7199 52.0801 59.6 52.7401 55.42C54.0601 44.42 56.7001 41.56 69.4601 41.56C86.4001 41.56 91.6801 50.58 91.6801 60.92C91.6801 76.54 80.2401 86.66 71.4401 86.66C63.9601 86.66 60.0001 81.16 59.5601 73.8999Z" fill="#040000"/>
<path d="M127.32 40.8995C123.36 37.8195 118.08 35.8395 110.82 35.8395C108.18 35.8395 105.32 36.0595 102.68 36.4995C99.1601 34.2995 96.0801 30.1195 96.0801 24.1795C96.0801 14.7195 104.22 7.01953 118.74 7.01953C133.26 7.01953 140.74 14.4995 140.74 23.7395C140.74 31.4395 136.78 37.5995 127.32 40.8995ZM94.5401 145.84C83.1001 145.84 74.0801 138.8 74.0801 123.18C74.0801 111.96 83.9801 90.1795 93.4401 79.1795C96.3001 76.0995 91.4601 71.4795 88.6001 74.7795L85.3001 78.7395C82.0001 76.0995 80.2401 73.0195 80.2401 67.5195C80.2401 51.2395 95.8601 42.4395 110.82 42.4395C124.68 42.4395 128.42 50.7995 128.42 59.3795C128.42 70.8195 122.48 82.6995 105.32 100.74C102.46 103.6 107.08 108.44 110.16 105.14C112.8 102.5 115.22 99.8595 117.2 97.4395C122.04 95.6795 126.44 97.2195 126.44 103.16C126.44 124.06 112.36 145.84 94.5401 145.84Z" fill="white"/>
<path d="M96.08 24.1799C96.08 14.7199 104.22 7.01993 118.74 7.01993C133.26 7.01993 140.74 14.4999 140.74 23.7399C140.74 31.4399 136.78 37.5999 127.32 40.8999C123.36 37.8199 118.08 35.8399 110.82 35.8399C108.18 35.8399 105.32 36.0599 102.68 36.4999C99.16 34.2999 96.08 30.1199 96.08 24.1799ZM67.48 123.18C67.48 144.52 80.9 152.44 94.54 152.44C118.52 152.44 133.04 125.38 133.04 103.16C133.04 94.7999 128.42 91.0599 122.48 90.8399C131.28 79.3999 135.02 69.4999 135.02 59.3799C135.02 54.7599 133.92 50.1399 131.72 46.3999C141.84 41.9999 147.34 32.7599 147.34 23.7399C147.34 9.65993 134.58 0.419922 118.74 0.419922C102.9 0.419922 89.48 10.0999 89.48 24.1799C89.48 30.3399 91.9 35.1799 95.2 38.6999C82.66 43.5399 73.64 54.0999 73.64 67.5199C73.64 75.2199 77.38 80.4999 81.78 84.0199C73.86 96.1199 67.48 111.96 67.48 123.18ZM105.32 100.74C102.46 103.6 107.08 108.44 110.16 105.14C112.8 102.5 115.22 99.8599 117.2 97.4399C122.04 95.6799 126.44 97.2199 126.44 103.16C126.44 124.06 112.36 145.84 94.54 145.84C83.1 145.84 74.08 138.8 74.08 123.18C74.08 111.96 83.98 90.1799 93.44 79.1799C96.3 76.0999 91.46 71.4799 88.6 74.7799L85.3 78.7399C82 76.0999 80.24 73.0199 80.24 67.5199C80.24 51.2399 95.86 42.4399 110.82 42.4399C124.68 42.4399 128.42 50.7999 128.42 59.3799C128.42 70.8199 122.48 82.6999 105.32 100.74Z" fill="#040000"/>
<path d="M140.96 173.119C121.82 173.119 110.38 161.459 110.38 148.699C110.38 141.659 113.46 133.519 124.02 133.519C129.3 133.519 135.9 135.499 138.98 145.399C140.08 149.579 146.46 147.599 145.14 143.639V143.419C155.04 142.099 164.5 136.159 168.46 128.679C170.44 124.939 164.72 121.859 162.74 125.599C160.54 129.559 150.42 136.379 142.06 137.039C137.66 129.999 130.62 127.139 124.68 126.919C121.38 122.739 118.52 116.359 118.52 107.999C118.52 78.5195 139.2 42.4395 170.22 42.4395C180.34 42.4395 184.74 47.4994 184.74 58.2794C184.74 74.5594 170.88 85.9995 152.18 87.3195C148 87.5395 148.22 94.1395 152.62 93.9195C173.52 92.5995 191.34 78.9594 191.34 58.2794C191.34 54.5394 190.9 51.4595 190.02 48.5995C192.66 45.2995 197.5 42.4395 203 42.4395C210.04 42.4395 211.36 48.3795 211.36 53.6595C211.36 65.3195 203.88 87.9794 182.1 101.399C178.58 103.819 181.88 109.319 185.62 107.119C188.48 105.359 191.12 103.379 193.54 101.179C191.78 150.239 166.7 173.119 140.96 173.119Z" fill="white"/>
<path d="M200.36 95.0198V94.7998C213.12 80.9398 217.96 64.4398 217.96 53.6599C217.96 42.8799 211.8 35.8398 203 35.8398C196.4 35.8398 190.68 38.4798 186.72 42.4398C182.98 37.8198 177.26 35.8398 170.22 35.8398C138.32 35.8398 111.92 72.7998 111.92 108C111.92 116.14 114.12 122.74 117.42 128.02C108.4 130.88 103.78 139.68 103.78 148.7C103.78 163.22 114.34 179.72 140.96 179.72C167.58 179.72 200.36 159.26 200.36 95.0198ZM152.18 87.3199C148 87.5399 148.22 94.1399 152.62 93.9199C173.52 92.5999 191.34 78.9598 191.34 58.2798C191.34 54.5398 190.9 51.4599 190.02 48.5999C192.66 45.2999 197.5 42.4398 203 42.4398C210.04 42.4398 211.36 48.3799 211.36 53.6599C211.36 65.3199 203.88 87.9798 182.1 101.4C178.58 103.82 181.88 109.32 185.62 107.12C188.48 105.36 191.12 103.38 193.54 101.18C191.78 150.24 166.7 173.12 140.96 173.12C121.82 173.12 110.38 161.46 110.38 148.7C110.38 141.66 113.46 133.52 124.02 133.52C129.3 133.52 135.9 135.5 138.98 145.4C140.08 149.58 146.46 147.6 145.14 143.64V143.42C155.04 142.1 164.5 136.16 168.46 128.68C170.44 124.94 164.72 121.86 162.74 125.6C160.54 129.56 150.42 136.38 142.06 137.04C137.66 130 130.62 127.14 124.68 126.92C121.38 122.74 118.52 116.36 118.52 108C118.52 78.5198 139.2 42.4398 170.22 42.4398C180.34 42.4398 184.74 47.4998 184.74 58.2798C184.74 74.5598 170.88 85.9999 152.18 87.3199Z" fill="#040000"/>
<path d="M204.54 145.839C192.88 145.839 187.6 140.999 187.6 131.979C187.6 121.859 195.3 105.359 206.74 89.5194C208.28 87.3194 206.96 84.2394 204.1 84.2394C200.8 84.2394 194.86 80.9395 194.86 72.7995C194.86 65.7595 199.48 42.4395 219.72 42.4395C229.18 42.4395 234.24 47.0595 233.58 67.9595C233.58 69.9395 233.36 71.9194 233.36 73.8994C233.14 77.6394 238.64 78.7395 239.74 75.2195C248.32 49.9195 258.66 42.4395 272.3 42.4395C282.86 42.4395 289.24 50.5795 289.24 62.4595C289.24 74.3395 281.1 88.1995 265.92 93.9195C261.96 95.4595 264.16 101.619 268.12 100.079C271.86 98.7594 275.16 96.9994 278.02 95.0194C282.42 95.4594 284.84 96.9995 284.84 104.699C285.06 120.979 274.06 145.619 255.8 145.839C244.58 146.059 236.44 142.539 235.12 127.579C237.1 118.779 237.1 109.099 241.28 99.4195C242.82 95.4595 236.88 92.8195 235.12 96.7794C228.96 112.179 230.28 126.479 225.88 134.619C221.48 142.759 216.2 145.839 204.54 145.839Z" fill="white"/>
<path d="M181 131.98C181 143.64 188.04 152.44 204.54 152.44C217.08 152.44 225.88 147.38 230.94 138.8C235.56 149.36 245.24 152.66 255.8 152.44C280.22 152 291.66 122.08 291.44 104.7C291.22 96.7799 288.36 92.1598 283.96 89.9598C291.66 82.2598 295.84 72.1399 295.84 62.4599C295.84 44.4199 285.06 35.8398 272.3 35.8398C259.54 35.8398 248.32 43.0998 240.18 58.0598C239.3 43.0998 234.46 35.8398 219.72 35.8398C192.88 35.8398 188.26 65.3199 188.26 72.7999C188.26 84.8998 193.54 88.8598 198.16 90.1798C188.04 105.36 181 120.1 181 131.98ZM265.92 93.9199C261.96 95.4599 264.16 101.62 268.12 100.08C271.86 98.7598 275.16 96.9998 278.02 95.0198C282.42 95.4598 284.84 96.9999 284.84 104.7C285.06 120.98 274.06 145.62 255.8 145.84C244.58 146.06 236.44 142.54 235.12 127.58C237.1 118.78 237.1 109.1 241.28 99.4199C242.82 95.4599 236.88 92.8198 235.12 96.7798C228.96 112.18 230.28 126.48 225.88 134.62C221.48 142.76 216.2 145.84 204.54 145.84C192.88 145.84 187.6 141 187.6 131.98C187.6 121.86 195.3 105.36 206.74 89.5198C208.28 87.3198 206.96 84.2398 204.1 84.2398C200.8 84.2398 194.86 80.9398 194.86 72.7999C194.86 65.7598 199.48 42.4398 219.72 42.4398C229.18 42.4398 234.24 47.0599 233.58 67.9599C233.58 69.9399 233.36 71.9198 233.36 73.8998C233.14 77.6398 238.64 78.7398 239.74 75.2198C248.32 49.9198 258.66 42.4398 272.3 42.4398C282.86 42.4398 289.24 50.5799 289.24 62.4599C289.24 74.3399 281.1 88.1999 265.92 93.9199Z" fill="#040000"/>
<path d="M292.54 145.839C278.46 145.839 267.68 135.939 267.68 119.219C267.68 105.139 277.36 90.1794 294.08 90.1794C303.32 90.1794 305.74 92.3795 305.3 97.8795C305.08 102.059 311.68 102.719 311.9 98.3195C312.12 92.8195 310.58 89.2995 307.5 86.8795C312.56 83.7995 315.64 78.7394 317.4 74.1194C318.94 70.3794 312.78 67.7394 311.24 71.9194C308.38 78.9594 304.86 83.5794 295.84 83.5794C287.7 83.5794 282.2 78.0795 282.2 69.4995C282.2 47.7194 301.78 42.4395 318.06 42.4395C340.28 42.4395 351.28 50.5795 351.28 67.9595C351.28 76.7595 348.2 87.9794 338.74 96.5594C335.66 99.4194 339.84 104.259 343.14 101.399C345.78 99.1994 347.98 96.5595 349.74 93.9195C350.4 93.6995 351.28 93.4795 353.04 93.4795C357.44 93.4795 361.4 97.2195 361.4 103.819C361.4 119.439 347.1 145.839 332.8 145.839C327.08 145.839 323.78 141.659 323.12 135.939V135.719C324.22 134.179 325.32 132.419 326.42 130.439C328.4 126.699 322.68 123.619 320.7 127.359C313 141.439 302.22 145.839 292.54 145.839Z" fill="white"/>
<path d="M261.08 119.22C261.08 140.78 275.82 152.44 292.54 152.44C300.9 152.44 310.14 149.36 317.84 141.88C320.26 147.82 325.54 152.44 332.8 152.44C353.92 152.44 368 120.32 368 103.82C368 90.3999 359.86 87.0999 353.92 86.8799C356.78 80.2799 357.88 73.6799 357.88 67.9599C357.88 48.3799 345.56 35.8398 318.06 35.8398C296.5 35.8398 275.6 46.3998 275.6 69.4998C275.6 76.7598 278.24 82.2598 282.64 85.7798C269.66 91.0598 261.08 104.92 261.08 119.22ZM305.3 97.8799C305.08 102.06 311.68 102.72 311.9 98.3199C312.12 92.8199 310.58 89.2999 307.5 86.8799C312.56 83.7999 315.64 78.7398 317.4 74.1198C318.94 70.3798 312.78 67.7398 311.24 71.9198C308.38 78.9598 304.86 83.5798 295.84 83.5798C287.7 83.5798 282.2 78.0798 282.2 69.4998C282.2 47.7198 301.78 42.4398 318.06 42.4398C340.28 42.4398 351.28 50.5799 351.28 67.9599C351.28 76.7599 348.2 87.9798 338.74 96.5598C335.66 99.4198 339.84 104.26 343.14 101.4C345.78 99.1998 347.98 96.5599 349.74 93.9199C350.4 93.6999 351.28 93.4799 353.04 93.4799C357.44 93.4799 361.4 97.2199 361.4 103.82C361.4 119.44 347.1 145.84 332.8 145.84C327.08 145.84 323.78 141.66 323.12 135.94V135.72C324.22 134.18 325.32 132.42 326.42 130.44C328.4 126.7 322.68 123.62 320.7 127.36C313 141.44 302.22 145.84 292.54 145.84C278.46 145.84 267.68 135.94 267.68 119.22C267.68 105.14 277.36 90.1798 294.08 90.1798C303.32 90.1798 305.74 92.3799 305.3 97.8799Z" fill="#040000"/>
<path d="M359.86 173.119C340.72 173.119 329.28 161.459 329.28 148.699C329.28 141.659 332.36 133.519 342.92 133.519C348.2 133.519 354.8 135.499 357.88 145.399C358.98 149.579 365.36 147.599 364.04 143.639V143.419C373.94 142.099 383.4 136.159 387.36 128.679C389.34 124.939 383.62 121.859 381.64 125.599C379.44 129.559 369.32 136.379 360.96 137.039C356.56 129.999 349.52 127.139 343.58 126.919C340.28 122.739 337.42 116.359 337.42 107.999C337.42 78.5195 358.1 42.4395 389.12 42.4395C399.24 42.4395 403.64 47.4994 403.64 58.2794C403.64 74.5594 389.78 85.9995 371.08 87.3195C366.9 87.5395 367.12 94.1395 371.52 93.9195C392.42 92.5995 410.24 78.9594 410.24 58.2794C410.24 54.5394 409.8 51.4595 408.92 48.5995C411.56 45.2995 416.4 42.4395 421.9 42.4395C428.94 42.4395 430.26 48.3795 430.26 53.6595C430.26 65.3195 422.78 87.9794 401 101.399C397.48 103.819 400.78 109.319 404.52 107.119C407.38 105.359 410.02 103.379 412.44 101.179C410.68 150.239 385.6 173.119 359.86 173.119Z" fill="white"/>
<path d="M419.26 95.0198V94.7998C432.02 80.9398 436.86 64.4398 436.86 53.6599C436.86 42.8799 430.7 35.8398 421.9 35.8398C415.3 35.8398 409.58 38.4798 405.62 42.4398C401.88 37.8198 396.16 35.8398 389.12 35.8398C357.22 35.8398 330.82 72.7998 330.82 108C330.82 116.14 333.02 122.74 336.32 128.02C327.3 130.88 322.68 139.68 322.68 148.7C322.68 163.22 333.24 179.72 359.86 179.72C386.48 179.72 419.26 159.26 419.26 95.0198ZM371.08 87.3199C366.9 87.5399 367.12 94.1399 371.52 93.9199C392.42 92.5999 410.24 78.9598 410.24 58.2798C410.24 54.5398 409.8 51.4599 408.92 48.5999C411.56 45.2999 416.4 42.4398 421.9 42.4398C428.94 42.4398 430.26 48.3799 430.26 53.6599C430.26 65.3199 422.78 87.9798 401 101.4C397.48 103.82 400.78 109.32 404.52 107.12C407.38 105.36 410.02 103.38 412.44 101.18C410.68 150.24 385.6 173.12 359.86 173.12C340.72 173.12 329.28 161.46 329.28 148.7C329.28 141.66 332.36 133.52 342.92 133.52C348.2 133.52 354.8 135.5 357.88 145.4C358.98 149.58 365.36 147.6 364.04 143.64V143.42C373.94 142.1 383.4 136.16 387.36 128.68C389.34 124.94 383.62 121.86 381.64 125.6C379.44 129.56 369.32 136.38 360.96 137.04C356.56 130 349.52 127.14 343.58 126.92C340.28 122.74 337.42 116.36 337.42 108C337.42 78.5198 358.1 42.4398 389.12 42.4398C399.24 42.4398 403.64 47.4998 403.64 58.2798C403.64 74.5598 389.78 85.9999 371.08 87.3199Z" fill="#040000"/>
<path d="M440.82 145.839C418.38 145.839 407.38 129.999 407.38 108.659C407.38 78.9595 426.96 42.4395 461.06 42.4395C478.44 42.4395 486.58 53.2194 486.58 68.3994C486.58 80.7194 481.08 93.9194 472.28 101.619C471.84 101.839 471.62 102.059 471.4 102.499C466.78 106.239 461.06 108.659 454.9 108.659C442.58 108.659 438.62 101.179 438.62 93.4795C438.62 89.2995 432.02 89.0795 432.02 93.4795C432.02 104.259 438.62 115.259 454.9 115.259C461.72 115.259 468.32 112.619 474.04 108.439C474.92 108.879 475.8 110.419 475.8 113.279C475.8 129.119 461.5 145.839 440.82 145.839Z" fill="white"/>
<path d="M400.78 108.66C400.78 134.84 415.74 152.44 440.82 152.44C465.9 152.44 482.4 131.76 482.4 113.28C482.4 109.1 480.86 106.24 478.88 104.26C487.46 95.4599 493.18 82.4798 493.18 68.3998C493.18 49.2598 481.52 35.8398 461.06 35.8398C425.64 35.8398 400.78 74.1199 400.78 108.66ZM438.62 93.4799C438.62 89.2999 432.02 89.0799 432.02 93.4799C432.02 104.26 438.62 115.26 454.9 115.26C461.72 115.26 468.32 112.62 474.04 108.44C474.92 108.88 475.8 110.42 475.8 113.28C475.8 129.12 461.5 145.84 440.82 145.84C418.38 145.84 407.38 130 407.38 108.66C407.38 78.9599 426.96 42.4398 461.06 42.4398C478.44 42.4398 486.58 53.2198 486.58 68.3998C486.58 80.7198 481.08 93.9198 472.28 101.62C471.84 101.84 471.62 102.06 471.4 102.5C466.78 106.24 461.06 108.66 454.9 108.66C442.58 108.66 438.62 101.18 438.62 93.4799Z" fill="#040000"/>
</svg>
